%TF.GenerationSoftware,KiCad,Pcbnew,(6.0.9)*%
%TF.CreationDate,2023-03-15T23:45:40+00:00*%
%TF.ProjectId,GTI_V5,4754495f-5635-42e6-9b69-6361645f7063,rev?*%
%TF.SameCoordinates,Original*%
%TF.FileFunction,Legend,Bot*%
%TF.FilePolarity,Positive*%
%FSLAX46Y46*%
G04 Gerber Fmt 4.6, Leading zero omitted, Abs format (unit mm)*
G04 Created by KiCad (PCBNEW (6.0.9)) date 2023-03-15 23:45:40*
%MOMM*%
%LPD*%
G01*
G04 APERTURE LIST*
%ADD10C,0.150000*%
%ADD11C,0.250000*%
%ADD12C,0.254000*%
%ADD13C,0.120000*%
%ADD14C,0.200000*%
G04 APERTURE END LIST*
D10*
X202261904Y-110392857D02*
X200738095Y-110392857D01*
X201500000Y-111154761D02*
X201500000Y-109630952D01*
D11*
X193571428Y-115434761D02*
X193571428Y-116863333D01*
X193666666Y-117149047D01*
X193857142Y-117339523D01*
X194142857Y-117434761D01*
X194333333Y-117434761D01*
X192619047Y-117244285D02*
X192523809Y-117339523D01*
X192619047Y-117434761D01*
X192714285Y-117339523D01*
X192619047Y-117244285D01*
X192619047Y-117434761D01*
X191000000Y-116387142D02*
X191666666Y-116387142D01*
X191666666Y-117434761D02*
X191666666Y-115434761D01*
X190714285Y-115434761D01*
X189666666Y-117434761D02*
X189857142Y-117339523D01*
X189952380Y-117244285D01*
X190047619Y-117053809D01*
X190047619Y-116482380D01*
X189952380Y-116291904D01*
X189857142Y-116196666D01*
X189666666Y-116101428D01*
X189380952Y-116101428D01*
X189190476Y-116196666D01*
X189095238Y-116291904D01*
X189000000Y-116482380D01*
X189000000Y-117053809D01*
X189095238Y-117244285D01*
X189190476Y-117339523D01*
X189380952Y-117434761D01*
X189666666Y-117434761D01*
X188428571Y-116101428D02*
X187666666Y-116101428D01*
X188142857Y-115434761D02*
X188142857Y-117149047D01*
X188047619Y-117339523D01*
X187857142Y-117434761D01*
X187666666Y-117434761D01*
X187000000Y-117434761D02*
X187000000Y-115434761D01*
X186142857Y-117434761D02*
X186142857Y-116387142D01*
X186238095Y-116196666D01*
X186428571Y-116101428D01*
X186714285Y-116101428D01*
X186904761Y-116196666D01*
X187000000Y-116291904D01*
X184428571Y-117339523D02*
X184619047Y-117434761D01*
X185000000Y-117434761D01*
X185190476Y-117339523D01*
X185285714Y-117149047D01*
X185285714Y-116387142D01*
X185190476Y-116196666D01*
X185000000Y-116101428D01*
X184619047Y-116101428D01*
X184428571Y-116196666D01*
X184333333Y-116387142D01*
X184333333Y-116577619D01*
X185285714Y-116768095D01*
X183476190Y-117434761D02*
X183476190Y-116101428D01*
X183476190Y-116482380D02*
X183380952Y-116291904D01*
X183285714Y-116196666D01*
X183095238Y-116101428D01*
X182904761Y-116101428D01*
X182238095Y-117434761D02*
X182238095Y-115434761D01*
X182238095Y-116196666D02*
X182047619Y-116101428D01*
X181666666Y-116101428D01*
X181476190Y-116196666D01*
X181380952Y-116291904D01*
X181285714Y-116482380D01*
X181285714Y-117053809D01*
X181380952Y-117244285D01*
X181476190Y-117339523D01*
X181666666Y-117434761D01*
X182047619Y-117434761D01*
X182238095Y-117339523D01*
X180619047Y-116101428D02*
X180142857Y-117434761D01*
X179666666Y-116101428D02*
X180142857Y-117434761D01*
X180333333Y-117910952D01*
X180428571Y-118006190D01*
X180619047Y-118101428D01*
X190190476Y-118750000D02*
X190380952Y-118654761D01*
X190666666Y-118654761D01*
X190952380Y-118750000D01*
X191142857Y-118940476D01*
X191238095Y-119130952D01*
X191333333Y-119511904D01*
X191333333Y-119797619D01*
X191238095Y-120178571D01*
X191142857Y-120369047D01*
X190952380Y-120559523D01*
X190666666Y-120654761D01*
X190476190Y-120654761D01*
X190190476Y-120559523D01*
X190095238Y-120464285D01*
X190095238Y-119797619D01*
X190476190Y-119797619D01*
X189523809Y-118654761D02*
X188380952Y-118654761D01*
X188952380Y-120654761D02*
X188952380Y-118654761D01*
X187714285Y-120654761D02*
X187714285Y-118654761D01*
X185428571Y-119321428D02*
X184952380Y-120654761D01*
X184476190Y-119321428D01*
X182761904Y-118654761D02*
X183714285Y-118654761D01*
X183809523Y-119607142D01*
X183714285Y-119511904D01*
X183523809Y-119416666D01*
X183047619Y-119416666D01*
X182857142Y-119511904D01*
X182761904Y-119607142D01*
X182666666Y-119797619D01*
X182666666Y-120273809D01*
X182761904Y-120464285D01*
X182857142Y-120559523D01*
X183047619Y-120654761D01*
X183523809Y-120654761D01*
X183714285Y-120559523D01*
X183809523Y-120464285D01*
X190428571Y-122065238D02*
X190333333Y-121970000D01*
X190142857Y-121874761D01*
X189666666Y-121874761D01*
X189476190Y-121970000D01*
X189380952Y-122065238D01*
X189285714Y-122255714D01*
X189285714Y-122446190D01*
X189380952Y-122731904D01*
X190523809Y-123874761D01*
X189285714Y-123874761D01*
X188047619Y-121874761D02*
X187857142Y-121874761D01*
X187666666Y-121970000D01*
X187571428Y-122065238D01*
X187476190Y-122255714D01*
X187380952Y-122636666D01*
X187380952Y-123112857D01*
X187476190Y-123493809D01*
X187571428Y-123684285D01*
X187666666Y-123779523D01*
X187857142Y-123874761D01*
X188047619Y-123874761D01*
X188238095Y-123779523D01*
X188333333Y-123684285D01*
X188428571Y-123493809D01*
X188523809Y-123112857D01*
X188523809Y-122636666D01*
X188428571Y-122255714D01*
X188333333Y-122065238D01*
X188238095Y-121970000D01*
X188047619Y-121874761D01*
X186619047Y-122065238D02*
X186523809Y-121970000D01*
X186333333Y-121874761D01*
X185857142Y-121874761D01*
X185666666Y-121970000D01*
X185571428Y-122065238D01*
X185476190Y-122255714D01*
X185476190Y-122446190D01*
X185571428Y-122731904D01*
X186714285Y-123874761D01*
X185476190Y-123874761D01*
X184809523Y-121874761D02*
X183571428Y-121874761D01*
X184238095Y-122636666D01*
X183952380Y-122636666D01*
X183761904Y-122731904D01*
X183666666Y-122827142D01*
X183571428Y-123017619D01*
X183571428Y-123493809D01*
X183666666Y-123684285D01*
X183761904Y-123779523D01*
X183952380Y-123874761D01*
X184523809Y-123874761D01*
X184714285Y-123779523D01*
X184809523Y-123684285D01*
D10*
X197095238Y-96166666D02*
X197095238Y-97000000D01*
X199095238Y-97000000D01*
X198142857Y-91583333D02*
X198142857Y-91000000D01*
X197095238Y-90750000D02*
X197095238Y-91583333D01*
X199095238Y-91583333D01*
X199095238Y-90750000D01*
X197095238Y-86000000D02*
X199095238Y-86000000D01*
X197095238Y-85000000D01*
X199095238Y-85000000D01*
%TO.C,J3*%
X203452380Y-109666666D02*
X204166666Y-109666666D01*
X204309523Y-109619047D01*
X204404761Y-109523809D01*
X204452380Y-109380952D01*
X204452380Y-109285714D01*
X203452380Y-110047619D02*
X203452380Y-110666666D01*
X203833333Y-110333333D01*
X203833333Y-110476190D01*
X203880952Y-110571428D01*
X203928571Y-110619047D01*
X204023809Y-110666666D01*
X204261904Y-110666666D01*
X204357142Y-110619047D01*
X204404761Y-110571428D01*
X204452380Y-110476190D01*
X204452380Y-110190476D01*
X204404761Y-110095238D01*
X204357142Y-110047619D01*
%TO.C,R7*%
X120666666Y-68952380D02*
X121000000Y-68476190D01*
X121238095Y-68952380D02*
X121238095Y-67952380D01*
X120857142Y-67952380D01*
X120761904Y-68000000D01*
X120714285Y-68047619D01*
X120666666Y-68142857D01*
X120666666Y-68285714D01*
X120714285Y-68380952D01*
X120761904Y-68428571D01*
X120857142Y-68476190D01*
X121238095Y-68476190D01*
X120333333Y-67952380D02*
X119666666Y-67952380D01*
X120095238Y-68952380D01*
%TO.C,C8*%
X66666666Y-63857142D02*
X66714285Y-63904761D01*
X66857142Y-63952380D01*
X66952380Y-63952380D01*
X67095238Y-63904761D01*
X67190476Y-63809523D01*
X67238095Y-63714285D01*
X67285714Y-63523809D01*
X67285714Y-63380952D01*
X67238095Y-63190476D01*
X67190476Y-63095238D01*
X67095238Y-63000000D01*
X66952380Y-62952380D01*
X66857142Y-62952380D01*
X66714285Y-63000000D01*
X66666666Y-63047619D01*
X66095238Y-63380952D02*
X66190476Y-63333333D01*
X66238095Y-63285714D01*
X66285714Y-63190476D01*
X66285714Y-63142857D01*
X66238095Y-63047619D01*
X66190476Y-63000000D01*
X66095238Y-62952380D01*
X65904761Y-62952380D01*
X65809523Y-63000000D01*
X65761904Y-63047619D01*
X65714285Y-63142857D01*
X65714285Y-63190476D01*
X65761904Y-63285714D01*
X65809523Y-63333333D01*
X65904761Y-63380952D01*
X66095238Y-63380952D01*
X66190476Y-63428571D01*
X66238095Y-63476190D01*
X66285714Y-63571428D01*
X66285714Y-63761904D01*
X66238095Y-63857142D01*
X66190476Y-63904761D01*
X66095238Y-63952380D01*
X65904761Y-63952380D01*
X65809523Y-63904761D01*
X65761904Y-63857142D01*
X65714285Y-63761904D01*
X65714285Y-63571428D01*
X65761904Y-63476190D01*
X65809523Y-63428571D01*
X65904761Y-63380952D01*
%TO.C,R26*%
X92392857Y-94702380D02*
X92726190Y-94226190D01*
X92964285Y-94702380D02*
X92964285Y-93702380D01*
X92583333Y-93702380D01*
X92488095Y-93750000D01*
X92440476Y-93797619D01*
X92392857Y-93892857D01*
X92392857Y-94035714D01*
X92440476Y-94130952D01*
X92488095Y-94178571D01*
X92583333Y-94226190D01*
X92964285Y-94226190D01*
X92011904Y-93797619D02*
X91964285Y-93750000D01*
X91869047Y-93702380D01*
X91630952Y-93702380D01*
X91535714Y-93750000D01*
X91488095Y-93797619D01*
X91440476Y-93892857D01*
X91440476Y-93988095D01*
X91488095Y-94130952D01*
X92059523Y-94702380D01*
X91440476Y-94702380D01*
X90583333Y-93702380D02*
X90773809Y-93702380D01*
X90869047Y-93750000D01*
X90916666Y-93797619D01*
X91011904Y-93940476D01*
X91059523Y-94130952D01*
X91059523Y-94511904D01*
X91011904Y-94607142D01*
X90964285Y-94654761D01*
X90869047Y-94702380D01*
X90678571Y-94702380D01*
X90583333Y-94654761D01*
X90535714Y-94607142D01*
X90488095Y-94511904D01*
X90488095Y-94273809D01*
X90535714Y-94178571D01*
X90583333Y-94130952D01*
X90678571Y-94083333D01*
X90869047Y-94083333D01*
X90964285Y-94130952D01*
X91011904Y-94178571D01*
X91059523Y-94273809D01*
%TO.C,Q5*%
X75345238Y-94047619D02*
X75440476Y-94000000D01*
X75535714Y-93904761D01*
X75678571Y-93761904D01*
X75773809Y-93714285D01*
X75869047Y-93714285D01*
X75821428Y-93952380D02*
X75916666Y-93904761D01*
X76011904Y-93809523D01*
X76059523Y-93619047D01*
X76059523Y-93285714D01*
X76011904Y-93095238D01*
X75916666Y-93000000D01*
X75821428Y-92952380D01*
X75630952Y-92952380D01*
X75535714Y-93000000D01*
X75440476Y-93095238D01*
X75392857Y-93285714D01*
X75392857Y-93619047D01*
X75440476Y-93809523D01*
X75535714Y-93904761D01*
X75630952Y-93952380D01*
X75821428Y-93952380D01*
X74488095Y-92952380D02*
X74964285Y-92952380D01*
X75011904Y-93428571D01*
X74964285Y-93380952D01*
X74869047Y-93333333D01*
X74630952Y-93333333D01*
X74535714Y-93380952D01*
X74488095Y-93428571D01*
X74440476Y-93523809D01*
X74440476Y-93761904D01*
X74488095Y-93857142D01*
X74535714Y-93904761D01*
X74630952Y-93952380D01*
X74869047Y-93952380D01*
X74964285Y-93904761D01*
X75011904Y-93857142D01*
%TO.C,R14*%
X174262692Y-83578169D02*
X173690273Y-83679184D01*
X173858631Y-83174108D02*
X173151525Y-83881215D01*
X173420899Y-84150589D01*
X173521914Y-84184261D01*
X173589257Y-84184261D01*
X173690273Y-84150589D01*
X173791288Y-84049574D01*
X173824960Y-83948558D01*
X173824960Y-83881215D01*
X173791288Y-83780200D01*
X173521914Y-83510826D01*
X174936128Y-84251604D02*
X174532067Y-83847543D01*
X174734097Y-84049574D02*
X174026990Y-84756681D01*
X174060662Y-84588322D01*
X174060662Y-84453635D01*
X174026990Y-84352620D01*
X175070815Y-85329100D02*
X175542219Y-84857696D01*
X174633082Y-85430116D02*
X174969799Y-84756681D01*
X175407532Y-85194413D01*
%TO.C,R24*%
X85342857Y-94702380D02*
X85676190Y-94226190D01*
X85914285Y-94702380D02*
X85914285Y-93702380D01*
X85533333Y-93702380D01*
X85438095Y-93750000D01*
X85390476Y-93797619D01*
X85342857Y-93892857D01*
X85342857Y-94035714D01*
X85390476Y-94130952D01*
X85438095Y-94178571D01*
X85533333Y-94226190D01*
X85914285Y-94226190D01*
X84961904Y-93797619D02*
X84914285Y-93750000D01*
X84819047Y-93702380D01*
X84580952Y-93702380D01*
X84485714Y-93750000D01*
X84438095Y-93797619D01*
X84390476Y-93892857D01*
X84390476Y-93988095D01*
X84438095Y-94130952D01*
X85009523Y-94702380D01*
X84390476Y-94702380D01*
X83533333Y-94035714D02*
X83533333Y-94702380D01*
X83771428Y-93654761D02*
X84009523Y-94369047D01*
X83390476Y-94369047D01*
%TO.C,R5*%
X156702380Y-69145833D02*
X156226190Y-68812500D01*
X156702380Y-68574404D02*
X155702380Y-68574404D01*
X155702380Y-68955357D01*
X155750000Y-69050595D01*
X155797619Y-69098214D01*
X155892857Y-69145833D01*
X156035714Y-69145833D01*
X156130952Y-69098214D01*
X156178571Y-69050595D01*
X156226190Y-68955357D01*
X156226190Y-68574404D01*
X155702380Y-70050595D02*
X155702380Y-69574404D01*
X156178571Y-69526785D01*
X156130952Y-69574404D01*
X156083333Y-69669642D01*
X156083333Y-69907738D01*
X156130952Y-70002976D01*
X156178571Y-70050595D01*
X156273809Y-70098214D01*
X156511904Y-70098214D01*
X156607142Y-70050595D01*
X156654761Y-70002976D01*
X156702380Y-69907738D01*
X156702380Y-69669642D01*
X156654761Y-69574404D01*
X156607142Y-69526785D01*
%TO.C,C7*%
X66666666Y-61607142D02*
X66714285Y-61654761D01*
X66857142Y-61702380D01*
X66952380Y-61702380D01*
X67095238Y-61654761D01*
X67190476Y-61559523D01*
X67238095Y-61464285D01*
X67285714Y-61273809D01*
X67285714Y-61130952D01*
X67238095Y-60940476D01*
X67190476Y-60845238D01*
X67095238Y-60750000D01*
X66952380Y-60702380D01*
X66857142Y-60702380D01*
X66714285Y-60750000D01*
X66666666Y-60797619D01*
X66333333Y-60702380D02*
X65666666Y-60702380D01*
X66095238Y-61702380D01*
%TO.C,C24*%
X67642857Y-88857142D02*
X67690476Y-88904761D01*
X67833333Y-88952380D01*
X67928571Y-88952380D01*
X68071428Y-88904761D01*
X68166666Y-88809523D01*
X68214285Y-88714285D01*
X68261904Y-88523809D01*
X68261904Y-88380952D01*
X68214285Y-88190476D01*
X68166666Y-88095238D01*
X68071428Y-88000000D01*
X67928571Y-87952380D01*
X67833333Y-87952380D01*
X67690476Y-88000000D01*
X67642857Y-88047619D01*
X67261904Y-88047619D02*
X67214285Y-88000000D01*
X67119047Y-87952380D01*
X66880952Y-87952380D01*
X66785714Y-88000000D01*
X66738095Y-88047619D01*
X66690476Y-88142857D01*
X66690476Y-88238095D01*
X66738095Y-88380952D01*
X67309523Y-88952380D01*
X66690476Y-88952380D01*
X65833333Y-88285714D02*
X65833333Y-88952380D01*
X66071428Y-87904761D02*
X66309523Y-88619047D01*
X65690476Y-88619047D01*
%TO.C,C25*%
X71392857Y-91357142D02*
X71440476Y-91404761D01*
X71583333Y-91452380D01*
X71678571Y-91452380D01*
X71821428Y-91404761D01*
X71916666Y-91309523D01*
X71964285Y-91214285D01*
X72011904Y-91023809D01*
X72011904Y-90880952D01*
X71964285Y-90690476D01*
X71916666Y-90595238D01*
X71821428Y-90500000D01*
X71678571Y-90452380D01*
X71583333Y-90452380D01*
X71440476Y-90500000D01*
X71392857Y-90547619D01*
X71011904Y-90547619D02*
X70964285Y-90500000D01*
X70869047Y-90452380D01*
X70630952Y-90452380D01*
X70535714Y-90500000D01*
X70488095Y-90547619D01*
X70440476Y-90642857D01*
X70440476Y-90738095D01*
X70488095Y-90880952D01*
X71059523Y-91452380D01*
X70440476Y-91452380D01*
X69535714Y-90452380D02*
X70011904Y-90452380D01*
X70059523Y-90928571D01*
X70011904Y-90880952D01*
X69916666Y-90833333D01*
X69678571Y-90833333D01*
X69583333Y-90880952D01*
X69535714Y-90928571D01*
X69488095Y-91023809D01*
X69488095Y-91261904D01*
X69535714Y-91357142D01*
X69583333Y-91404761D01*
X69678571Y-91452380D01*
X69916666Y-91452380D01*
X70011904Y-91404761D01*
X70059523Y-91357142D01*
%TO.C,R25*%
X88942857Y-94702380D02*
X89276190Y-94226190D01*
X89514285Y-94702380D02*
X89514285Y-93702380D01*
X89133333Y-93702380D01*
X89038095Y-93750000D01*
X88990476Y-93797619D01*
X88942857Y-93892857D01*
X88942857Y-94035714D01*
X88990476Y-94130952D01*
X89038095Y-94178571D01*
X89133333Y-94226190D01*
X89514285Y-94226190D01*
X88561904Y-93797619D02*
X88514285Y-93750000D01*
X88419047Y-93702380D01*
X88180952Y-93702380D01*
X88085714Y-93750000D01*
X88038095Y-93797619D01*
X87990476Y-93892857D01*
X87990476Y-93988095D01*
X88038095Y-94130952D01*
X88609523Y-94702380D01*
X87990476Y-94702380D01*
X87085714Y-93702380D02*
X87561904Y-93702380D01*
X87609523Y-94178571D01*
X87561904Y-94130952D01*
X87466666Y-94083333D01*
X87228571Y-94083333D01*
X87133333Y-94130952D01*
X87085714Y-94178571D01*
X87038095Y-94273809D01*
X87038095Y-94511904D01*
X87085714Y-94607142D01*
X87133333Y-94654761D01*
X87228571Y-94702380D01*
X87466666Y-94702380D01*
X87561904Y-94654761D01*
X87609523Y-94607142D01*
%TO.C,C19*%
X71392857Y-84607142D02*
X71440476Y-84654761D01*
X71583333Y-84702380D01*
X71678571Y-84702380D01*
X71821428Y-84654761D01*
X71916666Y-84559523D01*
X71964285Y-84464285D01*
X72011904Y-84273809D01*
X72011904Y-84130952D01*
X71964285Y-83940476D01*
X71916666Y-83845238D01*
X71821428Y-83750000D01*
X71678571Y-83702380D01*
X71583333Y-83702380D01*
X71440476Y-83750000D01*
X71392857Y-83797619D01*
X70440476Y-84702380D02*
X71011904Y-84702380D01*
X70726190Y-84702380D02*
X70726190Y-83702380D01*
X70821428Y-83845238D01*
X70916666Y-83940476D01*
X71011904Y-83988095D01*
X69964285Y-84702380D02*
X69773809Y-84702380D01*
X69678571Y-84654761D01*
X69630952Y-84607142D01*
X69535714Y-84464285D01*
X69488095Y-84273809D01*
X69488095Y-83892857D01*
X69535714Y-83797619D01*
X69583333Y-83750000D01*
X69678571Y-83702380D01*
X69869047Y-83702380D01*
X69964285Y-83750000D01*
X70011904Y-83797619D01*
X70059523Y-83892857D01*
X70059523Y-84130952D01*
X70011904Y-84226190D01*
X69964285Y-84273809D01*
X69869047Y-84321428D01*
X69678571Y-84321428D01*
X69583333Y-84273809D01*
X69535714Y-84226190D01*
X69488095Y-84130952D01*
%TO.C,C6*%
X70416666Y-59357142D02*
X70464285Y-59404761D01*
X70607142Y-59452380D01*
X70702380Y-59452380D01*
X70845238Y-59404761D01*
X70940476Y-59309523D01*
X70988095Y-59214285D01*
X71035714Y-59023809D01*
X71035714Y-58880952D01*
X70988095Y-58690476D01*
X70940476Y-58595238D01*
X70845238Y-58500000D01*
X70702380Y-58452380D01*
X70607142Y-58452380D01*
X70464285Y-58500000D01*
X70416666Y-58547619D01*
X69559523Y-58452380D02*
X69750000Y-58452380D01*
X69845238Y-58500000D01*
X69892857Y-58547619D01*
X69988095Y-58690476D01*
X70035714Y-58880952D01*
X70035714Y-59261904D01*
X69988095Y-59357142D01*
X69940476Y-59404761D01*
X69845238Y-59452380D01*
X69654761Y-59452380D01*
X69559523Y-59404761D01*
X69511904Y-59357142D01*
X69464285Y-59261904D01*
X69464285Y-59023809D01*
X69511904Y-58928571D01*
X69559523Y-58880952D01*
X69654761Y-58833333D01*
X69845238Y-58833333D01*
X69940476Y-58880952D01*
X69988095Y-58928571D01*
X70035714Y-59023809D01*
%TO.C,C21*%
X82142857Y-74857142D02*
X82190476Y-74904761D01*
X82333333Y-74952380D01*
X82428571Y-74952380D01*
X82571428Y-74904761D01*
X82666666Y-74809523D01*
X82714285Y-74714285D01*
X82761904Y-74523809D01*
X82761904Y-74380952D01*
X82714285Y-74190476D01*
X82666666Y-74095238D01*
X82571428Y-74000000D01*
X82428571Y-73952380D01*
X82333333Y-73952380D01*
X82190476Y-74000000D01*
X82142857Y-74047619D01*
X81761904Y-74047619D02*
X81714285Y-74000000D01*
X81619047Y-73952380D01*
X81380952Y-73952380D01*
X81285714Y-74000000D01*
X81238095Y-74047619D01*
X81190476Y-74142857D01*
X81190476Y-74238095D01*
X81238095Y-74380952D01*
X81809523Y-74952380D01*
X81190476Y-74952380D01*
X80238095Y-74952380D02*
X80809523Y-74952380D01*
X80523809Y-74952380D02*
X80523809Y-73952380D01*
X80619047Y-74095238D01*
X80714285Y-74190476D01*
X80809523Y-74238095D01*
%TO.C,R9*%
X156702380Y-76395833D02*
X156226190Y-76062500D01*
X156702380Y-75824404D02*
X155702380Y-75824404D01*
X155702380Y-76205357D01*
X155750000Y-76300595D01*
X155797619Y-76348214D01*
X155892857Y-76395833D01*
X156035714Y-76395833D01*
X156130952Y-76348214D01*
X156178571Y-76300595D01*
X156226190Y-76205357D01*
X156226190Y-75824404D01*
X156702380Y-76872023D02*
X156702380Y-77062500D01*
X156654761Y-77157738D01*
X156607142Y-77205357D01*
X156464285Y-77300595D01*
X156273809Y-77348214D01*
X155892857Y-77348214D01*
X155797619Y-77300595D01*
X155750000Y-77252976D01*
X155702380Y-77157738D01*
X155702380Y-76967261D01*
X155750000Y-76872023D01*
X155797619Y-76824404D01*
X155892857Y-76776785D01*
X156130952Y-76776785D01*
X156226190Y-76824404D01*
X156273809Y-76872023D01*
X156321428Y-76967261D01*
X156321428Y-77157738D01*
X156273809Y-77252976D01*
X156226190Y-77300595D01*
X156130952Y-77348214D01*
%TO.C,C5*%
X86416666Y-52607142D02*
X86464285Y-52654761D01*
X86607142Y-52702380D01*
X86702380Y-52702380D01*
X86845238Y-52654761D01*
X86940476Y-52559523D01*
X86988095Y-52464285D01*
X87035714Y-52273809D01*
X87035714Y-52130952D01*
X86988095Y-51940476D01*
X86940476Y-51845238D01*
X86845238Y-51750000D01*
X86702380Y-51702380D01*
X86607142Y-51702380D01*
X86464285Y-51750000D01*
X86416666Y-51797619D01*
X85511904Y-51702380D02*
X85988095Y-51702380D01*
X86035714Y-52178571D01*
X85988095Y-52130952D01*
X85892857Y-52083333D01*
X85654761Y-52083333D01*
X85559523Y-52130952D01*
X85511904Y-52178571D01*
X85464285Y-52273809D01*
X85464285Y-52511904D01*
X85511904Y-52607142D01*
X85559523Y-52654761D01*
X85654761Y-52702380D01*
X85892857Y-52702380D01*
X85988095Y-52654761D01*
X86035714Y-52607142D01*
%TO.C,Q3*%
X75345238Y-68797619D02*
X75440476Y-68750000D01*
X75535714Y-68654761D01*
X75678571Y-68511904D01*
X75773809Y-68464285D01*
X75869047Y-68464285D01*
X75821428Y-68702380D02*
X75916666Y-68654761D01*
X76011904Y-68559523D01*
X76059523Y-68369047D01*
X76059523Y-68035714D01*
X76011904Y-67845238D01*
X75916666Y-67750000D01*
X75821428Y-67702380D01*
X75630952Y-67702380D01*
X75535714Y-67750000D01*
X75440476Y-67845238D01*
X75392857Y-68035714D01*
X75392857Y-68369047D01*
X75440476Y-68559523D01*
X75535714Y-68654761D01*
X75630952Y-68702380D01*
X75821428Y-68702380D01*
X75059523Y-67702380D02*
X74440476Y-67702380D01*
X74773809Y-68083333D01*
X74630952Y-68083333D01*
X74535714Y-68130952D01*
X74488095Y-68178571D01*
X74440476Y-68273809D01*
X74440476Y-68511904D01*
X74488095Y-68607142D01*
X74535714Y-68654761D01*
X74630952Y-68702380D01*
X74916666Y-68702380D01*
X75011904Y-68654761D01*
X75059523Y-68607142D01*
%TO.C,Q4*%
X83595238Y-82297619D02*
X83690476Y-82250000D01*
X83785714Y-82154761D01*
X83928571Y-82011904D01*
X84023809Y-81964285D01*
X84119047Y-81964285D01*
X84071428Y-82202380D02*
X84166666Y-82154761D01*
X84261904Y-82059523D01*
X84309523Y-81869047D01*
X84309523Y-81535714D01*
X84261904Y-81345238D01*
X84166666Y-81250000D01*
X84071428Y-81202380D01*
X83880952Y-81202380D01*
X83785714Y-81250000D01*
X83690476Y-81345238D01*
X83642857Y-81535714D01*
X83642857Y-81869047D01*
X83690476Y-82059523D01*
X83785714Y-82154761D01*
X83880952Y-82202380D01*
X84071428Y-82202380D01*
X82785714Y-81535714D02*
X82785714Y-82202380D01*
X83023809Y-81154761D02*
X83261904Y-81869047D01*
X82642857Y-81869047D01*
%TO.C,R8*%
X156702380Y-72808333D02*
X156226190Y-72475000D01*
X156702380Y-72236904D02*
X155702380Y-72236904D01*
X155702380Y-72617857D01*
X155750000Y-72713095D01*
X155797619Y-72760714D01*
X155892857Y-72808333D01*
X156035714Y-72808333D01*
X156130952Y-72760714D01*
X156178571Y-72713095D01*
X156226190Y-72617857D01*
X156226190Y-72236904D01*
X156130952Y-73379761D02*
X156083333Y-73284523D01*
X156035714Y-73236904D01*
X155940476Y-73189285D01*
X155892857Y-73189285D01*
X155797619Y-73236904D01*
X155750000Y-73284523D01*
X155702380Y-73379761D01*
X155702380Y-73570238D01*
X155750000Y-73665476D01*
X155797619Y-73713095D01*
X155892857Y-73760714D01*
X155940476Y-73760714D01*
X156035714Y-73713095D01*
X156083333Y-73665476D01*
X156130952Y-73570238D01*
X156130952Y-73379761D01*
X156178571Y-73284523D01*
X156226190Y-73236904D01*
X156321428Y-73189285D01*
X156511904Y-73189285D01*
X156607142Y-73236904D01*
X156654761Y-73284523D01*
X156702380Y-73379761D01*
X156702380Y-73570238D01*
X156654761Y-73665476D01*
X156607142Y-73713095D01*
X156511904Y-73760714D01*
X156321428Y-73760714D01*
X156226190Y-73713095D01*
X156178571Y-73665476D01*
X156130952Y-73570238D01*
%TO.C,C9*%
X70416666Y-66357142D02*
X70464285Y-66404761D01*
X70607142Y-66452380D01*
X70702380Y-66452380D01*
X70845238Y-66404761D01*
X70940476Y-66309523D01*
X70988095Y-66214285D01*
X71035714Y-66023809D01*
X71035714Y-65880952D01*
X70988095Y-65690476D01*
X70940476Y-65595238D01*
X70845238Y-65500000D01*
X70702380Y-65452380D01*
X70607142Y-65452380D01*
X70464285Y-65500000D01*
X70416666Y-65547619D01*
X69940476Y-66452380D02*
X69750000Y-66452380D01*
X69654761Y-66404761D01*
X69607142Y-66357142D01*
X69511904Y-66214285D01*
X69464285Y-66023809D01*
X69464285Y-65642857D01*
X69511904Y-65547619D01*
X69559523Y-65500000D01*
X69654761Y-65452380D01*
X69845238Y-65452380D01*
X69940476Y-65500000D01*
X69988095Y-65547619D01*
X70035714Y-65642857D01*
X70035714Y-65880952D01*
X69988095Y-65976190D01*
X69940476Y-66023809D01*
X69845238Y-66071428D01*
X69654761Y-66071428D01*
X69559523Y-66023809D01*
X69511904Y-65976190D01*
X69464285Y-65880952D01*
%TO.C,C23*%
X67642857Y-87107142D02*
X67690476Y-87154761D01*
X67833333Y-87202380D01*
X67928571Y-87202380D01*
X68071428Y-87154761D01*
X68166666Y-87059523D01*
X68214285Y-86964285D01*
X68261904Y-86773809D01*
X68261904Y-86630952D01*
X68214285Y-86440476D01*
X68166666Y-86345238D01*
X68071428Y-86250000D01*
X67928571Y-86202380D01*
X67833333Y-86202380D01*
X67690476Y-86250000D01*
X67642857Y-86297619D01*
X67261904Y-86297619D02*
X67214285Y-86250000D01*
X67119047Y-86202380D01*
X66880952Y-86202380D01*
X66785714Y-86250000D01*
X66738095Y-86297619D01*
X66690476Y-86392857D01*
X66690476Y-86488095D01*
X66738095Y-86630952D01*
X67309523Y-87202380D01*
X66690476Y-87202380D01*
X66357142Y-86202380D02*
X65738095Y-86202380D01*
X66071428Y-86583333D01*
X65928571Y-86583333D01*
X65833333Y-86630952D01*
X65785714Y-86678571D01*
X65738095Y-86773809D01*
X65738095Y-87011904D01*
X65785714Y-87107142D01*
X65833333Y-87154761D01*
X65928571Y-87202380D01*
X66214285Y-87202380D01*
X66309523Y-87154761D01*
X66357142Y-87107142D01*
D12*
%TO.C,D6*%
X174187380Y-67574523D02*
X174187380Y-66304523D01*
X173885000Y-66304523D01*
X173703571Y-66365000D01*
X173582619Y-66485952D01*
X173522142Y-66606904D01*
X173461666Y-66848809D01*
X173461666Y-67030238D01*
X173522142Y-67272142D01*
X173582619Y-67393095D01*
X173703571Y-67514047D01*
X173885000Y-67574523D01*
X174187380Y-67574523D01*
X172373095Y-66304523D02*
X172615000Y-66304523D01*
X172735952Y-66365000D01*
X172796428Y-66425476D01*
X172917380Y-66606904D01*
X172977857Y-66848809D01*
X172977857Y-67332619D01*
X172917380Y-67453571D01*
X172856904Y-67514047D01*
X172735952Y-67574523D01*
X172494047Y-67574523D01*
X172373095Y-67514047D01*
X172312619Y-67453571D01*
X172252142Y-67332619D01*
X172252142Y-67030238D01*
X172312619Y-66909285D01*
X172373095Y-66848809D01*
X172494047Y-66788333D01*
X172735952Y-66788333D01*
X172856904Y-66848809D01*
X172917380Y-66909285D01*
X172977857Y-67030238D01*
D10*
%TO.C,Q1*%
X83595238Y-57547619D02*
X83690476Y-57500000D01*
X83785714Y-57404761D01*
X83928571Y-57261904D01*
X84023809Y-57214285D01*
X84119047Y-57214285D01*
X84071428Y-57452380D02*
X84166666Y-57404761D01*
X84261904Y-57309523D01*
X84309523Y-57119047D01*
X84309523Y-56785714D01*
X84261904Y-56595238D01*
X84166666Y-56500000D01*
X84071428Y-56452380D01*
X83880952Y-56452380D01*
X83785714Y-56500000D01*
X83690476Y-56595238D01*
X83642857Y-56785714D01*
X83642857Y-57119047D01*
X83690476Y-57309523D01*
X83785714Y-57404761D01*
X83880952Y-57452380D01*
X84071428Y-57452380D01*
X82690476Y-57452380D02*
X83261904Y-57452380D01*
X82976190Y-57452380D02*
X82976190Y-56452380D01*
X83071428Y-56595238D01*
X83166666Y-56690476D01*
X83261904Y-56738095D01*
D13*
%TO.C,J3*%
X205060000Y-98720000D02*
X205060000Y-108880000D01*
X198710000Y-98720000D02*
X198710000Y-108880000D01*
X205060000Y-108880000D02*
X197440000Y-108880000D01*
X197440000Y-108880000D02*
X197440000Y-98720000D01*
X197440000Y-98720000D02*
X205060000Y-98720000D01*
%TO.C,R7*%
X121790000Y-71177064D02*
X121790000Y-66822936D01*
X125210000Y-71177064D02*
X125210000Y-66822936D01*
%TO.C,C8*%
X67617500Y-65504420D02*
X67617500Y-65785580D01*
X66597500Y-65504420D02*
X66597500Y-65785580D01*
%TO.C,R26*%
X92127064Y-93235000D02*
X91672936Y-93235000D01*
X92127064Y-91765000D02*
X91672936Y-91765000D01*
%TO.C,Q5*%
X76406500Y-93865000D02*
X76406500Y-83625000D01*
X81047500Y-86894000D02*
X79537500Y-86894000D01*
X81047500Y-93865000D02*
X76406500Y-93865000D01*
X79537500Y-93865000D02*
X79537500Y-83625000D01*
X81047500Y-83625000D02*
X76406500Y-83625000D01*
X81047500Y-93865000D02*
X81047500Y-83625000D01*
X81047500Y-90595000D02*
X79537500Y-90595000D01*
%TO.C,R14*%
X173501431Y-82169736D02*
X176580264Y-85248569D01*
X175919736Y-79751431D02*
X178998569Y-82830264D01*
%TO.C,R24*%
X84927064Y-91765000D02*
X84472936Y-91765000D01*
X84927064Y-93235000D02*
X84472936Y-93235000D01*
%TO.C,R5*%
X158635000Y-69085436D02*
X158635000Y-69539564D01*
X157165000Y-69085436D02*
X157165000Y-69539564D01*
%TO.C,C7*%
X66597500Y-59159420D02*
X66597500Y-59440580D01*
X67617500Y-59159420D02*
X67617500Y-59440580D01*
%TO.C,C24*%
X67617500Y-90785580D02*
X67617500Y-90504420D01*
X66597500Y-90785580D02*
X66597500Y-90504420D01*
%TO.C,C25*%
X69057500Y-90504420D02*
X69057500Y-90785580D01*
X68037500Y-90504420D02*
X68037500Y-90785580D01*
%TO.C,R25*%
X88527064Y-93235000D02*
X88072936Y-93235000D01*
X88527064Y-91765000D02*
X88072936Y-91765000D01*
%TO.C,C19*%
X69057500Y-84440580D02*
X69057500Y-84159420D01*
X68037500Y-84440580D02*
X68037500Y-84159420D01*
%TO.C,C6*%
X69057500Y-59159420D02*
X69057500Y-59440580D01*
X68037500Y-59159420D02*
X68037500Y-59440580D01*
%TO.C,C21*%
X82522369Y-75560000D02*
X79477631Y-75560000D01*
X82522369Y-82130000D02*
X79477631Y-82130000D01*
%TO.C,R9*%
X158635000Y-76335436D02*
X158635000Y-76789564D01*
X157165000Y-76335436D02*
X157165000Y-76789564D01*
%TO.C,C5*%
X82522369Y-50560000D02*
X79477631Y-50560000D01*
X82522369Y-57130000D02*
X79477631Y-57130000D01*
%TO.C,Q3*%
X81047500Y-65595000D02*
X79537500Y-65595000D01*
X81047500Y-61894000D02*
X79537500Y-61894000D01*
X79537500Y-68865000D02*
X79537500Y-58625000D01*
X81047500Y-68865000D02*
X81047500Y-58625000D01*
X81047500Y-68865000D02*
X76406500Y-68865000D01*
X81047500Y-58625000D02*
X76406500Y-58625000D01*
X76406500Y-68865000D02*
X76406500Y-58625000D01*
%TO.C,Q4*%
X79212500Y-81085000D02*
X79212500Y-91325000D01*
X77702500Y-81085000D02*
X77702500Y-91325000D01*
X77702500Y-91325000D02*
X82343500Y-91325000D01*
X82343500Y-81085000D02*
X82343500Y-91325000D01*
X77702500Y-88056000D02*
X79212500Y-88056000D01*
X77702500Y-84355000D02*
X79212500Y-84355000D01*
X77702500Y-81085000D02*
X82343500Y-81085000D01*
%TO.C,R8*%
X158635000Y-72747936D02*
X158635000Y-73202064D01*
X157165000Y-72747936D02*
X157165000Y-73202064D01*
%TO.C,C9*%
X69057500Y-65785580D02*
X69057500Y-65504420D01*
X68037500Y-65785580D02*
X68037500Y-65504420D01*
%TO.C,C23*%
X67617500Y-84159420D02*
X67617500Y-84440580D01*
X66597500Y-84159420D02*
X66597500Y-84440580D01*
D14*
%TO.C,D6*%
X175850000Y-70862000D02*
X170325000Y-70862000D01*
X170650000Y-68138000D02*
X175850000Y-68138000D01*
D13*
%TO.C,Q1*%
X77702500Y-59355000D02*
X79212500Y-59355000D01*
X77702500Y-56085000D02*
X82343500Y-56085000D01*
X77702500Y-66325000D02*
X82343500Y-66325000D01*
X77702500Y-63056000D02*
X79212500Y-63056000D01*
X79212500Y-56085000D02*
X79212500Y-66325000D01*
X77702500Y-56085000D02*
X77702500Y-66325000D01*
X82343500Y-56085000D02*
X82343500Y-66325000D01*
%TD*%
M02*
