%TF.GenerationSoftware,KiCad,Pcbnew,(6.0.9)*%
%TF.CreationDate,2023-03-15T23:45:40+00:00*%
%TF.ProjectId,GTI_V5,4754495f-5635-42e6-9b69-6361645f7063,rev?*%
%TF.SameCoordinates,Original*%
%TF.FileFunction,Legend,Top*%
%TF.FilePolarity,Positive*%
%FSLAX46Y46*%
G04 Gerber Fmt 4.6, Leading zero omitted, Abs format (unit mm)*
G04 Created by KiCad (PCBNEW (6.0.9)) date 2023-03-15 23:45:40*
%MOMM*%
%LPD*%
G01*
G04 APERTURE LIST*
%ADD10C,0.150000*%
%ADD11C,0.400000*%
%ADD12C,0.254000*%
%ADD13C,0.100000*%
%ADD14C,0.120000*%
%ADD15C,0.200000*%
%ADD16C,0.070000*%
G04 APERTURE END LIST*
D10*
X196107142Y-91625000D02*
X196107142Y-91041666D01*
X197154761Y-90791666D02*
X197154761Y-91625000D01*
X195154761Y-91625000D01*
X195154761Y-90791666D01*
X197154761Y-88500000D02*
X195154761Y-88500000D01*
X197154761Y-87500000D01*
X195154761Y-87500000D01*
X197154761Y-96958333D02*
X197154761Y-97791666D01*
X195154761Y-97791666D01*
D11*
X87000000Y-102000000D02*
X90000000Y-99000000D01*
X90000000Y-99000000D02*
X114000000Y-99000000D01*
X116000000Y-108000000D02*
X173510000Y-108000000D01*
X63000000Y-102000000D02*
X63000000Y-50750000D01*
X63000000Y-102000000D02*
X87000000Y-102000000D01*
X114000000Y-99000000D02*
X114000000Y-106000000D01*
X114000000Y-106000000D02*
X116000000Y-108000000D01*
D10*
X110321428Y-117952380D02*
X110940476Y-117952380D01*
X110607142Y-118333333D01*
X110750000Y-118333333D01*
X110845238Y-118380952D01*
X110892857Y-118428571D01*
X110940476Y-118523809D01*
X110940476Y-118761904D01*
X110892857Y-118857142D01*
X110845238Y-118904761D01*
X110750000Y-118952380D01*
X110464285Y-118952380D01*
X110369047Y-118904761D01*
X110321428Y-118857142D01*
X111369047Y-118857142D02*
X111416666Y-118904761D01*
X111369047Y-118952380D01*
X111321428Y-118904761D01*
X111369047Y-118857142D01*
X111369047Y-118952380D01*
X111750000Y-117952380D02*
X112369047Y-117952380D01*
X112035714Y-118333333D01*
X112178571Y-118333333D01*
X112273809Y-118380952D01*
X112321428Y-118428571D01*
X112369047Y-118523809D01*
X112369047Y-118761904D01*
X112321428Y-118857142D01*
X112273809Y-118904761D01*
X112178571Y-118952380D01*
X111892857Y-118952380D01*
X111797619Y-118904761D01*
X111750000Y-118857142D01*
X112702380Y-118285714D02*
X112940476Y-118952380D01*
X113178571Y-118285714D01*
X62438095Y-115942857D02*
X63961904Y-115942857D01*
X67638095Y-115942857D02*
X69161904Y-115942857D01*
X68400000Y-116704761D02*
X68400000Y-115180952D01*
X59538095Y-55047857D02*
X61061904Y-55047857D01*
X110178571Y-112285714D02*
X110178571Y-112952380D01*
X110178571Y-112380952D02*
X110226190Y-112333333D01*
X110321428Y-112285714D01*
X110464285Y-112285714D01*
X110559523Y-112333333D01*
X110607142Y-112428571D01*
X110607142Y-112952380D01*
X111654761Y-112952380D02*
X111321428Y-112476190D01*
X111083333Y-112952380D02*
X111083333Y-111952380D01*
X111464285Y-111952380D01*
X111559523Y-112000000D01*
X111607142Y-112047619D01*
X111654761Y-112142857D01*
X111654761Y-112285714D01*
X111607142Y-112380952D01*
X111559523Y-112428571D01*
X111464285Y-112476190D01*
X111083333Y-112476190D01*
X112035714Y-112904761D02*
X112178571Y-112952380D01*
X112416666Y-112952380D01*
X112511904Y-112904761D01*
X112559523Y-112857142D01*
X112607142Y-112761904D01*
X112607142Y-112666666D01*
X112559523Y-112571428D01*
X112511904Y-112523809D01*
X112416666Y-112476190D01*
X112226190Y-112428571D01*
X112130952Y-112380952D01*
X112083333Y-112333333D01*
X112035714Y-112238095D01*
X112035714Y-112142857D01*
X112083333Y-112047619D01*
X112130952Y-112000000D01*
X112226190Y-111952380D01*
X112464285Y-111952380D01*
X112607142Y-112000000D01*
X112892857Y-111952380D02*
X113464285Y-111952380D01*
X113178571Y-112952380D02*
X113178571Y-111952380D01*
X110130952Y-114404761D02*
X110273809Y-114452380D01*
X110511904Y-114452380D01*
X110607142Y-114404761D01*
X110654761Y-114357142D01*
X110702380Y-114261904D01*
X110702380Y-114166666D01*
X110654761Y-114071428D01*
X110607142Y-114023809D01*
X110511904Y-113976190D01*
X110321428Y-113928571D01*
X110226190Y-113880952D01*
X110178571Y-113833333D01*
X110130952Y-113738095D01*
X110130952Y-113642857D01*
X110178571Y-113547619D01*
X110226190Y-113500000D01*
X110321428Y-113452380D01*
X110559523Y-113452380D01*
X110702380Y-113500000D01*
X111035714Y-113452380D02*
X111273809Y-114452380D01*
X111464285Y-113738095D01*
X111654761Y-114452380D01*
X111892857Y-113452380D01*
X112273809Y-114452380D02*
X112273809Y-113452380D01*
X112511904Y-113452380D01*
X112654761Y-113500000D01*
X112750000Y-113595238D01*
X112797619Y-113690476D01*
X112845238Y-113880952D01*
X112845238Y-114023809D01*
X112797619Y-114214285D01*
X112750000Y-114309523D01*
X112654761Y-114404761D01*
X112511904Y-114452380D01*
X112273809Y-114452380D01*
X113273809Y-114452380D02*
X113273809Y-113452380D01*
X113940476Y-113452380D02*
X114130952Y-113452380D01*
X114226190Y-113500000D01*
X114321428Y-113595238D01*
X114369047Y-113785714D01*
X114369047Y-114119047D01*
X114321428Y-114309523D01*
X114226190Y-114404761D01*
X114130952Y-114452380D01*
X113940476Y-114452380D01*
X113845238Y-114404761D01*
X113750000Y-114309523D01*
X113702380Y-114119047D01*
X113702380Y-113785714D01*
X113750000Y-113595238D01*
X113845238Y-113500000D01*
X113940476Y-113452380D01*
X110738095Y-115000000D02*
X110642857Y-114952380D01*
X110500000Y-114952380D01*
X110357142Y-115000000D01*
X110261904Y-115095238D01*
X110214285Y-115190476D01*
X110166666Y-115380952D01*
X110166666Y-115523809D01*
X110214285Y-115714285D01*
X110261904Y-115809523D01*
X110357142Y-115904761D01*
X110500000Y-115952380D01*
X110595238Y-115952380D01*
X110738095Y-115904761D01*
X110785714Y-115857142D01*
X110785714Y-115523809D01*
X110595238Y-115523809D01*
X111214285Y-115952380D02*
X111214285Y-114952380D01*
X111785714Y-115952380D01*
X111785714Y-114952380D01*
X112261904Y-115952380D02*
X112261904Y-114952380D01*
X112500000Y-114952380D01*
X112642857Y-115000000D01*
X112738095Y-115095238D01*
X112785714Y-115190476D01*
X112833333Y-115380952D01*
X112833333Y-115523809D01*
X112785714Y-115714285D01*
X112738095Y-115809523D01*
X112642857Y-115904761D01*
X112500000Y-115952380D01*
X112261904Y-115952380D01*
X110238095Y-117404761D02*
X110380952Y-117452380D01*
X110619047Y-117452380D01*
X110714285Y-117404761D01*
X110761904Y-117357142D01*
X110809523Y-117261904D01*
X110809523Y-117166666D01*
X110761904Y-117071428D01*
X110714285Y-117023809D01*
X110619047Y-116976190D01*
X110428571Y-116928571D01*
X110333333Y-116880952D01*
X110285714Y-116833333D01*
X110238095Y-116738095D01*
X110238095Y-116642857D01*
X110285714Y-116547619D01*
X110333333Y-116500000D01*
X110428571Y-116452380D01*
X110666666Y-116452380D01*
X110809523Y-116500000D01*
X111142857Y-116452380D02*
X111380952Y-117452380D01*
X111571428Y-116738095D01*
X111761904Y-117452380D01*
X112000000Y-116452380D01*
X112952380Y-117357142D02*
X112904761Y-117404761D01*
X112761904Y-117452380D01*
X112666666Y-117452380D01*
X112523809Y-117404761D01*
X112428571Y-117309523D01*
X112380952Y-117214285D01*
X112333333Y-117023809D01*
X112333333Y-116880952D01*
X112380952Y-116690476D01*
X112428571Y-116595238D01*
X112523809Y-116500000D01*
X112666666Y-116452380D01*
X112761904Y-116452380D01*
X112904761Y-116500000D01*
X112952380Y-116547619D01*
X113857142Y-117452380D02*
X113380952Y-117452380D01*
X113380952Y-116452380D01*
X114190476Y-117452380D02*
X114190476Y-116452380D01*
X114761904Y-117452380D02*
X114333333Y-116880952D01*
X114761904Y-116452380D02*
X114190476Y-117023809D01*
X200738095Y-110392857D02*
X202261904Y-110392857D01*
X201500000Y-111154761D02*
X201500000Y-109630952D01*
%TO.C,C44*%
X75539405Y-99692625D02*
X75491786Y-99740244D01*
X75348929Y-99787863D01*
X75253691Y-99787863D01*
X75110834Y-99740244D01*
X75015596Y-99645006D01*
X74967977Y-99549768D01*
X74920358Y-99359292D01*
X74920358Y-99216435D01*
X74967977Y-99025959D01*
X75015596Y-98930721D01*
X75110834Y-98835483D01*
X75253691Y-98787863D01*
X75348929Y-98787863D01*
X75491786Y-98835483D01*
X75539405Y-98883102D01*
X76396548Y-99121197D02*
X76396548Y-99787863D01*
X76158453Y-98740244D02*
X75920358Y-99454530D01*
X76539405Y-99454530D01*
X77348929Y-99121197D02*
X77348929Y-99787863D01*
X77110834Y-98740244D02*
X76872739Y-99454530D01*
X77491786Y-99454530D01*
%TO.C,H5*%
X184238095Y-91702380D02*
X184238095Y-90702380D01*
X184238095Y-91178571D02*
X184809523Y-91178571D01*
X184809523Y-91702380D02*
X184809523Y-90702380D01*
X185761904Y-90702380D02*
X185285714Y-90702380D01*
X185238095Y-91178571D01*
X185285714Y-91130952D01*
X185380952Y-91083333D01*
X185619047Y-91083333D01*
X185714285Y-91130952D01*
X185761904Y-91178571D01*
X185809523Y-91273809D01*
X185809523Y-91511904D01*
X185761904Y-91607142D01*
X185714285Y-91654761D01*
X185619047Y-91702380D01*
X185380952Y-91702380D01*
X185285714Y-91654761D01*
X185238095Y-91607142D01*
D12*
%TO.C,T1*%
X58532380Y-77104523D02*
X59258095Y-77104523D01*
X58895238Y-78374523D02*
X58895238Y-77104523D01*
X60346666Y-78374523D02*
X59620952Y-78374523D01*
X59983809Y-78374523D02*
X59983809Y-77104523D01*
X59862857Y-77285952D01*
X59741904Y-77406904D01*
X59620952Y-77467380D01*
D10*
%TO.C,C20*%
X138357142Y-92857142D02*
X138309523Y-92904761D01*
X138166666Y-92952380D01*
X138071428Y-92952380D01*
X137928571Y-92904761D01*
X137833333Y-92809523D01*
X137785714Y-92714285D01*
X137738095Y-92523809D01*
X137738095Y-92380952D01*
X137785714Y-92190476D01*
X137833333Y-92095238D01*
X137928571Y-92000000D01*
X138071428Y-91952380D01*
X138166666Y-91952380D01*
X138309523Y-92000000D01*
X138357142Y-92047619D01*
X138738095Y-92047619D02*
X138785714Y-92000000D01*
X138880952Y-91952380D01*
X139119047Y-91952380D01*
X139214285Y-92000000D01*
X139261904Y-92047619D01*
X139309523Y-92142857D01*
X139309523Y-92238095D01*
X139261904Y-92380952D01*
X138690476Y-92952380D01*
X139309523Y-92952380D01*
X139928571Y-91952380D02*
X140023809Y-91952380D01*
X140119047Y-92000000D01*
X140166666Y-92047619D01*
X140214285Y-92142857D01*
X140261904Y-92333333D01*
X140261904Y-92571428D01*
X140214285Y-92761904D01*
X140166666Y-92857142D01*
X140119047Y-92904761D01*
X140023809Y-92952380D01*
X139928571Y-92952380D01*
X139833333Y-92904761D01*
X139785714Y-92857142D01*
X139738095Y-92761904D01*
X139690476Y-92571428D01*
X139690476Y-92333333D01*
X139738095Y-92142857D01*
X139785714Y-92047619D01*
X139833333Y-92000000D01*
X139928571Y-91952380D01*
D12*
%TO.C,C27*%
X183683571Y-62953571D02*
X183623095Y-63014047D01*
X183441666Y-63074523D01*
X183320714Y-63074523D01*
X183139285Y-63014047D01*
X183018333Y-62893095D01*
X182957857Y-62772142D01*
X182897380Y-62530238D01*
X182897380Y-62348809D01*
X182957857Y-62106904D01*
X183018333Y-61985952D01*
X183139285Y-61865000D01*
X183320714Y-61804523D01*
X183441666Y-61804523D01*
X183623095Y-61865000D01*
X183683571Y-61925476D01*
X184167380Y-61925476D02*
X184227857Y-61865000D01*
X184348809Y-61804523D01*
X184651190Y-61804523D01*
X184772142Y-61865000D01*
X184832619Y-61925476D01*
X184893095Y-62046428D01*
X184893095Y-62167380D01*
X184832619Y-62348809D01*
X184106904Y-63074523D01*
X184893095Y-63074523D01*
X185316428Y-61804523D02*
X186163095Y-61804523D01*
X185618809Y-63074523D01*
%TO.C,L5*%
X192288333Y-55574523D02*
X191683571Y-55574523D01*
X191683571Y-54304523D01*
X193316428Y-54304523D02*
X192711666Y-54304523D01*
X192651190Y-54909285D01*
X192711666Y-54848809D01*
X192832619Y-54788333D01*
X193135000Y-54788333D01*
X193255952Y-54848809D01*
X193316428Y-54909285D01*
X193376904Y-55030238D01*
X193376904Y-55332619D01*
X193316428Y-55453571D01*
X193255952Y-55514047D01*
X193135000Y-55574523D01*
X192832619Y-55574523D01*
X192711666Y-55514047D01*
X192651190Y-55453571D01*
D10*
%TO.C,K1*%
X181961904Y-52302380D02*
X181961904Y-51302380D01*
X182533333Y-52302380D02*
X182104761Y-51730952D01*
X182533333Y-51302380D02*
X181961904Y-51873809D01*
X183485714Y-52302380D02*
X182914285Y-52302380D01*
X183200000Y-52302380D02*
X183200000Y-51302380D01*
X183104761Y-51445238D01*
X183009523Y-51540476D01*
X182914285Y-51588095D01*
D12*
%TO.C,C22*%
X184683571Y-94953571D02*
X184623095Y-95014047D01*
X184441666Y-95074523D01*
X184320714Y-95074523D01*
X184139285Y-95014047D01*
X184018333Y-94893095D01*
X183957857Y-94772142D01*
X183897380Y-94530238D01*
X183897380Y-94348809D01*
X183957857Y-94106904D01*
X184018333Y-93985952D01*
X184139285Y-93865000D01*
X184320714Y-93804523D01*
X184441666Y-93804523D01*
X184623095Y-93865000D01*
X184683571Y-93925476D01*
X185167380Y-93925476D02*
X185227857Y-93865000D01*
X185348809Y-93804523D01*
X185651190Y-93804523D01*
X185772142Y-93865000D01*
X185832619Y-93925476D01*
X185893095Y-94046428D01*
X185893095Y-94167380D01*
X185832619Y-94348809D01*
X185106904Y-95074523D01*
X185893095Y-95074523D01*
X186376904Y-93925476D02*
X186437380Y-93865000D01*
X186558333Y-93804523D01*
X186860714Y-93804523D01*
X186981666Y-93865000D01*
X187042142Y-93925476D01*
X187102619Y-94046428D01*
X187102619Y-94167380D01*
X187042142Y-94348809D01*
X186316428Y-95074523D01*
X187102619Y-95074523D01*
D10*
%TO.C,C32*%
X200357142Y-115857142D02*
X200309523Y-115904761D01*
X200166666Y-115952380D01*
X200071428Y-115952380D01*
X199928571Y-115904761D01*
X199833333Y-115809523D01*
X199785714Y-115714285D01*
X199738095Y-115523809D01*
X199738095Y-115380952D01*
X199785714Y-115190476D01*
X199833333Y-115095238D01*
X199928571Y-115000000D01*
X200071428Y-114952380D01*
X200166666Y-114952380D01*
X200309523Y-115000000D01*
X200357142Y-115047619D01*
X200690476Y-114952380D02*
X201309523Y-114952380D01*
X200976190Y-115333333D01*
X201119047Y-115333333D01*
X201214285Y-115380952D01*
X201261904Y-115428571D01*
X201309523Y-115523809D01*
X201309523Y-115761904D01*
X201261904Y-115857142D01*
X201214285Y-115904761D01*
X201119047Y-115952380D01*
X200833333Y-115952380D01*
X200738095Y-115904761D01*
X200690476Y-115857142D01*
X201690476Y-115047619D02*
X201738095Y-115000000D01*
X201833333Y-114952380D01*
X202071428Y-114952380D01*
X202166666Y-115000000D01*
X202214285Y-115047619D01*
X202261904Y-115142857D01*
X202261904Y-115238095D01*
X202214285Y-115380952D01*
X201642857Y-115952380D01*
X202261904Y-115952380D01*
D12*
%TO.C,PS3*%
X125207857Y-104574523D02*
X125207857Y-103304523D01*
X125691666Y-103304523D01*
X125812619Y-103365000D01*
X125873095Y-103425476D01*
X125933571Y-103546428D01*
X125933571Y-103727857D01*
X125873095Y-103848809D01*
X125812619Y-103909285D01*
X125691666Y-103969761D01*
X125207857Y-103969761D01*
X126417380Y-104514047D02*
X126598809Y-104574523D01*
X126901190Y-104574523D01*
X127022142Y-104514047D01*
X127082619Y-104453571D01*
X127143095Y-104332619D01*
X127143095Y-104211666D01*
X127082619Y-104090714D01*
X127022142Y-104030238D01*
X126901190Y-103969761D01*
X126659285Y-103909285D01*
X126538333Y-103848809D01*
X126477857Y-103788333D01*
X126417380Y-103667380D01*
X126417380Y-103546428D01*
X126477857Y-103425476D01*
X126538333Y-103365000D01*
X126659285Y-103304523D01*
X126961666Y-103304523D01*
X127143095Y-103365000D01*
X127566428Y-103304523D02*
X128352619Y-103304523D01*
X127929285Y-103788333D01*
X128110714Y-103788333D01*
X128231666Y-103848809D01*
X128292142Y-103909285D01*
X128352619Y-104030238D01*
X128352619Y-104332619D01*
X128292142Y-104453571D01*
X128231666Y-104514047D01*
X128110714Y-104574523D01*
X127747857Y-104574523D01*
X127626904Y-104514047D01*
X127566428Y-104453571D01*
D10*
%TO.C,R43*%
X74657142Y-90352380D02*
X74323809Y-89876190D01*
X74085714Y-90352380D02*
X74085714Y-89352380D01*
X74466666Y-89352380D01*
X74561904Y-89400000D01*
X74609523Y-89447619D01*
X74657142Y-89542857D01*
X74657142Y-89685714D01*
X74609523Y-89780952D01*
X74561904Y-89828571D01*
X74466666Y-89876190D01*
X74085714Y-89876190D01*
X75514285Y-89685714D02*
X75514285Y-90352380D01*
X75276190Y-89304761D02*
X75038095Y-90019047D01*
X75657142Y-90019047D01*
X75942857Y-89352380D02*
X76561904Y-89352380D01*
X76228571Y-89733333D01*
X76371428Y-89733333D01*
X76466666Y-89780952D01*
X76514285Y-89828571D01*
X76561904Y-89923809D01*
X76561904Y-90161904D01*
X76514285Y-90257142D01*
X76466666Y-90304761D01*
X76371428Y-90352380D01*
X76085714Y-90352380D01*
X75990476Y-90304761D01*
X75942857Y-90257142D01*
%TO.C,C45*%
X168357142Y-116607142D02*
X168309523Y-116654761D01*
X168166666Y-116702380D01*
X168071428Y-116702380D01*
X167928571Y-116654761D01*
X167833333Y-116559523D01*
X167785714Y-116464285D01*
X167738095Y-116273809D01*
X167738095Y-116130952D01*
X167785714Y-115940476D01*
X167833333Y-115845238D01*
X167928571Y-115750000D01*
X168071428Y-115702380D01*
X168166666Y-115702380D01*
X168309523Y-115750000D01*
X168357142Y-115797619D01*
X169214285Y-116035714D02*
X169214285Y-116702380D01*
X168976190Y-115654761D02*
X168738095Y-116369047D01*
X169357142Y-116369047D01*
X170214285Y-115702380D02*
X169738095Y-115702380D01*
X169690476Y-116178571D01*
X169738095Y-116130952D01*
X169833333Y-116083333D01*
X170071428Y-116083333D01*
X170166666Y-116130952D01*
X170214285Y-116178571D01*
X170261904Y-116273809D01*
X170261904Y-116511904D01*
X170214285Y-116607142D01*
X170166666Y-116654761D01*
X170071428Y-116702380D01*
X169833333Y-116702380D01*
X169738095Y-116654761D01*
X169690476Y-116607142D01*
%TO.C,C17*%
X106857142Y-104857142D02*
X106809523Y-104904761D01*
X106666666Y-104952380D01*
X106571428Y-104952380D01*
X106428571Y-104904761D01*
X106333333Y-104809523D01*
X106285714Y-104714285D01*
X106238095Y-104523809D01*
X106238095Y-104380952D01*
X106285714Y-104190476D01*
X106333333Y-104095238D01*
X106428571Y-104000000D01*
X106571428Y-103952380D01*
X106666666Y-103952380D01*
X106809523Y-104000000D01*
X106857142Y-104047619D01*
X107809523Y-104952380D02*
X107238095Y-104952380D01*
X107523809Y-104952380D02*
X107523809Y-103952380D01*
X107428571Y-104095238D01*
X107333333Y-104190476D01*
X107238095Y-104238095D01*
X108142857Y-103952380D02*
X108809523Y-103952380D01*
X108380952Y-104952380D01*
%TO.C,U4*%
X78838095Y-120202380D02*
X78838095Y-121011904D01*
X78885714Y-121107142D01*
X78933333Y-121154761D01*
X79028571Y-121202380D01*
X79219047Y-121202380D01*
X79314285Y-121154761D01*
X79361904Y-121107142D01*
X79409523Y-121011904D01*
X79409523Y-120202380D01*
X80314285Y-120535714D02*
X80314285Y-121202380D01*
X80076190Y-120154761D02*
X79838095Y-120869047D01*
X80457142Y-120869047D01*
D12*
%TO.C,IC7*%
X146560238Y-120374523D02*
X146560238Y-119104523D01*
X147890714Y-120253571D02*
X147830238Y-120314047D01*
X147648809Y-120374523D01*
X147527857Y-120374523D01*
X147346428Y-120314047D01*
X147225476Y-120193095D01*
X147165000Y-120072142D01*
X147104523Y-119830238D01*
X147104523Y-119648809D01*
X147165000Y-119406904D01*
X147225476Y-119285952D01*
X147346428Y-119165000D01*
X147527857Y-119104523D01*
X147648809Y-119104523D01*
X147830238Y-119165000D01*
X147890714Y-119225476D01*
X148314047Y-119104523D02*
X149160714Y-119104523D01*
X148616428Y-120374523D01*
D10*
%TO.C,C40*%
X161057142Y-99442857D02*
X161104761Y-99490476D01*
X161152380Y-99633333D01*
X161152380Y-99728571D01*
X161104761Y-99871428D01*
X161009523Y-99966666D01*
X160914285Y-100014285D01*
X160723809Y-100061904D01*
X160580952Y-100061904D01*
X160390476Y-100014285D01*
X160295238Y-99966666D01*
X160200000Y-99871428D01*
X160152380Y-99728571D01*
X160152380Y-99633333D01*
X160200000Y-99490476D01*
X160247619Y-99442857D01*
X160485714Y-98585714D02*
X161152380Y-98585714D01*
X160104761Y-98823809D02*
X160819047Y-99061904D01*
X160819047Y-98442857D01*
X160152380Y-97871428D02*
X160152380Y-97776190D01*
X160200000Y-97680952D01*
X160247619Y-97633333D01*
X160342857Y-97585714D01*
X160533333Y-97538095D01*
X160771428Y-97538095D01*
X160961904Y-97585714D01*
X161057142Y-97633333D01*
X161104761Y-97680952D01*
X161152380Y-97776190D01*
X161152380Y-97871428D01*
X161104761Y-97966666D01*
X161057142Y-98014285D01*
X160961904Y-98061904D01*
X160771428Y-98109523D01*
X160533333Y-98109523D01*
X160342857Y-98061904D01*
X160247619Y-98014285D01*
X160200000Y-97966666D01*
X160152380Y-97871428D01*
%TO.C,C4*%
X95833333Y-106107142D02*
X95785714Y-106154761D01*
X95642857Y-106202380D01*
X95547619Y-106202380D01*
X95404761Y-106154761D01*
X95309523Y-106059523D01*
X95261904Y-105964285D01*
X95214285Y-105773809D01*
X95214285Y-105630952D01*
X95261904Y-105440476D01*
X95309523Y-105345238D01*
X95404761Y-105250000D01*
X95547619Y-105202380D01*
X95642857Y-105202380D01*
X95785714Y-105250000D01*
X95833333Y-105297619D01*
X96690476Y-105535714D02*
X96690476Y-106202380D01*
X96452380Y-105154761D02*
X96214285Y-105869047D01*
X96833333Y-105869047D01*
%TO.C,C11*%
X52957142Y-69057142D02*
X52909523Y-69104761D01*
X52766666Y-69152380D01*
X52671428Y-69152380D01*
X52528571Y-69104761D01*
X52433333Y-69009523D01*
X52385714Y-68914285D01*
X52338095Y-68723809D01*
X52338095Y-68580952D01*
X52385714Y-68390476D01*
X52433333Y-68295238D01*
X52528571Y-68200000D01*
X52671428Y-68152380D01*
X52766666Y-68152380D01*
X52909523Y-68200000D01*
X52957142Y-68247619D01*
X53909523Y-69152380D02*
X53338095Y-69152380D01*
X53623809Y-69152380D02*
X53623809Y-68152380D01*
X53528571Y-68295238D01*
X53433333Y-68390476D01*
X53338095Y-68438095D01*
X54861904Y-69152380D02*
X54290476Y-69152380D01*
X54576190Y-69152380D02*
X54576190Y-68152380D01*
X54480952Y-68295238D01*
X54385714Y-68390476D01*
X54290476Y-68438095D01*
%TO.C,R29*%
X76607142Y-95952380D02*
X76273809Y-95476190D01*
X76035714Y-95952380D02*
X76035714Y-94952380D01*
X76416666Y-94952380D01*
X76511904Y-95000000D01*
X76559523Y-95047619D01*
X76607142Y-95142857D01*
X76607142Y-95285714D01*
X76559523Y-95380952D01*
X76511904Y-95428571D01*
X76416666Y-95476190D01*
X76035714Y-95476190D01*
X76988095Y-95047619D02*
X77035714Y-95000000D01*
X77130952Y-94952380D01*
X77369047Y-94952380D01*
X77464285Y-95000000D01*
X77511904Y-95047619D01*
X77559523Y-95142857D01*
X77559523Y-95238095D01*
X77511904Y-95380952D01*
X76940476Y-95952380D01*
X77559523Y-95952380D01*
X78035714Y-95952380D02*
X78226190Y-95952380D01*
X78321428Y-95904761D01*
X78369047Y-95857142D01*
X78464285Y-95714285D01*
X78511904Y-95523809D01*
X78511904Y-95142857D01*
X78464285Y-95047619D01*
X78416666Y-95000000D01*
X78321428Y-94952380D01*
X78130952Y-94952380D01*
X78035714Y-95000000D01*
X77988095Y-95047619D01*
X77940476Y-95142857D01*
X77940476Y-95380952D01*
X77988095Y-95476190D01*
X78035714Y-95523809D01*
X78130952Y-95571428D01*
X78321428Y-95571428D01*
X78416666Y-95523809D01*
X78464285Y-95476190D01*
X78511904Y-95380952D01*
D12*
%TO.C,T3*%
X135882380Y-111454523D02*
X136608095Y-111454523D01*
X136245238Y-112724523D02*
X136245238Y-111454523D01*
X136910476Y-111454523D02*
X137696666Y-111454523D01*
X137273333Y-111938333D01*
X137454761Y-111938333D01*
X137575714Y-111998809D01*
X137636190Y-112059285D01*
X137696666Y-112180238D01*
X137696666Y-112482619D01*
X137636190Y-112603571D01*
X137575714Y-112664047D01*
X137454761Y-112724523D01*
X137091904Y-112724523D01*
X136970952Y-112664047D01*
X136910476Y-112603571D01*
%TO.C,D3*%
X130612619Y-98074523D02*
X130612619Y-96804523D01*
X130915000Y-96804523D01*
X131096428Y-96865000D01*
X131217380Y-96985952D01*
X131277857Y-97106904D01*
X131338333Y-97348809D01*
X131338333Y-97530238D01*
X131277857Y-97772142D01*
X131217380Y-97893095D01*
X131096428Y-98014047D01*
X130915000Y-98074523D01*
X130612619Y-98074523D01*
X131761666Y-96804523D02*
X132547857Y-96804523D01*
X132124523Y-97288333D01*
X132305952Y-97288333D01*
X132426904Y-97348809D01*
X132487380Y-97409285D01*
X132547857Y-97530238D01*
X132547857Y-97832619D01*
X132487380Y-97953571D01*
X132426904Y-98014047D01*
X132305952Y-98074523D01*
X131943095Y-98074523D01*
X131822142Y-98014047D01*
X131761666Y-97953571D01*
D10*
%TO.C,L2*%
X120583333Y-51702380D02*
X120107142Y-51702380D01*
X120107142Y-50702380D01*
X120869047Y-50797619D02*
X120916666Y-50750000D01*
X121011904Y-50702380D01*
X121250000Y-50702380D01*
X121345238Y-50750000D01*
X121392857Y-50797619D01*
X121440476Y-50892857D01*
X121440476Y-50988095D01*
X121392857Y-51130952D01*
X120821428Y-51702380D01*
X121440476Y-51702380D01*
%TO.C,C15*%
X53357142Y-58257142D02*
X53309523Y-58304761D01*
X53166666Y-58352380D01*
X53071428Y-58352380D01*
X52928571Y-58304761D01*
X52833333Y-58209523D01*
X52785714Y-58114285D01*
X52738095Y-57923809D01*
X52738095Y-57780952D01*
X52785714Y-57590476D01*
X52833333Y-57495238D01*
X52928571Y-57400000D01*
X53071428Y-57352380D01*
X53166666Y-57352380D01*
X53309523Y-57400000D01*
X53357142Y-57447619D01*
X54309523Y-58352380D02*
X53738095Y-58352380D01*
X54023809Y-58352380D02*
X54023809Y-57352380D01*
X53928571Y-57495238D01*
X53833333Y-57590476D01*
X53738095Y-57638095D01*
X55214285Y-57352380D02*
X54738095Y-57352380D01*
X54690476Y-57828571D01*
X54738095Y-57780952D01*
X54833333Y-57733333D01*
X55071428Y-57733333D01*
X55166666Y-57780952D01*
X55214285Y-57828571D01*
X55261904Y-57923809D01*
X55261904Y-58161904D01*
X55214285Y-58257142D01*
X55166666Y-58304761D01*
X55071428Y-58352380D01*
X54833333Y-58352380D01*
X54738095Y-58304761D01*
X54690476Y-58257142D01*
D12*
%TO.C,PS2*%
X151707857Y-104074523D02*
X151707857Y-102804523D01*
X152191666Y-102804523D01*
X152312619Y-102865000D01*
X152373095Y-102925476D01*
X152433571Y-103046428D01*
X152433571Y-103227857D01*
X152373095Y-103348809D01*
X152312619Y-103409285D01*
X152191666Y-103469761D01*
X151707857Y-103469761D01*
X152917380Y-104014047D02*
X153098809Y-104074523D01*
X153401190Y-104074523D01*
X153522142Y-104014047D01*
X153582619Y-103953571D01*
X153643095Y-103832619D01*
X153643095Y-103711666D01*
X153582619Y-103590714D01*
X153522142Y-103530238D01*
X153401190Y-103469761D01*
X153159285Y-103409285D01*
X153038333Y-103348809D01*
X152977857Y-103288333D01*
X152917380Y-103167380D01*
X152917380Y-103046428D01*
X152977857Y-102925476D01*
X153038333Y-102865000D01*
X153159285Y-102804523D01*
X153461666Y-102804523D01*
X153643095Y-102865000D01*
X154126904Y-102925476D02*
X154187380Y-102865000D01*
X154308333Y-102804523D01*
X154610714Y-102804523D01*
X154731666Y-102865000D01*
X154792142Y-102925476D01*
X154852619Y-103046428D01*
X154852619Y-103167380D01*
X154792142Y-103348809D01*
X154066428Y-104074523D01*
X154852619Y-104074523D01*
%TO.C,U3*%
X56282380Y-106554523D02*
X56282380Y-107582619D01*
X56342857Y-107703571D01*
X56403333Y-107764047D01*
X56524285Y-107824523D01*
X56766190Y-107824523D01*
X56887142Y-107764047D01*
X56947619Y-107703571D01*
X57008095Y-107582619D01*
X57008095Y-106554523D01*
X57491904Y-106554523D02*
X58278095Y-106554523D01*
X57854761Y-107038333D01*
X58036190Y-107038333D01*
X58157142Y-107098809D01*
X58217619Y-107159285D01*
X58278095Y-107280238D01*
X58278095Y-107582619D01*
X58217619Y-107703571D01*
X58157142Y-107764047D01*
X58036190Y-107824523D01*
X57673333Y-107824523D01*
X57552380Y-107764047D01*
X57491904Y-107703571D01*
D10*
%TO.C,C41*%
X161929720Y-97836173D02*
X161882101Y-97883792D01*
X161739244Y-97931411D01*
X161644006Y-97931411D01*
X161501149Y-97883792D01*
X161405911Y-97788554D01*
X161358292Y-97693316D01*
X161310673Y-97502840D01*
X161310673Y-97359983D01*
X161358292Y-97169507D01*
X161405911Y-97074269D01*
X161501149Y-96979031D01*
X161644006Y-96931411D01*
X161739244Y-96931411D01*
X161882101Y-96979031D01*
X161929720Y-97026650D01*
X162786863Y-97264745D02*
X162786863Y-97931411D01*
X162548768Y-96883792D02*
X162310673Y-97598078D01*
X162929720Y-97598078D01*
X163834482Y-97931411D02*
X163263054Y-97931411D01*
X163548768Y-97931411D02*
X163548768Y-96931411D01*
X163453530Y-97074269D01*
X163358292Y-97169507D01*
X163263054Y-97217126D01*
%TO.C,C13*%
X57907142Y-53707142D02*
X57859523Y-53754761D01*
X57716666Y-53802380D01*
X57621428Y-53802380D01*
X57478571Y-53754761D01*
X57383333Y-53659523D01*
X57335714Y-53564285D01*
X57288095Y-53373809D01*
X57288095Y-53230952D01*
X57335714Y-53040476D01*
X57383333Y-52945238D01*
X57478571Y-52850000D01*
X57621428Y-52802380D01*
X57716666Y-52802380D01*
X57859523Y-52850000D01*
X57907142Y-52897619D01*
X58859523Y-53802380D02*
X58288095Y-53802380D01*
X58573809Y-53802380D02*
X58573809Y-52802380D01*
X58478571Y-52945238D01*
X58383333Y-53040476D01*
X58288095Y-53088095D01*
X59192857Y-52802380D02*
X59811904Y-52802380D01*
X59478571Y-53183333D01*
X59621428Y-53183333D01*
X59716666Y-53230952D01*
X59764285Y-53278571D01*
X59811904Y-53373809D01*
X59811904Y-53611904D01*
X59764285Y-53707142D01*
X59716666Y-53754761D01*
X59621428Y-53802380D01*
X59335714Y-53802380D01*
X59240476Y-53754761D01*
X59192857Y-53707142D01*
%TO.C,C69*%
X105357142Y-121607142D02*
X105309523Y-121654761D01*
X105166666Y-121702380D01*
X105071428Y-121702380D01*
X104928571Y-121654761D01*
X104833333Y-121559523D01*
X104785714Y-121464285D01*
X104738095Y-121273809D01*
X104738095Y-121130952D01*
X104785714Y-120940476D01*
X104833333Y-120845238D01*
X104928571Y-120750000D01*
X105071428Y-120702380D01*
X105166666Y-120702380D01*
X105309523Y-120750000D01*
X105357142Y-120797619D01*
X106214285Y-120702380D02*
X106023809Y-120702380D01*
X105928571Y-120750000D01*
X105880952Y-120797619D01*
X105785714Y-120940476D01*
X105738095Y-121130952D01*
X105738095Y-121511904D01*
X105785714Y-121607142D01*
X105833333Y-121654761D01*
X105928571Y-121702380D01*
X106119047Y-121702380D01*
X106214285Y-121654761D01*
X106261904Y-121607142D01*
X106309523Y-121511904D01*
X106309523Y-121273809D01*
X106261904Y-121178571D01*
X106214285Y-121130952D01*
X106119047Y-121083333D01*
X105928571Y-121083333D01*
X105833333Y-121130952D01*
X105785714Y-121178571D01*
X105738095Y-121273809D01*
X106785714Y-121702380D02*
X106976190Y-121702380D01*
X107071428Y-121654761D01*
X107119047Y-121607142D01*
X107214285Y-121464285D01*
X107261904Y-121273809D01*
X107261904Y-120892857D01*
X107214285Y-120797619D01*
X107166666Y-120750000D01*
X107071428Y-120702380D01*
X106880952Y-120702380D01*
X106785714Y-120750000D01*
X106738095Y-120797619D01*
X106690476Y-120892857D01*
X106690476Y-121130952D01*
X106738095Y-121226190D01*
X106785714Y-121273809D01*
X106880952Y-121321428D01*
X107071428Y-121321428D01*
X107166666Y-121273809D01*
X107214285Y-121226190D01*
X107261904Y-121130952D01*
%TO.C,C42*%
X165432939Y-100555759D02*
X165480558Y-100603378D01*
X165528177Y-100746235D01*
X165528177Y-100841473D01*
X165480558Y-100984330D01*
X165385320Y-101079568D01*
X165290082Y-101127187D01*
X165099606Y-101174806D01*
X164956749Y-101174806D01*
X164766273Y-101127187D01*
X164671035Y-101079568D01*
X164575797Y-100984330D01*
X164528177Y-100841473D01*
X164528177Y-100746235D01*
X164575797Y-100603378D01*
X164623416Y-100555759D01*
X164861511Y-99698616D02*
X165528177Y-99698616D01*
X164480558Y-99936711D02*
X165194844Y-100174806D01*
X165194844Y-99555759D01*
X164623416Y-99222425D02*
X164575797Y-99174806D01*
X164528177Y-99079568D01*
X164528177Y-98841473D01*
X164575797Y-98746235D01*
X164623416Y-98698616D01*
X164718654Y-98650997D01*
X164813892Y-98650997D01*
X164956749Y-98698616D01*
X165528177Y-99270044D01*
X165528177Y-98650997D01*
D12*
%TO.C,C49*%
X141483571Y-97153571D02*
X141423095Y-97214047D01*
X141241666Y-97274523D01*
X141120714Y-97274523D01*
X140939285Y-97214047D01*
X140818333Y-97093095D01*
X140757857Y-96972142D01*
X140697380Y-96730238D01*
X140697380Y-96548809D01*
X140757857Y-96306904D01*
X140818333Y-96185952D01*
X140939285Y-96065000D01*
X141120714Y-96004523D01*
X141241666Y-96004523D01*
X141423095Y-96065000D01*
X141483571Y-96125476D01*
X142572142Y-96427857D02*
X142572142Y-97274523D01*
X142269761Y-95944047D02*
X141967380Y-96851190D01*
X142753571Y-96851190D01*
X143297857Y-97274523D02*
X143539761Y-97274523D01*
X143660714Y-97214047D01*
X143721190Y-97153571D01*
X143842142Y-96972142D01*
X143902619Y-96730238D01*
X143902619Y-96246428D01*
X143842142Y-96125476D01*
X143781666Y-96065000D01*
X143660714Y-96004523D01*
X143418809Y-96004523D01*
X143297857Y-96065000D01*
X143237380Y-96125476D01*
X143176904Y-96246428D01*
X143176904Y-96548809D01*
X143237380Y-96669761D01*
X143297857Y-96730238D01*
X143418809Y-96790714D01*
X143660714Y-96790714D01*
X143781666Y-96730238D01*
X143842142Y-96669761D01*
X143902619Y-96548809D01*
D10*
%TO.C,J6*%
X112916666Y-109702380D02*
X112916666Y-110416666D01*
X112869047Y-110559523D01*
X112773809Y-110654761D01*
X112630952Y-110702380D01*
X112535714Y-110702380D01*
X113821428Y-109702380D02*
X113630952Y-109702380D01*
X113535714Y-109750000D01*
X113488095Y-109797619D01*
X113392857Y-109940476D01*
X113345238Y-110130952D01*
X113345238Y-110511904D01*
X113392857Y-110607142D01*
X113440476Y-110654761D01*
X113535714Y-110702380D01*
X113726190Y-110702380D01*
X113821428Y-110654761D01*
X113869047Y-110607142D01*
X113916666Y-110511904D01*
X113916666Y-110273809D01*
X113869047Y-110178571D01*
X113821428Y-110130952D01*
X113726190Y-110083333D01*
X113535714Y-110083333D01*
X113440476Y-110130952D01*
X113392857Y-110178571D01*
X113345238Y-110273809D01*
D12*
%TO.C,IC8*%
X130560238Y-120574523D02*
X130560238Y-119304523D01*
X131890714Y-120453571D02*
X131830238Y-120514047D01*
X131648809Y-120574523D01*
X131527857Y-120574523D01*
X131346428Y-120514047D01*
X131225476Y-120393095D01*
X131165000Y-120272142D01*
X131104523Y-120030238D01*
X131104523Y-119848809D01*
X131165000Y-119606904D01*
X131225476Y-119485952D01*
X131346428Y-119365000D01*
X131527857Y-119304523D01*
X131648809Y-119304523D01*
X131830238Y-119365000D01*
X131890714Y-119425476D01*
X132616428Y-119848809D02*
X132495476Y-119788333D01*
X132435000Y-119727857D01*
X132374523Y-119606904D01*
X132374523Y-119546428D01*
X132435000Y-119425476D01*
X132495476Y-119365000D01*
X132616428Y-119304523D01*
X132858333Y-119304523D01*
X132979285Y-119365000D01*
X133039761Y-119425476D01*
X133100238Y-119546428D01*
X133100238Y-119606904D01*
X133039761Y-119727857D01*
X132979285Y-119788333D01*
X132858333Y-119848809D01*
X132616428Y-119848809D01*
X132495476Y-119909285D01*
X132435000Y-119969761D01*
X132374523Y-120090714D01*
X132374523Y-120332619D01*
X132435000Y-120453571D01*
X132495476Y-120514047D01*
X132616428Y-120574523D01*
X132858333Y-120574523D01*
X132979285Y-120514047D01*
X133039761Y-120453571D01*
X133100238Y-120332619D01*
X133100238Y-120090714D01*
X133039761Y-119969761D01*
X132979285Y-119909285D01*
X132858333Y-119848809D01*
D10*
%TO.C,C39*%
X159357142Y-118357142D02*
X159309523Y-118404761D01*
X159166666Y-118452380D01*
X159071428Y-118452380D01*
X158928571Y-118404761D01*
X158833333Y-118309523D01*
X158785714Y-118214285D01*
X158738095Y-118023809D01*
X158738095Y-117880952D01*
X158785714Y-117690476D01*
X158833333Y-117595238D01*
X158928571Y-117500000D01*
X159071428Y-117452380D01*
X159166666Y-117452380D01*
X159309523Y-117500000D01*
X159357142Y-117547619D01*
X159690476Y-117452380D02*
X160309523Y-117452380D01*
X159976190Y-117833333D01*
X160119047Y-117833333D01*
X160214285Y-117880952D01*
X160261904Y-117928571D01*
X160309523Y-118023809D01*
X160309523Y-118261904D01*
X160261904Y-118357142D01*
X160214285Y-118404761D01*
X160119047Y-118452380D01*
X159833333Y-118452380D01*
X159738095Y-118404761D01*
X159690476Y-118357142D01*
X160785714Y-118452380D02*
X160976190Y-118452380D01*
X161071428Y-118404761D01*
X161119047Y-118357142D01*
X161214285Y-118214285D01*
X161261904Y-118023809D01*
X161261904Y-117642857D01*
X161214285Y-117547619D01*
X161166666Y-117500000D01*
X161071428Y-117452380D01*
X160880952Y-117452380D01*
X160785714Y-117500000D01*
X160738095Y-117547619D01*
X160690476Y-117642857D01*
X160690476Y-117880952D01*
X160738095Y-117976190D01*
X160785714Y-118023809D01*
X160880952Y-118071428D01*
X161071428Y-118071428D01*
X161166666Y-118023809D01*
X161214285Y-117976190D01*
X161261904Y-117880952D01*
%TO.C,C26*%
X51957142Y-88857142D02*
X51909523Y-88904761D01*
X51766666Y-88952380D01*
X51671428Y-88952380D01*
X51528571Y-88904761D01*
X51433333Y-88809523D01*
X51385714Y-88714285D01*
X51338095Y-88523809D01*
X51338095Y-88380952D01*
X51385714Y-88190476D01*
X51433333Y-88095238D01*
X51528571Y-88000000D01*
X51671428Y-87952380D01*
X51766666Y-87952380D01*
X51909523Y-88000000D01*
X51957142Y-88047619D01*
X52338095Y-88047619D02*
X52385714Y-88000000D01*
X52480952Y-87952380D01*
X52719047Y-87952380D01*
X52814285Y-88000000D01*
X52861904Y-88047619D01*
X52909523Y-88142857D01*
X52909523Y-88238095D01*
X52861904Y-88380952D01*
X52290476Y-88952380D01*
X52909523Y-88952380D01*
X53766666Y-87952380D02*
X53576190Y-87952380D01*
X53480952Y-88000000D01*
X53433333Y-88047619D01*
X53338095Y-88190476D01*
X53290476Y-88380952D01*
X53290476Y-88761904D01*
X53338095Y-88857142D01*
X53385714Y-88904761D01*
X53480952Y-88952380D01*
X53671428Y-88952380D01*
X53766666Y-88904761D01*
X53814285Y-88857142D01*
X53861904Y-88761904D01*
X53861904Y-88523809D01*
X53814285Y-88428571D01*
X53766666Y-88380952D01*
X53671428Y-88333333D01*
X53480952Y-88333333D01*
X53385714Y-88380952D01*
X53338095Y-88428571D01*
X53290476Y-88523809D01*
%TO.C,C14*%
X53257142Y-86557142D02*
X53209523Y-86604761D01*
X53066666Y-86652380D01*
X52971428Y-86652380D01*
X52828571Y-86604761D01*
X52733333Y-86509523D01*
X52685714Y-86414285D01*
X52638095Y-86223809D01*
X52638095Y-86080952D01*
X52685714Y-85890476D01*
X52733333Y-85795238D01*
X52828571Y-85700000D01*
X52971428Y-85652380D01*
X53066666Y-85652380D01*
X53209523Y-85700000D01*
X53257142Y-85747619D01*
X54209523Y-86652380D02*
X53638095Y-86652380D01*
X53923809Y-86652380D02*
X53923809Y-85652380D01*
X53828571Y-85795238D01*
X53733333Y-85890476D01*
X53638095Y-85938095D01*
X55066666Y-85985714D02*
X55066666Y-86652380D01*
X54828571Y-85604761D02*
X54590476Y-86319047D01*
X55209523Y-86319047D01*
%TO.C,R32*%
X74596393Y-64745927D02*
X74263060Y-64269737D01*
X74024965Y-64745927D02*
X74024965Y-63745927D01*
X74405917Y-63745927D01*
X74501155Y-63793547D01*
X74548774Y-63841166D01*
X74596393Y-63936404D01*
X74596393Y-64079261D01*
X74548774Y-64174499D01*
X74501155Y-64222118D01*
X74405917Y-64269737D01*
X74024965Y-64269737D01*
X74929727Y-63745927D02*
X75548774Y-63745927D01*
X75215441Y-64126880D01*
X75358298Y-64126880D01*
X75453536Y-64174499D01*
X75501155Y-64222118D01*
X75548774Y-64317356D01*
X75548774Y-64555451D01*
X75501155Y-64650689D01*
X75453536Y-64698308D01*
X75358298Y-64745927D01*
X75072584Y-64745927D01*
X74977346Y-64698308D01*
X74929727Y-64650689D01*
X75929727Y-63841166D02*
X75977346Y-63793547D01*
X76072584Y-63745927D01*
X76310679Y-63745927D01*
X76405917Y-63793547D01*
X76453536Y-63841166D01*
X76501155Y-63936404D01*
X76501155Y-64031642D01*
X76453536Y-64174499D01*
X75882108Y-64745927D01*
X76501155Y-64745927D01*
%TO.C,C63*%
X137357142Y-118607142D02*
X137309523Y-118654761D01*
X137166666Y-118702380D01*
X137071428Y-118702380D01*
X136928571Y-118654761D01*
X136833333Y-118559523D01*
X136785714Y-118464285D01*
X136738095Y-118273809D01*
X136738095Y-118130952D01*
X136785714Y-117940476D01*
X136833333Y-117845238D01*
X136928571Y-117750000D01*
X137071428Y-117702380D01*
X137166666Y-117702380D01*
X137309523Y-117750000D01*
X137357142Y-117797619D01*
X138214285Y-117702380D02*
X138023809Y-117702380D01*
X137928571Y-117750000D01*
X137880952Y-117797619D01*
X137785714Y-117940476D01*
X137738095Y-118130952D01*
X137738095Y-118511904D01*
X137785714Y-118607142D01*
X137833333Y-118654761D01*
X137928571Y-118702380D01*
X138119047Y-118702380D01*
X138214285Y-118654761D01*
X138261904Y-118607142D01*
X138309523Y-118511904D01*
X138309523Y-118273809D01*
X138261904Y-118178571D01*
X138214285Y-118130952D01*
X138119047Y-118083333D01*
X137928571Y-118083333D01*
X137833333Y-118130952D01*
X137785714Y-118178571D01*
X137738095Y-118273809D01*
X138642857Y-117702380D02*
X139261904Y-117702380D01*
X138928571Y-118083333D01*
X139071428Y-118083333D01*
X139166666Y-118130952D01*
X139214285Y-118178571D01*
X139261904Y-118273809D01*
X139261904Y-118511904D01*
X139214285Y-118607142D01*
X139166666Y-118654761D01*
X139071428Y-118702380D01*
X138785714Y-118702380D01*
X138690476Y-118654761D01*
X138642857Y-118607142D01*
%TO.C,R42*%
X70457142Y-90052380D02*
X70123809Y-89576190D01*
X69885714Y-90052380D02*
X69885714Y-89052380D01*
X70266666Y-89052380D01*
X70361904Y-89100000D01*
X70409523Y-89147619D01*
X70457142Y-89242857D01*
X70457142Y-89385714D01*
X70409523Y-89480952D01*
X70361904Y-89528571D01*
X70266666Y-89576190D01*
X69885714Y-89576190D01*
X71314285Y-89385714D02*
X71314285Y-90052380D01*
X71076190Y-89004761D02*
X70838095Y-89719047D01*
X71457142Y-89719047D01*
X71790476Y-89147619D02*
X71838095Y-89100000D01*
X71933333Y-89052380D01*
X72171428Y-89052380D01*
X72266666Y-89100000D01*
X72314285Y-89147619D01*
X72361904Y-89242857D01*
X72361904Y-89338095D01*
X72314285Y-89480952D01*
X71742857Y-90052380D01*
X72361904Y-90052380D01*
%TO.C,R21*%
X120607142Y-96952380D02*
X120273809Y-96476190D01*
X120035714Y-96952380D02*
X120035714Y-95952380D01*
X120416666Y-95952380D01*
X120511904Y-96000000D01*
X120559523Y-96047619D01*
X120607142Y-96142857D01*
X120607142Y-96285714D01*
X120559523Y-96380952D01*
X120511904Y-96428571D01*
X120416666Y-96476190D01*
X120035714Y-96476190D01*
X120988095Y-96047619D02*
X121035714Y-96000000D01*
X121130952Y-95952380D01*
X121369047Y-95952380D01*
X121464285Y-96000000D01*
X121511904Y-96047619D01*
X121559523Y-96142857D01*
X121559523Y-96238095D01*
X121511904Y-96380952D01*
X120940476Y-96952380D01*
X121559523Y-96952380D01*
X122511904Y-96952380D02*
X121940476Y-96952380D01*
X122226190Y-96952380D02*
X122226190Y-95952380D01*
X122130952Y-96095238D01*
X122035714Y-96190476D01*
X121940476Y-96238095D01*
D12*
%TO.C,D2*%
X147562619Y-98324523D02*
X147562619Y-97054523D01*
X147865000Y-97054523D01*
X148046428Y-97115000D01*
X148167380Y-97235952D01*
X148227857Y-97356904D01*
X148288333Y-97598809D01*
X148288333Y-97780238D01*
X148227857Y-98022142D01*
X148167380Y-98143095D01*
X148046428Y-98264047D01*
X147865000Y-98324523D01*
X147562619Y-98324523D01*
X148772142Y-97175476D02*
X148832619Y-97115000D01*
X148953571Y-97054523D01*
X149255952Y-97054523D01*
X149376904Y-97115000D01*
X149437380Y-97175476D01*
X149497857Y-97296428D01*
X149497857Y-97417380D01*
X149437380Y-97598809D01*
X148711666Y-98324523D01*
X149497857Y-98324523D01*
D10*
%TO.C,C37*%
X67631324Y-99761978D02*
X67583705Y-99809597D01*
X67440848Y-99857216D01*
X67345610Y-99857216D01*
X67202753Y-99809597D01*
X67107515Y-99714359D01*
X67059896Y-99619121D01*
X67012277Y-99428645D01*
X67012277Y-99285788D01*
X67059896Y-99095312D01*
X67107515Y-99000074D01*
X67202753Y-98904836D01*
X67345610Y-98857216D01*
X67440848Y-98857216D01*
X67583705Y-98904836D01*
X67631324Y-98952455D01*
X67964658Y-98857216D02*
X68583705Y-98857216D01*
X68250372Y-99238169D01*
X68393229Y-99238169D01*
X68488467Y-99285788D01*
X68536086Y-99333407D01*
X68583705Y-99428645D01*
X68583705Y-99666740D01*
X68536086Y-99761978D01*
X68488467Y-99809597D01*
X68393229Y-99857216D01*
X68107515Y-99857216D01*
X68012277Y-99809597D01*
X67964658Y-99761978D01*
X68917039Y-98857216D02*
X69583705Y-98857216D01*
X69155134Y-99857216D01*
%TO.C,U2*%
X58825726Y-55892701D02*
X58825726Y-56702225D01*
X58873345Y-56797463D01*
X58920964Y-56845082D01*
X59016202Y-56892701D01*
X59206678Y-56892701D01*
X59301916Y-56845082D01*
X59349535Y-56797463D01*
X59397154Y-56702225D01*
X59397154Y-55892701D01*
X59825726Y-55987940D02*
X59873345Y-55940321D01*
X59968583Y-55892701D01*
X60206678Y-55892701D01*
X60301916Y-55940321D01*
X60349535Y-55987940D01*
X60397154Y-56083178D01*
X60397154Y-56178416D01*
X60349535Y-56321273D01*
X59778107Y-56892701D01*
X60397154Y-56892701D01*
%TO.C,R22*%
X117357142Y-98552380D02*
X117023809Y-98076190D01*
X116785714Y-98552380D02*
X116785714Y-97552380D01*
X117166666Y-97552380D01*
X117261904Y-97600000D01*
X117309523Y-97647619D01*
X117357142Y-97742857D01*
X117357142Y-97885714D01*
X117309523Y-97980952D01*
X117261904Y-98028571D01*
X117166666Y-98076190D01*
X116785714Y-98076190D01*
X117738095Y-97647619D02*
X117785714Y-97600000D01*
X117880952Y-97552380D01*
X118119047Y-97552380D01*
X118214285Y-97600000D01*
X118261904Y-97647619D01*
X118309523Y-97742857D01*
X118309523Y-97838095D01*
X118261904Y-97980952D01*
X117690476Y-98552380D01*
X118309523Y-98552380D01*
X118690476Y-97647619D02*
X118738095Y-97600000D01*
X118833333Y-97552380D01*
X119071428Y-97552380D01*
X119166666Y-97600000D01*
X119214285Y-97647619D01*
X119261904Y-97742857D01*
X119261904Y-97838095D01*
X119214285Y-97980952D01*
X118642857Y-98552380D01*
X119261904Y-98552380D01*
%TO.C,C29*%
X55507142Y-81307142D02*
X55459523Y-81354761D01*
X55316666Y-81402380D01*
X55221428Y-81402380D01*
X55078571Y-81354761D01*
X54983333Y-81259523D01*
X54935714Y-81164285D01*
X54888095Y-80973809D01*
X54888095Y-80830952D01*
X54935714Y-80640476D01*
X54983333Y-80545238D01*
X55078571Y-80450000D01*
X55221428Y-80402380D01*
X55316666Y-80402380D01*
X55459523Y-80450000D01*
X55507142Y-80497619D01*
X55888095Y-80497619D02*
X55935714Y-80450000D01*
X56030952Y-80402380D01*
X56269047Y-80402380D01*
X56364285Y-80450000D01*
X56411904Y-80497619D01*
X56459523Y-80592857D01*
X56459523Y-80688095D01*
X56411904Y-80830952D01*
X55840476Y-81402380D01*
X56459523Y-81402380D01*
X56935714Y-81402380D02*
X57126190Y-81402380D01*
X57221428Y-81354761D01*
X57269047Y-81307142D01*
X57364285Y-81164285D01*
X57411904Y-80973809D01*
X57411904Y-80592857D01*
X57364285Y-80497619D01*
X57316666Y-80450000D01*
X57221428Y-80402380D01*
X57030952Y-80402380D01*
X56935714Y-80450000D01*
X56888095Y-80497619D01*
X56840476Y-80592857D01*
X56840476Y-80830952D01*
X56888095Y-80926190D01*
X56935714Y-80973809D01*
X57030952Y-81021428D01*
X57221428Y-81021428D01*
X57316666Y-80973809D01*
X57364285Y-80926190D01*
X57411904Y-80830952D01*
%TO.C,R13*%
X73484557Y-62534629D02*
X73151224Y-62058439D01*
X72913129Y-62534629D02*
X72913129Y-61534629D01*
X73294081Y-61534629D01*
X73389319Y-61582249D01*
X73436938Y-61629868D01*
X73484557Y-61725106D01*
X73484557Y-61867963D01*
X73436938Y-61963201D01*
X73389319Y-62010820D01*
X73294081Y-62058439D01*
X72913129Y-62058439D01*
X74436938Y-62534629D02*
X73865510Y-62534629D01*
X74151224Y-62534629D02*
X74151224Y-61534629D01*
X74055986Y-61677487D01*
X73960748Y-61772725D01*
X73865510Y-61820344D01*
X74770272Y-61534629D02*
X75389319Y-61534629D01*
X75055986Y-61915582D01*
X75198843Y-61915582D01*
X75294081Y-61963201D01*
X75341700Y-62010820D01*
X75389319Y-62106058D01*
X75389319Y-62344153D01*
X75341700Y-62439391D01*
X75294081Y-62487010D01*
X75198843Y-62534629D01*
X74913129Y-62534629D01*
X74817891Y-62487010D01*
X74770272Y-62439391D01*
%TO.C,R44*%
X54952380Y-95042857D02*
X54476190Y-95376190D01*
X54952380Y-95614285D02*
X53952380Y-95614285D01*
X53952380Y-95233333D01*
X54000000Y-95138095D01*
X54047619Y-95090476D01*
X54142857Y-95042857D01*
X54285714Y-95042857D01*
X54380952Y-95090476D01*
X54428571Y-95138095D01*
X54476190Y-95233333D01*
X54476190Y-95614285D01*
X54285714Y-94185714D02*
X54952380Y-94185714D01*
X53904761Y-94423809D02*
X54619047Y-94661904D01*
X54619047Y-94042857D01*
X54285714Y-93233333D02*
X54952380Y-93233333D01*
X53904761Y-93471428D02*
X54619047Y-93709523D01*
X54619047Y-93090476D01*
%TO.C,R18*%
X171624346Y-98026035D02*
X171291013Y-97549845D01*
X171052918Y-98026035D02*
X171052918Y-97026035D01*
X171433870Y-97026035D01*
X171529108Y-97073655D01*
X171576727Y-97121274D01*
X171624346Y-97216512D01*
X171624346Y-97359369D01*
X171576727Y-97454607D01*
X171529108Y-97502226D01*
X171433870Y-97549845D01*
X171052918Y-97549845D01*
X172576727Y-98026035D02*
X172005299Y-98026035D01*
X172291013Y-98026035D02*
X172291013Y-97026035D01*
X172195775Y-97168893D01*
X172100537Y-97264131D01*
X172005299Y-97311750D01*
X173148156Y-97454607D02*
X173052918Y-97406988D01*
X173005299Y-97359369D01*
X172957680Y-97264131D01*
X172957680Y-97216512D01*
X173005299Y-97121274D01*
X173052918Y-97073655D01*
X173148156Y-97026035D01*
X173338632Y-97026035D01*
X173433870Y-97073655D01*
X173481489Y-97121274D01*
X173529108Y-97216512D01*
X173529108Y-97264131D01*
X173481489Y-97359369D01*
X173433870Y-97406988D01*
X173338632Y-97454607D01*
X173148156Y-97454607D01*
X173052918Y-97502226D01*
X173005299Y-97549845D01*
X172957680Y-97645083D01*
X172957680Y-97835559D01*
X173005299Y-97930797D01*
X173052918Y-97978416D01*
X173148156Y-98026035D01*
X173338632Y-98026035D01*
X173433870Y-97978416D01*
X173481489Y-97930797D01*
X173529108Y-97835559D01*
X173529108Y-97645083D01*
X173481489Y-97549845D01*
X173433870Y-97502226D01*
X173338632Y-97454607D01*
%TO.C,R36*%
X70457142Y-86452380D02*
X70123809Y-85976190D01*
X69885714Y-86452380D02*
X69885714Y-85452380D01*
X70266666Y-85452380D01*
X70361904Y-85500000D01*
X70409523Y-85547619D01*
X70457142Y-85642857D01*
X70457142Y-85785714D01*
X70409523Y-85880952D01*
X70361904Y-85928571D01*
X70266666Y-85976190D01*
X69885714Y-85976190D01*
X70790476Y-85452380D02*
X71409523Y-85452380D01*
X71076190Y-85833333D01*
X71219047Y-85833333D01*
X71314285Y-85880952D01*
X71361904Y-85928571D01*
X71409523Y-86023809D01*
X71409523Y-86261904D01*
X71361904Y-86357142D01*
X71314285Y-86404761D01*
X71219047Y-86452380D01*
X70933333Y-86452380D01*
X70838095Y-86404761D01*
X70790476Y-86357142D01*
X72266666Y-85452380D02*
X72076190Y-85452380D01*
X71980952Y-85500000D01*
X71933333Y-85547619D01*
X71838095Y-85690476D01*
X71790476Y-85880952D01*
X71790476Y-86261904D01*
X71838095Y-86357142D01*
X71885714Y-86404761D01*
X71980952Y-86452380D01*
X72171428Y-86452380D01*
X72266666Y-86404761D01*
X72314285Y-86357142D01*
X72361904Y-86261904D01*
X72361904Y-86023809D01*
X72314285Y-85928571D01*
X72266666Y-85880952D01*
X72171428Y-85833333D01*
X71980952Y-85833333D01*
X71885714Y-85880952D01*
X71838095Y-85928571D01*
X71790476Y-86023809D01*
%TO.C,C53*%
X150507142Y-98307142D02*
X150459523Y-98354761D01*
X150316666Y-98402380D01*
X150221428Y-98402380D01*
X150078571Y-98354761D01*
X149983333Y-98259523D01*
X149935714Y-98164285D01*
X149888095Y-97973809D01*
X149888095Y-97830952D01*
X149935714Y-97640476D01*
X149983333Y-97545238D01*
X150078571Y-97450000D01*
X150221428Y-97402380D01*
X150316666Y-97402380D01*
X150459523Y-97450000D01*
X150507142Y-97497619D01*
X151411904Y-97402380D02*
X150935714Y-97402380D01*
X150888095Y-97878571D01*
X150935714Y-97830952D01*
X151030952Y-97783333D01*
X151269047Y-97783333D01*
X151364285Y-97830952D01*
X151411904Y-97878571D01*
X151459523Y-97973809D01*
X151459523Y-98211904D01*
X151411904Y-98307142D01*
X151364285Y-98354761D01*
X151269047Y-98402380D01*
X151030952Y-98402380D01*
X150935714Y-98354761D01*
X150888095Y-98307142D01*
X151792857Y-97402380D02*
X152411904Y-97402380D01*
X152078571Y-97783333D01*
X152221428Y-97783333D01*
X152316666Y-97830952D01*
X152364285Y-97878571D01*
X152411904Y-97973809D01*
X152411904Y-98211904D01*
X152364285Y-98307142D01*
X152316666Y-98354761D01*
X152221428Y-98402380D01*
X151935714Y-98402380D01*
X151840476Y-98354761D01*
X151792857Y-98307142D01*
%TO.C,R1*%
X74583333Y-53452380D02*
X74250000Y-52976190D01*
X74011904Y-53452380D02*
X74011904Y-52452380D01*
X74392857Y-52452380D01*
X74488095Y-52500000D01*
X74535714Y-52547619D01*
X74583333Y-52642857D01*
X74583333Y-52785714D01*
X74535714Y-52880952D01*
X74488095Y-52928571D01*
X74392857Y-52976190D01*
X74011904Y-52976190D01*
X75535714Y-53452380D02*
X74964285Y-53452380D01*
X75250000Y-53452380D02*
X75250000Y-52452380D01*
X75154761Y-52595238D01*
X75059523Y-52690476D01*
X74964285Y-52738095D01*
%TO.C,U5*%
X58824116Y-80875497D02*
X58824116Y-81685021D01*
X58871735Y-81780259D01*
X58919354Y-81827878D01*
X59014592Y-81875497D01*
X59205068Y-81875497D01*
X59300306Y-81827878D01*
X59347925Y-81780259D01*
X59395544Y-81685021D01*
X59395544Y-80875497D01*
X60347925Y-80875497D02*
X59871735Y-80875497D01*
X59824116Y-81351688D01*
X59871735Y-81304069D01*
X59966973Y-81256450D01*
X60205068Y-81256450D01*
X60300306Y-81304069D01*
X60347925Y-81351688D01*
X60395544Y-81446926D01*
X60395544Y-81685021D01*
X60347925Y-81780259D01*
X60300306Y-81827878D01*
X60205068Y-81875497D01*
X59966973Y-81875497D01*
X59871735Y-81827878D01*
X59824116Y-81780259D01*
%TO.C,C51*%
X145257142Y-98057142D02*
X145209523Y-98104761D01*
X145066666Y-98152380D01*
X144971428Y-98152380D01*
X144828571Y-98104761D01*
X144733333Y-98009523D01*
X144685714Y-97914285D01*
X144638095Y-97723809D01*
X144638095Y-97580952D01*
X144685714Y-97390476D01*
X144733333Y-97295238D01*
X144828571Y-97200000D01*
X144971428Y-97152380D01*
X145066666Y-97152380D01*
X145209523Y-97200000D01*
X145257142Y-97247619D01*
X146161904Y-97152380D02*
X145685714Y-97152380D01*
X145638095Y-97628571D01*
X145685714Y-97580952D01*
X145780952Y-97533333D01*
X146019047Y-97533333D01*
X146114285Y-97580952D01*
X146161904Y-97628571D01*
X146209523Y-97723809D01*
X146209523Y-97961904D01*
X146161904Y-98057142D01*
X146114285Y-98104761D01*
X146019047Y-98152380D01*
X145780952Y-98152380D01*
X145685714Y-98104761D01*
X145638095Y-98057142D01*
X147161904Y-98152380D02*
X146590476Y-98152380D01*
X146876190Y-98152380D02*
X146876190Y-97152380D01*
X146780952Y-97295238D01*
X146685714Y-97390476D01*
X146590476Y-97438095D01*
%TO.C,C56*%
X125857142Y-116357142D02*
X125809523Y-116404761D01*
X125666666Y-116452380D01*
X125571428Y-116452380D01*
X125428571Y-116404761D01*
X125333333Y-116309523D01*
X125285714Y-116214285D01*
X125238095Y-116023809D01*
X125238095Y-115880952D01*
X125285714Y-115690476D01*
X125333333Y-115595238D01*
X125428571Y-115500000D01*
X125571428Y-115452380D01*
X125666666Y-115452380D01*
X125809523Y-115500000D01*
X125857142Y-115547619D01*
X126761904Y-115452380D02*
X126285714Y-115452380D01*
X126238095Y-115928571D01*
X126285714Y-115880952D01*
X126380952Y-115833333D01*
X126619047Y-115833333D01*
X126714285Y-115880952D01*
X126761904Y-115928571D01*
X126809523Y-116023809D01*
X126809523Y-116261904D01*
X126761904Y-116357142D01*
X126714285Y-116404761D01*
X126619047Y-116452380D01*
X126380952Y-116452380D01*
X126285714Y-116404761D01*
X126238095Y-116357142D01*
X127666666Y-115452380D02*
X127476190Y-115452380D01*
X127380952Y-115500000D01*
X127333333Y-115547619D01*
X127238095Y-115690476D01*
X127190476Y-115880952D01*
X127190476Y-116261904D01*
X127238095Y-116357142D01*
X127285714Y-116404761D01*
X127380952Y-116452380D01*
X127571428Y-116452380D01*
X127666666Y-116404761D01*
X127714285Y-116357142D01*
X127761904Y-116261904D01*
X127761904Y-116023809D01*
X127714285Y-115928571D01*
X127666666Y-115880952D01*
X127571428Y-115833333D01*
X127380952Y-115833333D01*
X127285714Y-115880952D01*
X127238095Y-115928571D01*
X127190476Y-116023809D01*
%TO.C,C75*%
X71357142Y-114107142D02*
X71309523Y-114154761D01*
X71166666Y-114202380D01*
X71071428Y-114202380D01*
X70928571Y-114154761D01*
X70833333Y-114059523D01*
X70785714Y-113964285D01*
X70738095Y-113773809D01*
X70738095Y-113630952D01*
X70785714Y-113440476D01*
X70833333Y-113345238D01*
X70928571Y-113250000D01*
X71071428Y-113202380D01*
X71166666Y-113202380D01*
X71309523Y-113250000D01*
X71357142Y-113297619D01*
X71690476Y-113202380D02*
X72357142Y-113202380D01*
X71928571Y-114202380D01*
X73214285Y-113202380D02*
X72738095Y-113202380D01*
X72690476Y-113678571D01*
X72738095Y-113630952D01*
X72833333Y-113583333D01*
X73071428Y-113583333D01*
X73166666Y-113630952D01*
X73214285Y-113678571D01*
X73261904Y-113773809D01*
X73261904Y-114011904D01*
X73214285Y-114107142D01*
X73166666Y-114154761D01*
X73071428Y-114202380D01*
X72833333Y-114202380D01*
X72738095Y-114154761D01*
X72690476Y-114107142D01*
%TO.C,R39*%
X53052380Y-95042857D02*
X52576190Y-95376190D01*
X53052380Y-95614285D02*
X52052380Y-95614285D01*
X52052380Y-95233333D01*
X52100000Y-95138095D01*
X52147619Y-95090476D01*
X52242857Y-95042857D01*
X52385714Y-95042857D01*
X52480952Y-95090476D01*
X52528571Y-95138095D01*
X52576190Y-95233333D01*
X52576190Y-95614285D01*
X52052380Y-94709523D02*
X52052380Y-94090476D01*
X52433333Y-94423809D01*
X52433333Y-94280952D01*
X52480952Y-94185714D01*
X52528571Y-94138095D01*
X52623809Y-94090476D01*
X52861904Y-94090476D01*
X52957142Y-94138095D01*
X53004761Y-94185714D01*
X53052380Y-94280952D01*
X53052380Y-94566666D01*
X53004761Y-94661904D01*
X52957142Y-94709523D01*
X53052380Y-93614285D02*
X53052380Y-93423809D01*
X53004761Y-93328571D01*
X52957142Y-93280952D01*
X52814285Y-93185714D01*
X52623809Y-93138095D01*
X52242857Y-93138095D01*
X52147619Y-93185714D01*
X52100000Y-93233333D01*
X52052380Y-93328571D01*
X52052380Y-93519047D01*
X52100000Y-93614285D01*
X52147619Y-93661904D01*
X52242857Y-93709523D01*
X52480952Y-93709523D01*
X52576190Y-93661904D01*
X52623809Y-93614285D01*
X52671428Y-93519047D01*
X52671428Y-93328571D01*
X52623809Y-93233333D01*
X52576190Y-93185714D01*
X52480952Y-93138095D01*
%TO.C,R34*%
X74557142Y-78152380D02*
X74223809Y-77676190D01*
X73985714Y-78152380D02*
X73985714Y-77152380D01*
X74366666Y-77152380D01*
X74461904Y-77200000D01*
X74509523Y-77247619D01*
X74557142Y-77342857D01*
X74557142Y-77485714D01*
X74509523Y-77580952D01*
X74461904Y-77628571D01*
X74366666Y-77676190D01*
X73985714Y-77676190D01*
X74890476Y-77152380D02*
X75509523Y-77152380D01*
X75176190Y-77533333D01*
X75319047Y-77533333D01*
X75414285Y-77580952D01*
X75461904Y-77628571D01*
X75509523Y-77723809D01*
X75509523Y-77961904D01*
X75461904Y-78057142D01*
X75414285Y-78104761D01*
X75319047Y-78152380D01*
X75033333Y-78152380D01*
X74938095Y-78104761D01*
X74890476Y-78057142D01*
X76366666Y-77485714D02*
X76366666Y-78152380D01*
X76128571Y-77104761D02*
X75890476Y-77819047D01*
X76509523Y-77819047D01*
%TO.C,C48*%
X172991016Y-102528108D02*
X172943397Y-102575727D01*
X172800540Y-102623346D01*
X172705302Y-102623346D01*
X172562445Y-102575727D01*
X172467207Y-102480489D01*
X172419588Y-102385251D01*
X172371969Y-102194775D01*
X172371969Y-102051918D01*
X172419588Y-101861442D01*
X172467207Y-101766204D01*
X172562445Y-101670966D01*
X172705302Y-101623346D01*
X172800540Y-101623346D01*
X172943397Y-101670966D01*
X172991016Y-101718585D01*
X173848159Y-101956680D02*
X173848159Y-102623346D01*
X173610064Y-101575727D02*
X173371969Y-102290013D01*
X173991016Y-102290013D01*
X174514826Y-102051918D02*
X174419588Y-102004299D01*
X174371969Y-101956680D01*
X174324350Y-101861442D01*
X174324350Y-101813823D01*
X174371969Y-101718585D01*
X174419588Y-101670966D01*
X174514826Y-101623346D01*
X174705302Y-101623346D01*
X174800540Y-101670966D01*
X174848159Y-101718585D01*
X174895778Y-101813823D01*
X174895778Y-101861442D01*
X174848159Y-101956680D01*
X174800540Y-102004299D01*
X174705302Y-102051918D01*
X174514826Y-102051918D01*
X174419588Y-102099537D01*
X174371969Y-102147156D01*
X174324350Y-102242394D01*
X174324350Y-102432870D01*
X174371969Y-102528108D01*
X174419588Y-102575727D01*
X174514826Y-102623346D01*
X174705302Y-102623346D01*
X174800540Y-102575727D01*
X174848159Y-102528108D01*
X174895778Y-102432870D01*
X174895778Y-102242394D01*
X174848159Y-102147156D01*
X174800540Y-102099537D01*
X174705302Y-102051918D01*
%TO.C,C55*%
X125144243Y-98023505D02*
X125191862Y-98071124D01*
X125239481Y-98213981D01*
X125239481Y-98309219D01*
X125191862Y-98452076D01*
X125096624Y-98547314D01*
X125001386Y-98594933D01*
X124810910Y-98642552D01*
X124668053Y-98642552D01*
X124477577Y-98594933D01*
X124382339Y-98547314D01*
X124287101Y-98452076D01*
X124239481Y-98309219D01*
X124239481Y-98213981D01*
X124287101Y-98071124D01*
X124334720Y-98023505D01*
X124239481Y-97118743D02*
X124239481Y-97594933D01*
X124715672Y-97642552D01*
X124668053Y-97594933D01*
X124620434Y-97499695D01*
X124620434Y-97261600D01*
X124668053Y-97166362D01*
X124715672Y-97118743D01*
X124810910Y-97071124D01*
X125049005Y-97071124D01*
X125144243Y-97118743D01*
X125191862Y-97166362D01*
X125239481Y-97261600D01*
X125239481Y-97499695D01*
X125191862Y-97594933D01*
X125144243Y-97642552D01*
X124239481Y-96166362D02*
X124239481Y-96642552D01*
X124715672Y-96690171D01*
X124668053Y-96642552D01*
X124620434Y-96547314D01*
X124620434Y-96309219D01*
X124668053Y-96213981D01*
X124715672Y-96166362D01*
X124810910Y-96118743D01*
X125049005Y-96118743D01*
X125144243Y-96166362D01*
X125191862Y-96213981D01*
X125239481Y-96309219D01*
X125239481Y-96547314D01*
X125191862Y-96642552D01*
X125144243Y-96690171D01*
%TO.C,K2*%
X180611904Y-97474880D02*
X180611904Y-96474880D01*
X181183333Y-97474880D02*
X180754761Y-96903452D01*
X181183333Y-96474880D02*
X180611904Y-97046309D01*
X181564285Y-96570119D02*
X181611904Y-96522500D01*
X181707142Y-96474880D01*
X181945238Y-96474880D01*
X182040476Y-96522500D01*
X182088095Y-96570119D01*
X182135714Y-96665357D01*
X182135714Y-96760595D01*
X182088095Y-96903452D01*
X181516666Y-97474880D01*
X182135714Y-97474880D01*
%TO.C,C71*%
X165857142Y-122357142D02*
X165809523Y-122404761D01*
X165666666Y-122452380D01*
X165571428Y-122452380D01*
X165428571Y-122404761D01*
X165333333Y-122309523D01*
X165285714Y-122214285D01*
X165238095Y-122023809D01*
X165238095Y-121880952D01*
X165285714Y-121690476D01*
X165333333Y-121595238D01*
X165428571Y-121500000D01*
X165571428Y-121452380D01*
X165666666Y-121452380D01*
X165809523Y-121500000D01*
X165857142Y-121547619D01*
X166190476Y-121452380D02*
X166857142Y-121452380D01*
X166428571Y-122452380D01*
X167761904Y-122452380D02*
X167190476Y-122452380D01*
X167476190Y-122452380D02*
X167476190Y-121452380D01*
X167380952Y-121595238D01*
X167285714Y-121690476D01*
X167190476Y-121738095D01*
%TO.C,C67*%
X84557142Y-99757142D02*
X84509523Y-99804761D01*
X84366666Y-99852380D01*
X84271428Y-99852380D01*
X84128571Y-99804761D01*
X84033333Y-99709523D01*
X83985714Y-99614285D01*
X83938095Y-99423809D01*
X83938095Y-99280952D01*
X83985714Y-99090476D01*
X84033333Y-98995238D01*
X84128571Y-98900000D01*
X84271428Y-98852380D01*
X84366666Y-98852380D01*
X84509523Y-98900000D01*
X84557142Y-98947619D01*
X85414285Y-98852380D02*
X85223809Y-98852380D01*
X85128571Y-98900000D01*
X85080952Y-98947619D01*
X84985714Y-99090476D01*
X84938095Y-99280952D01*
X84938095Y-99661904D01*
X84985714Y-99757142D01*
X85033333Y-99804761D01*
X85128571Y-99852380D01*
X85319047Y-99852380D01*
X85414285Y-99804761D01*
X85461904Y-99757142D01*
X85509523Y-99661904D01*
X85509523Y-99423809D01*
X85461904Y-99328571D01*
X85414285Y-99280952D01*
X85319047Y-99233333D01*
X85128571Y-99233333D01*
X85033333Y-99280952D01*
X84985714Y-99328571D01*
X84938095Y-99423809D01*
X85842857Y-98852380D02*
X86509523Y-98852380D01*
X86080952Y-99852380D01*
D12*
%TO.C,T2*%
X142082380Y-111354523D02*
X142808095Y-111354523D01*
X142445238Y-112624523D02*
X142445238Y-111354523D01*
X143170952Y-111475476D02*
X143231428Y-111415000D01*
X143352380Y-111354523D01*
X143654761Y-111354523D01*
X143775714Y-111415000D01*
X143836190Y-111475476D01*
X143896666Y-111596428D01*
X143896666Y-111717380D01*
X143836190Y-111898809D01*
X143110476Y-112624523D01*
X143896666Y-112624523D01*
D10*
%TO.C,D7*%
X74182870Y-66115288D02*
X74182870Y-65115288D01*
X74420966Y-65115288D01*
X74563823Y-65162908D01*
X74659061Y-65258146D01*
X74706680Y-65353384D01*
X74754299Y-65543860D01*
X74754299Y-65686717D01*
X74706680Y-65877193D01*
X74659061Y-65972431D01*
X74563823Y-66067669D01*
X74420966Y-66115288D01*
X74182870Y-66115288D01*
X75087632Y-65115288D02*
X75754299Y-65115288D01*
X75325727Y-66115288D01*
%TO.C,C73*%
X66357142Y-113107142D02*
X66309523Y-113154761D01*
X66166666Y-113202380D01*
X66071428Y-113202380D01*
X65928571Y-113154761D01*
X65833333Y-113059523D01*
X65785714Y-112964285D01*
X65738095Y-112773809D01*
X65738095Y-112630952D01*
X65785714Y-112440476D01*
X65833333Y-112345238D01*
X65928571Y-112250000D01*
X66071428Y-112202380D01*
X66166666Y-112202380D01*
X66309523Y-112250000D01*
X66357142Y-112297619D01*
X66690476Y-112202380D02*
X67357142Y-112202380D01*
X66928571Y-113202380D01*
X67642857Y-112202380D02*
X68261904Y-112202380D01*
X67928571Y-112583333D01*
X68071428Y-112583333D01*
X68166666Y-112630952D01*
X68214285Y-112678571D01*
X68261904Y-112773809D01*
X68261904Y-113011904D01*
X68214285Y-113107142D01*
X68166666Y-113154761D01*
X68071428Y-113202380D01*
X67785714Y-113202380D01*
X67690476Y-113154761D01*
X67642857Y-113107142D01*
%TO.C,C31*%
X56457142Y-95042857D02*
X56504761Y-95090476D01*
X56552380Y-95233333D01*
X56552380Y-95328571D01*
X56504761Y-95471428D01*
X56409523Y-95566666D01*
X56314285Y-95614285D01*
X56123809Y-95661904D01*
X55980952Y-95661904D01*
X55790476Y-95614285D01*
X55695238Y-95566666D01*
X55600000Y-95471428D01*
X55552380Y-95328571D01*
X55552380Y-95233333D01*
X55600000Y-95090476D01*
X55647619Y-95042857D01*
X55552380Y-94709523D02*
X55552380Y-94090476D01*
X55933333Y-94423809D01*
X55933333Y-94280952D01*
X55980952Y-94185714D01*
X56028571Y-94138095D01*
X56123809Y-94090476D01*
X56361904Y-94090476D01*
X56457142Y-94138095D01*
X56504761Y-94185714D01*
X56552380Y-94280952D01*
X56552380Y-94566666D01*
X56504761Y-94661904D01*
X56457142Y-94709523D01*
X56552380Y-93138095D02*
X56552380Y-93709523D01*
X56552380Y-93423809D02*
X55552380Y-93423809D01*
X55695238Y-93519047D01*
X55790476Y-93614285D01*
X55838095Y-93709523D01*
%TO.C,R38*%
X51452380Y-95042857D02*
X50976190Y-95376190D01*
X51452380Y-95614285D02*
X50452380Y-95614285D01*
X50452380Y-95233333D01*
X50500000Y-95138095D01*
X50547619Y-95090476D01*
X50642857Y-95042857D01*
X50785714Y-95042857D01*
X50880952Y-95090476D01*
X50928571Y-95138095D01*
X50976190Y-95233333D01*
X50976190Y-95614285D01*
X50452380Y-94709523D02*
X50452380Y-94090476D01*
X50833333Y-94423809D01*
X50833333Y-94280952D01*
X50880952Y-94185714D01*
X50928571Y-94138095D01*
X51023809Y-94090476D01*
X51261904Y-94090476D01*
X51357142Y-94138095D01*
X51404761Y-94185714D01*
X51452380Y-94280952D01*
X51452380Y-94566666D01*
X51404761Y-94661904D01*
X51357142Y-94709523D01*
X50880952Y-93519047D02*
X50833333Y-93614285D01*
X50785714Y-93661904D01*
X50690476Y-93709523D01*
X50642857Y-93709523D01*
X50547619Y-93661904D01*
X50500000Y-93614285D01*
X50452380Y-93519047D01*
X50452380Y-93328571D01*
X50500000Y-93233333D01*
X50547619Y-93185714D01*
X50642857Y-93138095D01*
X50690476Y-93138095D01*
X50785714Y-93185714D01*
X50833333Y-93233333D01*
X50880952Y-93328571D01*
X50880952Y-93519047D01*
X50928571Y-93614285D01*
X50976190Y-93661904D01*
X51071428Y-93709523D01*
X51261904Y-93709523D01*
X51357142Y-93661904D01*
X51404761Y-93614285D01*
X51452380Y-93519047D01*
X51452380Y-93328571D01*
X51404761Y-93233333D01*
X51357142Y-93185714D01*
X51261904Y-93138095D01*
X51071428Y-93138095D01*
X50976190Y-93185714D01*
X50928571Y-93233333D01*
X50880952Y-93328571D01*
%TO.C,C43*%
X51457142Y-76742857D02*
X51504761Y-76790476D01*
X51552380Y-76933333D01*
X51552380Y-77028571D01*
X51504761Y-77171428D01*
X51409523Y-77266666D01*
X51314285Y-77314285D01*
X51123809Y-77361904D01*
X50980952Y-77361904D01*
X50790476Y-77314285D01*
X50695238Y-77266666D01*
X50600000Y-77171428D01*
X50552380Y-77028571D01*
X50552380Y-76933333D01*
X50600000Y-76790476D01*
X50647619Y-76742857D01*
X50885714Y-75885714D02*
X51552380Y-75885714D01*
X50504761Y-76123809D02*
X51219047Y-76361904D01*
X51219047Y-75742857D01*
X50552380Y-75457142D02*
X50552380Y-74838095D01*
X50933333Y-75171428D01*
X50933333Y-75028571D01*
X50980952Y-74933333D01*
X51028571Y-74885714D01*
X51123809Y-74838095D01*
X51361904Y-74838095D01*
X51457142Y-74885714D01*
X51504761Y-74933333D01*
X51552380Y-75028571D01*
X51552380Y-75314285D01*
X51504761Y-75409523D01*
X51457142Y-75457142D01*
%TO.C,C65*%
X83357142Y-112357142D02*
X83309523Y-112404761D01*
X83166666Y-112452380D01*
X83071428Y-112452380D01*
X82928571Y-112404761D01*
X82833333Y-112309523D01*
X82785714Y-112214285D01*
X82738095Y-112023809D01*
X82738095Y-111880952D01*
X82785714Y-111690476D01*
X82833333Y-111595238D01*
X82928571Y-111500000D01*
X83071428Y-111452380D01*
X83166666Y-111452380D01*
X83309523Y-111500000D01*
X83357142Y-111547619D01*
X84214285Y-111452380D02*
X84023809Y-111452380D01*
X83928571Y-111500000D01*
X83880952Y-111547619D01*
X83785714Y-111690476D01*
X83738095Y-111880952D01*
X83738095Y-112261904D01*
X83785714Y-112357142D01*
X83833333Y-112404761D01*
X83928571Y-112452380D01*
X84119047Y-112452380D01*
X84214285Y-112404761D01*
X84261904Y-112357142D01*
X84309523Y-112261904D01*
X84309523Y-112023809D01*
X84261904Y-111928571D01*
X84214285Y-111880952D01*
X84119047Y-111833333D01*
X83928571Y-111833333D01*
X83833333Y-111880952D01*
X83785714Y-111928571D01*
X83738095Y-112023809D01*
X85214285Y-111452380D02*
X84738095Y-111452380D01*
X84690476Y-111928571D01*
X84738095Y-111880952D01*
X84833333Y-111833333D01*
X85071428Y-111833333D01*
X85166666Y-111880952D01*
X85214285Y-111928571D01*
X85261904Y-112023809D01*
X85261904Y-112261904D01*
X85214285Y-112357142D01*
X85166666Y-112404761D01*
X85071428Y-112452380D01*
X84833333Y-112452380D01*
X84738095Y-112404761D01*
X84690476Y-112357142D01*
%TO.C,Q2*%
X119404761Y-119297619D02*
X119309523Y-119250000D01*
X119214285Y-119154761D01*
X119071428Y-119011904D01*
X118976190Y-118964285D01*
X118880952Y-118964285D01*
X118928571Y-119202380D02*
X118833333Y-119154761D01*
X118738095Y-119059523D01*
X118690476Y-118869047D01*
X118690476Y-118535714D01*
X118738095Y-118345238D01*
X118833333Y-118250000D01*
X118928571Y-118202380D01*
X119119047Y-118202380D01*
X119214285Y-118250000D01*
X119309523Y-118345238D01*
X119357142Y-118535714D01*
X119357142Y-118869047D01*
X119309523Y-119059523D01*
X119214285Y-119154761D01*
X119119047Y-119202380D01*
X118928571Y-119202380D01*
X119738095Y-118297619D02*
X119785714Y-118250000D01*
X119880952Y-118202380D01*
X120119047Y-118202380D01*
X120214285Y-118250000D01*
X120261904Y-118297619D01*
X120309523Y-118392857D01*
X120309523Y-118488095D01*
X120261904Y-118630952D01*
X119690476Y-119202380D01*
X120309523Y-119202380D01*
%TO.C,D5*%
X76552380Y-56738095D02*
X75552380Y-56738095D01*
X75552380Y-56500000D01*
X75600000Y-56357142D01*
X75695238Y-56261904D01*
X75790476Y-56214285D01*
X75980952Y-56166666D01*
X76123809Y-56166666D01*
X76314285Y-56214285D01*
X76409523Y-56261904D01*
X76504761Y-56357142D01*
X76552380Y-56500000D01*
X76552380Y-56738095D01*
X75552380Y-55261904D02*
X75552380Y-55738095D01*
X76028571Y-55785714D01*
X75980952Y-55738095D01*
X75933333Y-55642857D01*
X75933333Y-55404761D01*
X75980952Y-55309523D01*
X76028571Y-55261904D01*
X76123809Y-55214285D01*
X76361904Y-55214285D01*
X76457142Y-55261904D01*
X76504761Y-55309523D01*
X76552380Y-55404761D01*
X76552380Y-55642857D01*
X76504761Y-55738095D01*
X76457142Y-55785714D01*
%TO.C,C12*%
X52057142Y-62757142D02*
X52009523Y-62804761D01*
X51866666Y-62852380D01*
X51771428Y-62852380D01*
X51628571Y-62804761D01*
X51533333Y-62709523D01*
X51485714Y-62614285D01*
X51438095Y-62423809D01*
X51438095Y-62280952D01*
X51485714Y-62090476D01*
X51533333Y-61995238D01*
X51628571Y-61900000D01*
X51771428Y-61852380D01*
X51866666Y-61852380D01*
X52009523Y-61900000D01*
X52057142Y-61947619D01*
X53009523Y-62852380D02*
X52438095Y-62852380D01*
X52723809Y-62852380D02*
X52723809Y-61852380D01*
X52628571Y-61995238D01*
X52533333Y-62090476D01*
X52438095Y-62138095D01*
X53390476Y-61947619D02*
X53438095Y-61900000D01*
X53533333Y-61852380D01*
X53771428Y-61852380D01*
X53866666Y-61900000D01*
X53914285Y-61947619D01*
X53961904Y-62042857D01*
X53961904Y-62138095D01*
X53914285Y-62280952D01*
X53342857Y-62852380D01*
X53961904Y-62852380D01*
%TO.C,L4*%
X143583333Y-92952380D02*
X143107142Y-92952380D01*
X143107142Y-91952380D01*
X144345238Y-92285714D02*
X144345238Y-92952380D01*
X144107142Y-91904761D02*
X143869047Y-92619047D01*
X144488095Y-92619047D01*
%TO.C,D11*%
X73585714Y-94152380D02*
X73585714Y-93152380D01*
X73823809Y-93152380D01*
X73966666Y-93200000D01*
X74061904Y-93295238D01*
X74109523Y-93390476D01*
X74157142Y-93580952D01*
X74157142Y-93723809D01*
X74109523Y-93914285D01*
X74061904Y-94009523D01*
X73966666Y-94104761D01*
X73823809Y-94152380D01*
X73585714Y-94152380D01*
X75109523Y-94152380D02*
X74538095Y-94152380D01*
X74823809Y-94152380D02*
X74823809Y-93152380D01*
X74728571Y-93295238D01*
X74633333Y-93390476D01*
X74538095Y-93438095D01*
X76061904Y-94152380D02*
X75490476Y-94152380D01*
X75776190Y-94152380D02*
X75776190Y-93152380D01*
X75680952Y-93295238D01*
X75585714Y-93390476D01*
X75490476Y-93438095D01*
%TO.C,C74*%
X52357142Y-105857142D02*
X52309523Y-105904761D01*
X52166666Y-105952380D01*
X52071428Y-105952380D01*
X51928571Y-105904761D01*
X51833333Y-105809523D01*
X51785714Y-105714285D01*
X51738095Y-105523809D01*
X51738095Y-105380952D01*
X51785714Y-105190476D01*
X51833333Y-105095238D01*
X51928571Y-105000000D01*
X52071428Y-104952380D01*
X52166666Y-104952380D01*
X52309523Y-105000000D01*
X52357142Y-105047619D01*
X52690476Y-104952380D02*
X53357142Y-104952380D01*
X52928571Y-105952380D01*
X54166666Y-105285714D02*
X54166666Y-105952380D01*
X53928571Y-104904761D02*
X53690476Y-105619047D01*
X54309523Y-105619047D01*
%TO.C,R3*%
X53052380Y-64166666D02*
X52576190Y-64500000D01*
X53052380Y-64738095D02*
X52052380Y-64738095D01*
X52052380Y-64357142D01*
X52100000Y-64261904D01*
X52147619Y-64214285D01*
X52242857Y-64166666D01*
X52385714Y-64166666D01*
X52480952Y-64214285D01*
X52528571Y-64261904D01*
X52576190Y-64357142D01*
X52576190Y-64738095D01*
X52052380Y-63833333D02*
X52052380Y-63214285D01*
X52433333Y-63547619D01*
X52433333Y-63404761D01*
X52480952Y-63309523D01*
X52528571Y-63261904D01*
X52623809Y-63214285D01*
X52861904Y-63214285D01*
X52957142Y-63261904D01*
X53004761Y-63309523D01*
X53052380Y-63404761D01*
X53052380Y-63690476D01*
X53004761Y-63785714D01*
X52957142Y-63833333D01*
%TO.C,J2*%
X59166666Y-118452380D02*
X59166666Y-119166666D01*
X59119047Y-119309523D01*
X59023809Y-119404761D01*
X58880952Y-119452380D01*
X58785714Y-119452380D01*
X59595238Y-118547619D02*
X59642857Y-118500000D01*
X59738095Y-118452380D01*
X59976190Y-118452380D01*
X60071428Y-118500000D01*
X60119047Y-118547619D01*
X60166666Y-118642857D01*
X60166666Y-118738095D01*
X60119047Y-118880952D01*
X59547619Y-119452380D01*
X60166666Y-119452380D01*
%TO.C,R30*%
X89947142Y-105392380D02*
X89613809Y-104916190D01*
X89375714Y-105392380D02*
X89375714Y-104392380D01*
X89756666Y-104392380D01*
X89851904Y-104440000D01*
X89899523Y-104487619D01*
X89947142Y-104582857D01*
X89947142Y-104725714D01*
X89899523Y-104820952D01*
X89851904Y-104868571D01*
X89756666Y-104916190D01*
X89375714Y-104916190D01*
X90280476Y-104392380D02*
X90899523Y-104392380D01*
X90566190Y-104773333D01*
X90709047Y-104773333D01*
X90804285Y-104820952D01*
X90851904Y-104868571D01*
X90899523Y-104963809D01*
X90899523Y-105201904D01*
X90851904Y-105297142D01*
X90804285Y-105344761D01*
X90709047Y-105392380D01*
X90423333Y-105392380D01*
X90328095Y-105344761D01*
X90280476Y-105297142D01*
X91518571Y-104392380D02*
X91613809Y-104392380D01*
X91709047Y-104440000D01*
X91756666Y-104487619D01*
X91804285Y-104582857D01*
X91851904Y-104773333D01*
X91851904Y-105011428D01*
X91804285Y-105201904D01*
X91756666Y-105297142D01*
X91709047Y-105344761D01*
X91613809Y-105392380D01*
X91518571Y-105392380D01*
X91423333Y-105344761D01*
X91375714Y-105297142D01*
X91328095Y-105201904D01*
X91280476Y-105011428D01*
X91280476Y-104773333D01*
X91328095Y-104582857D01*
X91375714Y-104487619D01*
X91423333Y-104440000D01*
X91518571Y-104392380D01*
%TO.C,C3*%
X90833333Y-109057142D02*
X90785714Y-109104761D01*
X90642857Y-109152380D01*
X90547619Y-109152380D01*
X90404761Y-109104761D01*
X90309523Y-109009523D01*
X90261904Y-108914285D01*
X90214285Y-108723809D01*
X90214285Y-108580952D01*
X90261904Y-108390476D01*
X90309523Y-108295238D01*
X90404761Y-108200000D01*
X90547619Y-108152380D01*
X90642857Y-108152380D01*
X90785714Y-108200000D01*
X90833333Y-108247619D01*
X91166666Y-108152380D02*
X91785714Y-108152380D01*
X91452380Y-108533333D01*
X91595238Y-108533333D01*
X91690476Y-108580952D01*
X91738095Y-108628571D01*
X91785714Y-108723809D01*
X91785714Y-108961904D01*
X91738095Y-109057142D01*
X91690476Y-109104761D01*
X91595238Y-109152380D01*
X91309523Y-109152380D01*
X91214285Y-109104761D01*
X91166666Y-109057142D01*
%TO.C,Y1*%
X103523809Y-101726190D02*
X103523809Y-102202380D01*
X103190476Y-101202380D02*
X103523809Y-101726190D01*
X103857142Y-101202380D01*
X104714285Y-102202380D02*
X104142857Y-102202380D01*
X104428571Y-102202380D02*
X104428571Y-101202380D01*
X104333333Y-101345238D01*
X104238095Y-101440476D01*
X104142857Y-101488095D01*
%TO.C,C35*%
X71057142Y-69757142D02*
X71009523Y-69804761D01*
X70866666Y-69852380D01*
X70771428Y-69852380D01*
X70628571Y-69804761D01*
X70533333Y-69709523D01*
X70485714Y-69614285D01*
X70438095Y-69423809D01*
X70438095Y-69280952D01*
X70485714Y-69090476D01*
X70533333Y-68995238D01*
X70628571Y-68900000D01*
X70771428Y-68852380D01*
X70866666Y-68852380D01*
X71009523Y-68900000D01*
X71057142Y-68947619D01*
X71390476Y-68852380D02*
X72009523Y-68852380D01*
X71676190Y-69233333D01*
X71819047Y-69233333D01*
X71914285Y-69280952D01*
X71961904Y-69328571D01*
X72009523Y-69423809D01*
X72009523Y-69661904D01*
X71961904Y-69757142D01*
X71914285Y-69804761D01*
X71819047Y-69852380D01*
X71533333Y-69852380D01*
X71438095Y-69804761D01*
X71390476Y-69757142D01*
X72914285Y-68852380D02*
X72438095Y-68852380D01*
X72390476Y-69328571D01*
X72438095Y-69280952D01*
X72533333Y-69233333D01*
X72771428Y-69233333D01*
X72866666Y-69280952D01*
X72914285Y-69328571D01*
X72961904Y-69423809D01*
X72961904Y-69661904D01*
X72914285Y-69757142D01*
X72866666Y-69804761D01*
X72771428Y-69852380D01*
X72533333Y-69852380D01*
X72438095Y-69804761D01*
X72390476Y-69757142D01*
D12*
%TO.C,IC9*%
X84010238Y-106324523D02*
X84010238Y-105054523D01*
X85340714Y-106203571D02*
X85280238Y-106264047D01*
X85098809Y-106324523D01*
X84977857Y-106324523D01*
X84796428Y-106264047D01*
X84675476Y-106143095D01*
X84615000Y-106022142D01*
X84554523Y-105780238D01*
X84554523Y-105598809D01*
X84615000Y-105356904D01*
X84675476Y-105235952D01*
X84796428Y-105115000D01*
X84977857Y-105054523D01*
X85098809Y-105054523D01*
X85280238Y-105115000D01*
X85340714Y-105175476D01*
X85945476Y-106324523D02*
X86187380Y-106324523D01*
X86308333Y-106264047D01*
X86368809Y-106203571D01*
X86489761Y-106022142D01*
X86550238Y-105780238D01*
X86550238Y-105296428D01*
X86489761Y-105175476D01*
X86429285Y-105115000D01*
X86308333Y-105054523D01*
X86066428Y-105054523D01*
X85945476Y-105115000D01*
X85885000Y-105175476D01*
X85824523Y-105296428D01*
X85824523Y-105598809D01*
X85885000Y-105719761D01*
X85945476Y-105780238D01*
X86066428Y-105840714D01*
X86308333Y-105840714D01*
X86429285Y-105780238D01*
X86489761Y-105719761D01*
X86550238Y-105598809D01*
D10*
%TO.C,C54*%
X156357142Y-103242857D02*
X156404761Y-103290476D01*
X156452380Y-103433333D01*
X156452380Y-103528571D01*
X156404761Y-103671428D01*
X156309523Y-103766666D01*
X156214285Y-103814285D01*
X156023809Y-103861904D01*
X155880952Y-103861904D01*
X155690476Y-103814285D01*
X155595238Y-103766666D01*
X155500000Y-103671428D01*
X155452380Y-103528571D01*
X155452380Y-103433333D01*
X155500000Y-103290476D01*
X155547619Y-103242857D01*
X155452380Y-102338095D02*
X155452380Y-102814285D01*
X155928571Y-102861904D01*
X155880952Y-102814285D01*
X155833333Y-102719047D01*
X155833333Y-102480952D01*
X155880952Y-102385714D01*
X155928571Y-102338095D01*
X156023809Y-102290476D01*
X156261904Y-102290476D01*
X156357142Y-102338095D01*
X156404761Y-102385714D01*
X156452380Y-102480952D01*
X156452380Y-102719047D01*
X156404761Y-102814285D01*
X156357142Y-102861904D01*
X155785714Y-101433333D02*
X156452380Y-101433333D01*
X155404761Y-101671428D02*
X156119047Y-101909523D01*
X156119047Y-101290476D01*
%TO.C,R40*%
X73857142Y-106382380D02*
X73523809Y-105906190D01*
X73285714Y-106382380D02*
X73285714Y-105382380D01*
X73666666Y-105382380D01*
X73761904Y-105430000D01*
X73809523Y-105477619D01*
X73857142Y-105572857D01*
X73857142Y-105715714D01*
X73809523Y-105810952D01*
X73761904Y-105858571D01*
X73666666Y-105906190D01*
X73285714Y-105906190D01*
X74714285Y-105715714D02*
X74714285Y-106382380D01*
X74476190Y-105334761D02*
X74238095Y-106049047D01*
X74857142Y-106049047D01*
X75428571Y-105382380D02*
X75523809Y-105382380D01*
X75619047Y-105430000D01*
X75666666Y-105477619D01*
X75714285Y-105572857D01*
X75761904Y-105763333D01*
X75761904Y-106001428D01*
X75714285Y-106191904D01*
X75666666Y-106287142D01*
X75619047Y-106334761D01*
X75523809Y-106382380D01*
X75428571Y-106382380D01*
X75333333Y-106334761D01*
X75285714Y-106287142D01*
X75238095Y-106191904D01*
X75190476Y-106001428D01*
X75190476Y-105763333D01*
X75238095Y-105572857D01*
X75285714Y-105477619D01*
X75333333Y-105430000D01*
X75428571Y-105382380D01*
%TO.C,C33*%
X123747142Y-54057142D02*
X123699523Y-54104761D01*
X123556666Y-54152380D01*
X123461428Y-54152380D01*
X123318571Y-54104761D01*
X123223333Y-54009523D01*
X123175714Y-53914285D01*
X123128095Y-53723809D01*
X123128095Y-53580952D01*
X123175714Y-53390476D01*
X123223333Y-53295238D01*
X123318571Y-53200000D01*
X123461428Y-53152380D01*
X123556666Y-53152380D01*
X123699523Y-53200000D01*
X123747142Y-53247619D01*
X124080476Y-53152380D02*
X124699523Y-53152380D01*
X124366190Y-53533333D01*
X124509047Y-53533333D01*
X124604285Y-53580952D01*
X124651904Y-53628571D01*
X124699523Y-53723809D01*
X124699523Y-53961904D01*
X124651904Y-54057142D01*
X124604285Y-54104761D01*
X124509047Y-54152380D01*
X124223333Y-54152380D01*
X124128095Y-54104761D01*
X124080476Y-54057142D01*
X125032857Y-53152380D02*
X125651904Y-53152380D01*
X125318571Y-53533333D01*
X125461428Y-53533333D01*
X125556666Y-53580952D01*
X125604285Y-53628571D01*
X125651904Y-53723809D01*
X125651904Y-53961904D01*
X125604285Y-54057142D01*
X125556666Y-54104761D01*
X125461428Y-54152380D01*
X125175714Y-54152380D01*
X125080476Y-54104761D01*
X125032857Y-54057142D01*
%TO.C,C61*%
X127907142Y-96607142D02*
X127859523Y-96654761D01*
X127716666Y-96702380D01*
X127621428Y-96702380D01*
X127478571Y-96654761D01*
X127383333Y-96559523D01*
X127335714Y-96464285D01*
X127288095Y-96273809D01*
X127288095Y-96130952D01*
X127335714Y-95940476D01*
X127383333Y-95845238D01*
X127478571Y-95750000D01*
X127621428Y-95702380D01*
X127716666Y-95702380D01*
X127859523Y-95750000D01*
X127907142Y-95797619D01*
X128764285Y-95702380D02*
X128573809Y-95702380D01*
X128478571Y-95750000D01*
X128430952Y-95797619D01*
X128335714Y-95940476D01*
X128288095Y-96130952D01*
X128288095Y-96511904D01*
X128335714Y-96607142D01*
X128383333Y-96654761D01*
X128478571Y-96702380D01*
X128669047Y-96702380D01*
X128764285Y-96654761D01*
X128811904Y-96607142D01*
X128859523Y-96511904D01*
X128859523Y-96273809D01*
X128811904Y-96178571D01*
X128764285Y-96130952D01*
X128669047Y-96083333D01*
X128478571Y-96083333D01*
X128383333Y-96130952D01*
X128335714Y-96178571D01*
X128288095Y-96273809D01*
X129811904Y-96702380D02*
X129240476Y-96702380D01*
X129526190Y-96702380D02*
X129526190Y-95702380D01*
X129430952Y-95845238D01*
X129335714Y-95940476D01*
X129240476Y-95988095D01*
%TO.C,C38*%
X164857142Y-117357142D02*
X164809523Y-117404761D01*
X164666666Y-117452380D01*
X164571428Y-117452380D01*
X164428571Y-117404761D01*
X164333333Y-117309523D01*
X164285714Y-117214285D01*
X164238095Y-117023809D01*
X164238095Y-116880952D01*
X164285714Y-116690476D01*
X164333333Y-116595238D01*
X164428571Y-116500000D01*
X164571428Y-116452380D01*
X164666666Y-116452380D01*
X164809523Y-116500000D01*
X164857142Y-116547619D01*
X165190476Y-116452380D02*
X165809523Y-116452380D01*
X165476190Y-116833333D01*
X165619047Y-116833333D01*
X165714285Y-116880952D01*
X165761904Y-116928571D01*
X165809523Y-117023809D01*
X165809523Y-117261904D01*
X165761904Y-117357142D01*
X165714285Y-117404761D01*
X165619047Y-117452380D01*
X165333333Y-117452380D01*
X165238095Y-117404761D01*
X165190476Y-117357142D01*
X166380952Y-116880952D02*
X166285714Y-116833333D01*
X166238095Y-116785714D01*
X166190476Y-116690476D01*
X166190476Y-116642857D01*
X166238095Y-116547619D01*
X166285714Y-116500000D01*
X166380952Y-116452380D01*
X166571428Y-116452380D01*
X166666666Y-116500000D01*
X166714285Y-116547619D01*
X166761904Y-116642857D01*
X166761904Y-116690476D01*
X166714285Y-116785714D01*
X166666666Y-116833333D01*
X166571428Y-116880952D01*
X166380952Y-116880952D01*
X166285714Y-116928571D01*
X166238095Y-116976190D01*
X166190476Y-117071428D01*
X166190476Y-117261904D01*
X166238095Y-117357142D01*
X166285714Y-117404761D01*
X166380952Y-117452380D01*
X166571428Y-117452380D01*
X166666666Y-117404761D01*
X166714285Y-117357142D01*
X166761904Y-117261904D01*
X166761904Y-117071428D01*
X166714285Y-116976190D01*
X166666666Y-116928571D01*
X166571428Y-116880952D01*
%TO.C,R11*%
X70457142Y-61452380D02*
X70123809Y-60976190D01*
X69885714Y-61452380D02*
X69885714Y-60452380D01*
X70266666Y-60452380D01*
X70361904Y-60500000D01*
X70409523Y-60547619D01*
X70457142Y-60642857D01*
X70457142Y-60785714D01*
X70409523Y-60880952D01*
X70361904Y-60928571D01*
X70266666Y-60976190D01*
X69885714Y-60976190D01*
X71409523Y-61452380D02*
X70838095Y-61452380D01*
X71123809Y-61452380D02*
X71123809Y-60452380D01*
X71028571Y-60595238D01*
X70933333Y-60690476D01*
X70838095Y-60738095D01*
X72361904Y-61452380D02*
X71790476Y-61452380D01*
X72076190Y-61452380D02*
X72076190Y-60452380D01*
X71980952Y-60595238D01*
X71885714Y-60690476D01*
X71790476Y-60738095D01*
%TO.C,R31*%
X70457142Y-64952380D02*
X70123809Y-64476190D01*
X69885714Y-64952380D02*
X69885714Y-63952380D01*
X70266666Y-63952380D01*
X70361904Y-64000000D01*
X70409523Y-64047619D01*
X70457142Y-64142857D01*
X70457142Y-64285714D01*
X70409523Y-64380952D01*
X70361904Y-64428571D01*
X70266666Y-64476190D01*
X69885714Y-64476190D01*
X70790476Y-63952380D02*
X71409523Y-63952380D01*
X71076190Y-64333333D01*
X71219047Y-64333333D01*
X71314285Y-64380952D01*
X71361904Y-64428571D01*
X71409523Y-64523809D01*
X71409523Y-64761904D01*
X71361904Y-64857142D01*
X71314285Y-64904761D01*
X71219047Y-64952380D01*
X70933333Y-64952380D01*
X70838095Y-64904761D01*
X70790476Y-64857142D01*
X72361904Y-64952380D02*
X71790476Y-64952380D01*
X72076190Y-64952380D02*
X72076190Y-63952380D01*
X71980952Y-64095238D01*
X71885714Y-64190476D01*
X71790476Y-64238095D01*
%TO.C,C60*%
X123673270Y-98004150D02*
X123720889Y-98051769D01*
X123768508Y-98194626D01*
X123768508Y-98289864D01*
X123720889Y-98432721D01*
X123625651Y-98527959D01*
X123530413Y-98575578D01*
X123339937Y-98623197D01*
X123197080Y-98623197D01*
X123006604Y-98575578D01*
X122911366Y-98527959D01*
X122816128Y-98432721D01*
X122768508Y-98289864D01*
X122768508Y-98194626D01*
X122816128Y-98051769D01*
X122863747Y-98004150D01*
X122768508Y-97147007D02*
X122768508Y-97337483D01*
X122816128Y-97432721D01*
X122863747Y-97480340D01*
X123006604Y-97575578D01*
X123197080Y-97623197D01*
X123578032Y-97623197D01*
X123673270Y-97575578D01*
X123720889Y-97527959D01*
X123768508Y-97432721D01*
X123768508Y-97242245D01*
X123720889Y-97147007D01*
X123673270Y-97099388D01*
X123578032Y-97051769D01*
X123339937Y-97051769D01*
X123244699Y-97099388D01*
X123197080Y-97147007D01*
X123149461Y-97242245D01*
X123149461Y-97432721D01*
X123197080Y-97527959D01*
X123244699Y-97575578D01*
X123339937Y-97623197D01*
X122768508Y-96432721D02*
X122768508Y-96337483D01*
X122816128Y-96242245D01*
X122863747Y-96194626D01*
X122958985Y-96147007D01*
X123149461Y-96099388D01*
X123387556Y-96099388D01*
X123578032Y-96147007D01*
X123673270Y-96194626D01*
X123720889Y-96242245D01*
X123768508Y-96337483D01*
X123768508Y-96432721D01*
X123720889Y-96527959D01*
X123673270Y-96575578D01*
X123578032Y-96623197D01*
X123387556Y-96670816D01*
X123149461Y-96670816D01*
X122958985Y-96623197D01*
X122863747Y-96575578D01*
X122816128Y-96527959D01*
X122768508Y-96432721D01*
%TO.C,C70*%
X108957142Y-108357142D02*
X108909523Y-108404761D01*
X108766666Y-108452380D01*
X108671428Y-108452380D01*
X108528571Y-108404761D01*
X108433333Y-108309523D01*
X108385714Y-108214285D01*
X108338095Y-108023809D01*
X108338095Y-107880952D01*
X108385714Y-107690476D01*
X108433333Y-107595238D01*
X108528571Y-107500000D01*
X108671428Y-107452380D01*
X108766666Y-107452380D01*
X108909523Y-107500000D01*
X108957142Y-107547619D01*
X109290476Y-107452380D02*
X109957142Y-107452380D01*
X109528571Y-108452380D01*
X110528571Y-107452380D02*
X110623809Y-107452380D01*
X110719047Y-107500000D01*
X110766666Y-107547619D01*
X110814285Y-107642857D01*
X110861904Y-107833333D01*
X110861904Y-108071428D01*
X110814285Y-108261904D01*
X110766666Y-108357142D01*
X110719047Y-108404761D01*
X110623809Y-108452380D01*
X110528571Y-108452380D01*
X110433333Y-108404761D01*
X110385714Y-108357142D01*
X110338095Y-108261904D01*
X110290476Y-108071428D01*
X110290476Y-107833333D01*
X110338095Y-107642857D01*
X110385714Y-107547619D01*
X110433333Y-107500000D01*
X110528571Y-107452380D01*
%TO.C,U1*%
X94888095Y-120352380D02*
X94888095Y-121161904D01*
X94935714Y-121257142D01*
X94983333Y-121304761D01*
X95078571Y-121352380D01*
X95269047Y-121352380D01*
X95364285Y-121304761D01*
X95411904Y-121257142D01*
X95459523Y-121161904D01*
X95459523Y-120352380D01*
X96459523Y-121352380D02*
X95888095Y-121352380D01*
X96173809Y-121352380D02*
X96173809Y-120352380D01*
X96078571Y-120495238D01*
X95983333Y-120590476D01*
X95888095Y-120638095D01*
%TO.C,C59*%
X171857142Y-119107142D02*
X171809523Y-119154761D01*
X171666666Y-119202380D01*
X171571428Y-119202380D01*
X171428571Y-119154761D01*
X171333333Y-119059523D01*
X171285714Y-118964285D01*
X171238095Y-118773809D01*
X171238095Y-118630952D01*
X171285714Y-118440476D01*
X171333333Y-118345238D01*
X171428571Y-118250000D01*
X171571428Y-118202380D01*
X171666666Y-118202380D01*
X171809523Y-118250000D01*
X171857142Y-118297619D01*
X172761904Y-118202380D02*
X172285714Y-118202380D01*
X172238095Y-118678571D01*
X172285714Y-118630952D01*
X172380952Y-118583333D01*
X172619047Y-118583333D01*
X172714285Y-118630952D01*
X172761904Y-118678571D01*
X172809523Y-118773809D01*
X172809523Y-119011904D01*
X172761904Y-119107142D01*
X172714285Y-119154761D01*
X172619047Y-119202380D01*
X172380952Y-119202380D01*
X172285714Y-119154761D01*
X172238095Y-119107142D01*
X173285714Y-119202380D02*
X173476190Y-119202380D01*
X173571428Y-119154761D01*
X173619047Y-119107142D01*
X173714285Y-118964285D01*
X173761904Y-118773809D01*
X173761904Y-118392857D01*
X173714285Y-118297619D01*
X173666666Y-118250000D01*
X173571428Y-118202380D01*
X173380952Y-118202380D01*
X173285714Y-118250000D01*
X173238095Y-118297619D01*
X173190476Y-118392857D01*
X173190476Y-118630952D01*
X173238095Y-118726190D01*
X173285714Y-118773809D01*
X173380952Y-118821428D01*
X173571428Y-118821428D01*
X173666666Y-118773809D01*
X173714285Y-118726190D01*
X173761904Y-118630952D01*
%TO.C,C10*%
X96357142Y-102607142D02*
X96309523Y-102654761D01*
X96166666Y-102702380D01*
X96071428Y-102702380D01*
X95928571Y-102654761D01*
X95833333Y-102559523D01*
X95785714Y-102464285D01*
X95738095Y-102273809D01*
X95738095Y-102130952D01*
X95785714Y-101940476D01*
X95833333Y-101845238D01*
X95928571Y-101750000D01*
X96071428Y-101702380D01*
X96166666Y-101702380D01*
X96309523Y-101750000D01*
X96357142Y-101797619D01*
X97309523Y-102702380D02*
X96738095Y-102702380D01*
X97023809Y-102702380D02*
X97023809Y-101702380D01*
X96928571Y-101845238D01*
X96833333Y-101940476D01*
X96738095Y-101988095D01*
X97928571Y-101702380D02*
X98023809Y-101702380D01*
X98119047Y-101750000D01*
X98166666Y-101797619D01*
X98214285Y-101892857D01*
X98261904Y-102083333D01*
X98261904Y-102321428D01*
X98214285Y-102511904D01*
X98166666Y-102607142D01*
X98119047Y-102654761D01*
X98023809Y-102702380D01*
X97928571Y-102702380D01*
X97833333Y-102654761D01*
X97785714Y-102607142D01*
X97738095Y-102511904D01*
X97690476Y-102321428D01*
X97690476Y-102083333D01*
X97738095Y-101892857D01*
X97785714Y-101797619D01*
X97833333Y-101750000D01*
X97928571Y-101702380D01*
%TO.C,R19*%
X166131330Y-98055602D02*
X165797997Y-97579412D01*
X165559902Y-98055602D02*
X165559902Y-97055602D01*
X165940854Y-97055602D01*
X166036092Y-97103222D01*
X166083711Y-97150841D01*
X166131330Y-97246079D01*
X166131330Y-97388936D01*
X166083711Y-97484174D01*
X166036092Y-97531793D01*
X165940854Y-97579412D01*
X165559902Y-97579412D01*
X167083711Y-98055602D02*
X166512283Y-98055602D01*
X166797997Y-98055602D02*
X166797997Y-97055602D01*
X166702759Y-97198460D01*
X166607521Y-97293698D01*
X166512283Y-97341317D01*
X167559902Y-98055602D02*
X167750378Y-98055602D01*
X167845616Y-98007983D01*
X167893235Y-97960364D01*
X167988473Y-97817507D01*
X168036092Y-97627031D01*
X168036092Y-97246079D01*
X167988473Y-97150841D01*
X167940854Y-97103222D01*
X167845616Y-97055602D01*
X167655140Y-97055602D01*
X167559902Y-97103222D01*
X167512283Y-97150841D01*
X167464664Y-97246079D01*
X167464664Y-97484174D01*
X167512283Y-97579412D01*
X167559902Y-97627031D01*
X167655140Y-97674650D01*
X167845616Y-97674650D01*
X167940854Y-97627031D01*
X167988473Y-97579412D01*
X168036092Y-97484174D01*
%TO.C,C52*%
X133507142Y-98007142D02*
X133459523Y-98054761D01*
X133316666Y-98102380D01*
X133221428Y-98102380D01*
X133078571Y-98054761D01*
X132983333Y-97959523D01*
X132935714Y-97864285D01*
X132888095Y-97673809D01*
X132888095Y-97530952D01*
X132935714Y-97340476D01*
X132983333Y-97245238D01*
X133078571Y-97150000D01*
X133221428Y-97102380D01*
X133316666Y-97102380D01*
X133459523Y-97150000D01*
X133507142Y-97197619D01*
X134411904Y-97102380D02*
X133935714Y-97102380D01*
X133888095Y-97578571D01*
X133935714Y-97530952D01*
X134030952Y-97483333D01*
X134269047Y-97483333D01*
X134364285Y-97530952D01*
X134411904Y-97578571D01*
X134459523Y-97673809D01*
X134459523Y-97911904D01*
X134411904Y-98007142D01*
X134364285Y-98054761D01*
X134269047Y-98102380D01*
X134030952Y-98102380D01*
X133935714Y-98054761D01*
X133888095Y-98007142D01*
X134840476Y-97197619D02*
X134888095Y-97150000D01*
X134983333Y-97102380D01*
X135221428Y-97102380D01*
X135316666Y-97150000D01*
X135364285Y-97197619D01*
X135411904Y-97292857D01*
X135411904Y-97388095D01*
X135364285Y-97530952D01*
X134792857Y-98102380D01*
X135411904Y-98102380D01*
%TO.C,PS1*%
X73285714Y-96452380D02*
X73285714Y-95452380D01*
X73666666Y-95452380D01*
X73761904Y-95500000D01*
X73809523Y-95547619D01*
X73857142Y-95642857D01*
X73857142Y-95785714D01*
X73809523Y-95880952D01*
X73761904Y-95928571D01*
X73666666Y-95976190D01*
X73285714Y-95976190D01*
X74238095Y-96404761D02*
X74380952Y-96452380D01*
X74619047Y-96452380D01*
X74714285Y-96404761D01*
X74761904Y-96357142D01*
X74809523Y-96261904D01*
X74809523Y-96166666D01*
X74761904Y-96071428D01*
X74714285Y-96023809D01*
X74619047Y-95976190D01*
X74428571Y-95928571D01*
X74333333Y-95880952D01*
X74285714Y-95833333D01*
X74238095Y-95738095D01*
X74238095Y-95642857D01*
X74285714Y-95547619D01*
X74333333Y-95500000D01*
X74428571Y-95452380D01*
X74666666Y-95452380D01*
X74809523Y-95500000D01*
X75761904Y-96452380D02*
X75190476Y-96452380D01*
X75476190Y-96452380D02*
X75476190Y-95452380D01*
X75380952Y-95595238D01*
X75285714Y-95690476D01*
X75190476Y-95738095D01*
%TO.C,R2*%
X51452380Y-64166666D02*
X50976190Y-64500000D01*
X51452380Y-64738095D02*
X50452380Y-64738095D01*
X50452380Y-64357142D01*
X50500000Y-64261904D01*
X50547619Y-64214285D01*
X50642857Y-64166666D01*
X50785714Y-64166666D01*
X50880952Y-64214285D01*
X50928571Y-64261904D01*
X50976190Y-64357142D01*
X50976190Y-64738095D01*
X50547619Y-63785714D02*
X50500000Y-63738095D01*
X50452380Y-63642857D01*
X50452380Y-63404761D01*
X50500000Y-63309523D01*
X50547619Y-63261904D01*
X50642857Y-63214285D01*
X50738095Y-63214285D01*
X50880952Y-63261904D01*
X51452380Y-63833333D01*
X51452380Y-63214285D01*
D12*
%TO.C,C28*%
X184683571Y-85453571D02*
X184623095Y-85514047D01*
X184441666Y-85574523D01*
X184320714Y-85574523D01*
X184139285Y-85514047D01*
X184018333Y-85393095D01*
X183957857Y-85272142D01*
X183897380Y-85030238D01*
X183897380Y-84848809D01*
X183957857Y-84606904D01*
X184018333Y-84485952D01*
X184139285Y-84365000D01*
X184320714Y-84304523D01*
X184441666Y-84304523D01*
X184623095Y-84365000D01*
X184683571Y-84425476D01*
X185167380Y-84425476D02*
X185227857Y-84365000D01*
X185348809Y-84304523D01*
X185651190Y-84304523D01*
X185772142Y-84365000D01*
X185832619Y-84425476D01*
X185893095Y-84546428D01*
X185893095Y-84667380D01*
X185832619Y-84848809D01*
X185106904Y-85574523D01*
X185893095Y-85574523D01*
X186618809Y-84848809D02*
X186497857Y-84788333D01*
X186437380Y-84727857D01*
X186376904Y-84606904D01*
X186376904Y-84546428D01*
X186437380Y-84425476D01*
X186497857Y-84365000D01*
X186618809Y-84304523D01*
X186860714Y-84304523D01*
X186981666Y-84365000D01*
X187042142Y-84425476D01*
X187102619Y-84546428D01*
X187102619Y-84606904D01*
X187042142Y-84727857D01*
X186981666Y-84788333D01*
X186860714Y-84848809D01*
X186618809Y-84848809D01*
X186497857Y-84909285D01*
X186437380Y-84969761D01*
X186376904Y-85090714D01*
X186376904Y-85332619D01*
X186437380Y-85453571D01*
X186497857Y-85514047D01*
X186618809Y-85574523D01*
X186860714Y-85574523D01*
X186981666Y-85514047D01*
X187042142Y-85453571D01*
X187102619Y-85332619D01*
X187102619Y-85090714D01*
X187042142Y-84969761D01*
X186981666Y-84909285D01*
X186860714Y-84848809D01*
%TO.C,D1*%
X69562619Y-76324523D02*
X69562619Y-75054523D01*
X69865000Y-75054523D01*
X70046428Y-75115000D01*
X70167380Y-75235952D01*
X70227857Y-75356904D01*
X70288333Y-75598809D01*
X70288333Y-75780238D01*
X70227857Y-76022142D01*
X70167380Y-76143095D01*
X70046428Y-76264047D01*
X69865000Y-76324523D01*
X69562619Y-76324523D01*
X71497857Y-76324523D02*
X70772142Y-76324523D01*
X71135000Y-76324523D02*
X71135000Y-75054523D01*
X71014047Y-75235952D01*
X70893095Y-75356904D01*
X70772142Y-75417380D01*
%TO.C,IC5*%
X163760238Y-112824523D02*
X163760238Y-111554523D01*
X165090714Y-112703571D02*
X165030238Y-112764047D01*
X164848809Y-112824523D01*
X164727857Y-112824523D01*
X164546428Y-112764047D01*
X164425476Y-112643095D01*
X164365000Y-112522142D01*
X164304523Y-112280238D01*
X164304523Y-112098809D01*
X164365000Y-111856904D01*
X164425476Y-111735952D01*
X164546428Y-111615000D01*
X164727857Y-111554523D01*
X164848809Y-111554523D01*
X165030238Y-111615000D01*
X165090714Y-111675476D01*
X166239761Y-111554523D02*
X165635000Y-111554523D01*
X165574523Y-112159285D01*
X165635000Y-112098809D01*
X165755952Y-112038333D01*
X166058333Y-112038333D01*
X166179285Y-112098809D01*
X166239761Y-112159285D01*
X166300238Y-112280238D01*
X166300238Y-112582619D01*
X166239761Y-112703571D01*
X166179285Y-112764047D01*
X166058333Y-112824523D01*
X165755952Y-112824523D01*
X165635000Y-112764047D01*
X165574523Y-112703571D01*
D10*
%TO.C,C68*%
X86607142Y-97357142D02*
X86559523Y-97404761D01*
X86416666Y-97452380D01*
X86321428Y-97452380D01*
X86178571Y-97404761D01*
X86083333Y-97309523D01*
X86035714Y-97214285D01*
X85988095Y-97023809D01*
X85988095Y-96880952D01*
X86035714Y-96690476D01*
X86083333Y-96595238D01*
X86178571Y-96500000D01*
X86321428Y-96452380D01*
X86416666Y-96452380D01*
X86559523Y-96500000D01*
X86607142Y-96547619D01*
X87464285Y-96452380D02*
X87273809Y-96452380D01*
X87178571Y-96500000D01*
X87130952Y-96547619D01*
X87035714Y-96690476D01*
X86988095Y-96880952D01*
X86988095Y-97261904D01*
X87035714Y-97357142D01*
X87083333Y-97404761D01*
X87178571Y-97452380D01*
X87369047Y-97452380D01*
X87464285Y-97404761D01*
X87511904Y-97357142D01*
X87559523Y-97261904D01*
X87559523Y-97023809D01*
X87511904Y-96928571D01*
X87464285Y-96880952D01*
X87369047Y-96833333D01*
X87178571Y-96833333D01*
X87083333Y-96880952D01*
X87035714Y-96928571D01*
X86988095Y-97023809D01*
X88130952Y-96880952D02*
X88035714Y-96833333D01*
X87988095Y-96785714D01*
X87940476Y-96690476D01*
X87940476Y-96642857D01*
X87988095Y-96547619D01*
X88035714Y-96500000D01*
X88130952Y-96452380D01*
X88321428Y-96452380D01*
X88416666Y-96500000D01*
X88464285Y-96547619D01*
X88511904Y-96642857D01*
X88511904Y-96690476D01*
X88464285Y-96785714D01*
X88416666Y-96833333D01*
X88321428Y-96880952D01*
X88130952Y-96880952D01*
X88035714Y-96928571D01*
X87988095Y-96976190D01*
X87940476Y-97071428D01*
X87940476Y-97261904D01*
X87988095Y-97357142D01*
X88035714Y-97404761D01*
X88130952Y-97452380D01*
X88321428Y-97452380D01*
X88416666Y-97404761D01*
X88464285Y-97357142D01*
X88511904Y-97261904D01*
X88511904Y-97071428D01*
X88464285Y-96976190D01*
X88416666Y-96928571D01*
X88321428Y-96880952D01*
%TO.C,C47*%
X174607142Y-99857142D02*
X174559523Y-99904761D01*
X174416666Y-99952380D01*
X174321428Y-99952380D01*
X174178571Y-99904761D01*
X174083333Y-99809523D01*
X174035714Y-99714285D01*
X173988095Y-99523809D01*
X173988095Y-99380952D01*
X174035714Y-99190476D01*
X174083333Y-99095238D01*
X174178571Y-99000000D01*
X174321428Y-98952380D01*
X174416666Y-98952380D01*
X174559523Y-99000000D01*
X174607142Y-99047619D01*
X175464285Y-99285714D02*
X175464285Y-99952380D01*
X175226190Y-98904761D02*
X174988095Y-99619047D01*
X175607142Y-99619047D01*
X175892857Y-98952380D02*
X176559523Y-98952380D01*
X176130952Y-99952380D01*
D13*
%TO.C,R35*%
X69178571Y-82226190D02*
X69011904Y-81988095D01*
X68892857Y-82226190D02*
X68892857Y-81726190D01*
X69083333Y-81726190D01*
X69130952Y-81750000D01*
X69154761Y-81773809D01*
X69178571Y-81821428D01*
X69178571Y-81892857D01*
X69154761Y-81940476D01*
X69130952Y-81964285D01*
X69083333Y-81988095D01*
X68892857Y-81988095D01*
X69345238Y-81726190D02*
X69654761Y-81726190D01*
X69488095Y-81916666D01*
X69559523Y-81916666D01*
X69607142Y-81940476D01*
X69630952Y-81964285D01*
X69654761Y-82011904D01*
X69654761Y-82130952D01*
X69630952Y-82178571D01*
X69607142Y-82202380D01*
X69559523Y-82226190D01*
X69416666Y-82226190D01*
X69369047Y-82202380D01*
X69345238Y-82178571D01*
X70107142Y-81726190D02*
X69869047Y-81726190D01*
X69845238Y-81964285D01*
X69869047Y-81940476D01*
X69916666Y-81916666D01*
X70035714Y-81916666D01*
X70083333Y-81940476D01*
X70107142Y-81964285D01*
X70130952Y-82011904D01*
X70130952Y-82130952D01*
X70107142Y-82178571D01*
X70083333Y-82202380D01*
X70035714Y-82226190D01*
X69916666Y-82226190D01*
X69869047Y-82202380D01*
X69845238Y-82178571D01*
D10*
%TO.C,D8*%
X69011904Y-52952380D02*
X69011904Y-51952380D01*
X69250000Y-51952380D01*
X69392857Y-52000000D01*
X69488095Y-52095238D01*
X69535714Y-52190476D01*
X69583333Y-52380952D01*
X69583333Y-52523809D01*
X69535714Y-52714285D01*
X69488095Y-52809523D01*
X69392857Y-52904761D01*
X69250000Y-52952380D01*
X69011904Y-52952380D01*
X70154761Y-52380952D02*
X70059523Y-52333333D01*
X70011904Y-52285714D01*
X69964285Y-52190476D01*
X69964285Y-52142857D01*
X70011904Y-52047619D01*
X70059523Y-52000000D01*
X70154761Y-51952380D01*
X70345238Y-51952380D01*
X70440476Y-52000000D01*
X70488095Y-52047619D01*
X70535714Y-52142857D01*
X70535714Y-52190476D01*
X70488095Y-52285714D01*
X70440476Y-52333333D01*
X70345238Y-52380952D01*
X70154761Y-52380952D01*
X70059523Y-52428571D01*
X70011904Y-52476190D01*
X69964285Y-52571428D01*
X69964285Y-52761904D01*
X70011904Y-52857142D01*
X70059523Y-52904761D01*
X70154761Y-52952380D01*
X70345238Y-52952380D01*
X70440476Y-52904761D01*
X70488095Y-52857142D01*
X70535714Y-52761904D01*
X70535714Y-52571428D01*
X70488095Y-52476190D01*
X70440476Y-52428571D01*
X70345238Y-52380952D01*
D12*
%TO.C,IC6*%
X114860238Y-112624523D02*
X114860238Y-111354523D01*
X116190714Y-112503571D02*
X116130238Y-112564047D01*
X115948809Y-112624523D01*
X115827857Y-112624523D01*
X115646428Y-112564047D01*
X115525476Y-112443095D01*
X115465000Y-112322142D01*
X115404523Y-112080238D01*
X115404523Y-111898809D01*
X115465000Y-111656904D01*
X115525476Y-111535952D01*
X115646428Y-111415000D01*
X115827857Y-111354523D01*
X115948809Y-111354523D01*
X116130238Y-111415000D01*
X116190714Y-111475476D01*
X117279285Y-111354523D02*
X117037380Y-111354523D01*
X116916428Y-111415000D01*
X116855952Y-111475476D01*
X116735000Y-111656904D01*
X116674523Y-111898809D01*
X116674523Y-112382619D01*
X116735000Y-112503571D01*
X116795476Y-112564047D01*
X116916428Y-112624523D01*
X117158333Y-112624523D01*
X117279285Y-112564047D01*
X117339761Y-112503571D01*
X117400238Y-112382619D01*
X117400238Y-112080238D01*
X117339761Y-111959285D01*
X117279285Y-111898809D01*
X117158333Y-111838333D01*
X116916428Y-111838333D01*
X116795476Y-111898809D01*
X116735000Y-111959285D01*
X116674523Y-112080238D01*
D10*
%TO.C,R20*%
X157929306Y-97872351D02*
X157595973Y-97396161D01*
X157357878Y-97872351D02*
X157357878Y-96872351D01*
X157738830Y-96872351D01*
X157834068Y-96919971D01*
X157881687Y-96967590D01*
X157929306Y-97062828D01*
X157929306Y-97205685D01*
X157881687Y-97300923D01*
X157834068Y-97348542D01*
X157738830Y-97396161D01*
X157357878Y-97396161D01*
X158310259Y-96967590D02*
X158357878Y-96919971D01*
X158453116Y-96872351D01*
X158691211Y-96872351D01*
X158786449Y-96919971D01*
X158834068Y-96967590D01*
X158881687Y-97062828D01*
X158881687Y-97158066D01*
X158834068Y-97300923D01*
X158262640Y-97872351D01*
X158881687Y-97872351D01*
X159500735Y-96872351D02*
X159595973Y-96872351D01*
X159691211Y-96919971D01*
X159738830Y-96967590D01*
X159786449Y-97062828D01*
X159834068Y-97253304D01*
X159834068Y-97491399D01*
X159786449Y-97681875D01*
X159738830Y-97777113D01*
X159691211Y-97824732D01*
X159595973Y-97872351D01*
X159500735Y-97872351D01*
X159405497Y-97824732D01*
X159357878Y-97777113D01*
X159310259Y-97681875D01*
X159262640Y-97491399D01*
X159262640Y-97253304D01*
X159310259Y-97062828D01*
X159357878Y-96967590D01*
X159405497Y-96919971D01*
X159500735Y-96872351D01*
%TO.C,R15*%
X68457142Y-69052380D02*
X68123809Y-68576190D01*
X67885714Y-69052380D02*
X67885714Y-68052380D01*
X68266666Y-68052380D01*
X68361904Y-68100000D01*
X68409523Y-68147619D01*
X68457142Y-68242857D01*
X68457142Y-68385714D01*
X68409523Y-68480952D01*
X68361904Y-68528571D01*
X68266666Y-68576190D01*
X67885714Y-68576190D01*
X69409523Y-69052380D02*
X68838095Y-69052380D01*
X69123809Y-69052380D02*
X69123809Y-68052380D01*
X69028571Y-68195238D01*
X68933333Y-68290476D01*
X68838095Y-68338095D01*
X70314285Y-68052380D02*
X69838095Y-68052380D01*
X69790476Y-68528571D01*
X69838095Y-68480952D01*
X69933333Y-68433333D01*
X70171428Y-68433333D01*
X70266666Y-68480952D01*
X70314285Y-68528571D01*
X70361904Y-68623809D01*
X70361904Y-68861904D01*
X70314285Y-68957142D01*
X70266666Y-69004761D01*
X70171428Y-69052380D01*
X69933333Y-69052380D01*
X69838095Y-69004761D01*
X69790476Y-68957142D01*
%TO.C,C16*%
X99607142Y-102107142D02*
X99559523Y-102154761D01*
X99416666Y-102202380D01*
X99321428Y-102202380D01*
X99178571Y-102154761D01*
X99083333Y-102059523D01*
X99035714Y-101964285D01*
X98988095Y-101773809D01*
X98988095Y-101630952D01*
X99035714Y-101440476D01*
X99083333Y-101345238D01*
X99178571Y-101250000D01*
X99321428Y-101202380D01*
X99416666Y-101202380D01*
X99559523Y-101250000D01*
X99607142Y-101297619D01*
X100559523Y-102202380D02*
X99988095Y-102202380D01*
X100273809Y-102202380D02*
X100273809Y-101202380D01*
X100178571Y-101345238D01*
X100083333Y-101440476D01*
X99988095Y-101488095D01*
X101416666Y-101202380D02*
X101226190Y-101202380D01*
X101130952Y-101250000D01*
X101083333Y-101297619D01*
X100988095Y-101440476D01*
X100940476Y-101630952D01*
X100940476Y-102011904D01*
X100988095Y-102107142D01*
X101035714Y-102154761D01*
X101130952Y-102202380D01*
X101321428Y-102202380D01*
X101416666Y-102154761D01*
X101464285Y-102107142D01*
X101511904Y-102011904D01*
X101511904Y-101773809D01*
X101464285Y-101678571D01*
X101416666Y-101630952D01*
X101321428Y-101583333D01*
X101130952Y-101583333D01*
X101035714Y-101630952D01*
X100988095Y-101678571D01*
X100940476Y-101773809D01*
%TO.C,C30*%
X53357142Y-83257142D02*
X53309523Y-83304761D01*
X53166666Y-83352380D01*
X53071428Y-83352380D01*
X52928571Y-83304761D01*
X52833333Y-83209523D01*
X52785714Y-83114285D01*
X52738095Y-82923809D01*
X52738095Y-82780952D01*
X52785714Y-82590476D01*
X52833333Y-82495238D01*
X52928571Y-82400000D01*
X53071428Y-82352380D01*
X53166666Y-82352380D01*
X53309523Y-82400000D01*
X53357142Y-82447619D01*
X53690476Y-82352380D02*
X54309523Y-82352380D01*
X53976190Y-82733333D01*
X54119047Y-82733333D01*
X54214285Y-82780952D01*
X54261904Y-82828571D01*
X54309523Y-82923809D01*
X54309523Y-83161904D01*
X54261904Y-83257142D01*
X54214285Y-83304761D01*
X54119047Y-83352380D01*
X53833333Y-83352380D01*
X53738095Y-83304761D01*
X53690476Y-83257142D01*
X54928571Y-82352380D02*
X55023809Y-82352380D01*
X55119047Y-82400000D01*
X55166666Y-82447619D01*
X55214285Y-82542857D01*
X55261904Y-82733333D01*
X55261904Y-82971428D01*
X55214285Y-83161904D01*
X55166666Y-83257142D01*
X55119047Y-83304761D01*
X55023809Y-83352380D01*
X54928571Y-83352380D01*
X54833333Y-83304761D01*
X54785714Y-83257142D01*
X54738095Y-83161904D01*
X54690476Y-82971428D01*
X54690476Y-82733333D01*
X54738095Y-82542857D01*
X54785714Y-82447619D01*
X54833333Y-82400000D01*
X54928571Y-82352380D01*
%TO.C,J5*%
X88166666Y-113952380D02*
X88166666Y-114666666D01*
X88119047Y-114809523D01*
X88023809Y-114904761D01*
X87880952Y-114952380D01*
X87785714Y-114952380D01*
X89119047Y-113952380D02*
X88642857Y-113952380D01*
X88595238Y-114428571D01*
X88642857Y-114380952D01*
X88738095Y-114333333D01*
X88976190Y-114333333D01*
X89071428Y-114380952D01*
X89119047Y-114428571D01*
X89166666Y-114523809D01*
X89166666Y-114761904D01*
X89119047Y-114857142D01*
X89071428Y-114904761D01*
X88976190Y-114952380D01*
X88738095Y-114952380D01*
X88642857Y-114904761D01*
X88595238Y-114857142D01*
%TO.C,D4*%
X92511904Y-102452380D02*
X92511904Y-101452380D01*
X92750000Y-101452380D01*
X92892857Y-101500000D01*
X92988095Y-101595238D01*
X93035714Y-101690476D01*
X93083333Y-101880952D01*
X93083333Y-102023809D01*
X93035714Y-102214285D01*
X92988095Y-102309523D01*
X92892857Y-102404761D01*
X92750000Y-102452380D01*
X92511904Y-102452380D01*
X93940476Y-101785714D02*
X93940476Y-102452380D01*
X93702380Y-101404761D02*
X93464285Y-102119047D01*
X94083333Y-102119047D01*
%TO.C,C46*%
X167816818Y-100534789D02*
X167864437Y-100582408D01*
X167912056Y-100725265D01*
X167912056Y-100820503D01*
X167864437Y-100963360D01*
X167769199Y-101058598D01*
X167673961Y-101106217D01*
X167483485Y-101153836D01*
X167340628Y-101153836D01*
X167150152Y-101106217D01*
X167054914Y-101058598D01*
X166959676Y-100963360D01*
X166912056Y-100820503D01*
X166912056Y-100725265D01*
X166959676Y-100582408D01*
X167007295Y-100534789D01*
X167245390Y-99677646D02*
X167912056Y-99677646D01*
X166864437Y-99915741D02*
X167578723Y-100153836D01*
X167578723Y-99534789D01*
X166912056Y-98725265D02*
X166912056Y-98915741D01*
X166959676Y-99010979D01*
X167007295Y-99058598D01*
X167150152Y-99153836D01*
X167340628Y-99201455D01*
X167721580Y-99201455D01*
X167816818Y-99153836D01*
X167864437Y-99106217D01*
X167912056Y-99010979D01*
X167912056Y-98820503D01*
X167864437Y-98725265D01*
X167816818Y-98677646D01*
X167721580Y-98630027D01*
X167483485Y-98630027D01*
X167388247Y-98677646D01*
X167340628Y-98725265D01*
X167293009Y-98820503D01*
X167293009Y-99010979D01*
X167340628Y-99106217D01*
X167388247Y-99153836D01*
X167483485Y-99201455D01*
%TO.C,L1*%
X115833333Y-97202380D02*
X115357142Y-97202380D01*
X115357142Y-96202380D01*
X116690476Y-97202380D02*
X116119047Y-97202380D01*
X116404761Y-97202380D02*
X116404761Y-96202380D01*
X116309523Y-96345238D01*
X116214285Y-96440476D01*
X116119047Y-96488095D01*
%TO.C,R41*%
X70157142Y-94052380D02*
X69823809Y-93576190D01*
X69585714Y-94052380D02*
X69585714Y-93052380D01*
X69966666Y-93052380D01*
X70061904Y-93100000D01*
X70109523Y-93147619D01*
X70157142Y-93242857D01*
X70157142Y-93385714D01*
X70109523Y-93480952D01*
X70061904Y-93528571D01*
X69966666Y-93576190D01*
X69585714Y-93576190D01*
X71014285Y-93385714D02*
X71014285Y-94052380D01*
X70776190Y-93004761D02*
X70538095Y-93719047D01*
X71157142Y-93719047D01*
X72061904Y-94052380D02*
X71490476Y-94052380D01*
X71776190Y-94052380D02*
X71776190Y-93052380D01*
X71680952Y-93195238D01*
X71585714Y-93290476D01*
X71490476Y-93338095D01*
%TO.C,R10*%
X124607142Y-92452380D02*
X124273809Y-91976190D01*
X124035714Y-92452380D02*
X124035714Y-91452380D01*
X124416666Y-91452380D01*
X124511904Y-91500000D01*
X124559523Y-91547619D01*
X124607142Y-91642857D01*
X124607142Y-91785714D01*
X124559523Y-91880952D01*
X124511904Y-91928571D01*
X124416666Y-91976190D01*
X124035714Y-91976190D01*
X125559523Y-92452380D02*
X124988095Y-92452380D01*
X125273809Y-92452380D02*
X125273809Y-91452380D01*
X125178571Y-91595238D01*
X125083333Y-91690476D01*
X124988095Y-91738095D01*
X126178571Y-91452380D02*
X126273809Y-91452380D01*
X126369047Y-91500000D01*
X126416666Y-91547619D01*
X126464285Y-91642857D01*
X126511904Y-91833333D01*
X126511904Y-92071428D01*
X126464285Y-92261904D01*
X126416666Y-92357142D01*
X126369047Y-92404761D01*
X126273809Y-92452380D01*
X126178571Y-92452380D01*
X126083333Y-92404761D01*
X126035714Y-92357142D01*
X125988095Y-92261904D01*
X125940476Y-92071428D01*
X125940476Y-91833333D01*
X125988095Y-91642857D01*
X126035714Y-91547619D01*
X126083333Y-91500000D01*
X126178571Y-91452380D01*
%TO.C,C57*%
X120107142Y-116357142D02*
X120059523Y-116404761D01*
X119916666Y-116452380D01*
X119821428Y-116452380D01*
X119678571Y-116404761D01*
X119583333Y-116309523D01*
X119535714Y-116214285D01*
X119488095Y-116023809D01*
X119488095Y-115880952D01*
X119535714Y-115690476D01*
X119583333Y-115595238D01*
X119678571Y-115500000D01*
X119821428Y-115452380D01*
X119916666Y-115452380D01*
X120059523Y-115500000D01*
X120107142Y-115547619D01*
X121011904Y-115452380D02*
X120535714Y-115452380D01*
X120488095Y-115928571D01*
X120535714Y-115880952D01*
X120630952Y-115833333D01*
X120869047Y-115833333D01*
X120964285Y-115880952D01*
X121011904Y-115928571D01*
X121059523Y-116023809D01*
X121059523Y-116261904D01*
X121011904Y-116357142D01*
X120964285Y-116404761D01*
X120869047Y-116452380D01*
X120630952Y-116452380D01*
X120535714Y-116404761D01*
X120488095Y-116357142D01*
X121392857Y-115452380D02*
X122059523Y-115452380D01*
X121630952Y-116452380D01*
%TO.C,R27*%
X79357142Y-94702380D02*
X79023809Y-94226190D01*
X78785714Y-94702380D02*
X78785714Y-93702380D01*
X79166666Y-93702380D01*
X79261904Y-93750000D01*
X79309523Y-93797619D01*
X79357142Y-93892857D01*
X79357142Y-94035714D01*
X79309523Y-94130952D01*
X79261904Y-94178571D01*
X79166666Y-94226190D01*
X78785714Y-94226190D01*
X79738095Y-93797619D02*
X79785714Y-93750000D01*
X79880952Y-93702380D01*
X80119047Y-93702380D01*
X80214285Y-93750000D01*
X80261904Y-93797619D01*
X80309523Y-93892857D01*
X80309523Y-93988095D01*
X80261904Y-94130952D01*
X79690476Y-94702380D01*
X80309523Y-94702380D01*
X80642857Y-93702380D02*
X81309523Y-93702380D01*
X80880952Y-94702380D01*
%TO.C,C1*%
X92583333Y-119357142D02*
X92535714Y-119404761D01*
X92392857Y-119452380D01*
X92297619Y-119452380D01*
X92154761Y-119404761D01*
X92059523Y-119309523D01*
X92011904Y-119214285D01*
X91964285Y-119023809D01*
X91964285Y-118880952D01*
X92011904Y-118690476D01*
X92059523Y-118595238D01*
X92154761Y-118500000D01*
X92297619Y-118452380D01*
X92392857Y-118452380D01*
X92535714Y-118500000D01*
X92583333Y-118547619D01*
X93535714Y-119452380D02*
X92964285Y-119452380D01*
X93250000Y-119452380D02*
X93250000Y-118452380D01*
X93154761Y-118595238D01*
X93059523Y-118690476D01*
X92964285Y-118738095D01*
%TO.C,J4*%
X108666666Y-119452380D02*
X108666666Y-120166666D01*
X108619047Y-120309523D01*
X108523809Y-120404761D01*
X108380952Y-120452380D01*
X108285714Y-120452380D01*
X109571428Y-119785714D02*
X109571428Y-120452380D01*
X109333333Y-119404761D02*
X109095238Y-120119047D01*
X109714285Y-120119047D01*
%TO.C,C36*%
X67357142Y-97142857D02*
X67404761Y-97190476D01*
X67452380Y-97333333D01*
X67452380Y-97428571D01*
X67404761Y-97571428D01*
X67309523Y-97666666D01*
X67214285Y-97714285D01*
X67023809Y-97761904D01*
X66880952Y-97761904D01*
X66690476Y-97714285D01*
X66595238Y-97666666D01*
X66500000Y-97571428D01*
X66452380Y-97428571D01*
X66452380Y-97333333D01*
X66500000Y-97190476D01*
X66547619Y-97142857D01*
X66452380Y-96809523D02*
X66452380Y-96190476D01*
X66833333Y-96523809D01*
X66833333Y-96380952D01*
X66880952Y-96285714D01*
X66928571Y-96238095D01*
X67023809Y-96190476D01*
X67261904Y-96190476D01*
X67357142Y-96238095D01*
X67404761Y-96285714D01*
X67452380Y-96380952D01*
X67452380Y-96666666D01*
X67404761Y-96761904D01*
X67357142Y-96809523D01*
X66452380Y-95333333D02*
X66452380Y-95523809D01*
X66500000Y-95619047D01*
X66547619Y-95666666D01*
X66690476Y-95761904D01*
X66880952Y-95809523D01*
X67261904Y-95809523D01*
X67357142Y-95761904D01*
X67404761Y-95714285D01*
X67452380Y-95619047D01*
X67452380Y-95428571D01*
X67404761Y-95333333D01*
X67357142Y-95285714D01*
X67261904Y-95238095D01*
X67023809Y-95238095D01*
X66928571Y-95285714D01*
X66880952Y-95333333D01*
X66833333Y-95428571D01*
X66833333Y-95619047D01*
X66880952Y-95714285D01*
X66928571Y-95761904D01*
X67023809Y-95809523D01*
D12*
%TO.C,C34*%
X78539571Y-73066428D02*
X78600047Y-73126904D01*
X78660523Y-73308333D01*
X78660523Y-73429285D01*
X78600047Y-73610714D01*
X78479095Y-73731666D01*
X78358142Y-73792142D01*
X78116238Y-73852619D01*
X77934809Y-73852619D01*
X77692904Y-73792142D01*
X77571952Y-73731666D01*
X77451000Y-73610714D01*
X77390523Y-73429285D01*
X77390523Y-73308333D01*
X77451000Y-73126904D01*
X77511476Y-73066428D01*
X77390523Y-72643095D02*
X77390523Y-71856904D01*
X77874333Y-72280238D01*
X77874333Y-72098809D01*
X77934809Y-71977857D01*
X77995285Y-71917380D01*
X78116238Y-71856904D01*
X78418619Y-71856904D01*
X78539571Y-71917380D01*
X78600047Y-71977857D01*
X78660523Y-72098809D01*
X78660523Y-72461666D01*
X78600047Y-72582619D01*
X78539571Y-72643095D01*
X77813857Y-70768333D02*
X78660523Y-70768333D01*
X77330047Y-71070714D02*
X78237190Y-71373095D01*
X78237190Y-70586904D01*
D10*
%TO.C,C62*%
X140607142Y-116107142D02*
X140559523Y-116154761D01*
X140416666Y-116202380D01*
X140321428Y-116202380D01*
X140178571Y-116154761D01*
X140083333Y-116059523D01*
X140035714Y-115964285D01*
X139988095Y-115773809D01*
X139988095Y-115630952D01*
X140035714Y-115440476D01*
X140083333Y-115345238D01*
X140178571Y-115250000D01*
X140321428Y-115202380D01*
X140416666Y-115202380D01*
X140559523Y-115250000D01*
X140607142Y-115297619D01*
X141464285Y-115202380D02*
X141273809Y-115202380D01*
X141178571Y-115250000D01*
X141130952Y-115297619D01*
X141035714Y-115440476D01*
X140988095Y-115630952D01*
X140988095Y-116011904D01*
X141035714Y-116107142D01*
X141083333Y-116154761D01*
X141178571Y-116202380D01*
X141369047Y-116202380D01*
X141464285Y-116154761D01*
X141511904Y-116107142D01*
X141559523Y-116011904D01*
X141559523Y-115773809D01*
X141511904Y-115678571D01*
X141464285Y-115630952D01*
X141369047Y-115583333D01*
X141178571Y-115583333D01*
X141083333Y-115630952D01*
X141035714Y-115678571D01*
X140988095Y-115773809D01*
X141940476Y-115297619D02*
X141988095Y-115250000D01*
X142083333Y-115202380D01*
X142321428Y-115202380D01*
X142416666Y-115250000D01*
X142464285Y-115297619D01*
X142511904Y-115392857D01*
X142511904Y-115488095D01*
X142464285Y-115630952D01*
X141892857Y-116202380D01*
X142511904Y-116202380D01*
%TO.C,D10*%
X75952380Y-81714285D02*
X74952380Y-81714285D01*
X74952380Y-81476190D01*
X75000000Y-81333333D01*
X75095238Y-81238095D01*
X75190476Y-81190476D01*
X75380952Y-81142857D01*
X75523809Y-81142857D01*
X75714285Y-81190476D01*
X75809523Y-81238095D01*
X75904761Y-81333333D01*
X75952380Y-81476190D01*
X75952380Y-81714285D01*
X75952380Y-80190476D02*
X75952380Y-80761904D01*
X75952380Y-80476190D02*
X74952380Y-80476190D01*
X75095238Y-80571428D01*
X75190476Y-80666666D01*
X75238095Y-80761904D01*
X74952380Y-79571428D02*
X74952380Y-79476190D01*
X75000000Y-79380952D01*
X75047619Y-79333333D01*
X75142857Y-79285714D01*
X75333333Y-79238095D01*
X75571428Y-79238095D01*
X75761904Y-79285714D01*
X75857142Y-79333333D01*
X75904761Y-79380952D01*
X75952380Y-79476190D01*
X75952380Y-79571428D01*
X75904761Y-79666666D01*
X75857142Y-79714285D01*
X75761904Y-79761904D01*
X75571428Y-79809523D01*
X75333333Y-79809523D01*
X75142857Y-79761904D01*
X75047619Y-79714285D01*
X75000000Y-79666666D01*
X74952380Y-79571428D01*
%TO.C,C2*%
X108833333Y-106357142D02*
X108785714Y-106404761D01*
X108642857Y-106452380D01*
X108547619Y-106452380D01*
X108404761Y-106404761D01*
X108309523Y-106309523D01*
X108261904Y-106214285D01*
X108214285Y-106023809D01*
X108214285Y-105880952D01*
X108261904Y-105690476D01*
X108309523Y-105595238D01*
X108404761Y-105500000D01*
X108547619Y-105452380D01*
X108642857Y-105452380D01*
X108785714Y-105500000D01*
X108833333Y-105547619D01*
X109214285Y-105547619D02*
X109261904Y-105500000D01*
X109357142Y-105452380D01*
X109595238Y-105452380D01*
X109690476Y-105500000D01*
X109738095Y-105547619D01*
X109785714Y-105642857D01*
X109785714Y-105738095D01*
X109738095Y-105880952D01*
X109166666Y-106452380D01*
X109785714Y-106452380D01*
D12*
%TO.C,IC3*%
X53510238Y-78474523D02*
X53510238Y-77204523D01*
X54840714Y-78353571D02*
X54780238Y-78414047D01*
X54598809Y-78474523D01*
X54477857Y-78474523D01*
X54296428Y-78414047D01*
X54175476Y-78293095D01*
X54115000Y-78172142D01*
X54054523Y-77930238D01*
X54054523Y-77748809D01*
X54115000Y-77506904D01*
X54175476Y-77385952D01*
X54296428Y-77265000D01*
X54477857Y-77204523D01*
X54598809Y-77204523D01*
X54780238Y-77265000D01*
X54840714Y-77325476D01*
X55264047Y-77204523D02*
X56050238Y-77204523D01*
X55626904Y-77688333D01*
X55808333Y-77688333D01*
X55929285Y-77748809D01*
X55989761Y-77809285D01*
X56050238Y-77930238D01*
X56050238Y-78232619D01*
X55989761Y-78353571D01*
X55929285Y-78414047D01*
X55808333Y-78474523D01*
X55445476Y-78474523D01*
X55324523Y-78414047D01*
X55264047Y-78353571D01*
D10*
%TO.C,C58*%
X117457142Y-101318612D02*
X117409523Y-101366231D01*
X117266666Y-101413850D01*
X117171428Y-101413850D01*
X117028571Y-101366231D01*
X116933333Y-101270993D01*
X116885714Y-101175755D01*
X116838095Y-100985279D01*
X116838095Y-100842422D01*
X116885714Y-100651946D01*
X116933333Y-100556708D01*
X117028571Y-100461470D01*
X117171428Y-100413850D01*
X117266666Y-100413850D01*
X117409523Y-100461470D01*
X117457142Y-100509089D01*
X118361904Y-100413850D02*
X117885714Y-100413850D01*
X117838095Y-100890041D01*
X117885714Y-100842422D01*
X117980952Y-100794803D01*
X118219047Y-100794803D01*
X118314285Y-100842422D01*
X118361904Y-100890041D01*
X118409523Y-100985279D01*
X118409523Y-101223374D01*
X118361904Y-101318612D01*
X118314285Y-101366231D01*
X118219047Y-101413850D01*
X117980952Y-101413850D01*
X117885714Y-101366231D01*
X117838095Y-101318612D01*
X118980952Y-100842422D02*
X118885714Y-100794803D01*
X118838095Y-100747184D01*
X118790476Y-100651946D01*
X118790476Y-100604327D01*
X118838095Y-100509089D01*
X118885714Y-100461470D01*
X118980952Y-100413850D01*
X119171428Y-100413850D01*
X119266666Y-100461470D01*
X119314285Y-100509089D01*
X119361904Y-100604327D01*
X119361904Y-100651946D01*
X119314285Y-100747184D01*
X119266666Y-100794803D01*
X119171428Y-100842422D01*
X118980952Y-100842422D01*
X118885714Y-100890041D01*
X118838095Y-100937660D01*
X118790476Y-101032898D01*
X118790476Y-101223374D01*
X118838095Y-101318612D01*
X118885714Y-101366231D01*
X118980952Y-101413850D01*
X119171428Y-101413850D01*
X119266666Y-101366231D01*
X119314285Y-101318612D01*
X119361904Y-101223374D01*
X119361904Y-101032898D01*
X119314285Y-100937660D01*
X119266666Y-100890041D01*
X119171428Y-100842422D01*
%TO.C,R33*%
X56107142Y-69202380D02*
X55773809Y-68726190D01*
X55535714Y-69202380D02*
X55535714Y-68202380D01*
X55916666Y-68202380D01*
X56011904Y-68250000D01*
X56059523Y-68297619D01*
X56107142Y-68392857D01*
X56107142Y-68535714D01*
X56059523Y-68630952D01*
X56011904Y-68678571D01*
X55916666Y-68726190D01*
X55535714Y-68726190D01*
X56440476Y-68202380D02*
X57059523Y-68202380D01*
X56726190Y-68583333D01*
X56869047Y-68583333D01*
X56964285Y-68630952D01*
X57011904Y-68678571D01*
X57059523Y-68773809D01*
X57059523Y-69011904D01*
X57011904Y-69107142D01*
X56964285Y-69154761D01*
X56869047Y-69202380D01*
X56583333Y-69202380D01*
X56488095Y-69154761D01*
X56440476Y-69107142D01*
X57392857Y-68202380D02*
X58011904Y-68202380D01*
X57678571Y-68583333D01*
X57821428Y-68583333D01*
X57916666Y-68630952D01*
X57964285Y-68678571D01*
X58011904Y-68773809D01*
X58011904Y-69011904D01*
X57964285Y-69107142D01*
X57916666Y-69154761D01*
X57821428Y-69202380D01*
X57535714Y-69202380D01*
X57440476Y-69154761D01*
X57392857Y-69107142D01*
D13*
%TO.C,R6*%
X69417202Y-57247158D02*
X69250536Y-57009063D01*
X69131488Y-57247158D02*
X69131488Y-56747158D01*
X69321964Y-56747158D01*
X69369583Y-56770968D01*
X69393393Y-56794777D01*
X69417202Y-56842396D01*
X69417202Y-56913825D01*
X69393393Y-56961444D01*
X69369583Y-56985253D01*
X69321964Y-57009063D01*
X69131488Y-57009063D01*
X69845774Y-56747158D02*
X69750536Y-56747158D01*
X69702916Y-56770968D01*
X69679107Y-56794777D01*
X69631488Y-56866206D01*
X69607678Y-56961444D01*
X69607678Y-57151920D01*
X69631488Y-57199539D01*
X69655297Y-57223348D01*
X69702916Y-57247158D01*
X69798155Y-57247158D01*
X69845774Y-57223348D01*
X69869583Y-57199539D01*
X69893393Y-57151920D01*
X69893393Y-57032872D01*
X69869583Y-56985253D01*
X69845774Y-56961444D01*
X69798155Y-56937634D01*
X69702916Y-56937634D01*
X69655297Y-56961444D01*
X69631488Y-56985253D01*
X69607678Y-57032872D01*
D12*
%TO.C,IC4*%
X153760238Y-112774523D02*
X153760238Y-111504523D01*
X155090714Y-112653571D02*
X155030238Y-112714047D01*
X154848809Y-112774523D01*
X154727857Y-112774523D01*
X154546428Y-112714047D01*
X154425476Y-112593095D01*
X154365000Y-112472142D01*
X154304523Y-112230238D01*
X154304523Y-112048809D01*
X154365000Y-111806904D01*
X154425476Y-111685952D01*
X154546428Y-111565000D01*
X154727857Y-111504523D01*
X154848809Y-111504523D01*
X155030238Y-111565000D01*
X155090714Y-111625476D01*
X156179285Y-111927857D02*
X156179285Y-112774523D01*
X155876904Y-111444047D02*
X155574523Y-112351190D01*
X156360714Y-112351190D01*
D10*
%TO.C,C18*%
X53057142Y-61357142D02*
X53009523Y-61404761D01*
X52866666Y-61452380D01*
X52771428Y-61452380D01*
X52628571Y-61404761D01*
X52533333Y-61309523D01*
X52485714Y-61214285D01*
X52438095Y-61023809D01*
X52438095Y-60880952D01*
X52485714Y-60690476D01*
X52533333Y-60595238D01*
X52628571Y-60500000D01*
X52771428Y-60452380D01*
X52866666Y-60452380D01*
X53009523Y-60500000D01*
X53057142Y-60547619D01*
X54009523Y-61452380D02*
X53438095Y-61452380D01*
X53723809Y-61452380D02*
X53723809Y-60452380D01*
X53628571Y-60595238D01*
X53533333Y-60690476D01*
X53438095Y-60738095D01*
X54580952Y-60880952D02*
X54485714Y-60833333D01*
X54438095Y-60785714D01*
X54390476Y-60690476D01*
X54390476Y-60642857D01*
X54438095Y-60547619D01*
X54485714Y-60500000D01*
X54580952Y-60452380D01*
X54771428Y-60452380D01*
X54866666Y-60500000D01*
X54914285Y-60547619D01*
X54961904Y-60642857D01*
X54961904Y-60690476D01*
X54914285Y-60785714D01*
X54866666Y-60833333D01*
X54771428Y-60880952D01*
X54580952Y-60880952D01*
X54485714Y-60928571D01*
X54438095Y-60976190D01*
X54390476Y-61071428D01*
X54390476Y-61261904D01*
X54438095Y-61357142D01*
X54485714Y-61404761D01*
X54580952Y-61452380D01*
X54771428Y-61452380D01*
X54866666Y-61404761D01*
X54914285Y-61357142D01*
X54961904Y-61261904D01*
X54961904Y-61071428D01*
X54914285Y-60976190D01*
X54866666Y-60928571D01*
X54771428Y-60880952D01*
%TO.C,R37*%
X74857142Y-85702380D02*
X74523809Y-85226190D01*
X74285714Y-85702380D02*
X74285714Y-84702380D01*
X74666666Y-84702380D01*
X74761904Y-84750000D01*
X74809523Y-84797619D01*
X74857142Y-84892857D01*
X74857142Y-85035714D01*
X74809523Y-85130952D01*
X74761904Y-85178571D01*
X74666666Y-85226190D01*
X74285714Y-85226190D01*
X75190476Y-84702380D02*
X75809523Y-84702380D01*
X75476190Y-85083333D01*
X75619047Y-85083333D01*
X75714285Y-85130952D01*
X75761904Y-85178571D01*
X75809523Y-85273809D01*
X75809523Y-85511904D01*
X75761904Y-85607142D01*
X75714285Y-85654761D01*
X75619047Y-85702380D01*
X75333333Y-85702380D01*
X75238095Y-85654761D01*
X75190476Y-85607142D01*
X76142857Y-84702380D02*
X76809523Y-84702380D01*
X76380952Y-85702380D01*
%TO.C,C64*%
X87507142Y-110407142D02*
X87459523Y-110454761D01*
X87316666Y-110502380D01*
X87221428Y-110502380D01*
X87078571Y-110454761D01*
X86983333Y-110359523D01*
X86935714Y-110264285D01*
X86888095Y-110073809D01*
X86888095Y-109930952D01*
X86935714Y-109740476D01*
X86983333Y-109645238D01*
X87078571Y-109550000D01*
X87221428Y-109502380D01*
X87316666Y-109502380D01*
X87459523Y-109550000D01*
X87507142Y-109597619D01*
X88364285Y-109502380D02*
X88173809Y-109502380D01*
X88078571Y-109550000D01*
X88030952Y-109597619D01*
X87935714Y-109740476D01*
X87888095Y-109930952D01*
X87888095Y-110311904D01*
X87935714Y-110407142D01*
X87983333Y-110454761D01*
X88078571Y-110502380D01*
X88269047Y-110502380D01*
X88364285Y-110454761D01*
X88411904Y-110407142D01*
X88459523Y-110311904D01*
X88459523Y-110073809D01*
X88411904Y-109978571D01*
X88364285Y-109930952D01*
X88269047Y-109883333D01*
X88078571Y-109883333D01*
X87983333Y-109930952D01*
X87935714Y-109978571D01*
X87888095Y-110073809D01*
X89316666Y-109835714D02*
X89316666Y-110502380D01*
X89078571Y-109454761D02*
X88840476Y-110169047D01*
X89459523Y-110169047D01*
%TO.C,J1*%
X196016666Y-83952380D02*
X196016666Y-84666666D01*
X195969047Y-84809523D01*
X195873809Y-84904761D01*
X195730952Y-84952380D01*
X195635714Y-84952380D01*
X197016666Y-84952380D02*
X196445238Y-84952380D01*
X196730952Y-84952380D02*
X196730952Y-83952380D01*
X196635714Y-84095238D01*
X196540476Y-84190476D01*
X196445238Y-84238095D01*
D12*
%TO.C,C50*%
X136683571Y-97053571D02*
X136623095Y-97114047D01*
X136441666Y-97174523D01*
X136320714Y-97174523D01*
X136139285Y-97114047D01*
X136018333Y-96993095D01*
X135957857Y-96872142D01*
X135897380Y-96630238D01*
X135897380Y-96448809D01*
X135957857Y-96206904D01*
X136018333Y-96085952D01*
X136139285Y-95965000D01*
X136320714Y-95904523D01*
X136441666Y-95904523D01*
X136623095Y-95965000D01*
X136683571Y-96025476D01*
X137832619Y-95904523D02*
X137227857Y-95904523D01*
X137167380Y-96509285D01*
X137227857Y-96448809D01*
X137348809Y-96388333D01*
X137651190Y-96388333D01*
X137772142Y-96448809D01*
X137832619Y-96509285D01*
X137893095Y-96630238D01*
X137893095Y-96932619D01*
X137832619Y-97053571D01*
X137772142Y-97114047D01*
X137651190Y-97174523D01*
X137348809Y-97174523D01*
X137227857Y-97114047D01*
X137167380Y-97053571D01*
X138679285Y-95904523D02*
X138800238Y-95904523D01*
X138921190Y-95965000D01*
X138981666Y-96025476D01*
X139042142Y-96146428D01*
X139102619Y-96388333D01*
X139102619Y-96690714D01*
X139042142Y-96932619D01*
X138981666Y-97053571D01*
X138921190Y-97114047D01*
X138800238Y-97174523D01*
X138679285Y-97174523D01*
X138558333Y-97114047D01*
X138497857Y-97053571D01*
X138437380Y-96932619D01*
X138376904Y-96690714D01*
X138376904Y-96388333D01*
X138437380Y-96146428D01*
X138497857Y-96025476D01*
X138558333Y-95965000D01*
X138679285Y-95904523D01*
D10*
%TO.C,C66*%
X82803915Y-96904146D02*
X82851534Y-96951765D01*
X82899153Y-97094622D01*
X82899153Y-97189860D01*
X82851534Y-97332717D01*
X82756296Y-97427955D01*
X82661058Y-97475574D01*
X82470582Y-97523193D01*
X82327725Y-97523193D01*
X82137249Y-97475574D01*
X82042011Y-97427955D01*
X81946773Y-97332717D01*
X81899153Y-97189860D01*
X81899153Y-97094622D01*
X81946773Y-96951765D01*
X81994392Y-96904146D01*
X81899153Y-96047003D02*
X81899153Y-96237479D01*
X81946773Y-96332717D01*
X81994392Y-96380336D01*
X82137249Y-96475574D01*
X82327725Y-96523193D01*
X82708677Y-96523193D01*
X82803915Y-96475574D01*
X82851534Y-96427955D01*
X82899153Y-96332717D01*
X82899153Y-96142241D01*
X82851534Y-96047003D01*
X82803915Y-95999384D01*
X82708677Y-95951765D01*
X82470582Y-95951765D01*
X82375344Y-95999384D01*
X82327725Y-96047003D01*
X82280106Y-96142241D01*
X82280106Y-96332717D01*
X82327725Y-96427955D01*
X82375344Y-96475574D01*
X82470582Y-96523193D01*
X81899153Y-95094622D02*
X81899153Y-95285098D01*
X81946773Y-95380336D01*
X81994392Y-95427955D01*
X82137249Y-95523193D01*
X82327725Y-95570812D01*
X82708677Y-95570812D01*
X82803915Y-95523193D01*
X82851534Y-95475574D01*
X82899153Y-95380336D01*
X82899153Y-95189860D01*
X82851534Y-95094622D01*
X82803915Y-95047003D01*
X82708677Y-94999384D01*
X82470582Y-94999384D01*
X82375344Y-95047003D01*
X82327725Y-95094622D01*
X82280106Y-95189860D01*
X82280106Y-95380336D01*
X82327725Y-95475574D01*
X82375344Y-95523193D01*
X82470582Y-95570812D01*
%TO.C,D9*%
X71161904Y-77952380D02*
X71161904Y-76952380D01*
X71400000Y-76952380D01*
X71542857Y-77000000D01*
X71638095Y-77095238D01*
X71685714Y-77190476D01*
X71733333Y-77380952D01*
X71733333Y-77523809D01*
X71685714Y-77714285D01*
X71638095Y-77809523D01*
X71542857Y-77904761D01*
X71400000Y-77952380D01*
X71161904Y-77952380D01*
X72209523Y-77952380D02*
X72400000Y-77952380D01*
X72495238Y-77904761D01*
X72542857Y-77857142D01*
X72638095Y-77714285D01*
X72685714Y-77523809D01*
X72685714Y-77142857D01*
X72638095Y-77047619D01*
X72590476Y-77000000D01*
X72495238Y-76952380D01*
X72304761Y-76952380D01*
X72209523Y-77000000D01*
X72161904Y-77047619D01*
X72114285Y-77142857D01*
X72114285Y-77380952D01*
X72161904Y-77476190D01*
X72209523Y-77523809D01*
X72304761Y-77571428D01*
X72495238Y-77571428D01*
X72590476Y-77523809D01*
X72638095Y-77476190D01*
X72685714Y-77380952D01*
%TO.C,R12*%
X156457142Y-94752380D02*
X156123809Y-94276190D01*
X155885714Y-94752380D02*
X155885714Y-93752380D01*
X156266666Y-93752380D01*
X156361904Y-93800000D01*
X156409523Y-93847619D01*
X156457142Y-93942857D01*
X156457142Y-94085714D01*
X156409523Y-94180952D01*
X156361904Y-94228571D01*
X156266666Y-94276190D01*
X155885714Y-94276190D01*
X157409523Y-94752380D02*
X156838095Y-94752380D01*
X157123809Y-94752380D02*
X157123809Y-93752380D01*
X157028571Y-93895238D01*
X156933333Y-93990476D01*
X156838095Y-94038095D01*
X157790476Y-93847619D02*
X157838095Y-93800000D01*
X157933333Y-93752380D01*
X158171428Y-93752380D01*
X158266666Y-93800000D01*
X158314285Y-93847619D01*
X158361904Y-93942857D01*
X158361904Y-94038095D01*
X158314285Y-94180952D01*
X157742857Y-94752380D01*
X158361904Y-94752380D01*
D14*
%TO.C,C44*%
X73790000Y-97884420D02*
X73790000Y-98165580D01*
X74810000Y-97884420D02*
X74810000Y-98165580D01*
D15*
%TO.C,T1*%
X59430000Y-76665000D02*
X59430000Y-69935000D01*
X59430000Y-69935000D02*
X66570000Y-69935000D01*
X66570000Y-69935000D02*
X66570000Y-76665000D01*
X66570000Y-76665000D02*
X59430000Y-76665000D01*
X57054940Y-70660000D02*
G75*
G03*
X57054940Y-70660000I-103940J0D01*
G01*
D14*
%TO.C,C20*%
X139870000Y-64630000D02*
X128130000Y-64630000D01*
X139870000Y-64630000D02*
X139870000Y-91370000D01*
X128130000Y-64630000D02*
X128130000Y-91370000D01*
X139870000Y-91370000D02*
X128130000Y-91370000D01*
D13*
%TO.C,C27*%
X186750000Y-73250000D02*
X181750000Y-73250000D01*
X181750000Y-73250000D02*
X181750000Y-66250000D01*
X186750000Y-66250000D02*
X186750000Y-73250000D01*
X181750000Y-66250000D02*
X186750000Y-66250000D01*
D16*
%TO.C,L5*%
X186936500Y-83310700D02*
X204936500Y-83310700D01*
X204936500Y-83310700D02*
X204936500Y-56310700D01*
X204936500Y-56310700D02*
X186936500Y-56310700D01*
X186936500Y-56310700D02*
X186936500Y-83310700D01*
D14*
%TO.C,K1*%
X172650000Y-54600000D02*
X172650000Y-55800000D01*
X181350000Y-50350000D02*
X164650000Y-50350000D01*
X164650000Y-73050000D02*
X181350000Y-73050000D01*
X172650000Y-55800000D02*
X173350000Y-55800000D01*
X172000000Y-50090000D02*
X174000000Y-50090000D01*
X172650000Y-55400000D02*
X173350000Y-55000000D01*
X181350000Y-73050000D02*
X181350000Y-50350000D01*
X168500000Y-55200000D02*
X171650000Y-55200000D01*
X164650000Y-50350000D02*
X164650000Y-73050000D01*
X173350000Y-55800000D02*
X173350000Y-54600000D01*
X173350000Y-54600000D02*
X172650000Y-54600000D01*
X174350000Y-55200000D02*
X177500000Y-55200000D01*
D13*
%TO.C,C22*%
X194500000Y-98500000D02*
X187500000Y-98500000D01*
X187500000Y-93500000D02*
X194500000Y-93500000D01*
X187500000Y-98500000D02*
X187500000Y-93500000D01*
X194500000Y-93500000D02*
X194500000Y-98500000D01*
D14*
%TO.C,C32*%
X184629000Y-124651000D02*
X184629000Y-99849000D01*
X183389000Y-110010000D02*
X183389000Y-100125000D01*
X185109000Y-124723000D02*
X185109000Y-99777000D01*
X178190000Y-121484000D02*
X178190000Y-103016000D01*
X178430000Y-121700000D02*
X178430000Y-102800000D01*
X175950000Y-118739000D02*
X175950000Y-105761000D01*
X177390000Y-120675000D02*
X177390000Y-103825000D01*
X182109000Y-110010000D02*
X182109000Y-100553000D01*
X186310000Y-124823000D02*
X186310000Y-99677000D01*
X183349000Y-124364000D02*
X183349000Y-114490000D01*
X182629000Y-124139000D02*
X182629000Y-114490000D01*
X179629000Y-122630000D02*
X179629000Y-114490000D01*
X179149000Y-122285000D02*
X179149000Y-102215000D01*
X186510000Y-124828000D02*
X186510000Y-99672000D01*
X180189000Y-122992000D02*
X180189000Y-114490000D01*
X176270000Y-119241000D02*
X176270000Y-105259000D01*
X184909000Y-124696000D02*
X184909000Y-99804000D01*
X183509000Y-110010000D02*
X183509000Y-100093000D01*
X181989000Y-123898000D02*
X181989000Y-114490000D01*
X179829000Y-110010000D02*
X179829000Y-101736000D01*
X176030000Y-118870000D02*
X176030000Y-105630000D01*
X182909000Y-124232000D02*
X182909000Y-114490000D01*
X180149000Y-110010000D02*
X180149000Y-101533000D01*
X180549000Y-123203000D02*
X180549000Y-114490000D01*
X185029000Y-124713000D02*
X185029000Y-99787000D01*
X180109000Y-110010000D02*
X180109000Y-101558000D01*
X179589000Y-122603000D02*
X179589000Y-114490000D01*
X181069000Y-110010000D02*
X181069000Y-101020000D01*
X180389000Y-123111000D02*
X180389000Y-114490000D01*
X181389000Y-123636000D02*
X181389000Y-114490000D01*
X182909000Y-110010000D02*
X182909000Y-100268000D01*
X183149000Y-110010000D02*
X183149000Y-100194000D01*
X182389000Y-110010000D02*
X182389000Y-100447000D01*
X183789000Y-124478000D02*
X183789000Y-114490000D01*
X176670000Y-119804000D02*
X176670000Y-104696000D01*
X175110000Y-117086000D02*
X175110000Y-107414000D01*
X182589000Y-124125000D02*
X182589000Y-114490000D01*
X181189000Y-123540000D02*
X181189000Y-114490000D01*
X182149000Y-123962000D02*
X182149000Y-114490000D01*
X182629000Y-110010000D02*
X182629000Y-100361000D01*
X199004259Y-120575000D02*
X199004259Y-118075000D01*
X179709000Y-122684000D02*
X179709000Y-114490000D01*
X174990000Y-116789000D02*
X174990000Y-107711000D01*
X176590000Y-119696000D02*
X176590000Y-104804000D01*
X183589000Y-110010000D02*
X183589000Y-100072000D01*
X182549000Y-110010000D02*
X182549000Y-100389000D01*
X185829000Y-124797000D02*
X185829000Y-99703000D01*
X180349000Y-123087000D02*
X180349000Y-114490000D01*
X175630000Y-118178000D02*
X175630000Y-106322000D01*
X182269000Y-124009000D02*
X182269000Y-114490000D01*
X174430000Y-114946000D02*
X174430000Y-109554000D01*
X177670000Y-120975000D02*
X177670000Y-103525000D01*
X181549000Y-123709000D02*
X181549000Y-114490000D01*
X183509000Y-124407000D02*
X183509000Y-114490000D01*
X180269000Y-110010000D02*
X180269000Y-101460000D01*
X180629000Y-110010000D02*
X180629000Y-101253000D01*
X181469000Y-110010000D02*
X181469000Y-100827000D01*
X182869000Y-110010000D02*
X182869000Y-100281000D01*
X182189000Y-110010000D02*
X182189000Y-100522000D01*
X186470000Y-124827000D02*
X186470000Y-99673000D01*
X180709000Y-123291000D02*
X180709000Y-114490000D01*
X177550000Y-120849000D02*
X177550000Y-103651000D01*
X180269000Y-123040000D02*
X180269000Y-114490000D01*
X177030000Y-120259000D02*
X177030000Y-104241000D01*
X183069000Y-110010000D02*
X183069000Y-100218000D01*
X179909000Y-110010000D02*
X179909000Y-101684000D01*
X177950000Y-121256000D02*
X177950000Y-103244000D01*
X180469000Y-123157000D02*
X180469000Y-114490000D01*
X180069000Y-110010000D02*
X180069000Y-101582000D01*
X182429000Y-124068000D02*
X182429000Y-114490000D01*
X179989000Y-110010000D02*
X179989000Y-101633000D01*
X182869000Y-124219000D02*
X182869000Y-114490000D01*
X177790000Y-121098000D02*
X177790000Y-103402000D01*
X178150000Y-121447000D02*
X178150000Y-103053000D01*
X175190000Y-117273000D02*
X175190000Y-107227000D01*
X180349000Y-110010000D02*
X180349000Y-101413000D01*
X186350000Y-124824000D02*
X186350000Y-99676000D01*
X182029000Y-123915000D02*
X182029000Y-114490000D01*
X180189000Y-110010000D02*
X180189000Y-101508000D01*
X181749000Y-110010000D02*
X181749000Y-100702000D01*
X183669000Y-124449000D02*
X183669000Y-114490000D01*
X180589000Y-110010000D02*
X180589000Y-101275000D01*
X177350000Y-120631000D02*
X177350000Y-103869000D01*
X181509000Y-110010000D02*
X181509000Y-100809000D01*
X181029000Y-123460000D02*
X181029000Y-114490000D01*
X180509000Y-110010000D02*
X180509000Y-101320000D01*
X175590000Y-118103000D02*
X175590000Y-106397000D01*
X182789000Y-124193000D02*
X182789000Y-114490000D01*
X177510000Y-120806000D02*
X177510000Y-103694000D01*
X185549000Y-124773000D02*
X185549000Y-99727000D01*
X182349000Y-110010000D02*
X182349000Y-100461000D01*
X181549000Y-110010000D02*
X181549000Y-100791000D01*
X174630000Y-115728000D02*
X174630000Y-108772000D01*
X176230000Y-119181000D02*
X176230000Y-105319000D01*
X183949000Y-110010000D02*
X183949000Y-99984000D01*
X178070000Y-121371000D02*
X178070000Y-103129000D01*
X174950000Y-116685000D02*
X174950000Y-107815000D01*
X175470000Y-117870000D02*
X175470000Y-106630000D01*
X180549000Y-110010000D02*
X180549000Y-101297000D01*
X183909000Y-110010000D02*
X183909000Y-99993000D01*
X183629000Y-110010000D02*
X183629000Y-100061000D01*
X184109000Y-124551000D02*
X184109000Y-99949000D01*
X178829000Y-122036000D02*
X178829000Y-102464000D01*
X184949000Y-124701000D02*
X184949000Y-99799000D01*
X182309000Y-110010000D02*
X182309000Y-100476000D01*
X177430000Y-120719000D02*
X177430000Y-103781000D01*
X181749000Y-123798000D02*
X181749000Y-114490000D01*
X180869000Y-123377000D02*
X180869000Y-114490000D01*
X178030000Y-121333000D02*
X178030000Y-103167000D01*
X182429000Y-110010000D02*
X182429000Y-100432000D01*
X182469000Y-110010000D02*
X182469000Y-100417000D01*
X174590000Y-115587000D02*
X174590000Y-108913000D01*
X181669000Y-123763000D02*
X181669000Y-114490000D01*
X183189000Y-110010000D02*
X183189000Y-100182000D01*
X178230000Y-121520000D02*
X178230000Y-102980000D01*
X184789000Y-124677000D02*
X184789000Y-99823000D01*
X179949000Y-122842000D02*
X179949000Y-114490000D01*
X175750000Y-118396000D02*
X175750000Y-106104000D01*
X182229000Y-123993000D02*
X182229000Y-114490000D01*
X174510000Y-115284000D02*
X174510000Y-109216000D01*
X184709000Y-124665000D02*
X184709000Y-99835000D01*
X174230000Y-113796000D02*
X174230000Y-110704000D01*
X181069000Y-123480000D02*
X181069000Y-114490000D01*
X185149000Y-124729000D02*
X185149000Y-99771000D01*
X175790000Y-118467000D02*
X175790000Y-106033000D01*
X176510000Y-119587000D02*
X176510000Y-104913000D01*
X182589000Y-110010000D02*
X182589000Y-100375000D01*
X185389000Y-124757000D02*
X185389000Y-99743000D01*
X180949000Y-123419000D02*
X180949000Y-114490000D01*
X185989000Y-124808000D02*
X185989000Y-99692000D01*
X176470000Y-119531000D02*
X176470000Y-104969000D01*
X176550000Y-119642000D02*
X176550000Y-104858000D01*
X180989000Y-110010000D02*
X180989000Y-101061000D01*
X180029000Y-122893000D02*
X180029000Y-114490000D01*
X178390000Y-121664000D02*
X178390000Y-102836000D01*
X183709000Y-124459000D02*
X183709000Y-114490000D01*
X181269000Y-110010000D02*
X181269000Y-100921000D01*
X180069000Y-122918000D02*
X180069000Y-114490000D01*
X180589000Y-123225000D02*
X180589000Y-114490000D01*
X179309000Y-122404000D02*
X179309000Y-102096000D01*
X179749000Y-122711000D02*
X179749000Y-114490000D01*
X175430000Y-117789000D02*
X175430000Y-106711000D01*
X182709000Y-124166000D02*
X182709000Y-114490000D01*
X175710000Y-118325000D02*
X175710000Y-106175000D01*
X180869000Y-110010000D02*
X180869000Y-101123000D01*
X177270000Y-120541000D02*
X177270000Y-103959000D01*
X176150000Y-119059000D02*
X176150000Y-105441000D01*
X185669000Y-124784000D02*
X185669000Y-99716000D01*
X174670000Y-115863000D02*
X174670000Y-108637000D01*
X185189000Y-124734000D02*
X185189000Y-99766000D01*
X182549000Y-124111000D02*
X182549000Y-114490000D01*
X180309000Y-110010000D02*
X180309000Y-101436000D01*
X178949000Y-122131000D02*
X178949000Y-102369000D01*
X174150000Y-112921000D02*
X174150000Y-111579000D01*
X179349000Y-122433000D02*
X179349000Y-102067000D01*
X183909000Y-124507000D02*
X183909000Y-114490000D01*
X179229000Y-122345000D02*
X179229000Y-102155000D01*
X183749000Y-124469000D02*
X183749000Y-114490000D01*
X181829000Y-110010000D02*
X181829000Y-100668000D01*
X182349000Y-124039000D02*
X182349000Y-114490000D01*
X174270000Y-114085000D02*
X174270000Y-110415000D01*
X185589000Y-124777000D02*
X185589000Y-99723000D01*
X175230000Y-117364000D02*
X175230000Y-107136000D01*
X176110000Y-118997000D02*
X176110000Y-105503000D01*
X177070000Y-120308000D02*
X177070000Y-104192000D01*
X185429000Y-124761000D02*
X185429000Y-99739000D01*
X176750000Y-119909000D02*
X176750000Y-104591000D01*
X183429000Y-110010000D02*
X183429000Y-100114000D01*
X181349000Y-110010000D02*
X181349000Y-100883000D01*
X182669000Y-124153000D02*
X182669000Y-114490000D01*
X178749000Y-121971000D02*
X178749000Y-102529000D01*
X182989000Y-124257000D02*
X182989000Y-114490000D01*
X184069000Y-124543000D02*
X184069000Y-99957000D01*
X181869000Y-110010000D02*
X181869000Y-100651000D01*
X177190000Y-120449000D02*
X177190000Y-104051000D01*
X181149000Y-110010000D02*
X181149000Y-100980000D01*
X176830000Y-120012000D02*
X176830000Y-104488000D01*
X181389000Y-110010000D02*
X181389000Y-100864000D01*
X184829000Y-124684000D02*
X184829000Y-99816000D01*
X182069000Y-123931000D02*
X182069000Y-114490000D01*
X179189000Y-122315000D02*
X179189000Y-102185000D01*
X184429000Y-124615000D02*
X184429000Y-99885000D01*
X174390000Y-114759000D02*
X174390000Y-109741000D01*
X181509000Y-123691000D02*
X181509000Y-114490000D01*
X183189000Y-124318000D02*
X183189000Y-114490000D01*
X174350000Y-114557000D02*
X174350000Y-109943000D01*
X181789000Y-110010000D02*
X181789000Y-100685000D01*
X179909000Y-122816000D02*
X179909000Y-114490000D01*
X185269000Y-124743000D02*
X185269000Y-99757000D01*
X177910000Y-121217000D02*
X177910000Y-103283000D01*
X184549000Y-124637000D02*
X184549000Y-99863000D01*
X179949000Y-110010000D02*
X179949000Y-101658000D01*
X181789000Y-123815000D02*
X181789000Y-114490000D01*
X181109000Y-123500000D02*
X181109000Y-114490000D01*
X182069000Y-110010000D02*
X182069000Y-100569000D01*
X175390000Y-117707000D02*
X175390000Y-106793000D01*
X181269000Y-123579000D02*
X181269000Y-114490000D01*
X180029000Y-110010000D02*
X180029000Y-101607000D01*
X184469000Y-124623000D02*
X184469000Y-99877000D01*
X184589000Y-124644000D02*
X184589000Y-99856000D01*
X181309000Y-110010000D02*
X181309000Y-100902000D01*
X180429000Y-123134000D02*
X180429000Y-114490000D01*
X182829000Y-110010000D02*
X182829000Y-100294000D01*
X178310000Y-121593000D02*
X178310000Y-102907000D01*
X174550000Y-115439000D02*
X174550000Y-109061000D01*
X185749000Y-124791000D02*
X185749000Y-99709000D01*
X176950000Y-120162000D02*
X176950000Y-104338000D01*
X181229000Y-110010000D02*
X181229000Y-100941000D01*
X178869000Y-122068000D02*
X178869000Y-102432000D01*
X182829000Y-124206000D02*
X182829000Y-114490000D01*
X176390000Y-119417000D02*
X176390000Y-105083000D01*
X182749000Y-110010000D02*
X182749000Y-100320000D01*
X186190000Y-124818000D02*
X186190000Y-99682000D01*
X177710000Y-121016000D02*
X177710000Y-103484000D01*
X174910000Y-116578000D02*
X174910000Y-107922000D01*
X179589000Y-110010000D02*
X179589000Y-101897000D01*
X174190000Y-113440000D02*
X174190000Y-111060000D01*
X184269000Y-124584000D02*
X184269000Y-99916000D01*
X185469000Y-124765000D02*
X185469000Y-99735000D01*
X180389000Y-110010000D02*
X180389000Y-101389000D01*
X180709000Y-110010000D02*
X180709000Y-101209000D01*
X179749000Y-110010000D02*
X179749000Y-101789000D01*
X178669000Y-121905000D02*
X178669000Y-102595000D01*
X183549000Y-110010000D02*
X183549000Y-100082000D01*
X177110000Y-120355000D02*
X177110000Y-104145000D01*
X178909000Y-122100000D02*
X178909000Y-102400000D01*
X175070000Y-116990000D02*
X175070000Y-107510000D01*
X182669000Y-110010000D02*
X182669000Y-100347000D01*
X181629000Y-123745000D02*
X181629000Y-114490000D01*
X186750000Y-124831000D02*
X186750000Y-99669000D01*
X182949000Y-110010000D02*
X182949000Y-100255000D01*
X183109000Y-110010000D02*
X183109000Y-100206000D01*
X179429000Y-122491000D02*
X179429000Y-102009000D01*
X182229000Y-110010000D02*
X182229000Y-100507000D01*
X180829000Y-110010000D02*
X180829000Y-101144000D01*
X176990000Y-120211000D02*
X176990000Y-104289000D01*
X182109000Y-123947000D02*
X182109000Y-114490000D01*
X181469000Y-123673000D02*
X181469000Y-114490000D01*
X177830000Y-121138000D02*
X177830000Y-103362000D01*
X184349000Y-124600000D02*
X184349000Y-99900000D01*
X181429000Y-123654000D02*
X181429000Y-114490000D01*
X181029000Y-110010000D02*
X181029000Y-101040000D01*
X177870000Y-121178000D02*
X177870000Y-103322000D01*
X175150000Y-117181000D02*
X175150000Y-107319000D01*
X182389000Y-124053000D02*
X182389000Y-114490000D01*
X180109000Y-122942000D02*
X180109000Y-114490000D01*
X182149000Y-110010000D02*
X182149000Y-100538000D01*
X184309000Y-124592000D02*
X184309000Y-99908000D01*
X180909000Y-123398000D02*
X180909000Y-114490000D01*
X184189000Y-124568000D02*
X184189000Y-99932000D01*
X183829000Y-124488000D02*
X183829000Y-114490000D01*
X180949000Y-110010000D02*
X180949000Y-101081000D01*
X176310000Y-119301000D02*
X176310000Y-105199000D01*
X185789000Y-124794000D02*
X185789000Y-99706000D01*
X185709000Y-124788000D02*
X185709000Y-99712000D01*
X180469000Y-110010000D02*
X180469000Y-101343000D01*
X184869000Y-124690000D02*
X184869000Y-99810000D01*
X179549000Y-110010000D02*
X179549000Y-101925000D01*
X185509000Y-124769000D02*
X185509000Y-99731000D01*
X177310000Y-120586000D02*
X177310000Y-103914000D01*
X181949000Y-110010000D02*
X181949000Y-100618000D01*
X179709000Y-110010000D02*
X179709000Y-101816000D01*
X176190000Y-119121000D02*
X176190000Y-105379000D01*
X183029000Y-110010000D02*
X183029000Y-100230000D01*
X184029000Y-124534000D02*
X184029000Y-99966000D01*
X185869000Y-124800000D02*
X185869000Y-99700000D01*
X180429000Y-110010000D02*
X180429000Y-101366000D01*
X183669000Y-110010000D02*
X183669000Y-100051000D01*
X176350000Y-119359000D02*
X176350000Y-105141000D01*
X183629000Y-124439000D02*
X183629000Y-114490000D01*
X184229000Y-124576000D02*
X184229000Y-99924000D01*
X182189000Y-123978000D02*
X182189000Y-114490000D01*
X183469000Y-110010000D02*
X183469000Y-100103000D01*
X184389000Y-124608000D02*
X184389000Y-99892000D01*
X179389000Y-122462000D02*
X179389000Y-102038000D01*
X183989000Y-110010000D02*
X183989000Y-99975000D01*
X180669000Y-110010000D02*
X180669000Y-101231000D01*
X175030000Y-116891000D02*
X175030000Y-107609000D01*
X181429000Y-110010000D02*
X181429000Y-100846000D01*
X179869000Y-110010000D02*
X179869000Y-101710000D01*
X181909000Y-110010000D02*
X181909000Y-100635000D01*
X183149000Y-124306000D02*
X183149000Y-114490000D01*
X174710000Y-115992000D02*
X174710000Y-108508000D01*
X183869000Y-124497000D02*
X183869000Y-114490000D01*
X185909000Y-124803000D02*
X185909000Y-99697000D01*
X184149000Y-124560000D02*
X184149000Y-99940000D01*
X186150000Y-124816000D02*
X186150000Y-99684000D01*
X180989000Y-123439000D02*
X180989000Y-114490000D01*
X179789000Y-110010000D02*
X179789000Y-101762000D01*
X183309000Y-110010000D02*
X183309000Y-100147000D01*
X174310000Y-114334000D02*
X174310000Y-110166000D01*
X175510000Y-117949000D02*
X175510000Y-106551000D01*
X183269000Y-110010000D02*
X183269000Y-100159000D01*
X181989000Y-110010000D02*
X181989000Y-100602000D01*
X178270000Y-121557000D02*
X178270000Y-102943000D01*
X180669000Y-123269000D02*
X180669000Y-114490000D01*
X183789000Y-110010000D02*
X183789000Y-100022000D01*
X179069000Y-122225000D02*
X179069000Y-102275000D01*
X178629000Y-121871000D02*
X178629000Y-102629000D01*
X186670000Y-124830000D02*
X186670000Y-99670000D01*
X186270000Y-124821000D02*
X186270000Y-99679000D01*
X186630000Y-124830000D02*
X186630000Y-99670000D01*
X181109000Y-110010000D02*
X181109000Y-101000000D01*
X182989000Y-110010000D02*
X182989000Y-100243000D01*
X184669000Y-124658000D02*
X184669000Y-99842000D01*
X176790000Y-119961000D02*
X176790000Y-104539000D01*
X181829000Y-123832000D02*
X181829000Y-114490000D01*
X179989000Y-122867000D02*
X179989000Y-114490000D01*
X175270000Y-117452000D02*
X175270000Y-107048000D01*
X178470000Y-121734000D02*
X178470000Y-102766000D01*
X182509000Y-124097000D02*
X182509000Y-114490000D01*
X183469000Y-124397000D02*
X183469000Y-114490000D01*
X179549000Y-122575000D02*
X179549000Y-114490000D01*
X183429000Y-124386000D02*
X183429000Y-114490000D01*
X186110000Y-124814000D02*
X186110000Y-99686000D01*
X181149000Y-123520000D02*
X181149000Y-114490000D01*
X177150000Y-120402000D02*
X177150000Y-104098000D01*
X186029000Y-124810000D02*
X186029000Y-99690000D01*
X180509000Y-123180000D02*
X180509000Y-114490000D01*
X181349000Y-123617000D02*
X181349000Y-114490000D01*
X183749000Y-110010000D02*
X183749000Y-100031000D01*
X183349000Y-110010000D02*
X183349000Y-100136000D01*
X185229000Y-124739000D02*
X185229000Y-99761000D01*
X183829000Y-110010000D02*
X183829000Y-100012000D01*
X184749000Y-124671000D02*
X184749000Y-99829000D01*
X183709000Y-110010000D02*
X183709000Y-100041000D01*
X179509000Y-122547000D02*
X179509000Y-101953000D01*
X182309000Y-124024000D02*
X182309000Y-114490000D01*
X184509000Y-124630000D02*
X184509000Y-99870000D01*
X182509000Y-110010000D02*
X182509000Y-100403000D01*
X179829000Y-122764000D02*
X179829000Y-114490000D01*
X181189000Y-110010000D02*
X181189000Y-100960000D01*
X180829000Y-123356000D02*
X180829000Y-114490000D01*
X180629000Y-123247000D02*
X180629000Y-114490000D01*
X185349000Y-124753000D02*
X185349000Y-99747000D01*
X180149000Y-122967000D02*
X180149000Y-114490000D01*
X186590000Y-124829000D02*
X186590000Y-99671000D01*
X182029000Y-110010000D02*
X182029000Y-100585000D01*
X185069000Y-124718000D02*
X185069000Y-99782000D01*
X186230000Y-124820000D02*
X186230000Y-99680000D01*
X182949000Y-124245000D02*
X182949000Y-114490000D01*
X177230000Y-120495000D02*
X177230000Y-104005000D01*
X183389000Y-124375000D02*
X183389000Y-114490000D01*
X181589000Y-110010000D02*
X181589000Y-100773000D01*
X177630000Y-120933000D02*
X177630000Y-103567000D01*
X179629000Y-110010000D02*
X179629000Y-101870000D01*
X180749000Y-110010000D02*
X180749000Y-101187000D01*
X179669000Y-122657000D02*
X179669000Y-114490000D01*
X182269000Y-110010000D02*
X182269000Y-100491000D01*
X175830000Y-118536000D02*
X175830000Y-105964000D01*
X182749000Y-124180000D02*
X182749000Y-114490000D01*
X179789000Y-122738000D02*
X179789000Y-114490000D01*
X174470000Y-115120000D02*
X174470000Y-109380000D01*
X174750000Y-116117000D02*
X174750000Y-108383000D01*
X178789000Y-122003000D02*
X178789000Y-102497000D01*
X177470000Y-120763000D02*
X177470000Y-103737000D01*
X181229000Y-123559000D02*
X181229000Y-114490000D01*
X178110000Y-121409000D02*
X178110000Y-103091000D01*
X186390000Y-124825000D02*
X186390000Y-99675000D01*
X185629000Y-124781000D02*
X185629000Y-99719000D01*
X176630000Y-119750000D02*
X176630000Y-104750000D01*
X181709000Y-123780000D02*
X181709000Y-114490000D01*
X178989000Y-122163000D02*
X178989000Y-102337000D01*
X181629000Y-110010000D02*
X181629000Y-100755000D01*
X179269000Y-122375000D02*
X179269000Y-102125000D01*
X180229000Y-110010000D02*
X180229000Y-101484000D01*
X177590000Y-120891000D02*
X177590000Y-103609000D01*
X174790000Y-116238000D02*
X174790000Y-108262000D01*
X182469000Y-124083000D02*
X182469000Y-114490000D01*
X174830000Y-116355000D02*
X174830000Y-108145000D01*
X176910000Y-120112000D02*
X176910000Y-104388000D01*
X183029000Y-124270000D02*
X183029000Y-114490000D01*
X176870000Y-120062000D02*
X176870000Y-104438000D01*
X200254259Y-119325000D02*
X197754259Y-119325000D01*
X177750000Y-121057000D02*
X177750000Y-103443000D01*
X181709000Y-110010000D02*
X181709000Y-100720000D01*
X178589000Y-121837000D02*
X178589000Y-102663000D01*
X178550000Y-121803000D02*
X178550000Y-102697000D01*
X179109000Y-122255000D02*
X179109000Y-102245000D01*
X186710000Y-124830000D02*
X186710000Y-99670000D01*
X179029000Y-122194000D02*
X179029000Y-102306000D01*
X180909000Y-110010000D02*
X180909000Y-101102000D01*
X181669000Y-110010000D02*
X181669000Y-100737000D01*
X178709000Y-121938000D02*
X178709000Y-102562000D01*
X180229000Y-123016000D02*
X180229000Y-114490000D01*
X180749000Y-123313000D02*
X180749000Y-114490000D01*
X186070000Y-124812000D02*
X186070000Y-99688000D01*
X181949000Y-123882000D02*
X181949000Y-114490000D01*
X176430000Y-119474000D02*
X176430000Y-105026000D01*
X183589000Y-124428000D02*
X183589000Y-114490000D01*
X185949000Y-124805000D02*
X185949000Y-99695000D01*
X183069000Y-124282000D02*
X183069000Y-114490000D01*
X178510000Y-121769000D02*
X178510000Y-102731000D01*
X179869000Y-122790000D02*
X179869000Y-114490000D01*
X175350000Y-117624000D02*
X175350000Y-106876000D01*
X181309000Y-123598000D02*
X181309000Y-114490000D01*
X182709000Y-110010000D02*
X182709000Y-100334000D01*
X182789000Y-110010000D02*
X182789000Y-100307000D01*
X183309000Y-124353000D02*
X183309000Y-114490000D01*
X179669000Y-110010000D02*
X179669000Y-101843000D01*
X183869000Y-110010000D02*
X183869000Y-100003000D01*
X186430000Y-124826000D02*
X186430000Y-99674000D01*
X183109000Y-124294000D02*
X183109000Y-114490000D01*
X177990000Y-121295000D02*
X177990000Y-103205000D01*
X183229000Y-110010000D02*
X183229000Y-100170000D01*
X175550000Y-118026000D02*
X175550000Y-106474000D01*
X186550000Y-124829000D02*
X186550000Y-99671000D01*
X185309000Y-124748000D02*
X185309000Y-99752000D01*
X179469000Y-122519000D02*
X179469000Y-101981000D01*
X180309000Y-123064000D02*
X180309000Y-114490000D01*
X183229000Y-124330000D02*
X183229000Y-114490000D01*
X174870000Y-116468000D02*
X174870000Y-108032000D01*
X180789000Y-110010000D02*
X180789000Y-101166000D01*
X183989000Y-124525000D02*
X183989000Y-114490000D01*
X176710000Y-119857000D02*
X176710000Y-104643000D01*
X178350000Y-121629000D02*
X178350000Y-102871000D01*
X184989000Y-124707000D02*
X184989000Y-99793000D01*
X176070000Y-118934000D02*
X176070000Y-105566000D01*
X183269000Y-124341000D02*
X183269000Y-114490000D01*
X175910000Y-118673000D02*
X175910000Y-105827000D01*
X183549000Y-124418000D02*
X183549000Y-114490000D01*
X181909000Y-123865000D02*
X181909000Y-114490000D01*
X175670000Y-118252000D02*
X175670000Y-106248000D01*
X175870000Y-118605000D02*
X175870000Y-105895000D01*
X180789000Y-123334000D02*
X180789000Y-114490000D01*
X183949000Y-124516000D02*
X183949000Y-114490000D01*
X181869000Y-123849000D02*
X181869000Y-114490000D01*
X175310000Y-117539000D02*
X175310000Y-106961000D01*
X181589000Y-123727000D02*
X181589000Y-114490000D01*
X175990000Y-118805000D02*
X175990000Y-105695000D01*
X199370000Y-112250000D02*
G75*
G03*
X199370000Y-112250000I-12620000J0D01*
G01*
D15*
%TO.C,PS3*%
X125920000Y-100800000D02*
X125920000Y-100200000D01*
X125920000Y-100200000D02*
X128880000Y-100200000D01*
X128880000Y-100200000D02*
X128880000Y-100800000D01*
X125900000Y-102350000D02*
X125900000Y-101150000D01*
X128880000Y-100800000D02*
X125920000Y-100800000D01*
D14*
%TO.C,R43*%
X73800000Y-89592742D02*
X73800000Y-90067258D01*
X72755000Y-89592742D02*
X72755000Y-90067258D01*
%TO.C,C45*%
X170890000Y-115959420D02*
X170890000Y-116240580D01*
X171910000Y-115959420D02*
X171910000Y-116240580D01*
%TO.C,C17*%
X105897500Y-104640580D02*
X105897500Y-104359420D01*
X104877500Y-104640580D02*
X104877500Y-104359420D01*
%TO.C,U4*%
X71590000Y-118590000D02*
X72850000Y-118590000D01*
X78410000Y-118590000D02*
X77150000Y-118590000D01*
X78410000Y-122350000D02*
X78410000Y-118590000D01*
X71590000Y-124600000D02*
X71590000Y-118590000D01*
D15*
%TO.C,IC7*%
X146361500Y-118700000D02*
X146361500Y-113800000D01*
X149561500Y-118700000D02*
X146361500Y-118700000D01*
X149561500Y-113800000D02*
X149561500Y-118700000D01*
X144486500Y-113670000D02*
X146011500Y-113670000D01*
X146361500Y-113800000D02*
X149561500Y-113800000D01*
D14*
%TO.C,C40*%
X160115580Y-100240000D02*
X159834420Y-100240000D01*
X160115580Y-101260000D02*
X159834420Y-101260000D01*
%TO.C,C4*%
X98109420Y-106260000D02*
X98390580Y-106260000D01*
X98109420Y-105240000D02*
X98390580Y-105240000D01*
%TO.C,C11*%
X55010000Y-66615580D02*
X55010000Y-66334420D01*
X53990000Y-66615580D02*
X53990000Y-66334420D01*
%TO.C,R29*%
X77837258Y-97522500D02*
X77362742Y-97522500D01*
X77837258Y-96477500D02*
X77362742Y-96477500D01*
D15*
%TO.C,T3*%
X135365000Y-104430000D02*
X135365000Y-111570000D01*
X128635000Y-111570000D02*
X128635000Y-104430000D01*
X128635000Y-104430000D02*
X135365000Y-104430000D01*
X135365000Y-111570000D02*
X128635000Y-111570000D01*
X129463940Y-114049000D02*
G75*
G03*
X129463940Y-114049000I-103940J0D01*
G01*
%TO.C,D3*%
X133450000Y-100325000D02*
X130550000Y-100325000D01*
X130550000Y-100325000D02*
X130550000Y-100275000D01*
X130500000Y-102025000D02*
X130500000Y-100675000D01*
X133450000Y-100275000D02*
X133450000Y-100325000D01*
X130550000Y-100275000D02*
X133450000Y-100275000D01*
D14*
%TO.C,L2*%
X119670000Y-51580000D02*
X119670000Y-72920000D01*
X84330000Y-51580000D02*
X100834000Y-51580000D01*
X103166000Y-72920000D02*
X119670000Y-72920000D01*
X103166000Y-51580000D02*
X119670000Y-51580000D01*
X84330000Y-51580000D02*
X84330000Y-72920000D01*
X84330000Y-72920000D02*
X100834000Y-72920000D01*
%TO.C,C15*%
X54140580Y-58740000D02*
X53859420Y-58740000D01*
X54140580Y-59760000D02*
X53859420Y-59760000D01*
D15*
%TO.C,PS2*%
X152120000Y-100900000D02*
X152120000Y-100300000D01*
X155080000Y-100900000D02*
X152120000Y-100900000D01*
X152120000Y-100300000D02*
X155080000Y-100300000D01*
X155100000Y-98750000D02*
X155100000Y-99950000D01*
X155080000Y-100300000D02*
X155080000Y-100900000D01*
D13*
%TO.C,U3*%
X58900000Y-115788000D02*
X60500000Y-115788000D01*
D15*
X64300000Y-114700000D02*
X64300000Y-114700000D01*
X64300000Y-114800000D02*
X64300000Y-114800000D01*
D13*
X58900000Y-109212000D02*
X60500000Y-109212000D01*
X61175000Y-113500000D02*
X61175000Y-111500000D01*
D15*
X64300000Y-114700000D02*
G75*
G03*
X64300000Y-114800000I0J-50000D01*
G01*
X64300000Y-114800000D02*
G75*
G03*
X64300000Y-114700000I0J50000D01*
G01*
D14*
%TO.C,C41*%
X162760000Y-100140580D02*
X162760000Y-99859420D01*
X161740000Y-100140580D02*
X161740000Y-99859420D01*
%TO.C,C13*%
X57740000Y-55640580D02*
X57740000Y-55359420D01*
X58760000Y-55640580D02*
X58760000Y-55359420D01*
%TO.C,C69*%
X106140580Y-119490000D02*
X105859420Y-119490000D01*
X106140580Y-120510000D02*
X105859420Y-120510000D01*
%TO.C,C42*%
X163240000Y-100140580D02*
X163240000Y-99859420D01*
X164260000Y-100140580D02*
X164260000Y-99859420D01*
D15*
%TO.C,C49*%
X144300000Y-101800000D02*
X144300000Y-97700000D01*
X144300000Y-97700000D02*
X140500000Y-97700000D01*
X140500000Y-97700000D02*
X140500000Y-101800000D01*
D14*
%TO.C,J6*%
X110640000Y-110763471D02*
X110640000Y-111310000D01*
X109435000Y-110507530D02*
X109435000Y-111310000D01*
X109435000Y-109090000D02*
X109435000Y-109892470D01*
X110640000Y-109090000D02*
X110640000Y-109636529D01*
X112160000Y-109090000D02*
X112160000Y-110200000D01*
X110640000Y-109090000D02*
X109435000Y-109090000D01*
X111400000Y-109090000D02*
X112160000Y-109090000D01*
X110640000Y-111310000D02*
X109435000Y-111310000D01*
D15*
%TO.C,IC8*%
X133561500Y-113800000D02*
X133561500Y-118700000D01*
X130361500Y-113800000D02*
X133561500Y-113800000D01*
X128486500Y-113670000D02*
X130011500Y-113670000D01*
X133561500Y-118700000D02*
X130361500Y-118700000D01*
X130361500Y-118700000D02*
X130361500Y-113800000D01*
D14*
%TO.C,C39*%
X162410000Y-115959420D02*
X162410000Y-116240580D01*
X161390000Y-115959420D02*
X161390000Y-116240580D01*
%TO.C,C26*%
X55640580Y-87965000D02*
X55359420Y-87965000D01*
X55640580Y-88985000D02*
X55359420Y-88985000D01*
%TO.C,C14*%
X56760000Y-86365580D02*
X56760000Y-86084420D01*
X55740000Y-86365580D02*
X55740000Y-86084420D01*
%TO.C,R32*%
X73800000Y-64592742D02*
X73800000Y-65067258D01*
X72755000Y-64592742D02*
X72755000Y-65067258D01*
%TO.C,C63*%
X135990000Y-116440580D02*
X135990000Y-116159420D01*
X137010000Y-116440580D02*
X137010000Y-116159420D01*
%TO.C,R42*%
X71087258Y-91222500D02*
X70612742Y-91222500D01*
X71087258Y-90177500D02*
X70612742Y-90177500D01*
%TO.C,R21*%
X122272500Y-98675788D02*
X122272500Y-98201272D01*
X121227500Y-98675788D02*
X121227500Y-98201272D01*
D15*
%TO.C,D2*%
X149450000Y-100275000D02*
X149450000Y-100325000D01*
X146500000Y-102025000D02*
X146500000Y-100675000D01*
X149450000Y-100325000D02*
X146550000Y-100325000D01*
X146550000Y-100325000D02*
X146550000Y-100275000D01*
X146550000Y-100275000D02*
X149450000Y-100275000D01*
D14*
%TO.C,C37*%
X71309420Y-98290000D02*
X71590580Y-98290000D01*
X71309420Y-99310000D02*
X71590580Y-99310000D01*
%TO.C,U2*%
X63000000Y-67735000D02*
X66860000Y-67735000D01*
X59140000Y-57470000D02*
X57325000Y-57470000D01*
X59140000Y-67735000D02*
X59140000Y-67480000D01*
X66860000Y-67735000D02*
X66860000Y-67480000D01*
X63000000Y-57215000D02*
X66860000Y-57215000D01*
X59140000Y-57215000D02*
X59140000Y-57470000D01*
X66860000Y-57215000D02*
X66860000Y-57470000D01*
X63000000Y-57215000D02*
X59140000Y-57215000D01*
X63000000Y-67735000D02*
X59140000Y-67735000D01*
%TO.C,R22*%
X119727500Y-98675788D02*
X119727500Y-98201272D01*
X120772500Y-98675788D02*
X120772500Y-98201272D01*
%TO.C,C29*%
X57740000Y-80640580D02*
X57740000Y-80359420D01*
X58760000Y-80640580D02*
X58760000Y-80359420D01*
%TO.C,R13*%
X73800000Y-60367258D02*
X73800000Y-59892742D01*
X72755000Y-60367258D02*
X72755000Y-59892742D01*
%TO.C,R44*%
X55022500Y-91712258D02*
X55022500Y-91237742D01*
X53977500Y-91712258D02*
X53977500Y-91237742D01*
%TO.C,R18*%
X170772500Y-98737258D02*
X170772500Y-98262742D01*
X169727500Y-98737258D02*
X169727500Y-98262742D01*
%TO.C,R36*%
X71037258Y-83777500D02*
X70562742Y-83777500D01*
X71037258Y-84822500D02*
X70562742Y-84822500D01*
%TO.C,C53*%
X151310000Y-100640580D02*
X151310000Y-100359420D01*
X150290000Y-100640580D02*
X150290000Y-100359420D01*
%TO.C,R1*%
X74600000Y-55067258D02*
X74600000Y-54592742D01*
X73555000Y-55067258D02*
X73555000Y-54592742D01*
%TO.C,U5*%
X63000000Y-92735000D02*
X66860000Y-92735000D01*
X59140000Y-92735000D02*
X59140000Y-92480000D01*
X59140000Y-82215000D02*
X59140000Y-82470000D01*
X63000000Y-82215000D02*
X66860000Y-82215000D01*
X66860000Y-82215000D02*
X66860000Y-82470000D01*
X63000000Y-92735000D02*
X59140000Y-92735000D01*
X66860000Y-92735000D02*
X66860000Y-92480000D01*
X59140000Y-82470000D02*
X57325000Y-82470000D01*
X63000000Y-82215000D02*
X59140000Y-82215000D01*
%TO.C,C51*%
X144790000Y-99659420D02*
X144790000Y-99940580D01*
X145810000Y-99659420D02*
X145810000Y-99940580D01*
%TO.C,C56*%
X123890000Y-115859420D02*
X123890000Y-116140580D01*
X124910000Y-115859420D02*
X124910000Y-116140580D01*
%TO.C,C75*%
X72340580Y-115710000D02*
X72059420Y-115710000D01*
X72340580Y-114690000D02*
X72059420Y-114690000D01*
%TO.C,R39*%
X51977500Y-91712258D02*
X51977500Y-91237742D01*
X53022500Y-91712258D02*
X53022500Y-91237742D01*
%TO.C,R34*%
X74600000Y-80067258D02*
X74600000Y-79592742D01*
X73555000Y-80067258D02*
X73555000Y-79592742D01*
%TO.C,C48*%
X172260000Y-100115580D02*
X172260000Y-99834420D01*
X171240000Y-100115580D02*
X171240000Y-99834420D01*
%TO.C,C55*%
X124215000Y-100090580D02*
X124215000Y-99809420D01*
X125235000Y-100090580D02*
X125235000Y-99809420D01*
%TO.C,K2*%
X172000000Y-73062500D02*
X174000000Y-73062500D01*
X168500000Y-78172500D02*
X171650000Y-78172500D01*
X181350000Y-73322500D02*
X164650000Y-73322500D01*
X174350000Y-78172500D02*
X177500000Y-78172500D01*
X173350000Y-78772500D02*
X173350000Y-77572500D01*
X172650000Y-78772500D02*
X173350000Y-78772500D01*
X181350000Y-96022500D02*
X181350000Y-73322500D01*
X164650000Y-96022500D02*
X181350000Y-96022500D01*
X172650000Y-77572500D02*
X172650000Y-78772500D01*
X172650000Y-78372500D02*
X173350000Y-77972500D01*
X164650000Y-73322500D02*
X164650000Y-96022500D01*
X173350000Y-77572500D02*
X172650000Y-77572500D01*
%TO.C,C71*%
X167990000Y-123390580D02*
X167990000Y-123109420D01*
X169010000Y-123390580D02*
X169010000Y-123109420D01*
%TO.C,C67*%
X84385000Y-97565580D02*
X84385000Y-97284420D01*
X83365000Y-97565580D02*
X83365000Y-97284420D01*
D15*
%TO.C,T2*%
X144635000Y-111570000D02*
X144635000Y-104430000D01*
X151365000Y-111570000D02*
X144635000Y-111570000D01*
X144635000Y-104430000D02*
X151365000Y-104430000D01*
X151365000Y-104430000D02*
X151365000Y-111570000D01*
X145463940Y-114049000D02*
G75*
G03*
X145463940Y-114049000I-103940J0D01*
G01*
D14*
%TO.C,D7*%
X72410000Y-66320000D02*
X75650000Y-66320000D01*
X72410000Y-66320000D02*
X72410000Y-67940000D01*
X72410000Y-67940000D02*
X75650000Y-67940000D01*
%TO.C,C73*%
X63765000Y-112238748D02*
X63765000Y-112761252D01*
X65235000Y-112238748D02*
X65235000Y-112761252D01*
%TO.C,C31*%
X56510000Y-91615580D02*
X56510000Y-91334420D01*
X55490000Y-91615580D02*
X55490000Y-91334420D01*
%TO.C,R38*%
X50477500Y-91712258D02*
X50477500Y-91237742D01*
X51522500Y-91712258D02*
X51522500Y-91237742D01*
%TO.C,C43*%
X51510000Y-73364080D02*
X51510000Y-73082920D01*
X50490000Y-73364080D02*
X50490000Y-73082920D01*
%TO.C,C65*%
X83990000Y-109640580D02*
X83990000Y-109359420D01*
X85010000Y-109640580D02*
X85010000Y-109359420D01*
%TO.C,Q2*%
X118560000Y-117250000D02*
X118560000Y-117900000D01*
X115440000Y-117250000D02*
X115440000Y-116600000D01*
X115440000Y-117250000D02*
X115440000Y-118925000D01*
X118560000Y-117250000D02*
X118560000Y-116600000D01*
%TO.C,D5*%
X72340000Y-57020000D02*
X75580000Y-57020000D01*
X72340000Y-57020000D02*
X72340000Y-58640000D01*
X72340000Y-58640000D02*
X75580000Y-58640000D01*
%TO.C,C12*%
X55640580Y-63985000D02*
X55359420Y-63985000D01*
X55640580Y-62965000D02*
X55359420Y-62965000D01*
%TO.C,L4*%
X144980000Y-50430000D02*
X164320000Y-50430000D01*
X144980000Y-92570000D02*
X144980000Y-50430000D01*
X144980000Y-92570000D02*
X164320000Y-92570000D01*
X164320000Y-92570000D02*
X164320000Y-50430000D01*
%TO.C,D11*%
X72410000Y-92940000D02*
X75650000Y-92940000D01*
X72410000Y-91320000D02*
X75650000Y-91320000D01*
X72410000Y-91320000D02*
X72410000Y-92940000D01*
%TO.C,C74*%
X51859420Y-107510000D02*
X52140580Y-107510000D01*
X51859420Y-106490000D02*
X52140580Y-106490000D01*
%TO.C,R3*%
X51977500Y-66712258D02*
X51977500Y-66237742D01*
X53022500Y-66712258D02*
X53022500Y-66237742D01*
%TO.C,J2*%
X70790000Y-124810000D02*
X70790000Y-117190000D01*
X70790000Y-117190000D02*
X60630000Y-117190000D01*
X60630000Y-117190000D02*
X60630000Y-124810000D01*
X60630000Y-124810000D02*
X70790000Y-124810000D01*
X70790000Y-123540000D02*
X60630000Y-123540000D01*
%TO.C,R30*%
X93737258Y-104477500D02*
X93262742Y-104477500D01*
X93737258Y-105522500D02*
X93262742Y-105522500D01*
%TO.C,C3*%
X93260000Y-110390580D02*
X93260000Y-110109420D01*
X92240000Y-110390580D02*
X92240000Y-110109420D01*
%TO.C,Y1*%
X102500000Y-102210000D02*
X101710000Y-102210000D01*
X101890000Y-103640000D02*
X101890000Y-103860000D01*
X101710000Y-103000000D02*
X101710000Y-102210000D01*
X104110000Y-103640000D02*
X104110000Y-103860000D01*
%TO.C,C35*%
X70640580Y-69990000D02*
X70359420Y-69990000D01*
X70640580Y-71010000D02*
X70359420Y-71010000D01*
D15*
%TO.C,IC9*%
X77575000Y-100200000D02*
X83425000Y-100200000D01*
X83425000Y-100200000D02*
X83425000Y-108300000D01*
X77575000Y-108300000D02*
X77575000Y-100200000D01*
X83080000Y-98000000D02*
X83080000Y-99850000D01*
X83425000Y-108300000D02*
X77575000Y-108300000D01*
D14*
%TO.C,C54*%
X155690000Y-99940580D02*
X155690000Y-99659420D01*
X156710000Y-99940580D02*
X156710000Y-99659420D01*
%TO.C,R40*%
X74737258Y-105022500D02*
X74262742Y-105022500D01*
X74737258Y-103977500D02*
X74262742Y-103977500D01*
%TO.C,C33*%
X126380000Y-63120000D02*
X144620000Y-63120000D01*
X144620000Y-51880000D02*
X144620000Y-63120000D01*
X126380000Y-51880000D02*
X144620000Y-51880000D01*
X126380000Y-51880000D02*
X126380000Y-63120000D01*
%TO.C,C61*%
X128359420Y-98110000D02*
X128640580Y-98110000D01*
X128359420Y-97090000D02*
X128640580Y-97090000D01*
%TO.C,C38*%
X163910000Y-115959420D02*
X163910000Y-116240580D01*
X162890000Y-115959420D02*
X162890000Y-116240580D01*
%TO.C,R11*%
X71037258Y-58777500D02*
X70562742Y-58777500D01*
X71037258Y-59822500D02*
X70562742Y-59822500D01*
%TO.C,R31*%
X71087258Y-66222500D02*
X70612742Y-66222500D01*
X71087258Y-65177500D02*
X70612742Y-65177500D01*
%TO.C,C60*%
X123760000Y-100090580D02*
X123760000Y-99809420D01*
X122740000Y-100090580D02*
X122740000Y-99809420D01*
%TO.C,C70*%
X108260000Y-109259420D02*
X108260000Y-109540580D01*
X107240000Y-109259420D02*
X107240000Y-109540580D01*
%TO.C,U1*%
X105360000Y-109090000D02*
X105360000Y-108140000D01*
X95140000Y-109090000D02*
X95140000Y-108140000D01*
X104410000Y-108140000D02*
X104410000Y-106800000D01*
X95140000Y-118360000D02*
X96090000Y-118360000D01*
X95140000Y-117410000D02*
X95140000Y-118360000D01*
X105360000Y-108140000D02*
X104410000Y-108140000D01*
X105360000Y-118360000D02*
X104410000Y-118360000D01*
X95140000Y-108140000D02*
X96090000Y-108140000D01*
X105360000Y-117410000D02*
X105360000Y-118360000D01*
%TO.C,C59*%
X172390000Y-115959420D02*
X172390000Y-116240580D01*
X173410000Y-115959420D02*
X173410000Y-116240580D01*
%TO.C,C10*%
X98390580Y-104010000D02*
X98109420Y-104010000D01*
X98390580Y-102990000D02*
X98109420Y-102990000D01*
%TO.C,R19*%
X169272500Y-98737258D02*
X169272500Y-98262742D01*
X168227500Y-98737258D02*
X168227500Y-98262742D01*
%TO.C,C52*%
X135260000Y-99884420D02*
X135260000Y-100165580D01*
X134240000Y-99884420D02*
X134240000Y-100165580D01*
D15*
%TO.C,PS1*%
X73100000Y-98050000D02*
X71900000Y-98050000D01*
X71550000Y-95070000D02*
X71550000Y-98030000D01*
X70950000Y-98030000D02*
X70950000Y-95070000D01*
X71550000Y-98030000D02*
X70950000Y-98030000D01*
X70950000Y-95070000D02*
X71550000Y-95070000D01*
D14*
%TO.C,R2*%
X51522500Y-66712258D02*
X51522500Y-66237742D01*
X50477500Y-66712258D02*
X50477500Y-66237742D01*
D13*
%TO.C,C28*%
X194500000Y-84000000D02*
X194500000Y-89000000D01*
X187500000Y-89000000D02*
X187500000Y-84000000D01*
X194500000Y-89000000D02*
X187500000Y-89000000D01*
X187500000Y-84000000D02*
X194500000Y-84000000D01*
D15*
%TO.C,D1*%
X70787500Y-74750000D02*
X70787500Y-71850000D01*
X70837500Y-74750000D02*
X70787500Y-74750000D01*
X70837500Y-71850000D02*
X70837500Y-74750000D01*
X69087500Y-71800000D02*
X70437500Y-71800000D01*
X70787500Y-71850000D02*
X70837500Y-71850000D01*
%TO.C,IC5*%
X166575000Y-112050000D02*
X166575000Y-103950000D01*
X172425000Y-103950000D02*
X172425000Y-112050000D01*
X172425000Y-112050000D02*
X166575000Y-112050000D01*
X172080000Y-101750000D02*
X172080000Y-103600000D01*
X166575000Y-103950000D02*
X172425000Y-103950000D01*
D14*
%TO.C,C68*%
X85835000Y-97565580D02*
X85835000Y-97284420D01*
X84815000Y-97565580D02*
X84815000Y-97284420D01*
%TO.C,C47*%
X172740000Y-100115580D02*
X172740000Y-99834420D01*
X173760000Y-100115580D02*
X173760000Y-99834420D01*
%TO.C,R35*%
X70562742Y-82227500D02*
X71037258Y-82227500D01*
X70562742Y-83272500D02*
X71037258Y-83272500D01*
%TO.C,D8*%
X66427500Y-53325000D02*
X66427500Y-56625000D01*
X66427500Y-56625000D02*
X71827500Y-56625000D01*
X66427500Y-53325000D02*
X71827500Y-53325000D01*
D15*
%TO.C,IC6*%
X123580000Y-101750000D02*
X123580000Y-103600000D01*
X123925000Y-112050000D02*
X118075000Y-112050000D01*
X118075000Y-112050000D02*
X118075000Y-103950000D01*
X123925000Y-103950000D02*
X123925000Y-112050000D01*
X118075000Y-103950000D02*
X123925000Y-103950000D01*
D14*
%TO.C,R20*%
X158637258Y-99522500D02*
X158162742Y-99522500D01*
X158637258Y-98477500D02*
X158162742Y-98477500D01*
%TO.C,R15*%
X70612742Y-66727500D02*
X71087258Y-66727500D01*
X70612742Y-67772500D02*
X71087258Y-67772500D01*
%TO.C,C16*%
X100127500Y-104890580D02*
X100127500Y-104609420D01*
X101147500Y-104890580D02*
X101147500Y-104609420D01*
%TO.C,C30*%
X54140580Y-83740000D02*
X53859420Y-83740000D01*
X54140580Y-84760000D02*
X53859420Y-84760000D01*
%TO.C,J5*%
X90160000Y-111686529D02*
X90160000Y-111140000D01*
X91365000Y-113360000D02*
X91365000Y-112557530D01*
X91365000Y-111942470D02*
X91365000Y-111140000D01*
X90160000Y-113360000D02*
X90160000Y-112813471D01*
X90160000Y-113360000D02*
X91365000Y-113360000D01*
X88640000Y-113360000D02*
X88640000Y-112250000D01*
X90160000Y-111140000D02*
X91365000Y-111140000D01*
X89400000Y-113360000D02*
X88640000Y-113360000D01*
%TO.C,D4*%
X94975000Y-104235000D02*
X94975000Y-102765000D01*
X92690000Y-104235000D02*
X94975000Y-104235000D01*
X94975000Y-102765000D02*
X92690000Y-102765000D01*
%TO.C,C46*%
X169615580Y-100240000D02*
X169334420Y-100240000D01*
X169615580Y-101260000D02*
X169334420Y-101260000D01*
%TO.C,L1*%
X100834000Y-95920000D02*
X84330000Y-95920000D01*
X119670000Y-95920000D02*
X119670000Y-74580000D01*
X119670000Y-95920000D02*
X103166000Y-95920000D01*
X119670000Y-74580000D02*
X103166000Y-74580000D01*
X100834000Y-74580000D02*
X84330000Y-74580000D01*
X84330000Y-95920000D02*
X84330000Y-74580000D01*
%TO.C,R41*%
X70612742Y-92772500D02*
X71087258Y-92772500D01*
X70612742Y-91727500D02*
X71087258Y-91727500D01*
%TO.C,R10*%
X123177064Y-87540000D02*
X118822936Y-87540000D01*
X123177064Y-90960000D02*
X118822936Y-90960000D01*
%TO.C,C57*%
X122390000Y-115859420D02*
X122390000Y-116140580D01*
X123410000Y-115859420D02*
X123410000Y-116140580D01*
%TO.C,R27*%
X80737258Y-96122500D02*
X80262742Y-96122500D01*
X80737258Y-95077500D02*
X80262742Y-95077500D01*
%TO.C,C1*%
X93260000Y-116890580D02*
X93260000Y-116609420D01*
X92240000Y-116890580D02*
X92240000Y-116609420D01*
%TO.C,J4*%
X108136529Y-117240000D02*
X107590000Y-117240000D01*
X109810000Y-117240000D02*
X109810000Y-112225000D01*
X109810000Y-117240000D02*
X109263471Y-117240000D01*
X109810000Y-118000000D02*
X109810000Y-118760000D01*
X109810000Y-118760000D02*
X108700000Y-118760000D01*
X109810000Y-112225000D02*
X109007530Y-112225000D01*
X107590000Y-117240000D02*
X107590000Y-112225000D01*
X108392470Y-112225000D02*
X107590000Y-112225000D01*
%TO.C,C36*%
X68760000Y-96159420D02*
X68760000Y-96440580D01*
X67740000Y-96159420D02*
X67740000Y-96440580D01*
D15*
%TO.C,C34*%
X73136000Y-69550000D02*
X73136000Y-73650000D01*
X76936000Y-69550000D02*
X73136000Y-69550000D01*
X76936000Y-73650000D02*
X76936000Y-69550000D01*
D14*
%TO.C,C62*%
X142890000Y-116440580D02*
X142890000Y-116159420D01*
X143910000Y-116440580D02*
X143910000Y-116159420D01*
%TO.C,D10*%
X72340000Y-83640000D02*
X75580000Y-83640000D01*
X72340000Y-82020000D02*
X75580000Y-82020000D01*
X72340000Y-82020000D02*
X72340000Y-83640000D01*
%TO.C,C2*%
X106359420Y-107260000D02*
X106640580Y-107260000D01*
X106359420Y-106240000D02*
X106640580Y-106240000D01*
D15*
%TO.C,IC3*%
X52300000Y-74861500D02*
X52300000Y-71661500D01*
X57200000Y-71661500D02*
X57200000Y-74861500D01*
X52300000Y-71661500D02*
X57200000Y-71661500D01*
X57330000Y-69786500D02*
X57330000Y-71311500D01*
X57200000Y-74861500D02*
X52300000Y-74861500D01*
D14*
%TO.C,C58*%
X121115580Y-100190000D02*
X120834420Y-100190000D01*
X121115580Y-101210000D02*
X120834420Y-101210000D01*
%TO.C,R33*%
X55477500Y-66712258D02*
X55477500Y-66237742D01*
X56522500Y-66712258D02*
X56522500Y-66237742D01*
%TO.C,R6*%
X70562742Y-58272500D02*
X71037258Y-58272500D01*
X70562742Y-57227500D02*
X71037258Y-57227500D01*
D15*
%TO.C,IC4*%
X162925000Y-103950000D02*
X162925000Y-112050000D01*
X162925000Y-112050000D02*
X157075000Y-112050000D01*
X162580000Y-101750000D02*
X162580000Y-103600000D01*
X157075000Y-103950000D02*
X162925000Y-103950000D01*
X157075000Y-112050000D02*
X157075000Y-103950000D01*
D14*
%TO.C,C18*%
X56760000Y-61365580D02*
X56760000Y-61084420D01*
X55740000Y-61365580D02*
X55740000Y-61084420D01*
%TO.C,R37*%
X72755000Y-85367258D02*
X72755000Y-84892742D01*
X73800000Y-85367258D02*
X73800000Y-84892742D01*
%TO.C,C64*%
X86510000Y-109640580D02*
X86510000Y-109359420D01*
X85490000Y-109640580D02*
X85490000Y-109359420D01*
%TO.C,J1*%
X198710000Y-83460000D02*
X198710000Y-98700000D01*
X197440000Y-83460000D02*
X197440000Y-98700000D01*
X197440000Y-98700000D02*
X205060000Y-98700000D01*
X197440000Y-83460000D02*
X205060000Y-83460000D01*
X205060000Y-83460000D02*
X205060000Y-98700000D01*
D15*
%TO.C,C50*%
X139500000Y-101800000D02*
X139500000Y-97700000D01*
X139500000Y-97700000D02*
X135700000Y-97700000D01*
X135700000Y-97700000D02*
X135700000Y-101800000D01*
D14*
%TO.C,C66*%
X80615580Y-96490000D02*
X80334420Y-96490000D01*
X80615580Y-97510000D02*
X80334420Y-97510000D01*
%TO.C,D9*%
X66427500Y-81625000D02*
X71827500Y-81625000D01*
X66427500Y-78325000D02*
X66427500Y-81625000D01*
X66427500Y-78325000D02*
X71827500Y-78325000D01*
%TO.C,R12*%
X157337258Y-96222500D02*
X156862742Y-96222500D01*
X157337258Y-95177500D02*
X156862742Y-95177500D01*
%TD*%
M02*
