%TF.GenerationSoftware,KiCad,Pcbnew,(6.0.9)*%
%TF.CreationDate,2023-03-15T23:45:40+00:00*%
%TF.ProjectId,GTI_V5,4754495f-5635-42e6-9b69-6361645f7063,rev?*%
%TF.SameCoordinates,Original*%
%TF.FileFunction,Copper,L1,Top*%
%TF.FilePolarity,Positive*%
%FSLAX46Y46*%
G04 Gerber Fmt 4.6, Leading zero omitted, Abs format (unit mm)*
G04 Created by KiCad (PCBNEW (6.0.9)) date 2023-03-15 23:45:40*
%MOMM*%
%LPD*%
G01*
G04 APERTURE LIST*
G04 Aperture macros list*
%AMRoundRect*
0 Rectangle with rounded corners*
0 $1 Rounding radius*
0 $2 $3 $4 $5 $6 $7 $8 $9 X,Y pos of 4 corners*
0 Add a 4 corners polygon primitive as box body*
4,1,4,$2,$3,$4,$5,$6,$7,$8,$9,$2,$3,0*
0 Add four circle primitives for the rounded corners*
1,1,$1+$1,$2,$3*
1,1,$1+$1,$4,$5*
1,1,$1+$1,$6,$7*
1,1,$1+$1,$8,$9*
0 Add four rect primitives between the rounded corners*
20,1,$1+$1,$2,$3,$4,$5,0*
20,1,$1+$1,$4,$5,$6,$7,0*
20,1,$1+$1,$6,$7,$8,$9,0*
20,1,$1+$1,$8,$9,$2,$3,0*%
G04 Aperture macros list end*
%TA.AperFunction,SMDPad,CuDef*%
%ADD10RoundRect,0.225000X-0.250000X0.225000X-0.250000X-0.225000X0.250000X-0.225000X0.250000X0.225000X0*%
%TD*%
%TA.AperFunction,ComponentPad*%
%ADD11C,4.400000*%
%TD*%
%TA.AperFunction,SMDPad,CuDef*%
%ADD12R,1.120000X0.960000*%
%TD*%
%TA.AperFunction,ComponentPad*%
%ADD13C,2.400000*%
%TD*%
%TA.AperFunction,ComponentPad*%
%ADD14C,1.381000*%
%TD*%
%TA.AperFunction,ComponentPad*%
%ADD15C,1.905000*%
%TD*%
%TA.AperFunction,ComponentPad*%
%ADD16R,2.500000X2.500000*%
%TD*%
%TA.AperFunction,ComponentPad*%
%ADD17O,2.500000X2.500000*%
%TD*%
%TA.AperFunction,ComponentPad*%
%ADD18R,4.000000X4.000000*%
%TD*%
%TA.AperFunction,ComponentPad*%
%ADD19C,4.000000*%
%TD*%
%TA.AperFunction,SMDPad,CuDef*%
%ADD20R,0.600000X1.200000*%
%TD*%
%TA.AperFunction,SMDPad,CuDef*%
%ADD21RoundRect,0.200000X-0.275000X0.200000X-0.275000X-0.200000X0.275000X-0.200000X0.275000X0.200000X0*%
%TD*%
%TA.AperFunction,SMDPad,CuDef*%
%ADD22RoundRect,0.225000X0.250000X-0.225000X0.250000X0.225000X-0.250000X0.225000X-0.250000X-0.225000X0*%
%TD*%
%TA.AperFunction,SMDPad,CuDef*%
%ADD23R,1.500000X2.000000*%
%TD*%
%TA.AperFunction,SMDPad,CuDef*%
%ADD24R,3.800000X2.000000*%
%TD*%
%TA.AperFunction,SMDPad,CuDef*%
%ADD25R,1.525000X0.650000*%
%TD*%
%TA.AperFunction,SMDPad,CuDef*%
%ADD26RoundRect,0.225000X0.225000X0.250000X-0.225000X0.250000X-0.225000X-0.250000X0.225000X-0.250000X0*%
%TD*%
%TA.AperFunction,ComponentPad*%
%ADD27R,3.000000X3.000000*%
%TD*%
%TA.AperFunction,ComponentPad*%
%ADD28C,3.000000*%
%TD*%
%TA.AperFunction,SMDPad,CuDef*%
%ADD29RoundRect,0.225000X-0.225000X-0.250000X0.225000X-0.250000X0.225000X0.250000X-0.225000X0.250000X0*%
%TD*%
%TA.AperFunction,SMDPad,CuDef*%
%ADD30RoundRect,0.200000X0.200000X0.275000X-0.200000X0.275000X-0.200000X-0.275000X0.200000X-0.275000X0*%
%TD*%
%TA.AperFunction,SMDPad,CuDef*%
%ADD31R,0.960000X1.120000*%
%TD*%
%TA.AperFunction,SMDPad,CuDef*%
%ADD32R,0.600000X1.350000*%
%TD*%
%TA.AperFunction,SMDPad,CuDef*%
%ADD33R,2.500000X1.500000*%
%TD*%
%TA.AperFunction,SMDPad,CuDef*%
%ADD34R,7.000000X7.000000*%
%TD*%
%TA.AperFunction,SMDPad,CuDef*%
%ADD35R,3.100000X1.900000*%
%TD*%
%TA.AperFunction,ComponentPad*%
%ADD36R,1.000000X1.000000*%
%TD*%
%TA.AperFunction,ComponentPad*%
%ADD37O,1.000000X1.000000*%
%TD*%
%TA.AperFunction,SMDPad,CuDef*%
%ADD38RoundRect,0.200000X0.275000X-0.200000X0.275000X0.200000X-0.275000X0.200000X-0.275000X-0.200000X0*%
%TD*%
%TA.AperFunction,SMDPad,CuDef*%
%ADD39RoundRect,0.150000X-0.875000X-0.150000X0.875000X-0.150000X0.875000X0.150000X-0.875000X0.150000X0*%
%TD*%
%TA.AperFunction,SMDPad,CuDef*%
%ADD40R,2.000000X1.100000*%
%TD*%
%TA.AperFunction,SMDPad,CuDef*%
%ADD41R,0.800000X0.800000*%
%TD*%
%TA.AperFunction,SMDPad,CuDef*%
%ADD42RoundRect,0.250000X-0.475000X0.250000X-0.475000X-0.250000X0.475000X-0.250000X0.475000X0.250000X0*%
%TD*%
%TA.AperFunction,SMDPad,CuDef*%
%ADD43RoundRect,0.150000X0.150000X-0.587500X0.150000X0.587500X-0.150000X0.587500X-0.150000X-0.587500X0*%
%TD*%
%TA.AperFunction,SMDPad,CuDef*%
%ADD44R,0.800000X0.900000*%
%TD*%
%TA.AperFunction,SMDPad,CuDef*%
%ADD45R,0.650000X1.850000*%
%TD*%
%TA.AperFunction,SMDPad,CuDef*%
%ADD46RoundRect,0.075000X-0.075000X0.700000X-0.075000X-0.700000X0.075000X-0.700000X0.075000X0.700000X0*%
%TD*%
%TA.AperFunction,SMDPad,CuDef*%
%ADD47RoundRect,0.075000X-0.700000X0.075000X-0.700000X-0.075000X0.700000X-0.075000X0.700000X0.075000X0*%
%TD*%
%TA.AperFunction,SMDPad,CuDef*%
%ADD48R,1.200000X0.600000*%
%TD*%
%TA.AperFunction,SMDPad,CuDef*%
%ADD49R,1.350000X0.600000*%
%TD*%
%TA.AperFunction,SMDPad,CuDef*%
%ADD50RoundRect,0.200000X-0.200000X-0.275000X0.200000X-0.275000X0.200000X0.275000X-0.200000X0.275000X0*%
%TD*%
%TA.AperFunction,SMDPad,CuDef*%
%ADD51R,2.500000X1.800000*%
%TD*%
%TA.AperFunction,SMDPad,CuDef*%
%ADD52RoundRect,0.218750X0.218750X0.256250X-0.218750X0.256250X-0.218750X-0.256250X0.218750X-0.256250X0*%
%TD*%
%TA.AperFunction,SMDPad,CuDef*%
%ADD53RoundRect,0.250000X0.362500X1.425000X-0.362500X1.425000X-0.362500X-1.425000X0.362500X-1.425000X0*%
%TD*%
%TA.AperFunction,SMDPad,CuDef*%
%ADD54R,0.650000X1.525000*%
%TD*%
%TA.AperFunction,ComponentPad*%
%ADD55R,2.000000X1.905000*%
%TD*%
%TA.AperFunction,ComponentPad*%
%ADD56O,2.000000X1.905000*%
%TD*%
%TA.AperFunction,ViaPad*%
%ADD57C,0.800000*%
%TD*%
%TA.AperFunction,Conductor*%
%ADD58C,0.800000*%
%TD*%
%TA.AperFunction,Conductor*%
%ADD59C,0.320000*%
%TD*%
%TA.AperFunction,Conductor*%
%ADD60C,2.500000*%
%TD*%
%TA.AperFunction,Conductor*%
%ADD61C,0.500000*%
%TD*%
%TA.AperFunction,Conductor*%
%ADD62C,1.000000*%
%TD*%
%TA.AperFunction,Conductor*%
%ADD63C,1.500000*%
%TD*%
%TA.AperFunction,Conductor*%
%ADD64C,0.400000*%
%TD*%
%TA.AperFunction,Conductor*%
%ADD65C,3.000000*%
%TD*%
%TA.AperFunction,Conductor*%
%ADD66C,1.900000*%
%TD*%
%TA.AperFunction,Conductor*%
%ADD67C,0.200000*%
%TD*%
%TA.AperFunction,Conductor*%
%ADD68C,0.250000*%
%TD*%
G04 APERTURE END LIST*
D10*
%TO.P,C44,1*%
%TO.N,+12V*%
X74300000Y-97250000D03*
%TO.P,C44,2*%
%TO.N,GND*%
X74300000Y-98800000D03*
%TD*%
D11*
%TO.P,H5,1,1*%
%TO.N,Earth*%
X188500000Y-91100000D03*
%TD*%
D12*
%TO.P,T1,1,1*%
%TO.N,Net-(IC3-Pad1)*%
X58430000Y-70760000D03*
%TO.P,T1,2,2*%
%TO.N,+5V*%
X58430000Y-73300000D03*
%TO.P,T1,3,3*%
%TO.N,Net-(IC3-Pad8)*%
X58430000Y-75840000D03*
%TO.P,T1,4,4*%
%TO.N,Net-(D1-Pad2)*%
X67570000Y-75840000D03*
%TO.P,T1,5,5*%
%TO.N,GND*%
X67570000Y-73300000D03*
%TO.P,T1,6,6*%
%TO.N,Net-(D1-Pad1)*%
X67570000Y-70760000D03*
%TD*%
D13*
%TO.P,C20,1*%
%TO.N,Net-(C20-Pad1)*%
X134000000Y-66750000D03*
%TO.P,C20,2*%
%TO.N,/Cap_Isense*%
X134000000Y-89250000D03*
%TD*%
D14*
%TO.P,C27,1*%
%TO.N,/Line_GND*%
X184250000Y-74750000D03*
%TO.P,C27,2*%
%TO.N,Net-(K1-Pad1)*%
X184250000Y-64750000D03*
%TD*%
D15*
%TO.P,L5,7,2*%
%TO.N,Net-(K1-Pad1)*%
X189900000Y-64750000D03*
%TO.P,L5,4,1*%
%TO.N,Net-(C22-Pad2)*%
X201900000Y-64750000D03*
%TO.P,L5,9,4*%
%TO.N,/Line_GND*%
X189900000Y-74750000D03*
%TO.P,L5,2,3*%
%TO.N,Net-(C28-Pad1)*%
X201900000Y-74750000D03*
%TD*%
D16*
%TO.P,K1,1*%
%TO.N,Net-(K1-Pad1)*%
X173000000Y-53000000D03*
D17*
%TO.P,K1,2*%
%TO.N,/Relay*%
X167000000Y-55000000D03*
%TO.P,K1,3*%
%TO.N,Net-(K1-Pad3)*%
X167000000Y-67200000D03*
%TO.P,K1,4*%
%TO.N,unconnected-(K1-Pad4)*%
X179000000Y-67200000D03*
%TO.P,K1,5*%
%TO.N,VCC*%
X179000000Y-55000000D03*
%TD*%
D14*
%TO.P,C22,2*%
%TO.N,Net-(C22-Pad2)*%
X196000000Y-96000000D03*
%TO.P,C22,1*%
%TO.N,Earth*%
X186000000Y-96000000D03*
%TD*%
D18*
%TO.P,C32,1*%
%TO.N,VBUS*%
X191750000Y-112250000D03*
D19*
%TO.P,C32,2*%
%TO.N,GND*%
X181750000Y-112250000D03*
%TD*%
D20*
%TO.P,PS3,1,VIN*%
%TO.N,Net-(C50-Pad1)*%
X126450000Y-101750000D03*
%TO.P,PS3,2,GND*%
%TO.N,/Out_B*%
X127400000Y-101750000D03*
%TO.P,PS3,3,EN*%
%TO.N,Net-(C50-Pad1)*%
X128350000Y-101750000D03*
%TO.P,PS3,4,BYP*%
%TO.N,Net-(C61-Pad1)*%
X128350000Y-99250000D03*
%TO.P,PS3,5,VOUT*%
%TO.N,+5V_2*%
X126450000Y-99250000D03*
%TD*%
D21*
%TO.P,R43,1*%
%TO.N,GND*%
X73277500Y-89005000D03*
%TO.P,R43,2*%
%TO.N,Net-(D11-Pad2)*%
X73277500Y-90655000D03*
%TD*%
D10*
%TO.P,C45,1*%
%TO.N,+3.3V*%
X171400000Y-115325000D03*
%TO.P,C45,2*%
%TO.N,GNDD*%
X171400000Y-116875000D03*
%TD*%
D22*
%TO.P,C17,1*%
%TO.N,Net-(C17-Pad1)*%
X105387500Y-105275000D03*
%TO.P,C17,2*%
%TO.N,GNDD*%
X105387500Y-103725000D03*
%TD*%
D23*
%TO.P,U4,1,GND*%
%TO.N,GNDD*%
X72700000Y-123650000D03*
D24*
%TO.P,U4,2,VO*%
%TO.N,+3.3V*%
X75000000Y-117350000D03*
D23*
X75000000Y-123650000D03*
%TO.P,U4,3,VI*%
%TO.N,+5V*%
X77300000Y-123650000D03*
%TD*%
D25*
%TO.P,IC7,1,D1*%
%TO.N,Net-(IC7-Pad1)*%
X145249500Y-114345000D03*
%TO.P,IC7,2,GND1*%
%TO.N,GNDD*%
X145249500Y-115615000D03*
%TO.P,IC7,3,FS*%
%TO.N,+5V*%
X145249500Y-116885000D03*
%TO.P,IC7,4,SD*%
%TO.N,GNDD*%
X145249500Y-118155000D03*
%TO.P,IC7,5,N.C.*%
%TO.N,unconnected-(IC7-Pad5)*%
X150673500Y-118155000D03*
%TO.P,IC7,6,VCC*%
%TO.N,+5V*%
X150673500Y-116885000D03*
%TO.P,IC7,7,GND2*%
%TO.N,GNDD*%
X150673500Y-115615000D03*
%TO.P,IC7,8,D2*%
%TO.N,Net-(IC7-Pad8)*%
X150673500Y-114345000D03*
%TD*%
D26*
%TO.P,C40,1*%
%TO.N,/Line_Vsense*%
X160750000Y-100750000D03*
%TO.P,C40,2*%
%TO.N,Net-(C40-Pad2)*%
X159200000Y-100750000D03*
%TD*%
D27*
%TO.P,J3,1,Pin_1*%
%TO.N,VBUS*%
X201250000Y-106340000D03*
D28*
%TO.P,J3,2,Pin_2*%
%TO.N,GND*%
X201250000Y-101260000D03*
%TD*%
D29*
%TO.P,C4,1*%
%TO.N,+3.3V*%
X97475000Y-105750000D03*
%TO.P,C4,2*%
%TO.N,GNDD*%
X99025000Y-105750000D03*
%TD*%
D22*
%TO.P,C11,1*%
%TO.N,GNDD*%
X54500000Y-67250000D03*
%TO.P,C11,2*%
%TO.N,Net-(C11-Pad2)*%
X54500000Y-65700000D03*
%TD*%
D30*
%TO.P,R29,2*%
%TO.N,GND*%
X76775000Y-97000000D03*
%TO.P,R29,1*%
%TO.N,Net-(C66-Pad2)*%
X78425000Y-97000000D03*
%TD*%
D31*
%TO.P,T3,1,1*%
%TO.N,Net-(IC8-Pad1)*%
X129460000Y-112570000D03*
%TO.P,T3,2,2*%
%TO.N,+5V*%
X132000000Y-112570000D03*
%TO.P,T3,3,3*%
%TO.N,Net-(IC8-Pad8)*%
X134540000Y-112570000D03*
%TO.P,T3,4,4*%
%TO.N,Net-(D3-Pad2)*%
X134540000Y-103430000D03*
%TO.P,T3,5,5*%
%TO.N,/Out_B*%
X132000000Y-103430000D03*
%TO.P,T3,6,6*%
%TO.N,Net-(D3-Pad1)*%
X129460000Y-103430000D03*
%TD*%
D32*
%TO.P,D3,1,A_1*%
%TO.N,Net-(D3-Pad1)*%
X131050000Y-101350000D03*
%TO.P,D3,2,A_2*%
%TO.N,Net-(D3-Pad2)*%
X132950000Y-101350000D03*
%TO.P,D3,3,K*%
%TO.N,Net-(C50-Pad1)*%
X132000000Y-99250000D03*
%TD*%
D28*
%TO.P,L2,1,1*%
%TO.N,Net-(C6-Pad2)*%
X102000000Y-53000000D03*
%TO.P,L2,2,2*%
%TO.N,Net-(K1-Pad3)*%
X102000000Y-71500000D03*
%TD*%
D26*
%TO.P,C15,1*%
%TO.N,Net-(C15-Pad1)*%
X54775000Y-59250000D03*
%TO.P,C15,2*%
%TO.N,GNDD*%
X53225000Y-59250000D03*
%TD*%
D20*
%TO.P,PS2,1,VIN*%
%TO.N,Net-(C49-Pad1)*%
X154550000Y-99350000D03*
%TO.P,PS2,2,GND*%
%TO.N,/Line_GND*%
X153600000Y-99350000D03*
%TO.P,PS2,3,EN*%
%TO.N,Net-(C49-Pad1)*%
X152650000Y-99350000D03*
%TO.P,PS2,4,BYP*%
%TO.N,Net-(C53-Pad1)*%
X152650000Y-101850000D03*
%TO.P,PS2,5,VOUT*%
%TO.N,+5V_1*%
X154550000Y-101850000D03*
%TD*%
D33*
%TO.P,U3,1,GND*%
%TO.N,GNDD*%
X61925000Y-114800000D03*
D34*
%TO.P,U3,2,VO*%
%TO.N,+5V*%
X55075000Y-112500000D03*
D33*
%TO.P,U3,3,VI*%
%TO.N,VCC*%
X61925000Y-110200000D03*
%TD*%
D22*
%TO.P,C41,1*%
%TO.N,+5V_1*%
X162250000Y-100775000D03*
%TO.P,C41,2*%
%TO.N,/Line_GND*%
X162250000Y-99225000D03*
%TD*%
%TO.P,C13,1*%
%TO.N,Net-(C13-Pad1)*%
X58250000Y-56275000D03*
%TO.P,C13,2*%
%TO.N,GNDD*%
X58250000Y-54725000D03*
%TD*%
D26*
%TO.P,C69,1*%
%TO.N,+3.3V*%
X106775000Y-120000000D03*
%TO.P,C69,2*%
%TO.N,GNDD*%
X105225000Y-120000000D03*
%TD*%
D22*
%TO.P,C42,1*%
%TO.N,+5V_1*%
X163750000Y-100775000D03*
%TO.P,C42,2*%
%TO.N,/Line_GND*%
X163750000Y-99225000D03*
%TD*%
D35*
%TO.P,C49,1*%
%TO.N,Net-(C49-Pad1)*%
X142400000Y-99000000D03*
%TO.P,C49,2*%
%TO.N,/Line_GND*%
X142400000Y-101800000D03*
%TD*%
D36*
%TO.P,J6,1,Pin_1*%
%TO.N,GNDD*%
X111400000Y-110200000D03*
D37*
%TO.P,J6,2,Pin_2*%
%TO.N,Net-(J6-Pad2)*%
X110130000Y-110200000D03*
%TD*%
D25*
%TO.P,IC8,1,D1*%
%TO.N,Net-(IC8-Pad1)*%
X129249500Y-114345000D03*
%TO.P,IC8,2,GND1*%
%TO.N,GNDD*%
X129249500Y-115615000D03*
%TO.P,IC8,3,FS*%
%TO.N,+5V*%
X129249500Y-116885000D03*
%TO.P,IC8,4,SD*%
%TO.N,GNDD*%
X129249500Y-118155000D03*
%TO.P,IC8,5,N.C.*%
%TO.N,unconnected-(IC8-Pad5)*%
X134673500Y-118155000D03*
%TO.P,IC8,6,VCC*%
%TO.N,+5V*%
X134673500Y-116885000D03*
%TO.P,IC8,7,GND2*%
%TO.N,GNDD*%
X134673500Y-115615000D03*
%TO.P,IC8,8,D2*%
%TO.N,Net-(IC8-Pad8)*%
X134673500Y-114345000D03*
%TD*%
D10*
%TO.P,C39,1*%
%TO.N,+3.3V*%
X161900000Y-115325000D03*
%TO.P,C39,2*%
%TO.N,GNDD*%
X161900000Y-116875000D03*
%TD*%
D26*
%TO.P,C26,1*%
%TO.N,Net-(C12-Pad1)*%
X56275000Y-88475000D03*
%TO.P,C26,2*%
%TO.N,GNDD*%
X54725000Y-88475000D03*
%TD*%
D22*
%TO.P,C14,1*%
%TO.N,GNDD*%
X56250000Y-87000000D03*
%TO.P,C14,2*%
%TO.N,+3.3V*%
X56250000Y-85450000D03*
%TD*%
D21*
%TO.P,R32,1*%
%TO.N,GND*%
X73277500Y-64005000D03*
%TO.P,R32,2*%
%TO.N,Net-(D7-Pad2)*%
X73277500Y-65655000D03*
%TD*%
D22*
%TO.P,C63,1*%
%TO.N,+5V*%
X136500000Y-117075000D03*
%TO.P,C63,2*%
%TO.N,GNDD*%
X136500000Y-115525000D03*
%TD*%
D30*
%TO.P,R42,1*%
%TO.N,Net-(D11-Pad2)*%
X71675000Y-90700000D03*
%TO.P,R42,2*%
%TO.N,Net-(R41-Pad1)*%
X70025000Y-90700000D03*
%TD*%
D38*
%TO.P,R21,1*%
%TO.N,Net-(C58-Pad1)*%
X121750000Y-99263530D03*
%TO.P,R21,2*%
%TO.N,/Cap_Isense*%
X121750000Y-97613530D03*
%TD*%
D32*
%TO.P,D2,1,A_1*%
%TO.N,Net-(D2-Pad1)*%
X147050000Y-101350000D03*
%TO.P,D2,2,A_2*%
%TO.N,Net-(D2-Pad2)*%
X148950000Y-101350000D03*
%TO.P,D2,3,K*%
%TO.N,Net-(C49-Pad1)*%
X148000000Y-99250000D03*
%TD*%
D29*
%TO.P,C37,1*%
%TO.N,+5VD*%
X70675000Y-98800000D03*
%TO.P,C37,2*%
%TO.N,GND*%
X72225000Y-98800000D03*
%TD*%
D39*
%TO.P,U2,1,INA*%
%TO.N,Net-(C13-Pad1)*%
X58350000Y-58030000D03*
%TO.P,U2,2,INB*%
%TO.N,Net-(C15-Pad1)*%
X58350000Y-59300000D03*
%TO.P,U2,3,VCCI*%
%TO.N,+3.3V*%
X58350000Y-60570000D03*
%TO.P,U2,4,GND*%
%TO.N,GNDD*%
X58350000Y-61840000D03*
%TO.P,U2,5,DIS*%
%TO.N,Net-(C12-Pad1)*%
X58350000Y-63110000D03*
%TO.P,U2,6,DT*%
%TO.N,Net-(C11-Pad2)*%
X58350000Y-64380000D03*
%TO.P,U2,7,NC*%
%TO.N,unconnected-(U2-Pad7)*%
X58350000Y-65650000D03*
%TO.P,U2,8,VCCI*%
%TO.N,+3.3V*%
X58350000Y-66920000D03*
%TO.P,U2,9,VSSB*%
%TO.N,GND*%
X67650000Y-66920000D03*
%TO.P,U2,10,OUTB*%
%TO.N,Net-(R15-Pad1)*%
X67650000Y-65650000D03*
%TO.P,U2,11,VDDB*%
%TO.N,+12V*%
X67650000Y-64380000D03*
%TO.P,U2,12,NC*%
%TO.N,unconnected-(U2-Pad12)*%
X67650000Y-63110000D03*
%TO.P,U2,13,NC*%
%TO.N,unconnected-(U2-Pad13)*%
X67650000Y-61840000D03*
%TO.P,U2,14,VSSA*%
%TO.N,Net-(C6-Pad2)*%
X67650000Y-60570000D03*
%TO.P,U2,15,OUTA*%
%TO.N,Net-(R11-Pad2)*%
X67650000Y-59300000D03*
%TO.P,U2,16,VDDA*%
%TO.N,/VDDA_A*%
X67650000Y-58030000D03*
%TD*%
D38*
%TO.P,R22,1*%
%TO.N,Net-(C58-Pad2)*%
X120250000Y-99263530D03*
%TO.P,R22,2*%
%TO.N,/Out_B*%
X120250000Y-97613530D03*
%TD*%
D22*
%TO.P,C29,1*%
%TO.N,Net-(C29-Pad1)*%
X58250000Y-81275000D03*
%TO.P,C29,2*%
%TO.N,GNDD*%
X58250000Y-79725000D03*
%TD*%
D38*
%TO.P,R13,1*%
%TO.N,Net-(C6-Pad2)*%
X73277500Y-60955000D03*
%TO.P,R13,2*%
%TO.N,Net-(D5-Pad2)*%
X73277500Y-59305000D03*
%TD*%
%TO.P,R44,1*%
%TO.N,GNDD*%
X54500000Y-92300000D03*
%TO.P,R44,2*%
%TO.N,Net-(C31-Pad2)*%
X54500000Y-90650000D03*
%TD*%
%TO.P,R18,1*%
%TO.N,Net-(C46-Pad1)*%
X170250000Y-99325000D03*
%TO.P,R18,2*%
%TO.N,/Line_Isense*%
X170250000Y-97675000D03*
%TD*%
D30*
%TO.P,R36,1*%
%TO.N,Net-(D10-Pad2)*%
X71625000Y-84300000D03*
%TO.P,R36,2*%
%TO.N,Net-(R35-Pad1)*%
X69975000Y-84300000D03*
%TD*%
D22*
%TO.P,C53,1*%
%TO.N,Net-(C53-Pad1)*%
X150800000Y-101275000D03*
%TO.P,C53,2*%
%TO.N,/Line_GND*%
X150800000Y-99725000D03*
%TD*%
D38*
%TO.P,R1,1*%
%TO.N,+12V*%
X74077500Y-55655000D03*
%TO.P,R1,2*%
%TO.N,Net-(D8-Pad2)*%
X74077500Y-54005000D03*
%TD*%
D39*
%TO.P,U5,1,INA*%
%TO.N,Net-(C29-Pad1)*%
X58350000Y-83030000D03*
%TO.P,U5,2,INB*%
%TO.N,Net-(C30-Pad1)*%
X58350000Y-84300000D03*
%TO.P,U5,3,VCCI*%
%TO.N,+3.3V*%
X58350000Y-85570000D03*
%TO.P,U5,4,GND*%
%TO.N,GNDD*%
X58350000Y-86840000D03*
%TO.P,U5,5,DIS*%
%TO.N,Net-(C12-Pad1)*%
X58350000Y-88110000D03*
%TO.P,U5,6,DT*%
%TO.N,Net-(C31-Pad2)*%
X58350000Y-89380000D03*
%TO.P,U5,7,NC*%
%TO.N,unconnected-(U5-Pad7)*%
X58350000Y-90650000D03*
%TO.P,U5,8,VCCI*%
%TO.N,+3.3V*%
X58350000Y-91920000D03*
%TO.P,U5,9,VSSB*%
%TO.N,GND*%
X67650000Y-91920000D03*
%TO.P,U5,10,OUTB*%
%TO.N,Net-(R41-Pad1)*%
X67650000Y-90650000D03*
%TO.P,U5,11,VDDB*%
%TO.N,+12V*%
X67650000Y-89380000D03*
%TO.P,U5,12,NC*%
%TO.N,unconnected-(U5-Pad12)*%
X67650000Y-88110000D03*
%TO.P,U5,13,NC*%
%TO.N,unconnected-(U5-Pad13)*%
X67650000Y-86840000D03*
%TO.P,U5,14,VSSA*%
%TO.N,Net-(C19-Pad1)*%
X67650000Y-85570000D03*
%TO.P,U5,15,OUTA*%
%TO.N,Net-(R35-Pad1)*%
X67650000Y-84300000D03*
%TO.P,U5,16,VDDA*%
%TO.N,/VDDA_B*%
X67650000Y-83030000D03*
%TD*%
D10*
%TO.P,C51,1*%
%TO.N,Net-(C49-Pad1)*%
X145300000Y-99025000D03*
%TO.P,C51,2*%
%TO.N,/Line_GND*%
X145300000Y-100575000D03*
%TD*%
%TO.P,C56,1*%
%TO.N,+3.3V*%
X124400000Y-115225000D03*
%TO.P,C56,2*%
%TO.N,GNDD*%
X124400000Y-116775000D03*
%TD*%
D26*
%TO.P,C75,1*%
%TO.N,+3.3V*%
X72975000Y-115200000D03*
%TO.P,C75,2*%
%TO.N,GNDD*%
X71425000Y-115200000D03*
%TD*%
D38*
%TO.P,R39,1*%
%TO.N,PWM_B_L*%
X52500000Y-92300000D03*
%TO.P,R39,2*%
%TO.N,Net-(C30-Pad1)*%
X52500000Y-90650000D03*
%TD*%
%TO.P,R34,2*%
%TO.N,+12V*%
X74077500Y-79005000D03*
%TO.P,R34,1*%
%TO.N,Net-(D9-Pad2)*%
X74077500Y-80655000D03*
%TD*%
D22*
%TO.P,C48,1*%
%TO.N,+5V_1*%
X171750000Y-100750000D03*
%TO.P,C48,2*%
%TO.N,/Line_GND*%
X171750000Y-99200000D03*
%TD*%
%TO.P,C55,1*%
%TO.N,+5V_2*%
X124725000Y-100725000D03*
%TO.P,C55,2*%
%TO.N,/Out_B*%
X124725000Y-99175000D03*
%TD*%
D16*
%TO.P,K2,1*%
%TO.N,/Line_Isense*%
X173000000Y-75972500D03*
D17*
%TO.P,K2,2*%
%TO.N,/Relay*%
X167000000Y-77972500D03*
%TO.P,K2,3*%
%TO.N,Net-(K2-Pad3)*%
X167000000Y-90172500D03*
%TO.P,K2,4*%
%TO.N,unconnected-(K2-Pad4)*%
X179000000Y-90172500D03*
%TO.P,K2,5*%
%TO.N,VCC*%
X179000000Y-77972500D03*
%TD*%
D22*
%TO.P,C71,1*%
%TO.N,VCC*%
X168500000Y-124025000D03*
%TO.P,C71,2*%
%TO.N,GNDD*%
X168500000Y-122475000D03*
%TD*%
%TO.P,C67,1*%
%TO.N,+5VD*%
X83875000Y-98200000D03*
%TO.P,C67,2*%
%TO.N,GND*%
X83875000Y-96650000D03*
%TD*%
D31*
%TO.P,T2,1,1*%
%TO.N,Net-(IC7-Pad1)*%
X145460000Y-112570000D03*
%TO.P,T2,2,2*%
%TO.N,+5V*%
X148000000Y-112570000D03*
%TO.P,T2,3,3*%
%TO.N,Net-(IC7-Pad8)*%
X150540000Y-112570000D03*
%TO.P,T2,4,4*%
%TO.N,Net-(D2-Pad2)*%
X150540000Y-103430000D03*
%TO.P,T2,5,5*%
%TO.N,/Line_GND*%
X148000000Y-103430000D03*
%TO.P,T2,6,6*%
%TO.N,Net-(D2-Pad1)*%
X145460000Y-103430000D03*
%TD*%
D40*
%TO.P,D7,1,K*%
%TO.N,Net-(D7-Pad1)*%
X73670000Y-67130000D03*
D41*
%TO.P,D7,2,A*%
%TO.N,Net-(D7-Pad2)*%
X75570000Y-67130000D03*
%TD*%
D42*
%TO.P,C73,1*%
%TO.N,VCC*%
X64500000Y-111550000D03*
%TO.P,C73,2*%
%TO.N,GNDD*%
X64500000Y-113450000D03*
%TD*%
D22*
%TO.P,C31,1*%
%TO.N,GNDD*%
X56000000Y-92250000D03*
%TO.P,C31,2*%
%TO.N,Net-(C31-Pad2)*%
X56000000Y-90700000D03*
%TD*%
D38*
%TO.P,R38,1*%
%TO.N,PWM_B_H*%
X51000000Y-92300000D03*
%TO.P,R38,2*%
%TO.N,Net-(C29-Pad1)*%
X51000000Y-90650000D03*
%TD*%
D22*
%TO.P,C43,1*%
%TO.N,+5V*%
X51000000Y-73998500D03*
%TO.P,C43,2*%
%TO.N,GNDD*%
X51000000Y-72448500D03*
%TD*%
%TO.P,C65,2*%
%TO.N,GNDD*%
X84500000Y-108725000D03*
%TO.P,C65,1*%
%TO.N,+3.3V*%
X84500000Y-110275000D03*
%TD*%
D43*
%TO.P,Q2,1,G*%
%TO.N,/Relay_Ctrl*%
X116050000Y-118187500D03*
%TO.P,Q2,2,S*%
%TO.N,GNDD*%
X117950000Y-118187500D03*
%TO.P,Q2,3,D*%
%TO.N,/Relay*%
X117000000Y-116312500D03*
%TD*%
D40*
%TO.P,D5,1,K*%
%TO.N,Net-(D5-Pad1)*%
X73600000Y-57830000D03*
D41*
%TO.P,D5,2,A*%
%TO.N,Net-(D5-Pad2)*%
X75500000Y-57830000D03*
%TD*%
D26*
%TO.P,C12,1*%
%TO.N,Net-(C12-Pad1)*%
X56275000Y-63475000D03*
%TO.P,C12,2*%
%TO.N,GNDD*%
X54725000Y-63475000D03*
%TD*%
D28*
%TO.P,L4,2,2*%
%TO.N,Net-(K2-Pad3)*%
X162550000Y-71500000D03*
%TO.P,L4,1,1*%
%TO.N,/Out_B*%
X146750000Y-71500000D03*
%TD*%
D40*
%TO.P,D11,1,K*%
%TO.N,Net-(D11-Pad1)*%
X73670000Y-92130000D03*
D41*
%TO.P,D11,2,A*%
%TO.N,Net-(D11-Pad2)*%
X75570000Y-92130000D03*
%TD*%
D29*
%TO.P,C74,1*%
%TO.N,+5V*%
X51225000Y-107000000D03*
%TO.P,C74,2*%
%TO.N,GNDD*%
X52775000Y-107000000D03*
%TD*%
D38*
%TO.P,R3,1*%
%TO.N,PWM_A_L*%
X52500000Y-67300000D03*
%TO.P,R3,2*%
%TO.N,Net-(C15-Pad1)*%
X52500000Y-65650000D03*
%TD*%
D27*
%TO.P,J2,1,Pin_1*%
%TO.N,GNDD*%
X63170000Y-121000000D03*
D28*
%TO.P,J2,2,Pin_2*%
%TO.N,VCC*%
X68250000Y-121000000D03*
%TD*%
D30*
%TO.P,R30,1*%
%TO.N,Net-(R30-Pad1)*%
X94325000Y-105000000D03*
%TO.P,R30,2*%
%TO.N,Net-(D4-Pad2)*%
X92675000Y-105000000D03*
%TD*%
D22*
%TO.P,C3,1*%
%TO.N,+3.3V*%
X92750000Y-111025000D03*
%TO.P,C3,2*%
%TO.N,GNDD*%
X92750000Y-109475000D03*
%TD*%
D44*
%TO.P,Y1,1,1*%
%TO.N,Net-(C16-Pad1)*%
X102375000Y-102925000D03*
%TO.P,Y1,2,2*%
%TO.N,GNDD*%
X102375000Y-104575000D03*
%TO.P,Y1,3,3*%
%TO.N,Net-(C17-Pad1)*%
X103625000Y-104575000D03*
%TO.P,Y1,4,4*%
%TO.N,GNDD*%
X103625000Y-102925000D03*
%TD*%
D26*
%TO.P,C35,2*%
%TO.N,GND*%
X69725000Y-70500000D03*
%TO.P,C35,1*%
%TO.N,+12V*%
X71275000Y-70500000D03*
%TD*%
D45*
%TO.P,IC9,1,AVDD*%
%TO.N,+5VD*%
X82405000Y-98925000D03*
%TO.P,IC9,2,INP*%
%TO.N,Net-(C66-Pad1)*%
X81135000Y-98925000D03*
%TO.P,IC9,3,INN*%
%TO.N,Net-(C66-Pad2)*%
X79865000Y-98925000D03*
%TO.P,IC9,4,AGND*%
%TO.N,GND*%
X78595000Y-98925000D03*
%TO.P,IC9,5,DGND*%
%TO.N,GNDD*%
X78595000Y-109575000D03*
%TO.P,IC9,6,DOUT*%
%TO.N,D4_Sigma_Delta*%
X79865000Y-109575000D03*
%TO.P,IC9,7,CLKIN*%
%TO.N,CLK_SigmaDelta*%
X81135000Y-109575000D03*
%TO.P,IC9,8,DVDD*%
%TO.N,+3.3V*%
X82405000Y-109575000D03*
%TD*%
D22*
%TO.P,C54,1*%
%TO.N,+5V_1*%
X156200000Y-100575000D03*
%TO.P,C54,2*%
%TO.N,/Line_GND*%
X156200000Y-99025000D03*
%TD*%
D30*
%TO.P,R40,1*%
%TO.N,PWM_Disable*%
X75325000Y-104500000D03*
%TO.P,R40,2*%
%TO.N,Net-(C12-Pad1)*%
X73675000Y-104500000D03*
%TD*%
D13*
%TO.P,C33,1*%
%TO.N,VBUS*%
X128000000Y-57500000D03*
%TO.P,C33,2*%
%TO.N,GND*%
X143000000Y-57500000D03*
%TD*%
D29*
%TO.P,C61,1*%
%TO.N,Net-(C61-Pad1)*%
X127725000Y-97600000D03*
%TO.P,C61,2*%
%TO.N,/Out_B*%
X129275000Y-97600000D03*
%TD*%
D10*
%TO.P,C38,1*%
%TO.N,+3.3V*%
X163400000Y-115325000D03*
%TO.P,C38,2*%
%TO.N,GNDD*%
X163400000Y-116875000D03*
%TD*%
D30*
%TO.P,R11,1*%
%TO.N,Net-(D5-Pad2)*%
X71625000Y-59300000D03*
%TO.P,R11,2*%
%TO.N,Net-(R11-Pad2)*%
X69975000Y-59300000D03*
%TD*%
%TO.P,R31,1*%
%TO.N,Net-(D7-Pad2)*%
X71675000Y-65700000D03*
%TO.P,R31,2*%
%TO.N,Net-(R15-Pad1)*%
X70025000Y-65700000D03*
%TD*%
D22*
%TO.P,C60,1*%
%TO.N,+5V_2*%
X123250000Y-100725000D03*
%TO.P,C60,2*%
%TO.N,/Out_B*%
X123250000Y-99175000D03*
%TD*%
D10*
%TO.P,C70,1*%
%TO.N,+3.3V*%
X107750000Y-108625000D03*
%TO.P,C70,2*%
%TO.N,GNDD*%
X107750000Y-110175000D03*
%TD*%
D46*
%TO.P,U1,1,VBAT*%
%TO.N,+3.3V*%
X104000000Y-107575000D03*
%TO.P,U1,2,PC13*%
%TO.N,unconnected-(U1-Pad2)*%
X103500000Y-107575000D03*
%TO.P,U1,3,PC14*%
%TO.N,unconnected-(U1-Pad3)*%
X103000000Y-107575000D03*
%TO.P,U1,4,PC15*%
%TO.N,unconnected-(U1-Pad4)*%
X102500000Y-107575000D03*
%TO.P,U1,5,PH0*%
%TO.N,Net-(C17-Pad1)*%
X102000000Y-107575000D03*
%TO.P,U1,6,PH1*%
%TO.N,Net-(C16-Pad1)*%
X101500000Y-107575000D03*
%TO.P,U1,7,NRST*%
%TO.N,/NRST*%
X101000000Y-107575000D03*
%TO.P,U1,8,PC0*%
%TO.N,unconnected-(U1-Pad8)*%
X100500000Y-107575000D03*
%TO.P,U1,9,PC1*%
%TO.N,unconnected-(U1-Pad9)*%
X100000000Y-107575000D03*
%TO.P,U1,10,PC2*%
%TO.N,CLK_SigmaDelta*%
X99500000Y-107575000D03*
%TO.P,U1,11,PC3*%
%TO.N,unconnected-(U1-Pad11)*%
X99000000Y-107575000D03*
%TO.P,U1,12,VSSA*%
%TO.N,GNDD*%
X98500000Y-107575000D03*
%TO.P,U1,13,VDDA*%
%TO.N,+3.3V*%
X98000000Y-107575000D03*
%TO.P,U1,14,PA0*%
%TO.N,unconnected-(U1-Pad14)*%
X97500000Y-107575000D03*
%TO.P,U1,15,PA1*%
%TO.N,Net-(R30-Pad1)*%
X97000000Y-107575000D03*
%TO.P,U1,16,PA2*%
%TO.N,PWM_Disable*%
X96500000Y-107575000D03*
D47*
%TO.P,U1,17,PA3*%
%TO.N,unconnected-(U1-Pad17)*%
X94575000Y-109500000D03*
%TO.P,U1,18,VSS*%
%TO.N,GNDD*%
X94575000Y-110000000D03*
%TO.P,U1,19,VDD*%
%TO.N,+3.3V*%
X94575000Y-110500000D03*
%TO.P,U1,20,PA4*%
%TO.N,unconnected-(U1-Pad20)*%
X94575000Y-111000000D03*
%TO.P,U1,21,PA5*%
%TO.N,Net-(J5-Pad2)*%
X94575000Y-111500000D03*
%TO.P,U1,22,PA6*%
%TO.N,unconnected-(U1-Pad22)*%
X94575000Y-112000000D03*
%TO.P,U1,23,PA7*%
%TO.N,PWM_A_L*%
X94575000Y-112500000D03*
%TO.P,U1,24,PC4*%
%TO.N,unconnected-(U1-Pad24)*%
X94575000Y-113000000D03*
%TO.P,U1,25,PC5*%
%TO.N,unconnected-(U1-Pad25)*%
X94575000Y-113500000D03*
%TO.P,U1,26,PB0*%
%TO.N,PWM_B_L*%
X94575000Y-114000000D03*
%TO.P,U1,27,PB1*%
%TO.N,D4_Sigma_Delta*%
X94575000Y-114500000D03*
%TO.P,U1,28,PB2*%
%TO.N,unconnected-(U1-Pad28)*%
X94575000Y-115000000D03*
%TO.P,U1,29,PB10*%
%TO.N,unconnected-(U1-Pad29)*%
X94575000Y-115500000D03*
%TO.P,U1,30,PB11*%
%TO.N,unconnected-(U1-Pad30)*%
X94575000Y-116000000D03*
%TO.P,U1,31,VSS*%
%TO.N,GNDD*%
X94575000Y-116500000D03*
%TO.P,U1,32,VDD*%
%TO.N,+3.3V*%
X94575000Y-117000000D03*
D46*
%TO.P,U1,33,PB12*%
%TO.N,D2_Sigma_Delta*%
X96500000Y-118925000D03*
%TO.P,U1,34,PB13*%
%TO.N,unconnected-(U1-Pad34)*%
X97000000Y-118925000D03*
%TO.P,U1,35,PB14*%
%TO.N,D1_Sigma_Delta*%
X97500000Y-118925000D03*
%TO.P,U1,36,PB15*%
%TO.N,unconnected-(U1-Pad36)*%
X98000000Y-118925000D03*
%TO.P,U1,37,PC6*%
%TO.N,unconnected-(U1-Pad37)*%
X98500000Y-118925000D03*
%TO.P,U1,38,PC7*%
%TO.N,D3_Sigma_Delta*%
X99000000Y-118925000D03*
%TO.P,U1,39,PC8*%
%TO.N,unconnected-(U1-Pad39)*%
X99500000Y-118925000D03*
%TO.P,U1,40,PC9*%
%TO.N,unconnected-(U1-Pad40)*%
X100000000Y-118925000D03*
%TO.P,U1,41,PA8*%
%TO.N,PWM_A_H*%
X100500000Y-118925000D03*
%TO.P,U1,42,PA9*%
%TO.N,PWM_B_H*%
X101000000Y-118925000D03*
%TO.P,U1,43,PA10*%
%TO.N,unconnected-(U1-Pad43)*%
X101500000Y-118925000D03*
%TO.P,U1,44,PA11*%
%TO.N,/Relay_Ctrl*%
X102000000Y-118925000D03*
%TO.P,U1,45,PA12*%
%TO.N,unconnected-(U1-Pad45)*%
X102500000Y-118925000D03*
%TO.P,U1,46,PA13*%
%TO.N,/SWDIO*%
X103000000Y-118925000D03*
%TO.P,U1,47,VSS*%
%TO.N,GNDD*%
X103500000Y-118925000D03*
%TO.P,U1,48,VDDUSB*%
%TO.N,+3.3V*%
X104000000Y-118925000D03*
D47*
%TO.P,U1,49,PA14*%
%TO.N,/SWCLK*%
X105925000Y-117000000D03*
%TO.P,U1,50,PA15*%
%TO.N,unconnected-(U1-Pad50)*%
X105925000Y-116500000D03*
%TO.P,U1,51,PC10*%
%TO.N,unconnected-(U1-Pad51)*%
X105925000Y-116000000D03*
%TO.P,U1,52,PC11*%
%TO.N,unconnected-(U1-Pad52)*%
X105925000Y-115500000D03*
%TO.P,U1,53,PC12*%
%TO.N,unconnected-(U1-Pad53)*%
X105925000Y-115000000D03*
%TO.P,U1,54,PD2*%
%TO.N,unconnected-(U1-Pad54)*%
X105925000Y-114500000D03*
%TO.P,U1,55,PB3*%
%TO.N,unconnected-(U1-Pad55)*%
X105925000Y-114000000D03*
%TO.P,U1,56,PB4*%
%TO.N,unconnected-(U1-Pad56)*%
X105925000Y-113500000D03*
%TO.P,U1,57,PB5*%
%TO.N,unconnected-(U1-Pad57)*%
X105925000Y-113000000D03*
%TO.P,U1,58,PB6*%
%TO.N,Net-(J6-Pad2)*%
X105925000Y-112500000D03*
%TO.P,U1,59,PB7*%
%TO.N,unconnected-(U1-Pad59)*%
X105925000Y-112000000D03*
%TO.P,U1,60,BOOT0*%
%TO.N,GNDD*%
X105925000Y-111500000D03*
%TO.P,U1,61,PB8*%
%TO.N,unconnected-(U1-Pad61)*%
X105925000Y-111000000D03*
%TO.P,U1,62,PB9*%
%TO.N,unconnected-(U1-Pad62)*%
X105925000Y-110500000D03*
%TO.P,U1,63,VSS*%
%TO.N,GNDD*%
X105925000Y-110000000D03*
%TO.P,U1,64,VDD*%
%TO.N,+3.3V*%
X105925000Y-109500000D03*
%TD*%
D10*
%TO.P,C59,1*%
%TO.N,+3.3V*%
X172900000Y-115325000D03*
%TO.P,C59,2*%
%TO.N,GNDD*%
X172900000Y-116875000D03*
%TD*%
D26*
%TO.P,C10,1*%
%TO.N,/NRST*%
X99025000Y-103500000D03*
%TO.P,C10,2*%
%TO.N,GNDD*%
X97475000Y-103500000D03*
%TD*%
D38*
%TO.P,R19,1*%
%TO.N,Net-(C46-Pad2)*%
X168750000Y-99325000D03*
%TO.P,R19,2*%
%TO.N,/Line_GND*%
X168750000Y-97675000D03*
%TD*%
D10*
%TO.P,C52,1*%
%TO.N,Net-(C50-Pad1)*%
X134750000Y-99250000D03*
%TO.P,C52,2*%
%TO.N,/Out_B*%
X134750000Y-100800000D03*
%TD*%
D48*
%TO.P,PS1,1,VIN*%
%TO.N,+12V*%
X72500000Y-97500000D03*
%TO.P,PS1,2,GND*%
%TO.N,GND*%
X72500000Y-96550000D03*
%TO.P,PS1,3,EN*%
%TO.N,+12V*%
X72500000Y-95600000D03*
%TO.P,PS1,4,BYP*%
%TO.N,Net-(C36-Pad1)*%
X70000000Y-95600000D03*
%TO.P,PS1,5,VOUT*%
%TO.N,+5VD*%
X70000000Y-97500000D03*
%TD*%
D38*
%TO.P,R2,1*%
%TO.N,PWM_A_H*%
X51000000Y-67300000D03*
%TO.P,R2,2*%
%TO.N,Net-(C13-Pad1)*%
X51000000Y-65650000D03*
%TD*%
D14*
%TO.P,C28,2*%
%TO.N,Earth*%
X186000000Y-86500000D03*
%TO.P,C28,1*%
%TO.N,Net-(C28-Pad1)*%
X196000000Y-86500000D03*
%TD*%
D49*
%TO.P,D1,1,A_1*%
%TO.N,Net-(D1-Pad1)*%
X69762500Y-72350000D03*
%TO.P,D1,2,A_2*%
%TO.N,Net-(D1-Pad2)*%
X69762500Y-74250000D03*
%TO.P,D1,3,K*%
%TO.N,+12V*%
X71862500Y-73300000D03*
%TD*%
D45*
%TO.P,IC5,1,AVDD*%
%TO.N,+5V_1*%
X171405000Y-102675000D03*
%TO.P,IC5,2,INP*%
%TO.N,Net-(C46-Pad1)*%
X170135000Y-102675000D03*
%TO.P,IC5,3,INN*%
%TO.N,Net-(C46-Pad2)*%
X168865000Y-102675000D03*
%TO.P,IC5,4,AGND*%
%TO.N,/Line_GND*%
X167595000Y-102675000D03*
%TO.P,IC5,5,DGND*%
%TO.N,GNDD*%
X167595000Y-113325000D03*
%TO.P,IC5,6,DOUT*%
%TO.N,D2_Sigma_Delta*%
X168865000Y-113325000D03*
%TO.P,IC5,7,CLKIN*%
%TO.N,CLK_SigmaDelta*%
X170135000Y-113325000D03*
%TO.P,IC5,8,DVDD*%
%TO.N,+3.3V*%
X171405000Y-113325000D03*
%TD*%
D22*
%TO.P,C68,1*%
%TO.N,+5VD*%
X85325000Y-98200000D03*
%TO.P,C68,2*%
%TO.N,GND*%
X85325000Y-96650000D03*
%TD*%
%TO.P,C47,1*%
%TO.N,+5V_1*%
X173250000Y-100750000D03*
%TO.P,C47,2*%
%TO.N,/Line_GND*%
X173250000Y-99200000D03*
%TD*%
D50*
%TO.P,R35,2*%
%TO.N,Net-(D10-Pad1)*%
X71625000Y-82750000D03*
%TO.P,R35,1*%
%TO.N,Net-(R35-Pad1)*%
X69975000Y-82750000D03*
%TD*%
D51*
%TO.P,D8,1,K*%
%TO.N,/VDDA_A*%
X67827500Y-54975000D03*
%TO.P,D8,2,A*%
%TO.N,Net-(D8-Pad2)*%
X71827500Y-54975000D03*
%TD*%
D45*
%TO.P,IC6,1,AVDD*%
%TO.N,+5V_2*%
X122905000Y-102675000D03*
%TO.P,IC6,2,INP*%
%TO.N,Net-(C58-Pad1)*%
X121635000Y-102675000D03*
%TO.P,IC6,3,INN*%
%TO.N,Net-(C58-Pad2)*%
X120365000Y-102675000D03*
%TO.P,IC6,4,AGND*%
%TO.N,/Out_B*%
X119095000Y-102675000D03*
%TO.P,IC6,5,DGND*%
%TO.N,GNDD*%
X119095000Y-113325000D03*
%TO.P,IC6,6,DOUT*%
%TO.N,D3_Sigma_Delta*%
X120365000Y-113325000D03*
%TO.P,IC6,7,CLKIN*%
%TO.N,CLK_SigmaDelta*%
X121635000Y-113325000D03*
%TO.P,IC6,8,DVDD*%
%TO.N,+3.3V*%
X122905000Y-113325000D03*
%TD*%
D30*
%TO.P,R20,2*%
%TO.N,/Line_GND*%
X157575000Y-99000000D03*
%TO.P,R20,1*%
%TO.N,Net-(C40-Pad2)*%
X159225000Y-99000000D03*
%TD*%
D50*
%TO.P,R15,1*%
%TO.N,Net-(R15-Pad1)*%
X70025000Y-67250000D03*
%TO.P,R15,2*%
%TO.N,Net-(D7-Pad1)*%
X71675000Y-67250000D03*
%TD*%
D22*
%TO.P,C16,1*%
%TO.N,Net-(C16-Pad1)*%
X100637500Y-105525000D03*
%TO.P,C16,2*%
%TO.N,GNDD*%
X100637500Y-103975000D03*
%TD*%
D26*
%TO.P,C30,1*%
%TO.N,Net-(C30-Pad1)*%
X54775000Y-84250000D03*
%TO.P,C30,2*%
%TO.N,GNDD*%
X53225000Y-84250000D03*
%TD*%
D36*
%TO.P,J5,1,Pin_1*%
%TO.N,GNDD*%
X89400000Y-112250000D03*
D37*
%TO.P,J5,2,Pin_2*%
%TO.N,Net-(J5-Pad2)*%
X90670000Y-112250000D03*
%TD*%
D52*
%TO.P,D4,1,K*%
%TO.N,GNDD*%
X94277500Y-103500000D03*
%TO.P,D4,2,A*%
%TO.N,Net-(D4-Pad2)*%
X92702500Y-103500000D03*
%TD*%
D26*
%TO.P,C46,1*%
%TO.N,Net-(C46-Pad1)*%
X170250000Y-100750000D03*
%TO.P,C46,2*%
%TO.N,Net-(C46-Pad2)*%
X168700000Y-100750000D03*
%TD*%
D28*
%TO.P,L1,1,1*%
%TO.N,Net-(C19-Pad1)*%
X102000000Y-94500000D03*
%TO.P,L1,2,2*%
%TO.N,/Out_B*%
X102000000Y-76000000D03*
%TD*%
D50*
%TO.P,R41,1*%
%TO.N,Net-(R41-Pad1)*%
X70025000Y-92250000D03*
%TO.P,R41,2*%
%TO.N,Net-(D11-Pad1)*%
X71675000Y-92250000D03*
%TD*%
D53*
%TO.P,R10,1*%
%TO.N,/Cap_Isense*%
X123962500Y-89250000D03*
%TO.P,R10,2*%
%TO.N,/Out_B*%
X118037500Y-89250000D03*
%TD*%
D10*
%TO.P,C57,1*%
%TO.N,+3.3V*%
X122900000Y-115225000D03*
%TO.P,C57,2*%
%TO.N,GNDD*%
X122900000Y-116775000D03*
%TD*%
D30*
%TO.P,R27,1*%
%TO.N,Net-(C66-Pad1)*%
X81325000Y-95600000D03*
%TO.P,R27,2*%
%TO.N,GND*%
X79675000Y-95600000D03*
%TD*%
D22*
%TO.P,C1,1*%
%TO.N,+3.3V*%
X92750000Y-117525000D03*
%TO.P,C1,2*%
%TO.N,GNDD*%
X92750000Y-115975000D03*
%TD*%
D36*
%TO.P,J4,1,Pin_1*%
%TO.N,+3.3V*%
X108700000Y-118000000D03*
D37*
%TO.P,J4,2,Pin_2*%
%TO.N,/SWCLK*%
X108700000Y-116730000D03*
%TO.P,J4,3,Pin_3*%
%TO.N,GNDD*%
X108700000Y-115460000D03*
%TO.P,J4,4,Pin_4*%
%TO.N,/SWDIO*%
X108700000Y-114190000D03*
%TO.P,J4,5,Pin_5*%
%TO.N,/NRST*%
X108700000Y-112920000D03*
%TD*%
D10*
%TO.P,C36,1*%
%TO.N,Net-(C36-Pad1)*%
X68250000Y-95525000D03*
%TO.P,C36,2*%
%TO.N,GND*%
X68250000Y-97075000D03*
%TD*%
D35*
%TO.P,C34,1*%
%TO.N,+12V*%
X75036000Y-70850000D03*
%TO.P,C34,2*%
%TO.N,GND*%
X75036000Y-73650000D03*
%TD*%
D22*
%TO.P,C62,1*%
%TO.N,+5V*%
X143400000Y-117075000D03*
%TO.P,C62,2*%
%TO.N,GNDD*%
X143400000Y-115525000D03*
%TD*%
D40*
%TO.P,D10,1,K*%
%TO.N,Net-(D10-Pad1)*%
X73600000Y-82830000D03*
D41*
%TO.P,D10,2,A*%
%TO.N,Net-(D10-Pad2)*%
X75500000Y-82830000D03*
%TD*%
D29*
%TO.P,C2,1*%
%TO.N,+3.3V*%
X105725000Y-106750000D03*
%TO.P,C2,2*%
%TO.N,GNDD*%
X107275000Y-106750000D03*
%TD*%
D54*
%TO.P,IC3,1,D1*%
%TO.N,Net-(IC3-Pad1)*%
X56655000Y-70549500D03*
%TO.P,IC3,2,GND1*%
%TO.N,GNDD*%
X55385000Y-70549500D03*
%TO.P,IC3,3,FS*%
%TO.N,+5V*%
X54115000Y-70549500D03*
%TO.P,IC3,4,SD*%
%TO.N,GNDD*%
X52845000Y-70549500D03*
%TO.P,IC3,5,N.C.*%
%TO.N,unconnected-(IC3-Pad5)*%
X52845000Y-75973500D03*
%TO.P,IC3,6,VCC*%
%TO.N,+5V*%
X54115000Y-75973500D03*
%TO.P,IC3,7,GND2*%
%TO.N,GNDD*%
X55385000Y-75973500D03*
%TO.P,IC3,8,D2*%
%TO.N,Net-(IC3-Pad8)*%
X56655000Y-75973500D03*
%TD*%
D26*
%TO.P,C58,1*%
%TO.N,Net-(C58-Pad1)*%
X121750000Y-100700000D03*
%TO.P,C58,2*%
%TO.N,Net-(C58-Pad2)*%
X120200000Y-100700000D03*
%TD*%
D38*
%TO.P,R33,1*%
%TO.N,GNDD*%
X56000000Y-67300000D03*
%TO.P,R33,2*%
%TO.N,Net-(C11-Pad2)*%
X56000000Y-65650000D03*
%TD*%
D50*
%TO.P,R6,1*%
%TO.N,Net-(R11-Pad2)*%
X69975000Y-57750000D03*
%TO.P,R6,2*%
%TO.N,Net-(D5-Pad1)*%
X71625000Y-57750000D03*
%TD*%
D45*
%TO.P,IC4,1,AVDD*%
%TO.N,+5V_1*%
X161905000Y-102675000D03*
%TO.P,IC4,2,INP*%
%TO.N,/Line_Vsense*%
X160635000Y-102675000D03*
%TO.P,IC4,3,INN*%
%TO.N,Net-(C40-Pad2)*%
X159365000Y-102675000D03*
%TO.P,IC4,4,AGND*%
%TO.N,/Line_GND*%
X158095000Y-102675000D03*
%TO.P,IC4,5,DGND*%
%TO.N,GNDD*%
X158095000Y-113325000D03*
%TO.P,IC4,6,DOUT*%
%TO.N,D1_Sigma_Delta*%
X159365000Y-113325000D03*
%TO.P,IC4,7,CLKIN*%
%TO.N,CLK_SigmaDelta*%
X160635000Y-113325000D03*
%TO.P,IC4,8,DVDD*%
%TO.N,+3.3V*%
X161905000Y-113325000D03*
%TD*%
D22*
%TO.P,C18,1*%
%TO.N,GNDD*%
X56250000Y-62000000D03*
%TO.P,C18,2*%
%TO.N,+3.3V*%
X56250000Y-60450000D03*
%TD*%
D38*
%TO.P,R37,1*%
%TO.N,Net-(C19-Pad1)*%
X73277500Y-85955000D03*
%TO.P,R37,2*%
%TO.N,Net-(D10-Pad2)*%
X73277500Y-84305000D03*
%TD*%
D22*
%TO.P,C64,1*%
%TO.N,+3.3V*%
X86000000Y-110275000D03*
%TO.P,C64,2*%
%TO.N,GNDD*%
X86000000Y-108725000D03*
%TD*%
D27*
%TO.P,J1,1,Pin_1*%
%TO.N,Net-(C28-Pad1)*%
X201250000Y-86000000D03*
D28*
%TO.P,J1,2,Pin_2*%
%TO.N,Earth*%
X201250000Y-91080000D03*
%TO.P,J1,3,Pin_3*%
%TO.N,Net-(C22-Pad2)*%
X201250000Y-96160000D03*
%TD*%
D35*
%TO.P,C50,2*%
%TO.N,/Out_B*%
X137600000Y-101800000D03*
%TO.P,C50,1*%
%TO.N,Net-(C50-Pad1)*%
X137600000Y-99000000D03*
%TD*%
D26*
%TO.P,C66,1*%
%TO.N,Net-(C66-Pad1)*%
X81250000Y-97000000D03*
%TO.P,C66,2*%
%TO.N,Net-(C66-Pad2)*%
X79700000Y-97000000D03*
%TD*%
D51*
%TO.P,D9,1,K*%
%TO.N,/VDDA_B*%
X67827500Y-79975000D03*
%TO.P,D9,2,A*%
%TO.N,Net-(D9-Pad2)*%
X71827500Y-79975000D03*
%TD*%
D55*
%TO.P,Q5,1,G*%
%TO.N,Net-(D11-Pad2)*%
X77777500Y-91285000D03*
D56*
%TO.P,Q5,2,D*%
%TO.N,Net-(C19-Pad1)*%
X77777500Y-88745000D03*
%TO.P,Q5,3,S*%
%TO.N,GND*%
X77777500Y-86205000D03*
%TD*%
D30*
%TO.P,R12,2*%
%TO.N,/Line_GND*%
X156275000Y-95700000D03*
%TO.P,R12,1*%
%TO.N,/Line_Vsense*%
X157925000Y-95700000D03*
%TD*%
D55*
%TO.P,Q3,1,G*%
%TO.N,Net-(D7-Pad2)*%
X77777500Y-66285000D03*
D56*
%TO.P,Q3,2,D*%
%TO.N,Net-(C6-Pad2)*%
X77777500Y-63745000D03*
%TO.P,Q3,3,S*%
%TO.N,GND*%
X77777500Y-61205000D03*
%TD*%
D55*
%TO.P,Q4,1,G*%
%TO.N,Net-(D10-Pad2)*%
X80972500Y-83665000D03*
D56*
%TO.P,Q4,2,D*%
%TO.N,VBUS*%
X80972500Y-86205000D03*
%TO.P,Q4,3,S*%
%TO.N,Net-(C19-Pad1)*%
X80972500Y-88745000D03*
%TD*%
D55*
%TO.P,Q1,1,G*%
%TO.N,Net-(D5-Pad2)*%
X80972500Y-58665000D03*
D56*
%TO.P,Q1,2,D*%
%TO.N,VBUS*%
X80972500Y-61205000D03*
%TO.P,Q1,3,S*%
%TO.N,Net-(C6-Pad2)*%
X80972500Y-63745000D03*
%TD*%
D57*
%TO.N,Net-(K1-Pad3)*%
X116000000Y-71500000D03*
X117250000Y-71500000D03*
X118500000Y-71500000D03*
%TO.N,/Relay*%
X168500000Y-86800000D03*
%TO.N,VCC*%
X175400000Y-68100000D03*
%TO.N,/Relay*%
X171100000Y-68100000D03*
%TO.N,/Line_Vsense*%
X157900000Y-78562500D03*
%TO.N,GND*%
X177250000Y-101500000D03*
X78900000Y-95600000D03*
X76775000Y-96125000D03*
X177250000Y-102900000D03*
X178550000Y-102900000D03*
X178550000Y-104250000D03*
X177250000Y-104250000D03*
%TO.N,VBUS*%
X189000000Y-113500000D03*
X194500000Y-111250000D03*
X189000000Y-110500000D03*
X189000000Y-112500000D03*
X189000000Y-111500000D03*
X194500000Y-114250000D03*
X194500000Y-113250000D03*
X194500000Y-112250000D03*
%TO.N,GND*%
X112500000Y-94750000D03*
X120250000Y-82000000D03*
X92250000Y-70750000D03*
X107250000Y-61500000D03*
X135250000Y-54500000D03*
X181250000Y-58250000D03*
X181000000Y-70500000D03*
X173250000Y-72500000D03*
X181750000Y-94500000D03*
X181000000Y-80750000D03*
X178500000Y-51500000D03*
X173250000Y-60750000D03*
X154000000Y-67200000D03*
X153500000Y-78000000D03*
X153750000Y-87750000D03*
X146750000Y-92250000D03*
X160500000Y-67300000D03*
X160500000Y-89250000D03*
X164750000Y-93750000D03*
X164750000Y-81750000D03*
X169900000Y-81800000D03*
%TO.N,+3.3V*%
X75000000Y-122250000D03*
%TO.N,GNDD*%
X124000000Y-121250000D03*
%TO.N,GND*%
X151650000Y-53200000D03*
X91000000Y-54500000D03*
X101500000Y-85000000D03*
X139500000Y-83000000D03*
%TO.N,Net-(K1-Pad3)*%
X119750000Y-71500000D03*
%TO.N,/Line_Isense*%
X168750000Y-94250000D03*
%TO.N,+3.3V*%
X60000000Y-91750000D03*
X60000000Y-66750000D03*
X104800000Y-106600000D03*
X161000000Y-115325000D03*
X84500000Y-111000000D03*
X78000000Y-117250000D03*
X170500000Y-115325000D03*
X104750000Y-118500000D03*
X106750000Y-108750000D03*
X55250000Y-60500000D03*
X97500000Y-104750000D03*
X86000000Y-111000000D03*
X60000000Y-85475000D03*
X91750000Y-117500000D03*
X91750000Y-111000000D03*
X55250000Y-85500000D03*
X124400000Y-114300000D03*
X60000000Y-60475000D03*
%TO.N,GNDD*%
X57250000Y-54750000D03*
X72700000Y-122200000D03*
X102399799Y-105750000D03*
X83250000Y-117000000D03*
X60000000Y-61975000D03*
X55250000Y-93000000D03*
X70500000Y-115200000D03*
X55250000Y-68000000D03*
X172900000Y-117800000D03*
X76750000Y-106500000D03*
X85500000Y-122000000D03*
X125300000Y-116800000D03*
X51000000Y-71373500D03*
X99000000Y-104750000D03*
X143400000Y-114600000D03*
X71500000Y-123600000D03*
X96250000Y-103500000D03*
X130655000Y-118155000D03*
X149326500Y-115615000D03*
X105387500Y-102362500D03*
X97000000Y-110000000D03*
X103750000Y-110000000D03*
X55250000Y-62000000D03*
X87000000Y-108750000D03*
X163400000Y-117800000D03*
X130615000Y-115615000D03*
X78600000Y-111000000D03*
X55250000Y-87000000D03*
X161900000Y-117800000D03*
X95250000Y-103500000D03*
X174500000Y-122750000D03*
X171400000Y-117800000D03*
X55385000Y-74473500D03*
X146645000Y-118155000D03*
X157250000Y-122000000D03*
X119095000Y-114705000D03*
X97250000Y-115750000D03*
X166750000Y-114000000D03*
X52250000Y-84250000D03*
X170500000Y-116900000D03*
X91750000Y-109500000D03*
X100750000Y-113000000D03*
X133385000Y-115615000D03*
X106850000Y-105650000D03*
X53700000Y-107000000D03*
X146596500Y-115615000D03*
X161000000Y-116900000D03*
X55385000Y-72223500D03*
X52250000Y-59250000D03*
X168500000Y-121500000D03*
X103750000Y-116250000D03*
X158130378Y-114630378D03*
X141500000Y-118250000D03*
X107750000Y-111000000D03*
X104000000Y-120299500D03*
X57250000Y-79750000D03*
X124400000Y-117700000D03*
X100637500Y-102862500D03*
X136500000Y-114600000D03*
X60000000Y-86975000D03*
X83500000Y-108750000D03*
X63000000Y-113250000D03*
X117950000Y-117000000D03*
X122900000Y-117700000D03*
X91750000Y-116000000D03*
X96500000Y-122750000D03*
%TO.N,VBUS*%
X84750000Y-56500000D03*
X84750000Y-55500000D03*
X84750000Y-81750000D03*
X84750000Y-79750000D03*
X84750000Y-78750000D03*
X84750000Y-80750000D03*
X84750000Y-77750000D03*
X84750000Y-52500000D03*
X84750000Y-53500000D03*
X84750000Y-54500000D03*
X94100000Y-92500000D03*
X84750000Y-51500000D03*
X84750000Y-76750000D03*
%TO.N,GND*%
X68500000Y-73300000D03*
X75036000Y-75000000D03*
X77250000Y-79750000D03*
X67030000Y-92845000D03*
X77250000Y-53500000D03*
X73250000Y-98800000D03*
X77250000Y-80750000D03*
X77250000Y-77750000D03*
X67827500Y-67850000D03*
X67027500Y-67850000D03*
X74277500Y-89005000D03*
X77250000Y-55500000D03*
X77250000Y-78750000D03*
X164750000Y-59500000D03*
X68250000Y-98050000D03*
X74277500Y-64005000D03*
X122600000Y-61500000D03*
X77250000Y-54500000D03*
X77250000Y-81750000D03*
X77250000Y-56500000D03*
X83050000Y-96650000D03*
X67830000Y-92845000D03*
X77250000Y-51500000D03*
X77900000Y-98400000D03*
X68627500Y-67850000D03*
X77250000Y-52500000D03*
X69725000Y-69612500D03*
X71250000Y-96550000D03*
X77250000Y-76750000D03*
X68630000Y-92845000D03*
%TO.N,/NRST*%
X99000000Y-102500000D03*
%TO.N,+5VD*%
X69900000Y-98800000D03*
X83100000Y-98600000D03*
%TO.N,Net-(C12-Pad1)*%
X60000000Y-63500000D03*
X72500000Y-104500000D03*
X60000000Y-88250000D03*
%TO.N,/Line_GND*%
X158095000Y-100805500D03*
X163750000Y-98250000D03*
X144600000Y-101525000D03*
X171750000Y-98250000D03*
X156250000Y-98000000D03*
X176250000Y-83500000D03*
X150800000Y-98700000D03*
X162250000Y-98250000D03*
X153600000Y-98400000D03*
X167600000Y-100800000D03*
X173250000Y-98250000D03*
X173250000Y-97250000D03*
X148000000Y-102400000D03*
X176719804Y-86219804D03*
%TO.N,+5V_1*%
X172750000Y-102000000D03*
X156500000Y-102000000D03*
X163250000Y-102000000D03*
%TO.N,+5V*%
X139815000Y-116885000D03*
X51000000Y-75000000D03*
X80000000Y-123500000D03*
X51000000Y-105500000D03*
%TO.N,/Out_B*%
X118400000Y-99400000D03*
X132000000Y-102400000D03*
X127400000Y-102900000D03*
X119000000Y-100000000D03*
X135400000Y-101800000D03*
X124725000Y-98325000D03*
X130200000Y-97600000D03*
X123250000Y-98325000D03*
%TO.N,Net-(C6-Pad2)*%
X70150000Y-60750000D03*
X69300000Y-60750000D03*
%TO.N,/Line_Isense*%
X170250000Y-95750000D03*
X175250000Y-82500000D03*
%TO.N,Net-(C66-Pad1)*%
X82950000Y-92500000D03*
%TO.N,PWM_A_L*%
X57250000Y-96000000D03*
X53250000Y-68000000D03*
%TO.N,PWM_A_H*%
X51500000Y-69250000D03*
X53750000Y-104750000D03*
%TO.N,/Relay*%
X117000000Y-115000000D03*
%TO.N,Net-(C19-Pad1)*%
X70150000Y-85750000D03*
X69300000Y-85750000D03*
%TO.N,+12V*%
X69300000Y-89250000D03*
X70127500Y-89250000D03*
X70127500Y-64250000D03*
X71862500Y-74473500D03*
X69300000Y-64250000D03*
X71275000Y-69525000D03*
X73250000Y-78000000D03*
X75000000Y-56000000D03*
X72500000Y-94750000D03*
%TO.N,/VDDA_A*%
X68627500Y-57100000D03*
X67027500Y-57100000D03*
X67827500Y-57100000D03*
%TO.N,/VDDA_B*%
X67830000Y-82095000D03*
X67030000Y-82095000D03*
X68630000Y-82095000D03*
%TD*%
D58*
%TO.N,Net-(D7-Pad2)*%
X77652500Y-66160000D02*
X77777500Y-66285000D01*
X76642500Y-66160000D02*
X77652500Y-66160000D01*
%TO.N,Net-(D11-Pad2)*%
X77652500Y-91160000D02*
X77777500Y-91285000D01*
X75607500Y-91160000D02*
X77652500Y-91160000D01*
X71675000Y-90700000D02*
X75147500Y-90700000D01*
X75147500Y-90700000D02*
X75607500Y-91160000D01*
%TO.N,GND*%
X68500000Y-73300000D02*
X67682500Y-73300000D01*
%TO.N,+12V*%
X71750000Y-70922000D02*
X71301500Y-70473500D01*
X71750000Y-73187500D02*
X71750000Y-70922000D01*
D59*
%TO.N,VCC*%
X179000000Y-81375000D02*
X179000000Y-78250000D01*
X182000000Y-84375000D02*
X179000000Y-81375000D01*
X175400000Y-118800000D02*
X175400000Y-98100000D01*
X169900000Y-124300000D02*
X175400000Y-118800000D01*
X84050000Y-124300000D02*
X169900000Y-124300000D01*
X79250000Y-119500000D02*
X84050000Y-124300000D01*
X175400000Y-98100000D02*
X182000000Y-91500000D01*
X69750000Y-119500000D02*
X79250000Y-119500000D01*
X182000000Y-91500000D02*
X182000000Y-84375000D01*
X68250000Y-121000000D02*
X69750000Y-119500000D01*
D60*
%TO.N,Net-(K1-Pad3)*%
X149750000Y-63500000D02*
X143750000Y-63500000D01*
D58*
%TO.N,/Relay*%
X167000000Y-85300000D02*
X167000000Y-77972500D01*
X168500000Y-86800000D02*
X167000000Y-85300000D01*
D61*
%TO.N,/Line_Vsense*%
X157900000Y-95700000D02*
X157900000Y-78562500D01*
D62*
%TO.N,/Line_GND*%
X173250000Y-89689608D02*
X173250000Y-98250000D01*
X176719804Y-86219804D02*
X173250000Y-89689608D01*
%TO.N,VCC*%
X175400000Y-69500000D02*
X179000000Y-73100000D01*
X175400000Y-68100000D02*
X175400000Y-69500000D01*
X179000000Y-73100000D02*
X179000000Y-77972500D01*
D58*
%TO.N,/Relay*%
X167300000Y-77672500D02*
X167300000Y-73300000D01*
X167300000Y-73300000D02*
X171100000Y-69500000D01*
X171100000Y-69500000D02*
X171100000Y-68100000D01*
D62*
X171100000Y-68100000D02*
X171100000Y-58600000D01*
X171100000Y-58600000D02*
X167500000Y-55000000D01*
D61*
%TO.N,/Line_Vsense*%
X157925000Y-95725000D02*
X157925000Y-95700000D01*
X159550000Y-97350000D02*
X157925000Y-95725000D01*
D63*
%TO.N,GNDD*%
X63000000Y-113725000D02*
X61925000Y-114800000D01*
D58*
X63000000Y-113250000D02*
X63000000Y-113725000D01*
D62*
X63150000Y-114800000D02*
X64500000Y-113450000D01*
X64500000Y-113450000D02*
X63200000Y-113450000D01*
D58*
X63200000Y-113450000D02*
X63000000Y-113250000D01*
D60*
X63170000Y-121000000D02*
X63170000Y-116045000D01*
X63170000Y-116045000D02*
X61925000Y-114800000D01*
D64*
%TO.N,+3.3V*%
X59830000Y-91920000D02*
X58350000Y-91920000D01*
X60000000Y-91750000D02*
X59830000Y-91920000D01*
D59*
X59830000Y-66920000D02*
X58350000Y-66920000D01*
X60000000Y-66750000D02*
X59830000Y-66920000D01*
D61*
%TO.N,GNDD*%
X57275000Y-79725000D02*
X58250000Y-79725000D01*
X57250000Y-79750000D02*
X57275000Y-79725000D01*
%TO.N,Net-(C29-Pad1)*%
X58350000Y-81375000D02*
X58250000Y-81275000D01*
X58350000Y-83030000D02*
X58350000Y-81375000D01*
D64*
%TO.N,GNDD*%
X57275000Y-54725000D02*
X58250000Y-54725000D01*
X57250000Y-54750000D02*
X57275000Y-54725000D01*
%TO.N,Net-(C13-Pad1)*%
X58350000Y-56375000D02*
X58250000Y-56275000D01*
X58350000Y-58030000D02*
X58350000Y-56375000D01*
D60*
%TO.N,/Cap_Isense*%
X124750000Y-89250000D02*
X134000000Y-89250000D01*
D61*
%TO.N,/Line_GND*%
X158095000Y-100805500D02*
X158095000Y-102675000D01*
%TO.N,Net-(C66-Pad1)*%
X81250000Y-97000000D02*
X81250000Y-95575000D01*
D58*
%TO.N,VCC*%
X61925000Y-110200000D02*
X63150000Y-110200000D01*
X63150000Y-110200000D02*
X64500000Y-111550000D01*
D61*
%TO.N,Net-(IC7-Pad1)*%
X145460000Y-112435000D02*
X145460000Y-114134500D01*
X145460000Y-114134500D02*
X145249500Y-114345000D01*
D58*
%TO.N,GND*%
X73250000Y-98800000D02*
X72225000Y-98800000D01*
X73250000Y-98800000D02*
X74300000Y-98800000D01*
D64*
%TO.N,+12V*%
X73500000Y-97250000D02*
X74300000Y-97250000D01*
D61*
%TO.N,+5VD*%
X83400000Y-98200000D02*
X83875000Y-98200000D01*
X83100000Y-98600000D02*
X83100000Y-98500000D01*
X83100000Y-98500000D02*
X83400000Y-98200000D01*
X82775000Y-98925000D02*
X82405000Y-98925000D01*
X83100000Y-98600000D02*
X82775000Y-98925000D01*
%TO.N,GND*%
X78425000Y-98925000D02*
X78595000Y-98925000D01*
X77900000Y-98400000D02*
X78425000Y-98925000D01*
D58*
%TO.N,+5VD*%
X69900000Y-98800000D02*
X70675000Y-98800000D01*
D61*
X70225000Y-98350000D02*
X70225000Y-97725000D01*
X70675000Y-98800000D02*
X70225000Y-98350000D01*
%TO.N,GND*%
X83050000Y-96650000D02*
X83875000Y-96650000D01*
D58*
%TO.N,Net-(C66-Pad1)*%
X81325000Y-94125000D02*
X82950000Y-92500000D01*
X81325000Y-95600000D02*
X81325000Y-94125000D01*
%TO.N,GND*%
X79675000Y-95600000D02*
X78900000Y-95600000D01*
X76775000Y-96125000D02*
X76775000Y-97000000D01*
%TO.N,Net-(C66-Pad2)*%
X78425000Y-97000000D02*
X79700000Y-97000000D01*
D61*
%TO.N,/Line_GND*%
X156300000Y-97950000D02*
X156300000Y-95725000D01*
%TO.N,/Line_Vsense*%
X160750000Y-98550000D02*
X160750000Y-99500000D01*
X159550000Y-97350000D02*
X160750000Y-98550000D01*
%TO.N,/Line_GND*%
X156225000Y-99000000D02*
X157575000Y-99000000D01*
X156200000Y-99025000D02*
X156225000Y-99000000D01*
D65*
%TO.N,VBUS*%
X194900000Y-109100000D02*
X191750000Y-112250000D01*
X197660000Y-106340000D02*
X194900000Y-109100000D01*
D66*
%TO.N,Net-(C22-Pad2)*%
X200910000Y-96500000D02*
X201250000Y-96160000D01*
X196500000Y-96500000D02*
X200910000Y-96500000D01*
X196000000Y-96000000D02*
X196500000Y-96500000D01*
%TO.N,Net-(C28-Pad1)*%
X196000000Y-86500000D02*
X200750000Y-86500000D01*
X196000000Y-85000000D02*
X196000000Y-86500000D01*
X201900000Y-79100000D02*
X196000000Y-85000000D01*
X201900000Y-74750000D02*
X201900000Y-79100000D01*
%TO.N,Net-(C22-Pad2)*%
X196000000Y-91500000D02*
X196000000Y-96000000D01*
X192500000Y-88000000D02*
X196000000Y-91500000D01*
X192500000Y-83000000D02*
X192500000Y-88000000D01*
X198000000Y-73500000D02*
X198000000Y-77500000D01*
X201900000Y-69600000D02*
X198000000Y-73500000D01*
X201900000Y-64750000D02*
X201900000Y-69600000D01*
X198000000Y-77500000D02*
X192500000Y-83000000D01*
%TO.N,Net-(C28-Pad1)*%
X200750000Y-86500000D02*
X201250000Y-86000000D01*
D65*
%TO.N,GND*%
X192740000Y-101260000D02*
X181750000Y-112250000D01*
X201250000Y-101260000D02*
X192740000Y-101260000D01*
%TO.N,VBUS*%
X201250000Y-106340000D02*
X197660000Y-106340000D01*
D60*
%TO.N,Net-(K1-Pad1)*%
X173000000Y-54700000D02*
X183050000Y-64750000D01*
X183050000Y-64750000D02*
X184250000Y-64750000D01*
X173000000Y-53000000D02*
X173000000Y-54700000D01*
D58*
%TO.N,GND*%
X75036000Y-75000000D02*
X75036000Y-73650000D01*
X69725000Y-69612500D02*
X69725000Y-70500000D01*
%TO.N,+12V*%
X71275000Y-69525000D02*
X71275000Y-70500000D01*
D61*
X71862500Y-73300000D02*
X71750000Y-73187500D01*
D58*
X71301500Y-70473500D02*
X74512500Y-70473500D01*
D60*
%TO.N,/Out_B*%
X102000000Y-76000000D02*
X142250000Y-76000000D01*
X142250000Y-76000000D02*
X146750000Y-71500000D01*
%TO.N,Net-(K1-Pad3)*%
X135750000Y-71500000D02*
X121750000Y-71500000D01*
X143750000Y-63500000D02*
X135750000Y-71500000D01*
X121750000Y-71500000D02*
X102000000Y-71500000D01*
%TO.N,Net-(K2-Pad3)*%
X162000000Y-85200000D02*
X167000000Y-90200000D01*
X162000000Y-72050000D02*
X162000000Y-85200000D01*
X162550000Y-71500000D02*
X162000000Y-72050000D01*
D58*
%TO.N,GNDD*%
X168500000Y-121500000D02*
X168500000Y-122475000D01*
D61*
%TO.N,/Line_GND*%
X168750000Y-95750000D02*
X168750000Y-97675000D01*
X176250000Y-83500000D02*
X171500000Y-88250000D01*
X171500000Y-93000000D02*
X168750000Y-95750000D01*
X171500000Y-88250000D02*
X171500000Y-93000000D01*
%TO.N,/Line_Isense*%
X170250000Y-92750000D02*
X168750000Y-94250000D01*
X170250000Y-87500000D02*
X170250000Y-92750000D01*
X175250000Y-82500000D02*
X170250000Y-87500000D01*
%TO.N,GNDD*%
X117950000Y-117000000D02*
X117950000Y-118187500D01*
D67*
%TO.N,/Relay_Ctrl*%
X112850000Y-121400000D02*
X103000000Y-121400000D01*
X116050000Y-118187500D02*
X116050000Y-118200000D01*
X116050000Y-118200000D02*
X112850000Y-121400000D01*
X103000000Y-121400000D02*
X102000000Y-120400000D01*
X102000000Y-120400000D02*
X102000000Y-118925000D01*
D61*
%TO.N,+5V*%
X51000000Y-73998500D02*
X51000000Y-75000000D01*
D58*
%TO.N,+3.3V*%
X75000000Y-123650000D02*
X75000000Y-122250000D01*
%TO.N,/Out_B*%
X124725000Y-98325000D02*
X124725000Y-99175000D01*
X123250000Y-98325000D02*
X123250000Y-99175000D01*
D59*
%TO.N,Net-(C58-Pad1)*%
X121738530Y-100700000D02*
X121750000Y-100700000D01*
D61*
%TO.N,Net-(C58-Pad2)*%
X120200000Y-100700000D02*
X120200000Y-99313530D01*
D59*
%TO.N,Net-(C58-Pad1)*%
X121635000Y-100803530D02*
X121738530Y-100700000D01*
D61*
X121750000Y-100700000D02*
X121750000Y-99263530D01*
D59*
%TO.N,Net-(C58-Pad2)*%
X120211470Y-100700000D02*
X120200000Y-100700000D01*
X120365000Y-100853530D02*
X120211470Y-100700000D01*
D58*
%TO.N,/Out_B*%
X124725000Y-99175000D02*
X123250000Y-99175000D01*
D61*
%TO.N,+5V_2*%
X122905000Y-101070000D02*
X123250000Y-100725000D01*
X122905000Y-102675000D02*
X122905000Y-101070000D01*
D58*
X123250000Y-100725000D02*
X123261470Y-100713530D01*
X123261470Y-100713530D02*
X124786470Y-100713530D01*
D59*
X124786470Y-100713530D02*
X124736470Y-100713530D01*
X124736470Y-100713530D02*
X124725000Y-100725000D01*
X124975000Y-100725000D02*
X126450000Y-99250000D01*
X124725000Y-100725000D02*
X124975000Y-100725000D01*
D61*
%TO.N,/Line_GND*%
X167600000Y-100800000D02*
X167595000Y-100805000D01*
X167595000Y-100805000D02*
X167595000Y-102675000D01*
%TO.N,GND*%
X85325000Y-96650000D02*
X83875000Y-96650000D01*
%TO.N,+5VD*%
X85325000Y-98200000D02*
X83875000Y-98200000D01*
D68*
%TO.N,D4_Sigma_Delta*%
X79865000Y-111115000D02*
X79865000Y-109575000D01*
X81000000Y-112250000D02*
X79865000Y-111115000D01*
X90000000Y-108500000D02*
X86250000Y-112250000D01*
X95000000Y-108500000D02*
X90000000Y-108500000D01*
X86250000Y-112250000D02*
X81000000Y-112250000D01*
D67*
X95800000Y-114080330D02*
X95800000Y-109300000D01*
X95800000Y-109300000D02*
X95000000Y-108500000D01*
X95380330Y-114500000D02*
X95800000Y-114080330D01*
X94575000Y-114500000D02*
X95380330Y-114500000D01*
D61*
%TO.N,+5V*%
X51000000Y-108000000D02*
X55075000Y-112075000D01*
X51000000Y-105500000D02*
X51000000Y-108000000D01*
X55075000Y-112075000D02*
X55075000Y-112500000D01*
D68*
%TO.N,PWM_B_L*%
X52500000Y-99500000D02*
X52500000Y-92300000D01*
X58750000Y-105750000D02*
X52500000Y-99500000D01*
X69500000Y-105750000D02*
X58750000Y-105750000D01*
X93317418Y-114250000D02*
X78000000Y-114250000D01*
X78000000Y-114250000D02*
X69500000Y-105750000D01*
D67*
X93567418Y-114000000D02*
X93317418Y-114250000D01*
X94575000Y-114000000D02*
X93567418Y-114000000D01*
D68*
%TO.N,Net-(J5-Pad2)*%
X92850000Y-112250000D02*
X90670000Y-112250000D01*
D67*
X93600000Y-111500000D02*
X92850000Y-112250000D01*
X94575000Y-111500000D02*
X93600000Y-111500000D01*
%TO.N,PWM_A_L*%
X93700000Y-112500000D02*
X94575000Y-112500000D01*
X92700000Y-113500000D02*
X93700000Y-112500000D01*
D68*
X70250000Y-104750000D02*
X79000000Y-113500000D01*
X79000000Y-113500000D02*
X92700000Y-113500000D01*
X57250000Y-102250000D02*
X59750000Y-104750000D01*
X59750000Y-104750000D02*
X70250000Y-104750000D01*
X57250000Y-96000000D02*
X57250000Y-102250000D01*
%TO.N,PWM_B_H*%
X51000000Y-100250000D02*
X51000000Y-92300000D01*
X57500000Y-106750000D02*
X51000000Y-100250000D01*
X68500000Y-106750000D02*
X57500000Y-106750000D01*
X83250000Y-115000000D02*
X76750000Y-115000000D01*
D67*
X95750000Y-117250000D02*
X94500000Y-118500000D01*
X101000000Y-117600000D02*
X100650000Y-117250000D01*
D68*
X86750000Y-118500000D02*
X83250000Y-115000000D01*
X76750000Y-115000000D02*
X68500000Y-106750000D01*
D67*
X101000000Y-118925000D02*
X101000000Y-117600000D01*
X100650000Y-117250000D02*
X95750000Y-117250000D01*
D68*
X94500000Y-118500000D02*
X86750000Y-118500000D01*
D67*
%TO.N,PWM_A_H*%
X100500000Y-118000000D02*
X100500000Y-118925000D01*
X100250000Y-117750000D02*
X100500000Y-118000000D01*
X96250000Y-117750000D02*
X100250000Y-117750000D01*
D68*
X83500000Y-119750000D02*
X94250000Y-119750000D01*
D67*
X94250000Y-119750000D02*
X96250000Y-117750000D01*
D68*
X56750000Y-107750000D02*
X67750000Y-107750000D01*
X79500000Y-115750000D02*
X83500000Y-119750000D01*
X53750000Y-104750000D02*
X56750000Y-107750000D01*
X67750000Y-107750000D02*
X75750000Y-115750000D01*
X75750000Y-115750000D02*
X79500000Y-115750000D01*
D60*
%TO.N,Net-(K1-Pad3)*%
X163750000Y-63500000D02*
X149750000Y-63500000D01*
X167000000Y-66750000D02*
X163750000Y-63500000D01*
X167000000Y-67200000D02*
X167000000Y-66750000D01*
%TO.N,/Out_B*%
X115250000Y-89250000D02*
X117250000Y-89250000D01*
D61*
%TO.N,/Line_Isense*%
X170250000Y-97675000D02*
X170250000Y-95750000D01*
D64*
%TO.N,+3.3V*%
X106775000Y-118375000D02*
X106700000Y-118300000D01*
D68*
X106675000Y-108750000D02*
X105925000Y-109500000D01*
D61*
X122905000Y-113325000D02*
X122905000Y-115220000D01*
D68*
X104000000Y-107575000D02*
X104000000Y-107400000D01*
D61*
X83105000Y-110275000D02*
X82405000Y-109575000D01*
D64*
X58350000Y-60570000D02*
X59905000Y-60570000D01*
D58*
X91750000Y-117500000D02*
X92725000Y-117500000D01*
D64*
X56200000Y-60500000D02*
X56250000Y-60450000D01*
D68*
X93275000Y-110500000D02*
X92750000Y-111025000D01*
D58*
X106700000Y-118300000D02*
X104950000Y-118300000D01*
X170500000Y-115325000D02*
X171400000Y-115325000D01*
X91750000Y-111000000D02*
X92725000Y-111000000D01*
X124400000Y-115225000D02*
X122900000Y-115225000D01*
X161900000Y-115325000D02*
X163400000Y-115325000D01*
D61*
X171405000Y-113325000D02*
X171405000Y-115180000D01*
D68*
X92725000Y-117500000D02*
X92750000Y-117525000D01*
D58*
X72975000Y-115325000D02*
X75000000Y-117350000D01*
X84500000Y-110275000D02*
X86000000Y-110275000D01*
X75100000Y-117250000D02*
X75000000Y-117350000D01*
X97500000Y-104750000D02*
X97500000Y-105725000D01*
D61*
X171405000Y-115180000D02*
X171475000Y-115250000D01*
D64*
X56370000Y-85570000D02*
X56250000Y-85450000D01*
D58*
X78000000Y-117250000D02*
X75100000Y-117250000D01*
D67*
X104775000Y-106750000D02*
X105725000Y-106750000D01*
D58*
X108700000Y-118000000D02*
X107000000Y-118000000D01*
D68*
X104325000Y-118925000D02*
X104000000Y-118925000D01*
D58*
X105575000Y-106600000D02*
X104800000Y-106600000D01*
X124400000Y-115225000D02*
X124400000Y-114300000D01*
D64*
X106775000Y-120000000D02*
X106775000Y-118375000D01*
D68*
X106750000Y-108750000D02*
X106675000Y-108750000D01*
D64*
X55250000Y-85500000D02*
X56200000Y-85500000D01*
D68*
X98000000Y-107575000D02*
X98000000Y-106275000D01*
D58*
X86000000Y-110275000D02*
X86000000Y-111000000D01*
D64*
X58350000Y-85570000D02*
X56370000Y-85570000D01*
D58*
X104950000Y-118300000D02*
X104750000Y-118500000D01*
X84500000Y-110275000D02*
X84500000Y-111000000D01*
X171400000Y-115325000D02*
X172900000Y-115325000D01*
X106750000Y-108750000D02*
X106875000Y-108625000D01*
X105725000Y-106750000D02*
X105575000Y-106600000D01*
D64*
X56370000Y-60570000D02*
X56250000Y-60450000D01*
D68*
X98000000Y-106275000D02*
X97475000Y-105750000D01*
D64*
X56200000Y-85500000D02*
X56250000Y-85450000D01*
D68*
X97500000Y-105725000D02*
X97475000Y-105750000D01*
D58*
X72975000Y-115200000D02*
X72975000Y-115325000D01*
D64*
X58350000Y-60570000D02*
X56370000Y-60570000D01*
D68*
X94575000Y-117000000D02*
X93275000Y-117000000D01*
D61*
X161905000Y-113325000D02*
X161905000Y-115320000D01*
D58*
X161900000Y-115325000D02*
X161000000Y-115325000D01*
X107000000Y-118000000D02*
X106700000Y-118300000D01*
D61*
X84500000Y-110275000D02*
X83105000Y-110275000D01*
D64*
X55250000Y-60500000D02*
X56200000Y-60500000D01*
X58350000Y-85570000D02*
X59905000Y-85570000D01*
D68*
X104000000Y-107400000D02*
X104800000Y-106600000D01*
D58*
X106875000Y-108625000D02*
X107750000Y-108625000D01*
D64*
X59905000Y-85570000D02*
X60000000Y-85475000D01*
D68*
X122905000Y-115220000D02*
X122900000Y-115225000D01*
X94575000Y-110500000D02*
X93275000Y-110500000D01*
D64*
X59905000Y-60570000D02*
X60000000Y-60475000D01*
D68*
X92725000Y-111000000D02*
X92750000Y-111025000D01*
X93275000Y-117000000D02*
X92750000Y-117525000D01*
X104750000Y-118500000D02*
X104325000Y-118925000D01*
D64*
%TO.N,GNDD*%
X55250000Y-62000000D02*
X56250000Y-62000000D01*
D61*
X130655000Y-118155000D02*
X129249500Y-118155000D01*
D58*
X124400000Y-116775000D02*
X125275000Y-116775000D01*
D61*
X52845000Y-70549500D02*
X51824000Y-70549500D01*
D58*
X55250000Y-68000000D02*
X54500000Y-67250000D01*
D61*
X119095000Y-114705000D02*
X119095000Y-113325000D01*
D64*
X56410000Y-86840000D02*
X56250000Y-87000000D01*
D68*
X103625000Y-103112500D02*
X103625000Y-102925000D01*
D58*
X161900000Y-116875000D02*
X161025000Y-116875000D01*
X55250000Y-93000000D02*
X55200000Y-93000000D01*
D64*
X55250000Y-87000000D02*
X56250000Y-87000000D01*
X54725000Y-63475000D02*
X54725000Y-62525000D01*
D68*
X92725000Y-109500000D02*
X92750000Y-109475000D01*
D58*
X136500000Y-115525000D02*
X136500000Y-114600000D01*
X61925000Y-114800000D02*
X63150000Y-114800000D01*
X171400000Y-116875000D02*
X172900000Y-116875000D01*
X102375000Y-104575000D02*
X102375000Y-105725201D01*
D61*
X158130378Y-114630378D02*
X158095000Y-114595000D01*
D58*
X71550000Y-123650000D02*
X71500000Y-123600000D01*
X91750000Y-116000000D02*
X92725000Y-116000000D01*
X95250000Y-103500000D02*
X94277500Y-103500000D01*
X99000000Y-104750000D02*
X99000000Y-105725000D01*
D64*
X59865000Y-61840000D02*
X60000000Y-61975000D01*
X59865000Y-86840000D02*
X60000000Y-86975000D01*
D58*
X161025000Y-116875000D02*
X161000000Y-116900000D01*
X170500000Y-116900000D02*
X170525000Y-116875000D01*
D64*
X58350000Y-61840000D02*
X59865000Y-61840000D01*
D61*
X134673500Y-115615000D02*
X136410000Y-115615000D01*
D68*
X107750000Y-110275000D02*
X107475000Y-110000000D01*
X104000000Y-120299500D02*
X103500000Y-119799500D01*
D58*
X96250000Y-103500000D02*
X97475000Y-103500000D01*
X163400000Y-116875000D02*
X163400000Y-117800000D01*
X86975000Y-108725000D02*
X87000000Y-108750000D01*
D61*
X78600000Y-111000000D02*
X78595000Y-110995000D01*
D58*
X55200000Y-93000000D02*
X54500000Y-92300000D01*
X51000000Y-72448500D02*
X51000000Y-71373500D01*
D68*
X94575000Y-110000000D02*
X93275000Y-110000000D01*
D58*
X107750000Y-111000000D02*
X107750000Y-110275000D01*
X104187500Y-102362500D02*
X105387500Y-102362500D01*
D68*
X104925500Y-120299500D02*
X105225000Y-120000000D01*
D58*
X55250000Y-93000000D02*
X56000000Y-92250000D01*
D68*
X103500000Y-119799500D02*
X103500000Y-118925000D01*
X104000000Y-120299500D02*
X104925500Y-120299500D01*
D58*
X106850000Y-105650000D02*
X106850000Y-106325000D01*
X143400000Y-114600000D02*
X143400000Y-115525000D01*
X72700000Y-123650000D02*
X72700000Y-122200000D01*
X55950000Y-67300000D02*
X55250000Y-68000000D01*
X84500000Y-108725000D02*
X83525000Y-108725000D01*
D61*
X145249500Y-115615000D02*
X143490000Y-115615000D01*
D68*
X102375000Y-104362500D02*
X103625000Y-103112500D01*
D58*
X100637500Y-102862500D02*
X100637500Y-103975000D01*
D68*
X93275000Y-110000000D02*
X92750000Y-109475000D01*
D58*
X83525000Y-108725000D02*
X83500000Y-108750000D01*
X122900000Y-117700000D02*
X122900000Y-116775000D01*
D68*
X98500000Y-106275000D02*
X99025000Y-105750000D01*
D61*
X146645000Y-118155000D02*
X145249500Y-118155000D01*
X143490000Y-115615000D02*
X143400000Y-115525000D01*
D64*
X58350000Y-86840000D02*
X56410000Y-86840000D01*
D58*
X102375000Y-105725201D02*
X102399799Y-105750000D01*
X124400000Y-116775000D02*
X122900000Y-116775000D01*
D61*
X55385000Y-75973500D02*
X55385000Y-74473500D01*
D68*
X93275000Y-116500000D02*
X92750000Y-115975000D01*
D61*
X146596500Y-115615000D02*
X145249500Y-115615000D01*
D58*
X84500000Y-108725000D02*
X86000000Y-108725000D01*
D64*
X53225000Y-84250000D02*
X52250000Y-84250000D01*
D58*
X161900000Y-116875000D02*
X161900000Y-117800000D01*
X86000000Y-108725000D02*
X86975000Y-108725000D01*
D61*
X51824000Y-70549500D02*
X51000000Y-71373500D01*
X133385000Y-115615000D02*
X134673500Y-115615000D01*
D64*
X56410000Y-61840000D02*
X56250000Y-62000000D01*
D61*
X158095000Y-114595000D02*
X158095000Y-113325000D01*
D64*
X53225000Y-59250000D02*
X52250000Y-59250000D01*
D58*
X52775000Y-107000000D02*
X53700000Y-107000000D01*
D61*
X166750000Y-114000000D02*
X166920000Y-114000000D01*
D58*
X91750000Y-109500000D02*
X92725000Y-109500000D01*
X171400000Y-116875000D02*
X171400000Y-117800000D01*
D64*
X58350000Y-86840000D02*
X59865000Y-86840000D01*
X54725000Y-62525000D02*
X55250000Y-62000000D01*
D61*
X149326500Y-115615000D02*
X150673500Y-115615000D01*
D58*
X56000000Y-67300000D02*
X55950000Y-67300000D01*
X172900000Y-116875000D02*
X172900000Y-117800000D01*
X72700000Y-123650000D02*
X71550000Y-123650000D01*
D64*
X58350000Y-61840000D02*
X56410000Y-61840000D01*
D58*
X163400000Y-116875000D02*
X161900000Y-116875000D01*
D61*
X136410000Y-115615000D02*
X136500000Y-115525000D01*
D58*
X124400000Y-116775000D02*
X124400000Y-117700000D01*
X106850000Y-106325000D02*
X107275000Y-106750000D01*
D61*
X78595000Y-110995000D02*
X78595000Y-109575000D01*
D68*
X92725000Y-116000000D02*
X92750000Y-115975000D01*
D58*
X105387500Y-103725000D02*
X105387500Y-102362500D01*
D61*
X130615000Y-115615000D02*
X129249500Y-115615000D01*
D58*
X125275000Y-116775000D02*
X125300000Y-116800000D01*
D64*
X54725000Y-87525000D02*
X55250000Y-87000000D01*
D61*
X166920000Y-114000000D02*
X167595000Y-113325000D01*
D68*
X102375000Y-104575000D02*
X102375000Y-104362500D01*
X98500000Y-107575000D02*
X98500000Y-106275000D01*
D64*
X54725000Y-88475000D02*
X54725000Y-87525000D01*
D61*
X55385000Y-70549500D02*
X55385000Y-72223500D01*
D68*
X99000000Y-105725000D02*
X99025000Y-105750000D01*
X94575000Y-116500000D02*
X93275000Y-116500000D01*
D58*
X71425000Y-115200000D02*
X70500000Y-115200000D01*
X170525000Y-116875000D02*
X171400000Y-116875000D01*
D68*
X107475000Y-110000000D02*
X105925000Y-110000000D01*
D58*
X103625000Y-102925000D02*
X104187500Y-102362500D01*
%TO.N,GND*%
X74277500Y-64005000D02*
X73277500Y-64005000D01*
X74277500Y-89005000D02*
X73277500Y-89005000D01*
X68250000Y-97075000D02*
X68250000Y-98050000D01*
D61*
X72500000Y-96550000D02*
X71250000Y-96550000D01*
D68*
%TO.N,/NRST*%
X99025000Y-103500000D02*
X99800000Y-104275000D01*
X100740685Y-106475000D02*
X101000000Y-106734315D01*
X99800000Y-106300000D02*
X99975000Y-106475000D01*
X99025000Y-102525000D02*
X99025000Y-103500000D01*
X101000000Y-106734315D02*
X101000000Y-107575000D01*
X99000000Y-102500000D02*
X99025000Y-102525000D01*
X99800000Y-104275000D02*
X99800000Y-106300000D01*
X99975000Y-106475000D02*
X100740685Y-106475000D01*
D64*
%TO.N,+5VD*%
X70225000Y-97725000D02*
X70000000Y-97500000D01*
%TO.N,Net-(C12-Pad1)*%
X59610000Y-63110000D02*
X60000000Y-63500000D01*
X58350000Y-88110000D02*
X59860000Y-88110000D01*
X56640000Y-88110000D02*
X56275000Y-88475000D01*
D68*
X72500000Y-104500000D02*
X73675000Y-104500000D01*
D64*
X59860000Y-88110000D02*
X60000000Y-88250000D01*
X58350000Y-63110000D02*
X59610000Y-63110000D01*
X56640000Y-63110000D02*
X56275000Y-63475000D01*
X58350000Y-63110000D02*
X56640000Y-63110000D01*
X58350000Y-88110000D02*
X56640000Y-88110000D01*
D68*
%TO.N,Net-(C13-Pad1)*%
X51970000Y-58030000D02*
X58350000Y-58030000D01*
X51000000Y-65650000D02*
X51000000Y-59000000D01*
X51000000Y-59000000D02*
X51970000Y-58030000D01*
%TO.N,Net-(C16-Pad1)*%
X100662500Y-105500000D02*
X100637500Y-105525000D01*
X101500000Y-105500000D02*
X100662500Y-105500000D01*
X101500000Y-103800000D02*
X102375000Y-102925000D01*
X101500000Y-105500000D02*
X101500000Y-103800000D01*
X101500000Y-107575000D02*
X101500000Y-105500000D01*
%TO.N,Net-(C17-Pad1)*%
X103025000Y-106475000D02*
X103450000Y-106050000D01*
X103450000Y-104750000D02*
X103625000Y-104575000D01*
X102000000Y-107575000D02*
X102000000Y-106734315D01*
X102259315Y-106475000D02*
X103025000Y-106475000D01*
X103450000Y-106050000D02*
X103450000Y-104750000D01*
X102000000Y-106734315D02*
X102259315Y-106475000D01*
X104687500Y-104575000D02*
X103625000Y-104575000D01*
X105387500Y-105275000D02*
X104687500Y-104575000D01*
D64*
%TO.N,Net-(C15-Pad1)*%
X58350000Y-59300000D02*
X58300000Y-59250000D01*
D68*
X58300000Y-59250000D02*
X54775000Y-59250000D01*
X52500000Y-61525000D02*
X54775000Y-59250000D01*
X52500000Y-65650000D02*
X52500000Y-61525000D01*
D58*
%TO.N,Net-(D5-Pad1)*%
X73520000Y-57750000D02*
X73600000Y-57830000D01*
X71625000Y-57750000D02*
X73520000Y-57750000D01*
%TO.N,/Line_GND*%
X171750000Y-99200000D02*
X171750000Y-98250000D01*
D61*
X156250000Y-98925000D02*
X156200000Y-98975000D01*
D58*
X173250000Y-99200000D02*
X173250000Y-98250000D01*
D61*
X153600000Y-98400000D02*
X153600000Y-99200000D01*
D58*
X163750000Y-99225000D02*
X163750000Y-98250000D01*
X148000000Y-103430000D02*
X148000000Y-102400000D01*
X156250000Y-98000000D02*
X156250000Y-98925000D01*
X171750000Y-99200000D02*
X173250000Y-99200000D01*
D61*
X144600000Y-101525000D02*
X145300000Y-100825000D01*
D58*
X162250000Y-99225000D02*
X163750000Y-99225000D01*
D61*
X144600000Y-101525000D02*
X142475000Y-101525000D01*
X156200000Y-98975000D02*
X156200000Y-99025000D01*
D58*
X150800000Y-99725000D02*
X150800000Y-98700000D01*
D61*
X145300000Y-100825000D02*
X145300000Y-100575000D01*
D58*
X162250000Y-99225000D02*
X162250000Y-98250000D01*
D61*
X142475000Y-101525000D02*
X142200000Y-101800000D01*
D68*
%TO.N,PWM_Disable*%
X90000000Y-106000000D02*
X94925000Y-106000000D01*
X88500000Y-104500000D02*
X90000000Y-106000000D01*
X75325000Y-104500000D02*
X88500000Y-104500000D01*
X94925000Y-106000000D02*
X96500000Y-107575000D01*
D61*
%TO.N,/Line_Vsense*%
X160635000Y-100750000D02*
X160750000Y-100635000D01*
X160635000Y-100865000D02*
X160750000Y-100750000D01*
X160635000Y-102675000D02*
X160635000Y-100865000D01*
X160750000Y-99325000D02*
X160750000Y-100750000D01*
%TO.N,Net-(C40-Pad2)*%
X159365000Y-102675000D02*
X159365000Y-100915000D01*
X159250000Y-99325000D02*
X159250000Y-100700000D01*
%TO.N,+5V_1*%
X156200000Y-101700000D02*
X156200000Y-100575000D01*
X156500000Y-102000000D02*
X156200000Y-101700000D01*
X155075000Y-101700000D02*
X156200000Y-100575000D01*
X154550000Y-101700000D02*
X155075000Y-101700000D01*
%TO.N,+5V*%
X145249500Y-116885000D02*
X143590000Y-116885000D01*
X77400000Y-123500000D02*
X77300000Y-123600000D01*
D58*
X55075000Y-112500000D02*
X55075000Y-117575000D01*
D61*
X134673500Y-116885000D02*
X137365000Y-116885000D01*
X132000000Y-116770000D02*
X132115000Y-116885000D01*
X148000000Y-116711500D02*
X147826500Y-116885000D01*
D63*
X80000000Y-123500000D02*
X77400000Y-123500000D01*
D61*
X132000000Y-112570000D02*
X132000000Y-116770000D01*
D58*
X77300000Y-121500000D02*
X77300000Y-123650000D01*
D61*
X143210000Y-116885000D02*
X143400000Y-117075000D01*
X137365000Y-116885000D02*
X143210000Y-116885000D01*
X53955000Y-73998500D02*
X54115000Y-73838500D01*
X77300000Y-123600000D02*
X77300000Y-123650000D01*
X129249500Y-116885000D02*
X132115000Y-116885000D01*
X148387970Y-116885000D02*
X150673500Y-116885000D01*
D58*
X76700000Y-120900000D02*
X77300000Y-121500000D01*
D61*
X54115000Y-70549500D02*
X54115000Y-73338500D01*
X54153500Y-73300000D02*
X54115000Y-73338500D01*
D58*
X55075000Y-117575000D02*
X61250000Y-123750000D01*
D61*
X58430000Y-73300000D02*
X54153500Y-73300000D01*
X145249500Y-116885000D02*
X147826500Y-116885000D01*
X51000000Y-73998500D02*
X53955000Y-73998500D01*
D58*
X69250000Y-123750000D02*
X72100000Y-120900000D01*
D61*
X54115000Y-73838500D02*
X54115000Y-75973500D01*
D58*
X61250000Y-123750000D02*
X69250000Y-123750000D01*
D61*
X143590000Y-116885000D02*
X143400000Y-117075000D01*
X132115000Y-116885000D02*
X134673500Y-116885000D01*
X147826500Y-116885000D02*
X148387970Y-116885000D01*
X148000000Y-112435000D02*
X148000000Y-116711500D01*
D58*
X72100000Y-120900000D02*
X76700000Y-120900000D01*
D61*
X54115000Y-73338500D02*
X54115000Y-73838500D01*
%TO.N,Net-(C46-Pad1)*%
X170250000Y-99325000D02*
X170250000Y-100750000D01*
X170135000Y-102675000D02*
X170135000Y-100865000D01*
X170135000Y-100865000D02*
X170250000Y-100750000D01*
%TO.N,Net-(C46-Pad2)*%
X168865000Y-102675000D02*
X168865000Y-100915000D01*
X168750000Y-99325000D02*
X168750000Y-100700000D01*
X168750000Y-100700000D02*
X168700000Y-100750000D01*
X168865000Y-100915000D02*
X168700000Y-100750000D01*
%TO.N,Net-(C53-Pad1)*%
X152225000Y-101275000D02*
X152650000Y-101700000D01*
X150800000Y-101275000D02*
X152225000Y-101275000D01*
%TO.N,Net-(C58-Pad1)*%
X121635000Y-102675000D02*
X121635000Y-100803530D01*
%TO.N,Net-(C58-Pad2)*%
X120365000Y-102675000D02*
X120365000Y-100853530D01*
D59*
X120200000Y-99313530D02*
X120250000Y-99263530D01*
%TO.N,Net-(C61-Pad1)*%
X127800000Y-98700000D02*
X127800000Y-97675000D01*
X127800000Y-97675000D02*
X127725000Y-97600000D01*
X128350000Y-99250000D02*
X127800000Y-98700000D01*
D61*
%TO.N,Net-(C66-Pad1)*%
X81135000Y-98925000D02*
X81135000Y-97115000D01*
X81135000Y-97115000D02*
X81250000Y-97000000D01*
%TO.N,Net-(C66-Pad2)*%
X79865000Y-97165000D02*
X79700000Y-97000000D01*
X79865000Y-98925000D02*
X79865000Y-97165000D01*
D58*
%TO.N,VCC*%
X68250000Y-113500000D02*
X66300000Y-111550000D01*
X68250000Y-121000000D02*
X68250000Y-113500000D01*
X66300000Y-111550000D02*
X64500000Y-111550000D01*
D64*
%TO.N,Net-(D1-Pad1)*%
X68172500Y-70760000D02*
X69762500Y-72350000D01*
X67682500Y-70760000D02*
X68172500Y-70760000D01*
%TO.N,Net-(D1-Pad2)*%
X68172500Y-75840000D02*
X69762500Y-74250000D01*
X67682500Y-75840000D02*
X68172500Y-75840000D01*
D61*
%TO.N,Net-(D2-Pad1)*%
X145460000Y-102940000D02*
X147050000Y-101350000D01*
X145460000Y-103430000D02*
X145460000Y-102940000D01*
%TO.N,Net-(D2-Pad2)*%
X150540000Y-102940000D02*
X148950000Y-101350000D01*
X150540000Y-103430000D02*
X150540000Y-102940000D01*
%TO.N,Net-(D3-Pad1)*%
X131050000Y-101840000D02*
X129460000Y-103430000D01*
X131050000Y-101350000D02*
X131050000Y-101840000D01*
%TO.N,Net-(D3-Pad2)*%
X132950000Y-101840000D02*
X134540000Y-103430000D01*
X132950000Y-101350000D02*
X132950000Y-101840000D01*
D58*
%TO.N,Net-(D7-Pad1)*%
X71975000Y-67200000D02*
X73970000Y-67200000D01*
D59*
%TO.N,/Out_B*%
X119450000Y-89250000D02*
X120500000Y-90300000D01*
D60*
X113800000Y-87800000D02*
X115250000Y-89250000D01*
D61*
X134750000Y-101150000D02*
X134750000Y-100800000D01*
D62*
X119000000Y-100000000D02*
X118037500Y-99037500D01*
D59*
X118037500Y-89250000D02*
X119450000Y-89250000D01*
D61*
X127400000Y-101750000D02*
X127400000Y-102900000D01*
D59*
X119000000Y-100000000D02*
X119095000Y-100095000D01*
D60*
X102000000Y-76000000D02*
X110500000Y-84500000D01*
D59*
X120500000Y-90300000D02*
X120500000Y-97363530D01*
D61*
X119095000Y-100095000D02*
X119095000Y-102675000D01*
D58*
X132000000Y-103430000D02*
X132000000Y-102400000D01*
D61*
X135400000Y-101800000D02*
X134750000Y-101150000D01*
X135400000Y-101800000D02*
X137750000Y-101800000D01*
D62*
X118037500Y-99037500D02*
X118037500Y-89250000D01*
D58*
X129275000Y-97600000D02*
X130200000Y-97600000D01*
D59*
X120500000Y-97363530D02*
X120250000Y-97613530D01*
D60*
X110500000Y-84500000D02*
X113800000Y-87800000D01*
D58*
%TO.N,Net-(D7-Pad2)*%
X75607500Y-66160000D02*
X76642500Y-66160000D01*
X75147500Y-65700000D02*
X75607500Y-66160000D01*
X71675000Y-65700000D02*
X75147500Y-65700000D01*
X76142500Y-66160000D02*
X76642500Y-66160000D01*
X75570000Y-67130000D02*
X75570000Y-66732500D01*
X75570000Y-66732500D02*
X76142500Y-66160000D01*
D61*
%TO.N,Net-(IC3-Pad1)*%
X56865500Y-70760000D02*
X56655000Y-70549500D01*
X58430000Y-70760000D02*
X56865500Y-70760000D01*
%TO.N,Net-(IC3-Pad8)*%
X58430000Y-75840000D02*
X56788500Y-75840000D01*
X56788500Y-75840000D02*
X56655000Y-75973500D01*
D68*
%TO.N,D1_Sigma_Delta*%
X97500000Y-120000000D02*
X100300000Y-122800000D01*
X151600000Y-122800000D02*
X159365000Y-115035000D01*
X97500000Y-118925000D02*
X97500000Y-120000000D01*
X159365000Y-115035000D02*
X159365000Y-113325000D01*
X100300000Y-122800000D02*
X151600000Y-122800000D01*
%TO.N,CLK_SigmaDelta*%
X121635000Y-112135000D02*
X121635000Y-113325000D01*
X110950000Y-107750000D02*
X115000000Y-111800000D01*
X170135000Y-112135000D02*
X170135000Y-113325000D01*
D67*
X99500000Y-108465685D02*
X99215685Y-108750000D01*
D68*
X115000000Y-111800000D02*
X121300000Y-111800000D01*
X169800000Y-111800000D02*
X170135000Y-112135000D01*
X81135000Y-107865000D02*
X81135000Y-109575000D01*
X156800000Y-112200000D02*
X157200000Y-111800000D01*
X121300000Y-111800000D02*
X121635000Y-112135000D01*
D67*
X99500000Y-108465685D02*
X99500000Y-107575000D01*
D68*
X160635000Y-112135000D02*
X160635000Y-113325000D01*
D67*
X99784315Y-108750000D02*
X104250000Y-108750000D01*
D68*
X160950000Y-111800000D02*
X169800000Y-111800000D01*
D67*
X104250000Y-108750000D02*
X105250000Y-107750000D01*
D68*
X121635000Y-117835000D02*
X123100000Y-119300000D01*
D67*
X99215685Y-108750000D02*
X96250000Y-108750000D01*
X96250000Y-108750000D02*
X94750000Y-107250000D01*
X99500000Y-108465685D02*
X99784315Y-108750000D01*
D68*
X81750000Y-107250000D02*
X81135000Y-107865000D01*
X151600000Y-119300000D02*
X156800000Y-114100000D01*
X94750000Y-107250000D02*
X81750000Y-107250000D01*
X160635000Y-112115000D02*
X160950000Y-111800000D01*
D67*
X160635000Y-112135000D02*
X160635000Y-112115000D01*
D68*
X121635000Y-113325000D02*
X121635000Y-117835000D01*
X157200000Y-111800000D02*
X160300000Y-111800000D01*
X105250000Y-107750000D02*
X110950000Y-107750000D01*
X123100000Y-119300000D02*
X151600000Y-119300000D01*
X160300000Y-111800000D02*
X160635000Y-112135000D01*
X156800000Y-114100000D02*
X156800000Y-112200000D01*
%TO.N,D2_Sigma_Delta*%
X96490000Y-120365000D02*
X99625000Y-123500000D01*
X99625000Y-123500000D02*
X161600000Y-123500000D01*
X161600000Y-123500000D02*
X168865000Y-116235000D01*
X96490000Y-118925000D02*
X96490000Y-120365000D01*
X168865000Y-116235000D02*
X168865000Y-113325000D01*
%TO.N,D3_Sigma_Delta*%
X120365000Y-117885000D02*
X120365000Y-113325000D01*
X116150000Y-122100000D02*
X120365000Y-117885000D01*
X100984835Y-122100000D02*
X116150000Y-122100000D01*
X99000000Y-120115165D02*
X100984835Y-122100000D01*
X99000000Y-118925000D02*
X99000000Y-120115165D01*
D61*
%TO.N,Net-(IC7-Pad8)*%
X150540000Y-114211500D02*
X150673500Y-114345000D01*
X150540000Y-112435000D02*
X150540000Y-114211500D01*
%TO.N,Net-(IC8-Pad1)*%
X129249500Y-114345000D02*
X129249500Y-112780500D01*
X129249500Y-112780500D02*
X129460000Y-112570000D01*
%TO.N,Net-(IC8-Pad8)*%
X134540000Y-114211500D02*
X134673500Y-114345000D01*
X134540000Y-112570000D02*
X134540000Y-114211500D01*
D58*
%TO.N,Net-(C6-Pad2)*%
X74000000Y-60750000D02*
X70150000Y-60750000D01*
D60*
X83250000Y-63750000D02*
X91250000Y-63750000D01*
D66*
X83250000Y-63750000D02*
X80977500Y-63750000D01*
D61*
X69480000Y-60570000D02*
X69300000Y-60750000D01*
D60*
X91250000Y-63750000D02*
X102000000Y-53000000D01*
D58*
X77945000Y-63620000D02*
X76870000Y-63620000D01*
X69300000Y-60750000D02*
X70150000Y-60750000D01*
D66*
X77777500Y-63745000D02*
X80972500Y-63745000D01*
D61*
X67650000Y-60570000D02*
X69480000Y-60570000D01*
D66*
X80977500Y-63750000D02*
X80972500Y-63745000D01*
D58*
X76870000Y-63620000D02*
X74000000Y-60750000D01*
D59*
%TO.N,/Cap_Isense*%
X121750000Y-97613530D02*
X121500000Y-97363530D01*
X121500000Y-97363530D02*
X121500000Y-90300000D01*
X121500000Y-90300000D02*
X122550000Y-89250000D01*
X121750000Y-97613530D02*
X121600000Y-97463530D01*
X122550000Y-89250000D02*
X123962500Y-89250000D01*
D68*
%TO.N,Net-(R30-Pad1)*%
X97000000Y-106527817D02*
X95472183Y-105000000D01*
X95472183Y-105000000D02*
X94500000Y-105000000D01*
X97000000Y-107575000D02*
X97000000Y-106527817D01*
D64*
%TO.N,PWM_A_L*%
X52500000Y-67300000D02*
X52550000Y-67300000D01*
D68*
X52550000Y-67300000D02*
X53250000Y-68000000D01*
%TO.N,PWM_A_H*%
X51000000Y-68750000D02*
X51500000Y-69250000D01*
X51000000Y-67300000D02*
X51000000Y-68750000D01*
D61*
%TO.N,/Relay*%
X117000000Y-115000000D02*
X117000000Y-116312500D01*
D67*
%TO.N,/SWCLK*%
X105925000Y-117000000D02*
X108430000Y-117000000D01*
X108430000Y-117000000D02*
X108700000Y-116730000D01*
%TO.N,/SWDIO*%
X107500000Y-121000000D02*
X109800000Y-118700000D01*
X103000000Y-120375000D02*
X103625000Y-121000000D01*
X103000000Y-118925000D02*
X103000000Y-120375000D01*
X103625000Y-121000000D02*
X107500000Y-121000000D01*
X109800000Y-115290000D02*
X108700000Y-114190000D01*
X109800000Y-118700000D02*
X109800000Y-115290000D01*
D68*
%TO.N,Net-(J6-Pad2)*%
X105925000Y-112500000D02*
X107500000Y-112500000D01*
X109800000Y-110200000D02*
X110130000Y-110200000D01*
X107500000Y-112500000D02*
X109800000Y-110200000D01*
D61*
%TO.N,Net-(C49-Pad1)*%
X154550000Y-97350000D02*
X154550000Y-99200000D01*
X147775000Y-99025000D02*
X148000000Y-99250000D01*
X148000000Y-99250000D02*
X149625000Y-97625000D01*
X154400000Y-97200000D02*
X154550000Y-97350000D01*
X149900000Y-97350000D02*
X149625000Y-97625000D01*
X152800000Y-97200000D02*
X154400000Y-97200000D01*
X152650000Y-97350000D02*
X149900000Y-97350000D01*
X152650000Y-97350000D02*
X152800000Y-97200000D01*
X145300000Y-99025000D02*
X147775000Y-99025000D01*
X152650000Y-99200000D02*
X152650000Y-97350000D01*
X145300000Y-99025000D02*
X142225000Y-99025000D01*
%TO.N,Net-(C36-Pad1)*%
X70000000Y-95600000D02*
X68325000Y-95600000D01*
D64*
X68325000Y-95600000D02*
X68250000Y-95525000D01*
D61*
%TO.N,Net-(C50-Pad1)*%
X134750000Y-99250000D02*
X137500000Y-99250000D01*
D59*
X128000000Y-100500000D02*
X128350000Y-100850000D01*
D61*
X137500000Y-99250000D02*
X137750000Y-99000000D01*
D59*
X126450000Y-101750000D02*
X126450000Y-100830000D01*
X126780000Y-100500000D02*
X128000000Y-100500000D01*
X128350000Y-100850000D02*
X128350000Y-101750000D01*
X126450000Y-100830000D02*
X126780000Y-100500000D01*
D61*
X132000000Y-99250000D02*
X134750000Y-99250000D01*
X128350000Y-101750000D02*
X130850000Y-99250000D01*
X130850000Y-99250000D02*
X132000000Y-99250000D01*
D64*
%TO.N,Net-(D4-Pad2)*%
X92675000Y-105000000D02*
X92675000Y-103527500D01*
D68*
X92675000Y-103527500D02*
X92702500Y-103500000D01*
D64*
%TO.N,Net-(C11-Pad2)*%
X55950000Y-65700000D02*
X56000000Y-65650000D01*
X58350000Y-64380000D02*
X57270000Y-64380000D01*
D58*
X54500000Y-65700000D02*
X55950000Y-65700000D01*
D64*
X57270000Y-64380000D02*
X56000000Y-65650000D01*
D68*
%TO.N,Net-(C29-Pad1)*%
X58350000Y-83030000D02*
X51720000Y-83030000D01*
X51720000Y-83030000D02*
X51000000Y-83750000D01*
X51000000Y-83750000D02*
X51000000Y-90650000D01*
D64*
%TO.N,Net-(C30-Pad1)*%
X54825000Y-84300000D02*
X54775000Y-84250000D01*
D68*
X58350000Y-84300000D02*
X54825000Y-84300000D01*
X54775000Y-84250000D02*
X52500000Y-86525000D01*
X52500000Y-86525000D02*
X52500000Y-90650000D01*
D59*
%TO.N,Net-(C31-Pad2)*%
X58350000Y-89380000D02*
X57320000Y-89380000D01*
D58*
X54500000Y-90650000D02*
X55950000Y-90650000D01*
X55950000Y-90650000D02*
X56000000Y-90700000D01*
D59*
X57320000Y-89380000D02*
X56000000Y-90700000D01*
D64*
%TO.N,Net-(C19-Pad1)*%
X69300000Y-85750000D02*
X69120000Y-85570000D01*
D60*
X96250000Y-88750000D02*
X83250000Y-88750000D01*
D66*
X80972500Y-88745000D02*
X77777500Y-88745000D01*
D58*
X76995000Y-88745000D02*
X77777500Y-88745000D01*
X74000000Y-85750000D02*
X76995000Y-88745000D01*
D64*
X69120000Y-85570000D02*
X67650000Y-85570000D01*
X69300000Y-85750000D02*
X70250000Y-85750000D01*
D66*
X83250000Y-88750000D02*
X80977500Y-88750000D01*
X80977500Y-88750000D02*
X80972500Y-88745000D01*
D58*
X69250000Y-85750000D02*
X74000000Y-85750000D01*
D60*
X102000000Y-94500000D02*
X96250000Y-88750000D01*
D58*
%TO.N,Net-(R35-Pad1)*%
X69975000Y-82750000D02*
X69975000Y-84300000D01*
D61*
X67650000Y-84300000D02*
X69975000Y-84300000D01*
%TO.N,Net-(R41-Pad1)*%
X67650000Y-90650000D02*
X69975000Y-90650000D01*
D58*
X70025000Y-90700000D02*
X70025000Y-92250000D01*
%TO.N,Net-(D5-Pad2)*%
X75932500Y-58540000D02*
X76432500Y-58540000D01*
X75500000Y-58107500D02*
X75932500Y-58540000D01*
X75692500Y-58540000D02*
X76432500Y-58540000D01*
X75500000Y-57830000D02*
X75500000Y-58107500D01*
X74932500Y-59300000D02*
X75692500Y-58540000D01*
X76432500Y-58540000D02*
X81222500Y-58540000D01*
X71625000Y-59300000D02*
X74932500Y-59300000D01*
%TO.N,Net-(D10-Pad1)*%
X71625000Y-82750000D02*
X73520000Y-82750000D01*
%TO.N,Net-(D10-Pad2)*%
X75500000Y-83107500D02*
X75932500Y-83540000D01*
X76432500Y-83540000D02*
X81222500Y-83540000D01*
X74932500Y-84300000D02*
X75692500Y-83540000D01*
X75500000Y-82830000D02*
X75500000Y-83107500D01*
X71625000Y-84300000D02*
X74932500Y-84300000D01*
X75932500Y-83540000D02*
X76432500Y-83540000D01*
%TO.N,Net-(D11-Pad1)*%
X71975000Y-92200000D02*
X73970000Y-92200000D01*
%TO.N,Net-(D11-Pad2)*%
X75570000Y-92130000D02*
X75570000Y-91732500D01*
X75570000Y-91732500D02*
X76142500Y-91160000D01*
D61*
%TO.N,Net-(R11-Pad2)*%
X67650000Y-59300000D02*
X69975000Y-59300000D01*
D58*
X69975000Y-57750000D02*
X69975000Y-59300000D01*
D61*
%TO.N,Net-(R15-Pad1)*%
X67650000Y-65650000D02*
X69975000Y-65650000D01*
D58*
X70025000Y-65700000D02*
X70025000Y-67250000D01*
D61*
X69975000Y-65650000D02*
X70025000Y-65700000D01*
%TO.N,+12V*%
X67650000Y-89380000D02*
X69170000Y-89380000D01*
D58*
X69300000Y-89250000D02*
X70127500Y-89250000D01*
D61*
X67650000Y-64380000D02*
X69170000Y-64380000D01*
D64*
X72500000Y-94750000D02*
X72500000Y-95600000D01*
D58*
X74655000Y-55655000D02*
X74027500Y-55655000D01*
X71862500Y-74473500D02*
X71862500Y-73300000D01*
D64*
X72500000Y-97500000D02*
X73250000Y-97500000D01*
X73500000Y-95800000D02*
X73300000Y-95600000D01*
D61*
X69170000Y-64380000D02*
X69300000Y-64250000D01*
D58*
X74077500Y-78827500D02*
X73250000Y-78000000D01*
D64*
X74077500Y-79005000D02*
X74077500Y-78827500D01*
D58*
X75000000Y-56000000D02*
X74655000Y-55655000D01*
D64*
X73500000Y-97250000D02*
X73500000Y-95800000D01*
X73300000Y-95600000D02*
X72500000Y-95600000D01*
X73250000Y-97500000D02*
X73500000Y-97250000D01*
D58*
X69300000Y-64250000D02*
X70127500Y-64250000D01*
D61*
%TO.N,Net-(D8-Pad2)*%
X72920000Y-54580000D02*
X71777500Y-54580000D01*
D58*
X73495000Y-54005000D02*
X72920000Y-54580000D01*
X74027500Y-54005000D02*
X73495000Y-54005000D01*
D61*
%TO.N,/VDDA_A*%
X67752500Y-54605000D02*
X67777500Y-54580000D01*
X67827500Y-54630000D02*
X67777500Y-54580000D01*
D64*
%TO.N,Net-(D9-Pad2)*%
X74077500Y-80655000D02*
X72507500Y-80655000D01*
X72507500Y-80655000D02*
X71827500Y-79975000D01*
%TD*%
%TA.AperFunction,Conductor*%
%TO.N,/VDDA_A*%
G36*
X68969621Y-55220002D02*
G01*
X69016114Y-55273658D01*
X69027500Y-55326000D01*
X69027500Y-58204000D01*
X69007498Y-58272121D01*
X68953842Y-58318614D01*
X68901500Y-58330000D01*
X66753500Y-58330000D01*
X66685379Y-58309998D01*
X66638886Y-58256342D01*
X66627500Y-58204000D01*
X66627500Y-55326000D01*
X66647502Y-55257879D01*
X66701158Y-55211386D01*
X66753500Y-55200000D01*
X68901500Y-55200000D01*
X68969621Y-55220002D01*
G37*
%TD.AperFunction*%
%TD*%
%TA.AperFunction,Conductor*%
%TO.N,+5V_1*%
G36*
X164142121Y-100520002D02*
G01*
X164188614Y-100573658D01*
X164200000Y-100626000D01*
X164200000Y-101547810D01*
X164179998Y-101615931D01*
X164163095Y-101636905D01*
X162236905Y-103563095D01*
X162174593Y-103597121D01*
X162147810Y-103600000D01*
X161926000Y-103600000D01*
X161857879Y-103579998D01*
X161811386Y-103526342D01*
X161800000Y-103474000D01*
X161800000Y-100626000D01*
X161820002Y-100557879D01*
X161873658Y-100511386D01*
X161926000Y-100500000D01*
X164074000Y-100500000D01*
X164142121Y-100520002D01*
G37*
%TD.AperFunction*%
%TD*%
%TA.AperFunction,Conductor*%
%TO.N,GNDD*%
G36*
X104881518Y-108647620D02*
G01*
X104926581Y-108676581D01*
X105199362Y-108949362D01*
X105233388Y-109011674D01*
X105228323Y-109082489D01*
X105185776Y-109139325D01*
X105134849Y-109162035D01*
X105117505Y-109165485D01*
X105107188Y-109172378D01*
X105107187Y-109172379D01*
X105049754Y-109210755D01*
X105026376Y-109226376D01*
X104965485Y-109317505D01*
X104960084Y-109344658D01*
X104957889Y-109355693D01*
X104924982Y-109418603D01*
X104911014Y-109431075D01*
X104815748Y-109504175D01*
X104804172Y-109515750D01*
X104720777Y-109624434D01*
X104712590Y-109638615D01*
X104660167Y-109765175D01*
X104655928Y-109780995D01*
X104649208Y-109832040D01*
X104651419Y-109846222D01*
X104664576Y-109850000D01*
X105192789Y-109850000D01*
X105196193Y-109850167D01*
X105197867Y-109850500D01*
X105208358Y-109850500D01*
X105949002Y-109850499D01*
X106000000Y-109865474D01*
X106000000Y-110138406D01*
X105949000Y-110149500D01*
X105208336Y-110149501D01*
X105197868Y-110149501D01*
X105196198Y-110149833D01*
X105192800Y-110150000D01*
X104664958Y-110150000D01*
X104651187Y-110154044D01*
X104649158Y-110167583D01*
X104655928Y-110219005D01*
X104660167Y-110234825D01*
X104712590Y-110361386D01*
X104720779Y-110375569D01*
X104804171Y-110484248D01*
X104815750Y-110495828D01*
X104911015Y-110568927D01*
X104952882Y-110626265D01*
X104957890Y-110644310D01*
X104965485Y-110682495D01*
X104972381Y-110692816D01*
X104976095Y-110701782D01*
X104983684Y-110772372D01*
X104976095Y-110798219D01*
X104972382Y-110807184D01*
X104965485Y-110817505D01*
X104963063Y-110829679D01*
X104963063Y-110829680D01*
X104957889Y-110855693D01*
X104924982Y-110918603D01*
X104911014Y-110931075D01*
X104815748Y-111004175D01*
X104804172Y-111015750D01*
X104720777Y-111124434D01*
X104712590Y-111138615D01*
X104660167Y-111265175D01*
X104655928Y-111280995D01*
X104649208Y-111332040D01*
X104651419Y-111346222D01*
X104664576Y-111350000D01*
X105192789Y-111350000D01*
X105196193Y-111350167D01*
X105197867Y-111350500D01*
X105208358Y-111350500D01*
X105949002Y-111350499D01*
X106000000Y-111365474D01*
X106000000Y-111638406D01*
X105949000Y-111649500D01*
X105208336Y-111649501D01*
X105197868Y-111649501D01*
X105196198Y-111649833D01*
X105192800Y-111650000D01*
X104664958Y-111650000D01*
X104651187Y-111654044D01*
X104649158Y-111667583D01*
X104655928Y-111719005D01*
X104660167Y-111734825D01*
X104712590Y-111861386D01*
X104720779Y-111875569D01*
X104804171Y-111984248D01*
X104815750Y-111995828D01*
X104911015Y-112068927D01*
X104952882Y-112126265D01*
X104957890Y-112144310D01*
X104965485Y-112182495D01*
X104972381Y-112192816D01*
X104976095Y-112201782D01*
X104983684Y-112272372D01*
X104976095Y-112298219D01*
X104972382Y-112307184D01*
X104965485Y-112317505D01*
X104949500Y-112397867D01*
X104949501Y-112602132D01*
X104965485Y-112682495D01*
X104972381Y-112692815D01*
X104976095Y-112701782D01*
X104983684Y-112772372D01*
X104976095Y-112798219D01*
X104972382Y-112807184D01*
X104965485Y-112817505D01*
X104949500Y-112897867D01*
X104949501Y-113102132D01*
X104965485Y-113182495D01*
X104972381Y-113192815D01*
X104976095Y-113201782D01*
X104983684Y-113272372D01*
X104976095Y-113298219D01*
X104972382Y-113307184D01*
X104965485Y-113317505D01*
X104949500Y-113397867D01*
X104949501Y-113602132D01*
X104965485Y-113682495D01*
X104972381Y-113692815D01*
X104976095Y-113701782D01*
X104983684Y-113772372D01*
X104976095Y-113798219D01*
X104972382Y-113807184D01*
X104965485Y-113817505D01*
X104949500Y-113897867D01*
X104949501Y-114102132D01*
X104965485Y-114182495D01*
X104972381Y-114192815D01*
X104976095Y-114201782D01*
X104983684Y-114272372D01*
X104976095Y-114298219D01*
X104972382Y-114307184D01*
X104965485Y-114317505D01*
X104963063Y-114329679D01*
X104963063Y-114329680D01*
X104950707Y-114391799D01*
X104949500Y-114397867D01*
X104949501Y-114602132D01*
X104965485Y-114682495D01*
X104972381Y-114692815D01*
X104976095Y-114701782D01*
X104983684Y-114772372D01*
X104976095Y-114798219D01*
X104972382Y-114807184D01*
X104965485Y-114817505D01*
X104963063Y-114829679D01*
X104963063Y-114829680D01*
X104950707Y-114891798D01*
X104949500Y-114897867D01*
X104949501Y-115102132D01*
X104965485Y-115182495D01*
X104972381Y-115192815D01*
X104976095Y-115201782D01*
X104983684Y-115272372D01*
X104976095Y-115298219D01*
X104972382Y-115307184D01*
X104965485Y-115317505D01*
X104949500Y-115397867D01*
X104949501Y-115602132D01*
X104965485Y-115682495D01*
X104972381Y-115692815D01*
X104976095Y-115701782D01*
X104983684Y-115772372D01*
X104976095Y-115798219D01*
X104972382Y-115807184D01*
X104965485Y-115817505D01*
X104963063Y-115829679D01*
X104963063Y-115829680D01*
X104954300Y-115873735D01*
X104949500Y-115897867D01*
X104949501Y-116102132D01*
X104965485Y-116182495D01*
X104972381Y-116192815D01*
X104976095Y-116201782D01*
X104983684Y-116272372D01*
X104976095Y-116298219D01*
X104972382Y-116307184D01*
X104965485Y-116317505D01*
X104949500Y-116397867D01*
X104949501Y-116602132D01*
X104965485Y-116682495D01*
X104972381Y-116692815D01*
X104976095Y-116701782D01*
X104983684Y-116772372D01*
X104976095Y-116798219D01*
X104972382Y-116807184D01*
X104965485Y-116817505D01*
X104949500Y-116897867D01*
X104949501Y-117102132D01*
X104950708Y-117108199D01*
X104950708Y-117108202D01*
X104962057Y-117165260D01*
X104965485Y-117182495D01*
X105026376Y-117273624D01*
X105117505Y-117334515D01*
X105197867Y-117350500D01*
X105874002Y-117350500D01*
X105942121Y-117370501D01*
X105988614Y-117424157D01*
X106000000Y-117476499D01*
X106000000Y-117573500D01*
X105979998Y-117641621D01*
X105926342Y-117688114D01*
X105874000Y-117699500D01*
X104997619Y-117699500D01*
X104981173Y-117698422D01*
X104958188Y-117695396D01*
X104950000Y-117694318D01*
X104941812Y-117695396D01*
X104910639Y-117699500D01*
X104811210Y-117712590D01*
X104793238Y-117714956D01*
X104647159Y-117775464D01*
X104521718Y-117871718D01*
X104502568Y-117896675D01*
X104491708Y-117909057D01*
X104407147Y-117993618D01*
X104344835Y-118027644D01*
X104274020Y-118022579D01*
X104248050Y-118009288D01*
X104224599Y-117993618D01*
X104182495Y-117965485D01*
X104144307Y-117957889D01*
X104081397Y-117924982D01*
X104068925Y-117911014D01*
X103995825Y-117815748D01*
X103984250Y-117804172D01*
X103875566Y-117720777D01*
X103861385Y-117712590D01*
X103734825Y-117660167D01*
X103719005Y-117655928D01*
X103667960Y-117649208D01*
X103653778Y-117651419D01*
X103650000Y-117664576D01*
X103650000Y-118192789D01*
X103649833Y-118196193D01*
X103649500Y-118197867D01*
X103649501Y-118900500D01*
X103649501Y-118949000D01*
X103634526Y-119000000D01*
X103361594Y-119000000D01*
X103350500Y-118949000D01*
X103350499Y-118202966D01*
X103350499Y-118197868D01*
X103350167Y-118196198D01*
X103350000Y-118192800D01*
X103350000Y-117664958D01*
X103345956Y-117651187D01*
X103332417Y-117649158D01*
X103280995Y-117655928D01*
X103265175Y-117660167D01*
X103138614Y-117712590D01*
X103124431Y-117720779D01*
X103015752Y-117804171D01*
X103004172Y-117815750D01*
X102931073Y-117911015D01*
X102873735Y-117952882D01*
X102855689Y-117957890D01*
X102817505Y-117965485D01*
X102807184Y-117972381D01*
X102798218Y-117976095D01*
X102727628Y-117983684D01*
X102701781Y-117976095D01*
X102692816Y-117972382D01*
X102682495Y-117965485D01*
X102670321Y-117963063D01*
X102670320Y-117963063D01*
X102608201Y-117950707D01*
X102602133Y-117949500D01*
X102500009Y-117949500D01*
X102397868Y-117949501D01*
X102391801Y-117950708D01*
X102391798Y-117950708D01*
X102355690Y-117957890D01*
X102317505Y-117965485D01*
X102307185Y-117972381D01*
X102298218Y-117976095D01*
X102227628Y-117983684D01*
X102201781Y-117976095D01*
X102192816Y-117972382D01*
X102182495Y-117965485D01*
X102170321Y-117963063D01*
X102170320Y-117963063D01*
X102108201Y-117950707D01*
X102102133Y-117949500D01*
X102000009Y-117949500D01*
X101897868Y-117949501D01*
X101891801Y-117950708D01*
X101891798Y-117950708D01*
X101855690Y-117957890D01*
X101817505Y-117965485D01*
X101807185Y-117972381D01*
X101798218Y-117976095D01*
X101727628Y-117983684D01*
X101701781Y-117976095D01*
X101692816Y-117972382D01*
X101682495Y-117965485D01*
X101670321Y-117963063D01*
X101670320Y-117963063D01*
X101608201Y-117950707D01*
X101602133Y-117949500D01*
X101565838Y-117949500D01*
X101426501Y-117949501D01*
X101358380Y-117929499D01*
X101311887Y-117875844D01*
X101300500Y-117823501D01*
X101300500Y-117652370D01*
X101300696Y-117649695D01*
X101302426Y-117644658D01*
X101300589Y-117595729D01*
X101300500Y-117591003D01*
X101300500Y-117572052D01*
X101299618Y-117567319D01*
X101299390Y-117563792D01*
X101298663Y-117544420D01*
X101298662Y-117544418D01*
X101298226Y-117532792D01*
X101293632Y-117522100D01*
X101292595Y-117517497D01*
X101289038Y-117505786D01*
X101287339Y-117501383D01*
X101285209Y-117489947D01*
X101272272Y-117468959D01*
X101263769Y-117452589D01*
X101257548Y-117438109D01*
X101257545Y-117438104D01*
X101254036Y-117429937D01*
X101250023Y-117425051D01*
X101247840Y-117422868D01*
X101245776Y-117420592D01*
X101245937Y-117420446D01*
X101238835Y-117411461D01*
X101232571Y-117404554D01*
X101226468Y-117394652D01*
X101204689Y-117378091D01*
X101191868Y-117366896D01*
X100899516Y-117074545D01*
X100897763Y-117072515D01*
X100895425Y-117067731D01*
X100859523Y-117034427D01*
X100856118Y-117031147D01*
X100842723Y-117017752D01*
X100838753Y-117015028D01*
X100836105Y-117012703D01*
X100821881Y-116999508D01*
X100821878Y-116999506D01*
X100813354Y-116991599D01*
X100802550Y-116987289D01*
X100798561Y-116984767D01*
X100787773Y-116979006D01*
X100783448Y-116977089D01*
X100773854Y-116970508D01*
X100762535Y-116967822D01*
X100762533Y-116967821D01*
X100749873Y-116964817D01*
X100732276Y-116959252D01*
X100717638Y-116953412D01*
X100717635Y-116953411D01*
X100709378Y-116950117D01*
X100703085Y-116949500D01*
X100700006Y-116949500D01*
X100696933Y-116949350D01*
X100696944Y-116949134D01*
X100685569Y-116947802D01*
X100676254Y-116947346D01*
X100664934Y-116944660D01*
X100653405Y-116946229D01*
X100653404Y-116946229D01*
X100637827Y-116948349D01*
X100620836Y-116949500D01*
X95939484Y-116949500D01*
X95871363Y-116929498D01*
X95824870Y-116875842D01*
X95814766Y-116805568D01*
X95823075Y-116775281D01*
X95839834Y-116734822D01*
X95844072Y-116719005D01*
X95850792Y-116667960D01*
X95848581Y-116653778D01*
X95835424Y-116650000D01*
X95307211Y-116650000D01*
X95303807Y-116649833D01*
X95302133Y-116649500D01*
X95291642Y-116649500D01*
X94550998Y-116649501D01*
X94500000Y-116634526D01*
X94500000Y-116361594D01*
X94551000Y-116350500D01*
X95291664Y-116350499D01*
X95302132Y-116350499D01*
X95303802Y-116350167D01*
X95307200Y-116350000D01*
X95835042Y-116350000D01*
X95848813Y-116345956D01*
X95850842Y-116332417D01*
X95844072Y-116280995D01*
X95839833Y-116265175D01*
X95787410Y-116138614D01*
X95779221Y-116124431D01*
X95695829Y-116015752D01*
X95684250Y-116004172D01*
X95588985Y-115931073D01*
X95547118Y-115873735D01*
X95542110Y-115855690D01*
X95541038Y-115850300D01*
X95534515Y-115817505D01*
X95527619Y-115807184D01*
X95523905Y-115798218D01*
X95516316Y-115727628D01*
X95523905Y-115701781D01*
X95527618Y-115692816D01*
X95534515Y-115682495D01*
X95550500Y-115602133D01*
X95550499Y-115397868D01*
X95534515Y-115317505D01*
X95527619Y-115307185D01*
X95523905Y-115298218D01*
X95516316Y-115227628D01*
X95523905Y-115201781D01*
X95527618Y-115192816D01*
X95534515Y-115182495D01*
X95550500Y-115102133D01*
X95550499Y-114897868D01*
X95540428Y-114847234D01*
X95546757Y-114776520D01*
X95578114Y-114731131D01*
X95585678Y-114726468D01*
X95602246Y-114704680D01*
X95613440Y-114691861D01*
X95975452Y-114329849D01*
X95977486Y-114328093D01*
X95982269Y-114325755D01*
X96005697Y-114300500D01*
X96015573Y-114289853D01*
X96018853Y-114286448D01*
X96032248Y-114273053D01*
X96034972Y-114269083D01*
X96037297Y-114266435D01*
X96050492Y-114252211D01*
X96050494Y-114252208D01*
X96058401Y-114243684D01*
X96062711Y-114232880D01*
X96065233Y-114228891D01*
X96070994Y-114218103D01*
X96072911Y-114213778D01*
X96079492Y-114204184D01*
X96085183Y-114180203D01*
X96090748Y-114162606D01*
X96096588Y-114147968D01*
X96096589Y-114147965D01*
X96099883Y-114139708D01*
X96100500Y-114133415D01*
X96100500Y-114130336D01*
X96100650Y-114127263D01*
X96100866Y-114127274D01*
X96102198Y-114115899D01*
X96102654Y-114106584D01*
X96105340Y-114095264D01*
X96103494Y-114081696D01*
X96101651Y-114068157D01*
X96100500Y-114051166D01*
X96100500Y-109352366D01*
X96100696Y-109349693D01*
X96102425Y-109344658D01*
X96101019Y-109307186D01*
X96100589Y-109295745D01*
X96100500Y-109291019D01*
X96100500Y-109272052D01*
X96099618Y-109267317D01*
X96099390Y-109263791D01*
X96098662Y-109244415D01*
X96098226Y-109232792D01*
X96093635Y-109222105D01*
X96091077Y-109210755D01*
X96093995Y-109210098D01*
X96087638Y-109157486D01*
X96118580Y-109093587D01*
X96179157Y-109056560D01*
X96218074Y-109052376D01*
X96223745Y-109052653D01*
X96235066Y-109055340D01*
X96246595Y-109053771D01*
X96246596Y-109053771D01*
X96262173Y-109051651D01*
X96279164Y-109050500D01*
X99163319Y-109050500D01*
X99165992Y-109050696D01*
X99171027Y-109052425D01*
X99182649Y-109051989D01*
X99182651Y-109051989D01*
X99219940Y-109050589D01*
X99224666Y-109050500D01*
X99243633Y-109050500D01*
X99248368Y-109049618D01*
X99251894Y-109049390D01*
X99255634Y-109049249D01*
X99282893Y-109048226D01*
X99293578Y-109043636D01*
X99298178Y-109042599D01*
X99309899Y-109039038D01*
X99314302Y-109037339D01*
X99325738Y-109035209D01*
X99346726Y-109022272D01*
X99363096Y-109013769D01*
X99377573Y-109007549D01*
X99377577Y-109007547D01*
X99385748Y-109004036D01*
X99390634Y-109000022D01*
X99392819Y-108997837D01*
X99395082Y-108995785D01*
X99395227Y-108995945D01*
X99404233Y-108988827D01*
X99411132Y-108982571D01*
X99421033Y-108976468D01*
X99422472Y-108974576D01*
X99480960Y-108946258D01*
X99551444Y-108954778D01*
X99582104Y-108975559D01*
X99583033Y-108974441D01*
X99587485Y-108978141D01*
X99591592Y-108982248D01*
X99595562Y-108984972D01*
X99598210Y-108987297D01*
X99612434Y-109000492D01*
X99612437Y-109000494D01*
X99620961Y-109008401D01*
X99631765Y-109012711D01*
X99635754Y-109015233D01*
X99646542Y-109020994D01*
X99650867Y-109022911D01*
X99660461Y-109029492D01*
X99671780Y-109032178D01*
X99671782Y-109032179D01*
X99684442Y-109035183D01*
X99702039Y-109040748D01*
X99716677Y-109046588D01*
X99716680Y-109046589D01*
X99724937Y-109049883D01*
X99731230Y-109050500D01*
X99734309Y-109050500D01*
X99737382Y-109050650D01*
X99737371Y-109050866D01*
X99748746Y-109052198D01*
X99758061Y-109052654D01*
X99769381Y-109055340D01*
X99780910Y-109053771D01*
X99780911Y-109053771D01*
X99796488Y-109051651D01*
X99813479Y-109050500D01*
X104197634Y-109050500D01*
X104200307Y-109050696D01*
X104205342Y-109052425D01*
X104216964Y-109051989D01*
X104216966Y-109051989D01*
X104254255Y-109050589D01*
X104258981Y-109050500D01*
X104277948Y-109050500D01*
X104282683Y-109049618D01*
X104286209Y-109049390D01*
X104289949Y-109049249D01*
X104317208Y-109048226D01*
X104327893Y-109043636D01*
X104332493Y-109042599D01*
X104344214Y-109039038D01*
X104348617Y-109037339D01*
X104360053Y-109035209D01*
X104381041Y-109022272D01*
X104397411Y-109013769D01*
X104411888Y-109007549D01*
X104411892Y-109007547D01*
X104420063Y-109004036D01*
X104424949Y-109000022D01*
X104427134Y-108997837D01*
X104429397Y-108995785D01*
X104429542Y-108995945D01*
X104438549Y-108988825D01*
X104445444Y-108982573D01*
X104455348Y-108976468D01*
X104471906Y-108954693D01*
X104483107Y-108941865D01*
X104748391Y-108676581D01*
X104810703Y-108642555D01*
X104881518Y-108647620D01*
G37*
%TD.AperFunction*%
%TD*%
%TA.AperFunction,Conductor*%
%TO.N,GND*%
G36*
X68969621Y-66640002D02*
G01*
X69016114Y-66693658D01*
X69027500Y-66746000D01*
X69027500Y-68124000D01*
X69007498Y-68192121D01*
X68953842Y-68238614D01*
X68901500Y-68250000D01*
X66753500Y-68250000D01*
X66685379Y-68229998D01*
X66638886Y-68176342D01*
X66627500Y-68124000D01*
X66627500Y-66746000D01*
X66647502Y-66677879D01*
X66701158Y-66631386D01*
X66753500Y-66620000D01*
X68901500Y-66620000D01*
X68969621Y-66640002D01*
G37*
%TD.AperFunction*%
%TD*%
%TA.AperFunction,Conductor*%
%TO.N,GND*%
G36*
X68969621Y-91640002D02*
G01*
X69016114Y-91693658D01*
X69027500Y-91746000D01*
X69027500Y-93124000D01*
X69007498Y-93192121D01*
X68953842Y-93238614D01*
X68901500Y-93250000D01*
X66753500Y-93250000D01*
X66685379Y-93229998D01*
X66638886Y-93176342D01*
X66627500Y-93124000D01*
X66627500Y-91746000D01*
X66647502Y-91677879D01*
X66701158Y-91631386D01*
X66753500Y-91620000D01*
X68901500Y-91620000D01*
X68969621Y-91640002D01*
G37*
%TD.AperFunction*%
%TD*%
%TA.AperFunction,Conductor*%
%TO.N,+5V_1*%
G36*
X173642121Y-100520002D02*
G01*
X173688614Y-100573658D01*
X173700000Y-100626000D01*
X173700000Y-101547810D01*
X173679998Y-101615931D01*
X173663095Y-101636905D01*
X171736905Y-103563095D01*
X171674593Y-103597121D01*
X171647810Y-103600000D01*
X171426000Y-103600000D01*
X171357879Y-103579998D01*
X171311386Y-103526342D01*
X171300000Y-103474000D01*
X171300000Y-100626000D01*
X171320002Y-100557879D01*
X171373658Y-100511386D01*
X171426000Y-100500000D01*
X173574000Y-100500000D01*
X173642121Y-100520002D01*
G37*
%TD.AperFunction*%
%TD*%
%TA.AperFunction,Conductor*%
%TO.N,/VDDA_B*%
G36*
X68942121Y-80220002D02*
G01*
X68988614Y-80273658D01*
X69000000Y-80326000D01*
X69000000Y-83204000D01*
X68979998Y-83272121D01*
X68926342Y-83318614D01*
X68874000Y-83330000D01*
X66726000Y-83330000D01*
X66657879Y-83309998D01*
X66611386Y-83256342D01*
X66600000Y-83204000D01*
X66600000Y-80326000D01*
X66620002Y-80257879D01*
X66673658Y-80211386D01*
X66726000Y-80200000D01*
X68874000Y-80200000D01*
X68942121Y-80220002D01*
G37*
%TD.AperFunction*%
%TD*%
%TA.AperFunction,Conductor*%
%TO.N,+5V_2*%
G36*
X125142121Y-100520002D02*
G01*
X125188614Y-100573658D01*
X125200000Y-100626000D01*
X125200000Y-101547810D01*
X125179998Y-101615931D01*
X125163095Y-101636905D01*
X123236905Y-103563095D01*
X123174593Y-103597121D01*
X123147810Y-103600000D01*
X122926000Y-103600000D01*
X122857879Y-103579998D01*
X122811386Y-103526342D01*
X122800000Y-103474000D01*
X122800000Y-100626000D01*
X122820002Y-100557879D01*
X122873658Y-100511386D01*
X122926000Y-100500000D01*
X125074000Y-100500000D01*
X125142121Y-100520002D01*
G37*
%TD.AperFunction*%
%TD*%
%TA.AperFunction,Conductor*%
%TO.N,VBUS*%
G36*
X193250981Y-108770425D02*
G01*
X193301174Y-108801174D01*
X195213095Y-110713095D01*
X195247121Y-110775407D01*
X195250000Y-110802190D01*
X195250000Y-114874000D01*
X195229998Y-114942121D01*
X195176342Y-114988614D01*
X195124000Y-115000000D01*
X189563000Y-115000000D01*
X189494879Y-114979998D01*
X189462200Y-114949600D01*
X188032350Y-113043133D01*
X188007479Y-112976635D01*
X188008864Y-112946819D01*
X188486601Y-110080395D01*
X188517530Y-110016489D01*
X188578821Y-109979258D01*
X193180013Y-108768418D01*
X193250981Y-108770425D01*
G37*
%TD.AperFunction*%
%TD*%
M02*
