M48
METRIC
T1C0.400
T2C0.650
T3C0.850
T4C1.100
T5C1.200
T6C1.270
T7C1.300
T8C1.500
T9C1.520
T10C2.000
T11C2.200
%
G90
G05
T1
X51.0Y-71.373
X51.0Y-75.0
X51.0Y-105.5
X51.5Y-69.25
X52.25Y-59.25
X52.25Y-84.25
X53.25Y-68.0
X53.7Y-107.0
X53.75Y-104.75
X55.25Y-60.5
X55.25Y-62.0
X55.25Y-68.0
X55.25Y-85.5
X55.25Y-87.0
X55.25Y-93.0
X55.385Y-72.224
X55.385Y-74.474
X57.25Y-54.75
X57.25Y-79.75
X57.25Y-96.0
X60.0Y-60.475
X60.0Y-61.975
X60.0Y-63.5
X60.0Y-66.75
X60.0Y-85.475
X60.0Y-86.975
X60.0Y-88.25
X60.0Y-91.75
X63.0Y-113.25
X67.028Y-57.1
X67.028Y-67.85
X67.03Y-82.095
X67.03Y-92.845
X67.828Y-57.1
X67.828Y-67.85
X67.83Y-82.095
X67.83Y-92.845
X68.25Y-98.05
X68.5Y-73.3
X68.627Y-57.1
X68.627Y-67.85
X68.63Y-82.095
X68.63Y-92.845
X69.3Y-60.75
X69.3Y-64.25
X69.3Y-85.75
X69.3Y-89.25
X69.725Y-69.612
X69.9Y-98.8
X70.127Y-64.25
X70.127Y-89.25
X70.15Y-60.75
X70.15Y-85.75
X70.5Y-115.2
X71.25Y-96.55
X71.275Y-69.525
X71.5Y-123.6
X71.862Y-74.474
X72.5Y-94.75
X72.5Y-104.5
X72.7Y-122.2
X73.25Y-78.0
X73.25Y-98.8
X74.278Y-64.005
X74.278Y-89.005
X75.0Y-56.0
X75.0Y-122.25
X75.036Y-75.0
X76.75Y-106.5
X76.775Y-96.125
X77.25Y-51.5
X77.25Y-52.5
X77.25Y-53.5
X77.25Y-54.5
X77.25Y-55.5
X77.25Y-56.5
X77.25Y-76.75
X77.25Y-77.75
X77.25Y-78.75
X77.25Y-79.75
X77.25Y-80.75
X77.25Y-81.75
X77.9Y-98.4
X78.0Y-117.25
X78.6Y-111.0
X78.9Y-95.6
X80.0Y-123.5
X82.95Y-92.5
X83.05Y-96.65
X83.1Y-98.6
X83.25Y-117.0
X83.5Y-108.75
X84.5Y-111.0
X84.75Y-51.5
X84.75Y-52.5
X84.75Y-53.5
X84.75Y-54.5
X84.75Y-55.5
X84.75Y-56.5
X84.75Y-76.75
X84.75Y-77.75
X84.75Y-78.75
X84.75Y-79.75
X84.75Y-80.75
X84.75Y-81.75
X85.5Y-122.0
X86.0Y-111.0
X87.0Y-108.75
X91.0Y-54.5
X91.75Y-109.5
X91.75Y-111.0
X91.75Y-116.0
X91.75Y-117.5
X92.25Y-70.75
X94.1Y-92.5
X95.25Y-103.5
X96.25Y-103.5
X96.5Y-122.75
X97.0Y-110.0
X97.25Y-115.75
X97.5Y-104.75
X99.0Y-102.5
X99.0Y-104.75
X100.637Y-102.862
X100.75Y-113.0
X101.5Y-85.0
X102.4Y-105.75
X103.75Y-110.0
X103.75Y-116.25
X104.0Y-120.299
X104.75Y-118.5
X104.8Y-106.6
X105.387Y-102.362
X106.75Y-108.75
X106.85Y-105.65
X107.25Y-61.5
X107.75Y-111.0
X112.5Y-94.75
X116.0Y-71.5
X117.0Y-115.0
X117.25Y-71.5
X117.95Y-117.0
X118.4Y-99.4
X118.5Y-71.5
X119.0Y-100.0
X119.095Y-114.705
X119.75Y-71.5
X120.25Y-82.0
X122.6Y-61.5
X122.9Y-117.7
X123.25Y-98.325
X124.0Y-121.25
X124.4Y-114.3
X124.4Y-117.7
X124.725Y-98.325
X125.3Y-116.8
X127.4Y-102.9
X130.2Y-97.6
X130.615Y-115.615
X130.655Y-118.155
X132.0Y-102.4
X133.385Y-115.615
X135.25Y-54.5
X135.4Y-101.8
X136.5Y-114.6
X139.5Y-83.0
X139.815Y-116.885
X141.5Y-118.25
X143.4Y-114.6
X144.6Y-101.525
X146.596Y-115.615
X146.645Y-118.155
X146.75Y-92.25
X148.0Y-102.4
X149.326Y-115.615
X150.8Y-98.7
X151.65Y-53.2
X153.5Y-78.0
X153.6Y-98.4
X153.75Y-87.75
X154.0Y-67.2
X156.25Y-98.0
X156.5Y-102.0
X157.25Y-122.0
X157.9Y-78.562
X158.095Y-100.805
X158.13Y-114.63
X160.5Y-67.3
X160.5Y-89.25
X161.0Y-115.325
X161.0Y-116.9
X161.9Y-117.8
X162.25Y-98.25
X163.25Y-102.0
X163.4Y-117.8
X163.75Y-98.25
X164.75Y-59.5
X164.75Y-81.75
X164.75Y-93.75
X166.75Y-114.0
X167.6Y-100.8
X168.5Y-86.8
X168.5Y-121.5
X168.75Y-94.25
X169.9Y-81.8
X170.25Y-95.75
X170.5Y-115.325
X170.5Y-116.9
X171.1Y-68.1
X171.4Y-117.8
X171.75Y-98.25
X172.75Y-102.0
X172.9Y-117.8
X173.25Y-60.75
X173.25Y-72.5
X173.25Y-97.25
X173.25Y-98.25
X174.5Y-122.75
X175.25Y-82.5
X175.4Y-68.1
X176.25Y-83.5
X176.72Y-86.22
X177.25Y-101.5
X177.25Y-102.9
X177.25Y-104.25
X178.5Y-51.5
X178.55Y-102.9
X178.55Y-104.25
X181.0Y-70.5
X181.0Y-80.75
X181.25Y-58.25
X181.75Y-94.5
X189.0Y-110.5
X189.0Y-111.5
X189.0Y-112.5
X189.0Y-113.5
X194.5Y-111.25
X194.5Y-112.25
X194.5Y-113.25
X194.5Y-114.25
T2
X89.4Y-112.25
X90.67Y-112.25
X108.7Y-112.92
X108.7Y-114.19
X108.7Y-115.46
X108.7Y-116.73
X108.7Y-118.0
X110.13Y-110.2
X111.4Y-110.2
T3
X184.25Y-64.75
X184.25Y-74.75
X186.0Y-86.5
X186.0Y-96.0
X196.0Y-86.5
X196.0Y-96.0
T4
X77.778Y-61.205
X77.778Y-63.745
X77.778Y-66.285
X77.778Y-86.205
X77.778Y-88.745
X77.778Y-91.285
X80.972Y-58.665
X80.972Y-61.205
X80.972Y-63.745
X80.972Y-83.665
X80.972Y-86.205
X80.972Y-88.745
T5
X128.0Y-57.5
X134.0Y-66.75
X134.0Y-89.25
X143.0Y-57.5
T6
X189.9Y-64.75
X189.9Y-74.75
X201.9Y-64.75
X201.9Y-74.75
T7
X167.0Y-55.0
X167.0Y-67.2
X167.0Y-77.972
X167.0Y-90.172
X173.0Y-53.0
X173.0Y-75.972
X179.0Y-55.0
X179.0Y-67.2
X179.0Y-77.972
X179.0Y-90.172
T8
X102.0Y-53.0
X102.0Y-71.5
X102.0Y-76.0
X102.0Y-94.5
X146.75Y-71.5
X162.55Y-71.5
T9
X63.17Y-121.0
X68.25Y-121.0
X201.25Y-86.0
X201.25Y-91.08
X201.25Y-96.16
X201.25Y-101.26
X201.25Y-106.34
T10
X181.75Y-112.25
X191.75Y-112.25
T11
X188.5Y-91.1
T0
M30
